%TF.GenerationSoftware,KiCad,Pcbnew,8.0.5*%
%TF.CreationDate,2025-12-23T13:38:43+05:30*%
%TF.ProjectId,I2C_MUX,4932435f-4d55-4582-9e6b-696361645f70,rev?*%
%TF.SameCoordinates,Original*%
%TF.FileFunction,Copper,L2,Bot*%
%TF.FilePolarity,Positive*%
%FSLAX46Y46*%
G04 Gerber Fmt 4.6, Leading zero omitted, Abs format (unit mm)*
G04 Created by KiCad (PCBNEW 8.0.5) date 2025-12-23 13:38:43*
%MOMM*%
%LPD*%
G01*
G04 APERTURE LIST*
G04 Aperture macros list*
%AMRoundRect*
0 Rectangle with rounded corners*
0 $1 Rounding radius*
0 $2 $3 $4 $5 $6 $7 $8 $9 X,Y pos of 4 corners*
0 Add a 4 corners polygon primitive as box body*
4,1,4,$2,$3,$4,$5,$6,$7,$8,$9,$2,$3,0*
0 Add four circle primitives for the rounded corners*
1,1,$1+$1,$2,$3*
1,1,$1+$1,$4,$5*
1,1,$1+$1,$6,$7*
1,1,$1+$1,$8,$9*
0 Add four rect primitives between the rounded corners*
20,1,$1+$1,$2,$3,$4,$5,0*
20,1,$1+$1,$4,$5,$6,$7,0*
20,1,$1+$1,$6,$7,$8,$9,0*
20,1,$1+$1,$8,$9,$2,$3,0*%
G04 Aperture macros list end*
%TA.AperFunction,ComponentPad*%
%ADD10RoundRect,0.250000X0.350000X0.625000X-0.350000X0.625000X-0.350000X-0.625000X0.350000X-0.625000X0*%
%TD*%
%TA.AperFunction,ComponentPad*%
%ADD11O,1.200000X1.750000*%
%TD*%
%TA.AperFunction,ComponentPad*%
%ADD12RoundRect,0.250000X0.625000X-0.350000X0.625000X0.350000X-0.625000X0.350000X-0.625000X-0.350000X0*%
%TD*%
%TA.AperFunction,ComponentPad*%
%ADD13O,1.750000X1.200000*%
%TD*%
%TA.AperFunction,ComponentPad*%
%ADD14R,1.508000X1.508000*%
%TD*%
%TA.AperFunction,ComponentPad*%
%ADD15C,1.508000*%
%TD*%
%TA.AperFunction,ViaPad*%
%ADD16C,0.600000*%
%TD*%
%TA.AperFunction,Conductor*%
%ADD17C,0.750000*%
%TD*%
%TA.AperFunction,Conductor*%
%ADD18C,0.200000*%
%TD*%
G04 APERTURE END LIST*
D10*
%TO.P,J1,1,Pin_1*%
%TO.N,/RST*%
X148670000Y-62390000D03*
D11*
%TO.P,J1,2,Pin_2*%
%TO.N,/SCL*%
X146670000Y-62390000D03*
%TO.P,J1,3,Pin_3*%
%TO.N,/SDA*%
X144670000Y-62390000D03*
%TO.P,J1,4,Pin_4*%
%TO.N,GND*%
X142670000Y-62390000D03*
%TO.P,J1,5,Pin_5*%
%TO.N,VCC*%
X140670000Y-62390000D03*
%TD*%
D12*
%TO.P,EN3,1,Pin_1*%
%TO.N,GND*%
X110630000Y-97050000D03*
D13*
%TO.P,EN3,2,Pin_2*%
%TO.N,/SCL2*%
X110630000Y-95050000D03*
%TO.P,EN3,3,Pin_3*%
%TO.N,/SDA2*%
X110630000Y-93050000D03*
%TO.P,EN3,4,Pin_4*%
%TO.N,VCC*%
X110630000Y-91050000D03*
%TO.P,EN3,5,Pin_5*%
%TO.N,/DIR3*%
X110630000Y-89050000D03*
%TD*%
D12*
%TO.P,IMU2,1,Pin_1*%
%TO.N,/SDA1*%
X116730000Y-78650000D03*
D13*
%TO.P,IMU2,2,Pin_2*%
%TO.N,/SCL1*%
X116730000Y-76650000D03*
%TO.P,IMU2,3,Pin_3*%
%TO.N,GND*%
X116730000Y-74650000D03*
%TO.P,IMU2,4,Pin_4*%
%TO.N,VCC*%
X116730000Y-72650000D03*
%TD*%
D12*
%TO.P,IMU5,1,Pin_1*%
%TO.N,/SDA4*%
X168720000Y-96050000D03*
D13*
%TO.P,IMU5,2,Pin_2*%
%TO.N,/SCL4*%
X168720000Y-94050000D03*
%TO.P,IMU5,3,Pin_3*%
%TO.N,GND*%
X168720000Y-92050000D03*
%TO.P,IMU5,4,Pin_4*%
%TO.N,VCC*%
X168720000Y-90050000D03*
%TD*%
D12*
%TO.P,EN7,1,Pin_1*%
%TO.N,GND*%
X174820000Y-79640000D03*
D13*
%TO.P,EN7,2,Pin_2*%
%TO.N,/SCL6*%
X174820000Y-77640000D03*
%TO.P,EN7,3,Pin_3*%
%TO.N,/SDA6*%
X174820000Y-75640000D03*
%TO.P,EN7,4,Pin_4*%
%TO.N,VCC*%
X174820000Y-73640000D03*
%TO.P,EN7,5,Pin_5*%
%TO.N,/DIR7*%
X174820000Y-71640000D03*
%TD*%
D12*
%TO.P,IMU3,1,Pin_1*%
%TO.N,/SDA2*%
X116730000Y-96050000D03*
D13*
%TO.P,IMU3,2,Pin_2*%
%TO.N,/SCL2*%
X116730000Y-94050000D03*
%TO.P,IMU3,3,Pin_3*%
%TO.N,GND*%
X116730000Y-92050000D03*
%TO.P,IMU3,4,Pin_4*%
%TO.N,VCC*%
X116730000Y-90050000D03*
%TD*%
D12*
%TO.P,EN8,1,Pin_1*%
%TO.N,GND*%
X161720000Y-79650000D03*
D13*
%TO.P,EN8,2,Pin_2*%
%TO.N,/SCL7*%
X161720000Y-77650000D03*
%TO.P,EN8,3,Pin_3*%
%TO.N,/SDA7*%
X161720000Y-75650000D03*
%TO.P,EN8,4,Pin_4*%
%TO.N,VCC*%
X161720000Y-73650000D03*
%TO.P,EN8,5,Pin_5*%
%TO.N,/DIR8*%
X161720000Y-71650000D03*
%TD*%
D12*
%TO.P,EN4,1,Pin_1*%
%TO.N,GND*%
X123730000Y-97050000D03*
D13*
%TO.P,EN4,2,Pin_2*%
%TO.N,/SCL3*%
X123730000Y-95050000D03*
%TO.P,EN4,3,Pin_3*%
%TO.N,/SDA3*%
X123730000Y-93050000D03*
%TO.P,EN4,4,Pin_4*%
%TO.N,VCC*%
X123730000Y-91050000D03*
%TO.P,EN4,5,Pin_5*%
%TO.N,/DIR4*%
X123730000Y-89050000D03*
%TD*%
D12*
%TO.P,IMU7,1,Pin_1*%
%TO.N,/SDA6*%
X168720000Y-78630000D03*
D13*
%TO.P,IMU7,2,Pin_2*%
%TO.N,/SCL6*%
X168720000Y-76630000D03*
%TO.P,IMU7,3,Pin_3*%
%TO.N,GND*%
X168720000Y-74630000D03*
%TO.P,IMU7,4,Pin_4*%
%TO.N,VCC*%
X168720000Y-72630000D03*
%TD*%
D12*
%TO.P,IMU6,1,Pin_1*%
%TO.N,/SDA5*%
X155620000Y-96050000D03*
D13*
%TO.P,IMU6,2,Pin_2*%
%TO.N,/SCL5*%
X155620000Y-94050000D03*
%TO.P,IMU6,3,Pin_3*%
%TO.N,GND*%
X155620000Y-92050000D03*
%TO.P,IMU6,4,Pin_4*%
%TO.N,VCC*%
X155620000Y-90050000D03*
%TD*%
D12*
%TO.P,EN6,1,Pin_1*%
%TO.N,GND*%
X161720000Y-97050000D03*
D13*
%TO.P,EN6,2,Pin_2*%
%TO.N,/SCL5*%
X161720000Y-95050000D03*
%TO.P,EN6,3,Pin_3*%
%TO.N,/SDA5*%
X161720000Y-93050000D03*
%TO.P,EN6,4,Pin_4*%
%TO.N,VCC*%
X161720000Y-91050000D03*
%TO.P,EN6,5,Pin_5*%
%TO.N,/DIR6*%
X161720000Y-89050000D03*
%TD*%
D12*
%TO.P,IMU8,1,Pin_1*%
%TO.N,/SDA7*%
X155620000Y-78650000D03*
D13*
%TO.P,IMU8,2,Pin_2*%
%TO.N,/SCL7*%
X155620000Y-76650000D03*
%TO.P,IMU8,3,Pin_3*%
%TO.N,GND*%
X155620000Y-74650000D03*
%TO.P,IMU8,4,Pin_4*%
%TO.N,VCC*%
X155620000Y-72650000D03*
%TD*%
D14*
%TO.P,U1,1,VIN*%
%TO.N,VCC*%
X135660000Y-70720000D03*
D15*
%TO.P,U1,2,GND*%
%TO.N,GND*%
X135660000Y-73260000D03*
%TO.P,U1,3,SDA*%
%TO.N,/SDA*%
X135660000Y-75800000D03*
%TO.P,U1,4,SCL*%
%TO.N,/SCL*%
X135660000Y-78340000D03*
%TO.P,U1,5,RST*%
%TO.N,/RST*%
X135660000Y-80880000D03*
%TO.P,U1,6,A0*%
%TO.N,Net-(JP1-B)*%
X135660000Y-83420000D03*
%TO.P,U1,7,A1*%
%TO.N,Net-(JP2-B)*%
X135660000Y-85960000D03*
%TO.P,U1,8,A2*%
%TO.N,Net-(JP3-B)*%
X135660000Y-88500000D03*
%TO.P,U1,9,SDA0*%
%TO.N,/SDA0*%
X135660000Y-91040000D03*
%TO.P,U1,10,SCL0*%
%TO.N,/SCL0*%
X135660000Y-93580000D03*
%TO.P,U1,11,SDA1*%
%TO.N,/SDA1*%
X135660000Y-96120000D03*
%TO.P,U1,12,SCL1*%
%TO.N,/SCL1*%
X135660000Y-98660000D03*
%TO.P,U1,13,SDA2*%
%TO.N,/SDA2*%
X150900000Y-98660000D03*
%TO.P,U1,14,SCL2*%
%TO.N,/SCL2*%
X150900000Y-96120000D03*
%TO.P,U1,15,SDA3*%
%TO.N,/SDA3*%
X150900000Y-93580000D03*
%TO.P,U1,16,SCL3*%
%TO.N,/SCL3*%
X150900000Y-91040000D03*
%TO.P,U1,17,SDA4*%
%TO.N,/SDA4*%
X150900000Y-88500000D03*
%TO.P,U1,18,SCL4*%
%TO.N,/SCL4*%
X150900000Y-85960000D03*
%TO.P,U1,19,SDA5*%
%TO.N,/SDA5*%
X150900000Y-83420000D03*
%TO.P,U1,20,SCL5*%
%TO.N,/SCL5*%
X150900000Y-80880000D03*
%TO.P,U1,21,SDA6*%
%TO.N,/SDA6*%
X150900000Y-78340000D03*
%TO.P,U1,22,SCL6*%
%TO.N,/SCL6*%
X150900000Y-75800000D03*
%TO.P,U1,23,SDA7*%
%TO.N,/SDA7*%
X150900000Y-73260000D03*
%TO.P,U1,24,SCL7*%
%TO.N,/SCL7*%
X150900000Y-70720000D03*
%TD*%
D12*
%TO.P,IMU4,1,Pin_1*%
%TO.N,/SDA3*%
X129830000Y-96050000D03*
D13*
%TO.P,IMU4,2,Pin_2*%
%TO.N,/SCL3*%
X129830000Y-94050000D03*
%TO.P,IMU4,3,Pin_3*%
%TO.N,GND*%
X129830000Y-92050000D03*
%TO.P,IMU4,4,Pin_4*%
%TO.N,VCC*%
X129830000Y-90050000D03*
%TD*%
D12*
%TO.P,EN1,1,Pin_1*%
%TO.N,GND*%
X123730000Y-79650000D03*
D13*
%TO.P,EN1,2,Pin_2*%
%TO.N,/SCL0*%
X123730000Y-77650000D03*
%TO.P,EN1,3,Pin_3*%
%TO.N,/SDA0*%
X123730000Y-75650000D03*
%TO.P,EN1,4,Pin_4*%
%TO.N,VCC*%
X123730000Y-73650000D03*
%TO.P,EN1,5,Pin_5*%
%TO.N,/DIR1*%
X123730000Y-71650000D03*
%TD*%
D12*
%TO.P,EN2,1,Pin_1*%
%TO.N,GND*%
X110630000Y-79650000D03*
D13*
%TO.P,EN2,2,Pin_2*%
%TO.N,/SCL1*%
X110630000Y-77650000D03*
%TO.P,EN2,3,Pin_3*%
%TO.N,/SDA1*%
X110630000Y-75650000D03*
%TO.P,EN2,4,Pin_4*%
%TO.N,VCC*%
X110630000Y-73650000D03*
%TO.P,EN2,5,Pin_5*%
%TO.N,/DIR2*%
X110630000Y-71650000D03*
%TD*%
D12*
%TO.P,EN5,1,Pin_1*%
%TO.N,GND*%
X174820000Y-97050000D03*
D13*
%TO.P,EN5,2,Pin_2*%
%TO.N,/SCL4*%
X174820000Y-95050000D03*
%TO.P,EN5,3,Pin_3*%
%TO.N,/SDA4*%
X174820000Y-93050000D03*
%TO.P,EN5,4,Pin_4*%
%TO.N,VCC*%
X174820000Y-91050000D03*
%TO.P,EN5,5,Pin_5*%
%TO.N,/DIR5*%
X174820000Y-89050000D03*
%TD*%
D12*
%TO.P,IMU1,1,Pin_1*%
%TO.N,/SDA0*%
X129830000Y-78650000D03*
D13*
%TO.P,IMU1,2,Pin_2*%
%TO.N,/SCL0*%
X129830000Y-76650000D03*
%TO.P,IMU1,3,Pin_3*%
%TO.N,GND*%
X129830000Y-74650000D03*
%TO.P,IMU1,4,Pin_4*%
%TO.N,VCC*%
X129830000Y-72650000D03*
%TD*%
D16*
%TO.N,GND*%
X159410000Y-84840000D03*
X159200000Y-67480000D03*
X121570000Y-67520000D03*
X121290000Y-84770000D03*
X172510000Y-67430000D03*
X108390000Y-67500000D03*
%TD*%
D17*
%TO.N,VCC*%
X153390000Y-72650000D02*
X152820000Y-73220000D01*
X152820000Y-73220000D02*
X152820000Y-87250000D01*
X155620000Y-72650000D02*
X153390000Y-72650000D01*
X152820000Y-87250000D02*
X155620000Y-90050000D01*
X133450000Y-86430000D02*
X129830000Y-90050000D01*
X133450000Y-74800000D02*
X133450000Y-86430000D01*
X129830000Y-72650000D02*
X131300000Y-72650000D01*
X131300000Y-72650000D02*
X133450000Y-74800000D01*
D18*
%TO.N,GND*%
X155620000Y-92050000D02*
X168720000Y-92050000D01*
X161720000Y-97050000D02*
X174820000Y-97050000D01*
%TO.N,/SDA0*%
X126830000Y-75650000D02*
X129830000Y-78650000D01*
X123730000Y-75650000D02*
X126830000Y-75650000D01*
%TO.N,/SDA1*%
X110630000Y-75650000D02*
X113730000Y-75650000D01*
X113730000Y-75650000D02*
X116730000Y-78650000D01*
%TO.N,/SDA2*%
X113730000Y-93050000D02*
X116730000Y-96050000D01*
X110630000Y-93050000D02*
X113730000Y-93050000D01*
%TO.N,/SDA3*%
X126830000Y-93490000D02*
X129830000Y-96490000D01*
X123730000Y-93490000D02*
X126830000Y-93490000D01*
%TO.N,/SDA4*%
X168720000Y-96050000D02*
X171820000Y-96050000D01*
X171820000Y-96050000D02*
X174820000Y-93050000D01*
%TO.N,/SDA5*%
X158720000Y-96050000D02*
X161720000Y-93050000D01*
X155620000Y-96050000D02*
X158720000Y-96050000D01*
%TO.N,/SDA6*%
X171830000Y-78630000D02*
X174820000Y-75640000D01*
X168720000Y-78630000D02*
X171830000Y-78630000D01*
%TO.N,/SDA7*%
X158620000Y-75650000D02*
X155620000Y-78650000D01*
X161720000Y-75650000D02*
X158620000Y-75650000D01*
%TO.N,/SCL*%
X146635000Y-62230000D02*
X146635000Y-62235000D01*
X138950000Y-75050000D02*
X135660000Y-78340000D01*
X146670000Y-62390000D02*
X146670000Y-63600000D01*
X138950000Y-71320000D02*
X138950000Y-75050000D01*
X146670000Y-63600000D02*
X138950000Y-71320000D01*
%TO.N,/RST*%
X137382476Y-80880000D02*
X135660000Y-80880000D01*
X148670000Y-62390000D02*
X148540000Y-62520000D01*
X148540000Y-62520000D02*
X148540000Y-69722476D01*
X148540000Y-69722476D02*
X137382476Y-80880000D01*
%TO.N,/SDA*%
X138550000Y-70180000D02*
X138550000Y-72910000D01*
X144670000Y-62390000D02*
X144670000Y-64060000D01*
X138550000Y-72910000D02*
X135660000Y-75800000D01*
X144670000Y-64060000D02*
X138550000Y-70180000D01*
%TD*%
%TA.AperFunction,Conductor*%
%TO.N,GND*%
G36*
X179572539Y-58710185D02*
G01*
X179618294Y-58762989D01*
X179629500Y-58814500D01*
X179629500Y-101065500D01*
X179609815Y-101132539D01*
X179557011Y-101178294D01*
X179505500Y-101189500D01*
X107234500Y-101189500D01*
X107167461Y-101169815D01*
X107121706Y-101117011D01*
X107110500Y-101065500D01*
X107110500Y-88963389D01*
X109254500Y-88963389D01*
X109254500Y-89136611D01*
X109281598Y-89307701D01*
X109335127Y-89472445D01*
X109413768Y-89626788D01*
X109515586Y-89766928D01*
X109638072Y-89889414D01*
X109655257Y-89901899D01*
X109721023Y-89949683D01*
X109763689Y-90005013D01*
X109769667Y-90074626D01*
X109737061Y-90136421D01*
X109721023Y-90150317D01*
X109638078Y-90210581D01*
X109638069Y-90210588D01*
X109515588Y-90333069D01*
X109515588Y-90333070D01*
X109515586Y-90333072D01*
X109471859Y-90393256D01*
X109413768Y-90473211D01*
X109335128Y-90627552D01*
X109281597Y-90792302D01*
X109254500Y-90963389D01*
X109254500Y-91136610D01*
X109266276Y-91210965D01*
X109281598Y-91307701D01*
X109335127Y-91472445D01*
X109413768Y-91626788D01*
X109515586Y-91766928D01*
X109638072Y-91889414D01*
X109638078Y-91889418D01*
X109721023Y-91949683D01*
X109763689Y-92005013D01*
X109769667Y-92074626D01*
X109737061Y-92136421D01*
X109721023Y-92150317D01*
X109638078Y-92210581D01*
X109638069Y-92210588D01*
X109515588Y-92333069D01*
X109515588Y-92333070D01*
X109515586Y-92333072D01*
X109503233Y-92350075D01*
X109413768Y-92473211D01*
X109335128Y-92627552D01*
X109281597Y-92792302D01*
X109254500Y-92963389D01*
X109254500Y-93136610D01*
X109281597Y-93307697D01*
X109281597Y-93307699D01*
X109281598Y-93307701D01*
X109335127Y-93472445D01*
X109413768Y-93626788D01*
X109515586Y-93766928D01*
X109638072Y-93889414D01*
X109638078Y-93889418D01*
X109721023Y-93949683D01*
X109763689Y-94005013D01*
X109769667Y-94074626D01*
X109737061Y-94136421D01*
X109721023Y-94150317D01*
X109638078Y-94210581D01*
X109638069Y-94210588D01*
X109515588Y-94333069D01*
X109515588Y-94333070D01*
X109515586Y-94333072D01*
X109474623Y-94389452D01*
X109413768Y-94473211D01*
X109335128Y-94627552D01*
X109281597Y-94792302D01*
X109257131Y-94946777D01*
X109254500Y-94963389D01*
X109254500Y-95136611D01*
X109281598Y-95307701D01*
X109335127Y-95472445D01*
X109413768Y-95626788D01*
X109515586Y-95766928D01*
X109515588Y-95766930D01*
X109623491Y-95874833D01*
X109656976Y-95936156D01*
X109651992Y-96005848D01*
X109610120Y-96061781D01*
X109600907Y-96068053D01*
X109536654Y-96107684D01*
X109412684Y-96231654D01*
X109320643Y-96380875D01*
X109320641Y-96380880D01*
X109265494Y-96547302D01*
X109265493Y-96547309D01*
X109255000Y-96650013D01*
X109255000Y-96800000D01*
X110349670Y-96800000D01*
X110329925Y-96819745D01*
X110280556Y-96905255D01*
X110255000Y-97000630D01*
X110255000Y-97099370D01*
X110280556Y-97194745D01*
X110329925Y-97280255D01*
X110349670Y-97300000D01*
X109255001Y-97300000D01*
X109255001Y-97449986D01*
X109265494Y-97552697D01*
X109320641Y-97719119D01*
X109320643Y-97719124D01*
X109412684Y-97868345D01*
X109536654Y-97992315D01*
X109685875Y-98084356D01*
X109685880Y-98084358D01*
X109852302Y-98139505D01*
X109852309Y-98139506D01*
X109955019Y-98149999D01*
X110379999Y-98149999D01*
X110380000Y-98149998D01*
X110380000Y-97330330D01*
X110399745Y-97350075D01*
X110485255Y-97399444D01*
X110580630Y-97425000D01*
X110679370Y-97425000D01*
X110774745Y-97399444D01*
X110860255Y-97350075D01*
X110880000Y-97330330D01*
X110880000Y-98149999D01*
X111304972Y-98149999D01*
X111304986Y-98149998D01*
X111407697Y-98139505D01*
X111574119Y-98084358D01*
X111574124Y-98084356D01*
X111723345Y-97992315D01*
X111847315Y-97868345D01*
X111939356Y-97719124D01*
X111939358Y-97719119D01*
X111994505Y-97552697D01*
X111994506Y-97552690D01*
X112004999Y-97449986D01*
X112005000Y-97449973D01*
X112005000Y-97300000D01*
X110910330Y-97300000D01*
X110930075Y-97280255D01*
X110979444Y-97194745D01*
X111005000Y-97099370D01*
X111005000Y-97000630D01*
X110979444Y-96905255D01*
X110930075Y-96819745D01*
X110910330Y-96800000D01*
X112004999Y-96800000D01*
X112004999Y-96650028D01*
X112004998Y-96650013D01*
X111994505Y-96547302D01*
X111939358Y-96380880D01*
X111939356Y-96380875D01*
X111847315Y-96231654D01*
X111723343Y-96107682D01*
X111659093Y-96068053D01*
X111612368Y-96016105D01*
X111601145Y-95947143D01*
X111628988Y-95883061D01*
X111636486Y-95874855D01*
X111744414Y-95766928D01*
X111846232Y-95626788D01*
X111924873Y-95472445D01*
X111978402Y-95307701D01*
X112005500Y-95136611D01*
X112005500Y-94963389D01*
X111978402Y-94792299D01*
X111924873Y-94627555D01*
X111846232Y-94473212D01*
X111744414Y-94333072D01*
X111621928Y-94210586D01*
X111538975Y-94150317D01*
X111496311Y-94094988D01*
X111490332Y-94025374D01*
X111522938Y-93963579D01*
X111538976Y-93949682D01*
X111621928Y-93889414D01*
X111744414Y-93766928D01*
X111791868Y-93701613D01*
X111847197Y-93658949D01*
X111892185Y-93650500D01*
X113429903Y-93650500D01*
X113496942Y-93670185D01*
X113517584Y-93686819D01*
X115324537Y-95493772D01*
X115358022Y-95555095D01*
X115360214Y-95594055D01*
X115354500Y-95649981D01*
X115354500Y-96450001D01*
X115354501Y-96450019D01*
X115365000Y-96552796D01*
X115365001Y-96552799D01*
X115420185Y-96719331D01*
X115420187Y-96719336D01*
X115455069Y-96775888D01*
X115512288Y-96868656D01*
X115636344Y-96992712D01*
X115785666Y-97084814D01*
X115952203Y-97139999D01*
X116054991Y-97150500D01*
X117405008Y-97150499D01*
X117507797Y-97139999D01*
X117674334Y-97084814D01*
X117823656Y-96992712D01*
X117947712Y-96868656D01*
X118039814Y-96719334D01*
X118094999Y-96552797D01*
X118105500Y-96450009D01*
X118105499Y-95649992D01*
X118094999Y-95547203D01*
X118039814Y-95380666D01*
X117947712Y-95231344D01*
X117823656Y-95107288D01*
X117823652Y-95107285D01*
X117759456Y-95067688D01*
X117712731Y-95015740D01*
X117701510Y-94946777D01*
X117729353Y-94882695D01*
X117736850Y-94874491D01*
X117844414Y-94766928D01*
X117946232Y-94626788D01*
X118024873Y-94472445D01*
X118078402Y-94307701D01*
X118105500Y-94136611D01*
X118105500Y-93963389D01*
X118078402Y-93792299D01*
X118024873Y-93627555D01*
X117946232Y-93473212D01*
X117844414Y-93333072D01*
X117721928Y-93210586D01*
X117638550Y-93150008D01*
X117595885Y-93094677D01*
X117589906Y-93025064D01*
X117622512Y-92963269D01*
X117638552Y-92949371D01*
X117721598Y-92889036D01*
X117844032Y-92766602D01*
X117945804Y-92626524D01*
X118024408Y-92472255D01*
X118077914Y-92307584D01*
X118079115Y-92300000D01*
X117010330Y-92300000D01*
X117030075Y-92280255D01*
X117079444Y-92194745D01*
X117105000Y-92099370D01*
X117105000Y-92000630D01*
X117079444Y-91905255D01*
X117030075Y-91819745D01*
X117010330Y-91800000D01*
X118079115Y-91800000D01*
X118079115Y-91799999D01*
X118077914Y-91792415D01*
X118024408Y-91627744D01*
X117945804Y-91473475D01*
X117844032Y-91333397D01*
X117721602Y-91210967D01*
X117638551Y-91150628D01*
X117595885Y-91095298D01*
X117589906Y-91025685D01*
X117622511Y-90963889D01*
X117638551Y-90949991D01*
X117721928Y-90889414D01*
X117844414Y-90766928D01*
X117946232Y-90626788D01*
X118024873Y-90472445D01*
X118078402Y-90307701D01*
X118105500Y-90136611D01*
X118105500Y-89963389D01*
X118078402Y-89792299D01*
X118024873Y-89627555D01*
X117946232Y-89473212D01*
X117844414Y-89333072D01*
X117721928Y-89210586D01*
X117581788Y-89108768D01*
X117427445Y-89030127D01*
X117262701Y-88976598D01*
X117262699Y-88976597D01*
X117262698Y-88976597D01*
X117131271Y-88955781D01*
X117091611Y-88949500D01*
X116368389Y-88949500D01*
X116328728Y-88955781D01*
X116197302Y-88976597D01*
X116032552Y-89030128D01*
X115878211Y-89108768D01*
X115798256Y-89166859D01*
X115738072Y-89210586D01*
X115738070Y-89210588D01*
X115738069Y-89210588D01*
X115615588Y-89333069D01*
X115615588Y-89333070D01*
X115615586Y-89333072D01*
X115571859Y-89393256D01*
X115513768Y-89473211D01*
X115435128Y-89627552D01*
X115381597Y-89792302D01*
X115367330Y-89882382D01*
X115354500Y-89963389D01*
X115354500Y-90136611D01*
X115381598Y-90307701D01*
X115435127Y-90472445D01*
X115513768Y-90626788D01*
X115615586Y-90766928D01*
X115738072Y-90889414D01*
X115821449Y-90949991D01*
X115864114Y-91005322D01*
X115870093Y-91074935D01*
X115837487Y-91136730D01*
X115821448Y-91150627D01*
X115738404Y-91210961D01*
X115738399Y-91210965D01*
X115615967Y-91333397D01*
X115514195Y-91473475D01*
X115435591Y-91627744D01*
X115382085Y-91792415D01*
X115380884Y-91799999D01*
X115380885Y-91800000D01*
X116449670Y-91800000D01*
X116429925Y-91819745D01*
X116380556Y-91905255D01*
X116355000Y-92000630D01*
X116355000Y-92099370D01*
X116380556Y-92194745D01*
X116429925Y-92280255D01*
X116449670Y-92300000D01*
X115380885Y-92300000D01*
X115382085Y-92307584D01*
X115435591Y-92472255D01*
X115514195Y-92626524D01*
X115615967Y-92766602D01*
X115738401Y-92889036D01*
X115821447Y-92949371D01*
X115864114Y-93004701D01*
X115870093Y-93074314D01*
X115837488Y-93136109D01*
X115821450Y-93150007D01*
X115738072Y-93210585D01*
X115615588Y-93333069D01*
X115615588Y-93333070D01*
X115615586Y-93333072D01*
X115595060Y-93361324D01*
X115513768Y-93473211D01*
X115435128Y-93627552D01*
X115429395Y-93645194D01*
X115389954Y-93702867D01*
X115325594Y-93730062D01*
X115256749Y-93718143D01*
X115223785Y-93694550D01*
X114217590Y-92688355D01*
X114217588Y-92688352D01*
X114098717Y-92569481D01*
X114098716Y-92569480D01*
X114011904Y-92519360D01*
X114011904Y-92519359D01*
X114011900Y-92519358D01*
X113961785Y-92490423D01*
X113809057Y-92449499D01*
X113650943Y-92449499D01*
X113643347Y-92449499D01*
X113643331Y-92449500D01*
X111892185Y-92449500D01*
X111825146Y-92429815D01*
X111791867Y-92398386D01*
X111790608Y-92396653D01*
X111744414Y-92333072D01*
X111621928Y-92210586D01*
X111538975Y-92150317D01*
X111496311Y-92094988D01*
X111490332Y-92025374D01*
X111522938Y-91963579D01*
X111538976Y-91949682D01*
X111621928Y-91889414D01*
X111744414Y-91766928D01*
X111846232Y-91626788D01*
X111924873Y-91472445D01*
X111978402Y-91307701D01*
X112005500Y-91136611D01*
X112005500Y-90963389D01*
X111978402Y-90792299D01*
X111924873Y-90627555D01*
X111846232Y-90473212D01*
X111744414Y-90333072D01*
X111621928Y-90210586D01*
X111538975Y-90150317D01*
X111496311Y-90094988D01*
X111490332Y-90025374D01*
X111522938Y-89963579D01*
X111538976Y-89949682D01*
X111621928Y-89889414D01*
X111744414Y-89766928D01*
X111846232Y-89626788D01*
X111924873Y-89472445D01*
X111978402Y-89307701D01*
X112005500Y-89136611D01*
X112005500Y-88963389D01*
X111978402Y-88792299D01*
X111924873Y-88627555D01*
X111846232Y-88473212D01*
X111744414Y-88333072D01*
X111621928Y-88210586D01*
X111481788Y-88108768D01*
X111327445Y-88030127D01*
X111162701Y-87976598D01*
X111162699Y-87976597D01*
X111162698Y-87976597D01*
X111022927Y-87954460D01*
X110991611Y-87949500D01*
X110268389Y-87949500D01*
X110237073Y-87954460D01*
X110097302Y-87976597D01*
X109932552Y-88030128D01*
X109778211Y-88108768D01*
X109698256Y-88166859D01*
X109638072Y-88210586D01*
X109638070Y-88210588D01*
X109638069Y-88210588D01*
X109515588Y-88333069D01*
X109515588Y-88333070D01*
X109515586Y-88333072D01*
X109471859Y-88393256D01*
X109413768Y-88473211D01*
X109335128Y-88627552D01*
X109281597Y-88792302D01*
X109259677Y-88930703D01*
X109254500Y-88963389D01*
X107110500Y-88963389D01*
X107110500Y-71563389D01*
X109254500Y-71563389D01*
X109254500Y-71736610D01*
X109280013Y-71897697D01*
X109281598Y-71907701D01*
X109335127Y-72072445D01*
X109413768Y-72226788D01*
X109515586Y-72366928D01*
X109638072Y-72489414D01*
X109638078Y-72489418D01*
X109721023Y-72549683D01*
X109763689Y-72605013D01*
X109769667Y-72674626D01*
X109737061Y-72736421D01*
X109721023Y-72750317D01*
X109638078Y-72810581D01*
X109638069Y-72810588D01*
X109515588Y-72933069D01*
X109515588Y-72933070D01*
X109515586Y-72933072D01*
X109471859Y-72993256D01*
X109413768Y-73073211D01*
X109335128Y-73227552D01*
X109281597Y-73392302D01*
X109260501Y-73525500D01*
X109254500Y-73563389D01*
X109254500Y-73736611D01*
X109262677Y-73788239D01*
X109280013Y-73897697D01*
X109281598Y-73907701D01*
X109335127Y-74072445D01*
X109413768Y-74226788D01*
X109515586Y-74366928D01*
X109638072Y-74489414D01*
X109638078Y-74489418D01*
X109721023Y-74549683D01*
X109763689Y-74605013D01*
X109769667Y-74674626D01*
X109737061Y-74736421D01*
X109721023Y-74750317D01*
X109638078Y-74810581D01*
X109638069Y-74810588D01*
X109515588Y-74933069D01*
X109515588Y-74933070D01*
X109515586Y-74933072D01*
X109503233Y-74950075D01*
X109413768Y-75073211D01*
X109335128Y-75227552D01*
X109281597Y-75392302D01*
X109254500Y-75563389D01*
X109254500Y-75736610D01*
X109280013Y-75897698D01*
X109281598Y-75907701D01*
X109335127Y-76072445D01*
X109413768Y-76226788D01*
X109515586Y-76366928D01*
X109638072Y-76489414D01*
X109638078Y-76489418D01*
X109721023Y-76549683D01*
X109763689Y-76605013D01*
X109769667Y-76674626D01*
X109737061Y-76736421D01*
X109721023Y-76750317D01*
X109638078Y-76810581D01*
X109638069Y-76810588D01*
X109515588Y-76933069D01*
X109515588Y-76933070D01*
X109515586Y-76933072D01*
X109479059Y-76983347D01*
X109413768Y-77073211D01*
X109335128Y-77227552D01*
X109281597Y-77392302D01*
X109254500Y-77563389D01*
X109254500Y-77736610D01*
X109280013Y-77897697D01*
X109281598Y-77907701D01*
X109335127Y-78072445D01*
X109413768Y-78226788D01*
X109515586Y-78366928D01*
X109515588Y-78366930D01*
X109623491Y-78474833D01*
X109656976Y-78536156D01*
X109651992Y-78605848D01*
X109610120Y-78661781D01*
X109600907Y-78668053D01*
X109536654Y-78707684D01*
X109412684Y-78831654D01*
X109320643Y-78980875D01*
X109320641Y-78980880D01*
X109265494Y-79147302D01*
X109265493Y-79147309D01*
X109255000Y-79250013D01*
X109255000Y-79400000D01*
X110349670Y-79400000D01*
X110329925Y-79419745D01*
X110280556Y-79505255D01*
X110255000Y-79600630D01*
X110255000Y-79699370D01*
X110280556Y-79794745D01*
X110329925Y-79880255D01*
X110349670Y-79900000D01*
X109255001Y-79900000D01*
X109255001Y-80049986D01*
X109265494Y-80152697D01*
X109320641Y-80319119D01*
X109320643Y-80319124D01*
X109412684Y-80468345D01*
X109536654Y-80592315D01*
X109685875Y-80684356D01*
X109685880Y-80684358D01*
X109852302Y-80739505D01*
X109852309Y-80739506D01*
X109955019Y-80749999D01*
X110379999Y-80749999D01*
X110380000Y-80749998D01*
X110380000Y-79930330D01*
X110399745Y-79950075D01*
X110485255Y-79999444D01*
X110580630Y-80025000D01*
X110679370Y-80025000D01*
X110774745Y-79999444D01*
X110860255Y-79950075D01*
X110880000Y-79930330D01*
X110880000Y-80749999D01*
X111304972Y-80749999D01*
X111304986Y-80749998D01*
X111407697Y-80739505D01*
X111574119Y-80684358D01*
X111574124Y-80684356D01*
X111723345Y-80592315D01*
X111847315Y-80468345D01*
X111939356Y-80319124D01*
X111939358Y-80319119D01*
X111994505Y-80152697D01*
X111994506Y-80152690D01*
X112004999Y-80049986D01*
X112005000Y-80049973D01*
X112005000Y-79900000D01*
X110910330Y-79900000D01*
X110930075Y-79880255D01*
X110979444Y-79794745D01*
X111005000Y-79699370D01*
X111005000Y-79600630D01*
X110979444Y-79505255D01*
X110930075Y-79419745D01*
X110910330Y-79400000D01*
X112004999Y-79400000D01*
X112004999Y-79250028D01*
X112004998Y-79250013D01*
X111994505Y-79147302D01*
X111939358Y-78980880D01*
X111939356Y-78980875D01*
X111847315Y-78831654D01*
X111723343Y-78707682D01*
X111659093Y-78668053D01*
X111612368Y-78616105D01*
X111601145Y-78547143D01*
X111628988Y-78483061D01*
X111636486Y-78474855D01*
X111744414Y-78366928D01*
X111846232Y-78226788D01*
X111924873Y-78072445D01*
X111978402Y-77907701D01*
X112005500Y-77736611D01*
X112005500Y-77563389D01*
X111978402Y-77392299D01*
X111924873Y-77227555D01*
X111846232Y-77073212D01*
X111744414Y-76933072D01*
X111621928Y-76810586D01*
X111538975Y-76750317D01*
X111496311Y-76694988D01*
X111490332Y-76625374D01*
X111522938Y-76563579D01*
X111538976Y-76549682D01*
X111621928Y-76489414D01*
X111744414Y-76366928D01*
X111791868Y-76301613D01*
X111847197Y-76258949D01*
X111892185Y-76250500D01*
X113429903Y-76250500D01*
X113496942Y-76270185D01*
X113517584Y-76286819D01*
X115324537Y-78093772D01*
X115358022Y-78155095D01*
X115360214Y-78194055D01*
X115354500Y-78249981D01*
X115354500Y-79050001D01*
X115354501Y-79050019D01*
X115362958Y-79132796D01*
X115364440Y-79147309D01*
X115365001Y-79152795D01*
X115365001Y-79152797D01*
X115420185Y-79319331D01*
X115420187Y-79319336D01*
X115450816Y-79368993D01*
X115512288Y-79468656D01*
X115636344Y-79592712D01*
X115785666Y-79684814D01*
X115952203Y-79739999D01*
X116054991Y-79750500D01*
X117405008Y-79750499D01*
X117507797Y-79739999D01*
X117674334Y-79684814D01*
X117823656Y-79592712D01*
X117947712Y-79468656D01*
X118039814Y-79319334D01*
X118094999Y-79152797D01*
X118105500Y-79050009D01*
X118105499Y-78249992D01*
X118094999Y-78147203D01*
X118039814Y-77980666D01*
X117947712Y-77831344D01*
X117823656Y-77707288D01*
X117823652Y-77707285D01*
X117759456Y-77667688D01*
X117712731Y-77615740D01*
X117701510Y-77546777D01*
X117729353Y-77482695D01*
X117736850Y-77474491D01*
X117844414Y-77366928D01*
X117946232Y-77226788D01*
X118024873Y-77072445D01*
X118078402Y-76907701D01*
X118105500Y-76736611D01*
X118105500Y-76563389D01*
X118078402Y-76392299D01*
X118024873Y-76227555D01*
X117946232Y-76073212D01*
X117844414Y-75933072D01*
X117721928Y-75810586D01*
X117638550Y-75750008D01*
X117595885Y-75694677D01*
X117589906Y-75625064D01*
X117622512Y-75563269D01*
X117638552Y-75549371D01*
X117721598Y-75489036D01*
X117844032Y-75366602D01*
X117945804Y-75226524D01*
X118024408Y-75072255D01*
X118077914Y-74907584D01*
X118079115Y-74900000D01*
X117010330Y-74900000D01*
X117030075Y-74880255D01*
X117079444Y-74794745D01*
X117105000Y-74699370D01*
X117105000Y-74600630D01*
X117079444Y-74505255D01*
X117030075Y-74419745D01*
X117010330Y-74400000D01*
X118079115Y-74400000D01*
X118079115Y-74399999D01*
X118077914Y-74392415D01*
X118024408Y-74227744D01*
X117945804Y-74073475D01*
X117844032Y-73933397D01*
X117721602Y-73810967D01*
X117638551Y-73750628D01*
X117595885Y-73695298D01*
X117589906Y-73625685D01*
X117622511Y-73563889D01*
X117638551Y-73549991D01*
X117638616Y-73549944D01*
X117721928Y-73489414D01*
X117844414Y-73366928D01*
X117946232Y-73226788D01*
X118024873Y-73072445D01*
X118078402Y-72907701D01*
X118105500Y-72736611D01*
X118105500Y-72563389D01*
X118078402Y-72392299D01*
X118024873Y-72227555D01*
X117946232Y-72073212D01*
X117844414Y-71933072D01*
X117721928Y-71810586D01*
X117581788Y-71708768D01*
X117427445Y-71630127D01*
X117262701Y-71576598D01*
X117262699Y-71576597D01*
X117262698Y-71576597D01*
X117179304Y-71563389D01*
X122354500Y-71563389D01*
X122354500Y-71736610D01*
X122380013Y-71897697D01*
X122381598Y-71907701D01*
X122435127Y-72072445D01*
X122513768Y-72226788D01*
X122615586Y-72366928D01*
X122738072Y-72489414D01*
X122738078Y-72489418D01*
X122821023Y-72549683D01*
X122863689Y-72605013D01*
X122869667Y-72674626D01*
X122837061Y-72736421D01*
X122821023Y-72750317D01*
X122738078Y-72810581D01*
X122738069Y-72810588D01*
X122615588Y-72933069D01*
X122615588Y-72933070D01*
X122615586Y-72933072D01*
X122571859Y-72993256D01*
X122513768Y-73073211D01*
X122435128Y-73227552D01*
X122381597Y-73392302D01*
X122360501Y-73525500D01*
X122354500Y-73563389D01*
X122354500Y-73736611D01*
X122362677Y-73788239D01*
X122380013Y-73897697D01*
X122381598Y-73907701D01*
X122435127Y-74072445D01*
X122513768Y-74226788D01*
X122615586Y-74366928D01*
X122738072Y-74489414D01*
X122738078Y-74489418D01*
X122821023Y-74549683D01*
X122863689Y-74605013D01*
X122869667Y-74674626D01*
X122837061Y-74736421D01*
X122821023Y-74750317D01*
X122738078Y-74810581D01*
X122738069Y-74810588D01*
X122615588Y-74933069D01*
X122615588Y-74933070D01*
X122615586Y-74933072D01*
X122603233Y-74950075D01*
X122513768Y-75073211D01*
X122435128Y-75227552D01*
X122381597Y-75392302D01*
X122354500Y-75563389D01*
X122354500Y-75736610D01*
X122380013Y-75897698D01*
X122381598Y-75907701D01*
X122435127Y-76072445D01*
X122513768Y-76226788D01*
X122615586Y-76366928D01*
X122738072Y-76489414D01*
X122738078Y-76489418D01*
X122821023Y-76549683D01*
X122863689Y-76605013D01*
X122869667Y-76674626D01*
X122837061Y-76736421D01*
X122821023Y-76750317D01*
X122738078Y-76810581D01*
X122738069Y-76810588D01*
X122615588Y-76933069D01*
X122615588Y-76933070D01*
X122615586Y-76933072D01*
X122579059Y-76983347D01*
X122513768Y-77073211D01*
X122435128Y-77227552D01*
X122381597Y-77392302D01*
X122354500Y-77563389D01*
X122354500Y-77736610D01*
X122380013Y-77897697D01*
X122381598Y-77907701D01*
X122435127Y-78072445D01*
X122513768Y-78226788D01*
X122615586Y-78366928D01*
X122615588Y-78366930D01*
X122723491Y-78474833D01*
X122756976Y-78536156D01*
X122751992Y-78605848D01*
X122710120Y-78661781D01*
X122700907Y-78668053D01*
X122636654Y-78707684D01*
X122512684Y-78831654D01*
X122420643Y-78980875D01*
X122420641Y-78980880D01*
X122365494Y-79147302D01*
X122365493Y-79147309D01*
X122355000Y-79250013D01*
X122355000Y-79400000D01*
X123449670Y-79400000D01*
X123429925Y-79419745D01*
X123380556Y-79505255D01*
X123355000Y-79600630D01*
X123355000Y-79699370D01*
X123380556Y-79794745D01*
X123429925Y-79880255D01*
X123449670Y-79900000D01*
X122355001Y-79900000D01*
X122355001Y-80049986D01*
X122365494Y-80152697D01*
X122420641Y-80319119D01*
X122420643Y-80319124D01*
X122512684Y-80468345D01*
X122636654Y-80592315D01*
X122785875Y-80684356D01*
X122785880Y-80684358D01*
X122952302Y-80739505D01*
X122952309Y-80739506D01*
X123055019Y-80749999D01*
X123479999Y-80749999D01*
X123480000Y-80749998D01*
X123480000Y-79930330D01*
X123499745Y-79950075D01*
X123585255Y-79999444D01*
X123680630Y-80025000D01*
X123779370Y-80025000D01*
X123874745Y-79999444D01*
X123960255Y-79950075D01*
X123980000Y-79930330D01*
X123980000Y-80749999D01*
X124404972Y-80749999D01*
X124404986Y-80749998D01*
X124507697Y-80739505D01*
X124674119Y-80684358D01*
X124674124Y-80684356D01*
X124823345Y-80592315D01*
X124947315Y-80468345D01*
X125039356Y-80319124D01*
X125039358Y-80319119D01*
X125094505Y-80152697D01*
X125094506Y-80152690D01*
X125104999Y-80049986D01*
X125105000Y-80049973D01*
X125105000Y-79900000D01*
X124010330Y-79900000D01*
X124030075Y-79880255D01*
X124079444Y-79794745D01*
X124105000Y-79699370D01*
X124105000Y-79600630D01*
X124079444Y-79505255D01*
X124030075Y-79419745D01*
X124010330Y-79400000D01*
X125104999Y-79400000D01*
X125104999Y-79250028D01*
X125104998Y-79250013D01*
X125094505Y-79147302D01*
X125039358Y-78980880D01*
X125039356Y-78980875D01*
X124947315Y-78831654D01*
X124823343Y-78707682D01*
X124759093Y-78668053D01*
X124712368Y-78616105D01*
X124701145Y-78547143D01*
X124728988Y-78483061D01*
X124736486Y-78474855D01*
X124844414Y-78366928D01*
X124946232Y-78226788D01*
X125024873Y-78072445D01*
X125078402Y-77907701D01*
X125105500Y-77736611D01*
X125105500Y-77563389D01*
X125078402Y-77392299D01*
X125024873Y-77227555D01*
X124946232Y-77073212D01*
X124844414Y-76933072D01*
X124721928Y-76810586D01*
X124638975Y-76750317D01*
X124596311Y-76694988D01*
X124590332Y-76625374D01*
X124622938Y-76563579D01*
X124638976Y-76549682D01*
X124721928Y-76489414D01*
X124844414Y-76366928D01*
X124891868Y-76301613D01*
X124947197Y-76258949D01*
X124992185Y-76250500D01*
X126529903Y-76250500D01*
X126596942Y-76270185D01*
X126617584Y-76286819D01*
X128424537Y-78093772D01*
X128458022Y-78155095D01*
X128460214Y-78194055D01*
X128454500Y-78249981D01*
X128454500Y-79050001D01*
X128454501Y-79050019D01*
X128462958Y-79132796D01*
X128464440Y-79147309D01*
X128465001Y-79152795D01*
X128465001Y-79152797D01*
X128520185Y-79319331D01*
X128520187Y-79319336D01*
X128550816Y-79368993D01*
X128612288Y-79468656D01*
X128736344Y-79592712D01*
X128885666Y-79684814D01*
X129052203Y-79739999D01*
X129154991Y-79750500D01*
X130505008Y-79750499D01*
X130607797Y-79739999D01*
X130774334Y-79684814D01*
X130923656Y-79592712D01*
X131047712Y-79468656D01*
X131139814Y-79319334D01*
X131194999Y-79152797D01*
X131205500Y-79050009D01*
X131205499Y-78249992D01*
X131194999Y-78147203D01*
X131139814Y-77980666D01*
X131047712Y-77831344D01*
X130923656Y-77707288D01*
X130923652Y-77707285D01*
X130859456Y-77667688D01*
X130812731Y-77615740D01*
X130801510Y-77546777D01*
X130829353Y-77482695D01*
X130836850Y-77474491D01*
X130944414Y-77366928D01*
X131046232Y-77226788D01*
X131124873Y-77072445D01*
X131178402Y-76907701D01*
X131205500Y-76736611D01*
X131205500Y-76563389D01*
X131178402Y-76392299D01*
X131124873Y-76227555D01*
X131046232Y-76073212D01*
X130944414Y-75933072D01*
X130821928Y-75810586D01*
X130738550Y-75750008D01*
X130695885Y-75694677D01*
X130689906Y-75625064D01*
X130722512Y-75563269D01*
X130738552Y-75549371D01*
X130821598Y-75489036D01*
X130944032Y-75366602D01*
X131045804Y-75226524D01*
X131124408Y-75072255D01*
X131177914Y-74907584D01*
X131179115Y-74900000D01*
X130110330Y-74900000D01*
X130130075Y-74880255D01*
X130179444Y-74794745D01*
X130205000Y-74699370D01*
X130205000Y-74600630D01*
X130179444Y-74505255D01*
X130130075Y-74419745D01*
X130110330Y-74400000D01*
X131179115Y-74400000D01*
X131179115Y-74399999D01*
X131177914Y-74392415D01*
X131124408Y-74227744D01*
X131045804Y-74073475D01*
X130944032Y-73933397D01*
X130821602Y-73810967D01*
X130738551Y-73750628D01*
X130695885Y-73695298D01*
X130689906Y-73625685D01*
X130722511Y-73563889D01*
X130738610Y-73549947D01*
X130739687Y-73549166D01*
X130739730Y-73549135D01*
X130805552Y-73525698D01*
X130812551Y-73525500D01*
X130885994Y-73525500D01*
X130953033Y-73545185D01*
X130973675Y-73561819D01*
X132538181Y-75126325D01*
X132571666Y-75187648D01*
X132574500Y-75214006D01*
X132574500Y-86015994D01*
X132554815Y-86083033D01*
X132538181Y-86103675D01*
X129728675Y-88913181D01*
X129667352Y-88946666D01*
X129640994Y-88949500D01*
X129468389Y-88949500D01*
X129428728Y-88955781D01*
X129297302Y-88976597D01*
X129132552Y-89030128D01*
X128978211Y-89108768D01*
X128898256Y-89166859D01*
X128838072Y-89210586D01*
X128838070Y-89210588D01*
X128838069Y-89210588D01*
X128715588Y-89333069D01*
X128715588Y-89333070D01*
X128715586Y-89333072D01*
X128671859Y-89393256D01*
X128613768Y-89473211D01*
X128535128Y-89627552D01*
X128481597Y-89792302D01*
X128467330Y-89882382D01*
X128454500Y-89963389D01*
X128454500Y-90136611D01*
X128481598Y-90307701D01*
X128535127Y-90472445D01*
X128613768Y-90626788D01*
X128715586Y-90766928D01*
X128838072Y-90889414D01*
X128921449Y-90949991D01*
X128964114Y-91005322D01*
X128970093Y-91074935D01*
X128937487Y-91136730D01*
X128921448Y-91150627D01*
X128838404Y-91210961D01*
X128838399Y-91210965D01*
X128715967Y-91333397D01*
X128614195Y-91473475D01*
X128535591Y-91627744D01*
X128482085Y-91792415D01*
X128480884Y-91799999D01*
X128480885Y-91800000D01*
X129549670Y-91800000D01*
X129529925Y-91819745D01*
X129480556Y-91905255D01*
X129455000Y-92000630D01*
X129455000Y-92099370D01*
X129480556Y-92194745D01*
X129529925Y-92280255D01*
X129549670Y-92300000D01*
X128480885Y-92300000D01*
X128482085Y-92307584D01*
X128535591Y-92472255D01*
X128614195Y-92626524D01*
X128715967Y-92766602D01*
X128838401Y-92889036D01*
X128921447Y-92949371D01*
X128964114Y-93004701D01*
X128970093Y-93074314D01*
X128937488Y-93136109D01*
X128921450Y-93150007D01*
X128838072Y-93210585D01*
X128715588Y-93333069D01*
X128715588Y-93333070D01*
X128715586Y-93333072D01*
X128695060Y-93361324D01*
X128613768Y-93473211D01*
X128535128Y-93627552D01*
X128481597Y-93792302D01*
X128454500Y-93963389D01*
X128454500Y-93965903D01*
X128454229Y-93966824D01*
X128454117Y-93968252D01*
X128453817Y-93968228D01*
X128434815Y-94032942D01*
X128382011Y-94078697D01*
X128312853Y-94088641D01*
X128249297Y-94059616D01*
X128242819Y-94053584D01*
X127317590Y-93128355D01*
X127317588Y-93128352D01*
X127198717Y-93009481D01*
X127198709Y-93009475D01*
X127082215Y-92942218D01*
X127082215Y-92942217D01*
X127082210Y-92942216D01*
X127075082Y-92938100D01*
X127061786Y-92930423D01*
X127023603Y-92920192D01*
X126909057Y-92889499D01*
X126750943Y-92889499D01*
X126743347Y-92889499D01*
X126743331Y-92889500D01*
X125199491Y-92889500D01*
X125132452Y-92869815D01*
X125086697Y-92817011D01*
X125078916Y-92794444D01*
X125078404Y-92792315D01*
X125078402Y-92792299D01*
X125024873Y-92627555D01*
X124946232Y-92473212D01*
X124844414Y-92333072D01*
X124721928Y-92210586D01*
X124638975Y-92150317D01*
X124596311Y-92094988D01*
X124590332Y-92025374D01*
X124622938Y-91963579D01*
X124638976Y-91949682D01*
X124721928Y-91889414D01*
X124844414Y-91766928D01*
X124946232Y-91626788D01*
X125024873Y-91472445D01*
X125078402Y-91307701D01*
X125105500Y-91136611D01*
X125105500Y-90963389D01*
X125078402Y-90792299D01*
X125024873Y-90627555D01*
X124946232Y-90473212D01*
X124844414Y-90333072D01*
X124721928Y-90210586D01*
X124638975Y-90150317D01*
X124596311Y-90094988D01*
X124590332Y-90025374D01*
X124622938Y-89963579D01*
X124638976Y-89949682D01*
X124721928Y-89889414D01*
X124844414Y-89766928D01*
X124946232Y-89626788D01*
X125024873Y-89472445D01*
X125078402Y-89307701D01*
X125105500Y-89136611D01*
X125105500Y-88963389D01*
X125078402Y-88792299D01*
X125024873Y-88627555D01*
X124946232Y-88473212D01*
X124844414Y-88333072D01*
X124721928Y-88210586D01*
X124581788Y-88108768D01*
X124427445Y-88030127D01*
X124262701Y-87976598D01*
X124262699Y-87976597D01*
X124262698Y-87976597D01*
X124122927Y-87954460D01*
X124091611Y-87949500D01*
X123368389Y-87949500D01*
X123337073Y-87954460D01*
X123197302Y-87976597D01*
X123032552Y-88030128D01*
X122878211Y-88108768D01*
X122798256Y-88166859D01*
X122738072Y-88210586D01*
X122738070Y-88210588D01*
X122738069Y-88210588D01*
X122615588Y-88333069D01*
X122615588Y-88333070D01*
X122615586Y-88333072D01*
X122571859Y-88393256D01*
X122513768Y-88473211D01*
X122435128Y-88627552D01*
X122381597Y-88792302D01*
X122359677Y-88930703D01*
X122354500Y-88963389D01*
X122354500Y-89136611D01*
X122381598Y-89307701D01*
X122435127Y-89472445D01*
X122513768Y-89626788D01*
X122615586Y-89766928D01*
X122738072Y-89889414D01*
X122755257Y-89901899D01*
X122821023Y-89949683D01*
X122863689Y-90005013D01*
X122869667Y-90074626D01*
X122837061Y-90136421D01*
X122821023Y-90150317D01*
X122738078Y-90210581D01*
X122738069Y-90210588D01*
X122615588Y-90333069D01*
X122615588Y-90333070D01*
X122615586Y-90333072D01*
X122571859Y-90393256D01*
X122513768Y-90473211D01*
X122435128Y-90627552D01*
X122381597Y-90792302D01*
X122354500Y-90963389D01*
X122354500Y-91136610D01*
X122366276Y-91210965D01*
X122381598Y-91307701D01*
X122435127Y-91472445D01*
X122513768Y-91626788D01*
X122615586Y-91766928D01*
X122738072Y-91889414D01*
X122738078Y-91889418D01*
X122821023Y-91949683D01*
X122863689Y-92005013D01*
X122869667Y-92074626D01*
X122837061Y-92136421D01*
X122821023Y-92150317D01*
X122738078Y-92210581D01*
X122738069Y-92210588D01*
X122615588Y-92333069D01*
X122615588Y-92333070D01*
X122615586Y-92333072D01*
X122603233Y-92350075D01*
X122513768Y-92473211D01*
X122435128Y-92627552D01*
X122381597Y-92792302D01*
X122354500Y-92963389D01*
X122354500Y-93136610D01*
X122381597Y-93307697D01*
X122381597Y-93307699D01*
X122381598Y-93307701D01*
X122435127Y-93472445D01*
X122513768Y-93626788D01*
X122615586Y-93766928D01*
X122738072Y-93889414D01*
X122738078Y-93889418D01*
X122821023Y-93949683D01*
X122863689Y-94005013D01*
X122869667Y-94074626D01*
X122837061Y-94136421D01*
X122821023Y-94150317D01*
X122738078Y-94210581D01*
X122738069Y-94210588D01*
X122615588Y-94333069D01*
X122615588Y-94333070D01*
X122615586Y-94333072D01*
X122574623Y-94389452D01*
X122513768Y-94473211D01*
X122435128Y-94627552D01*
X122381597Y-94792302D01*
X122357131Y-94946777D01*
X122354500Y-94963389D01*
X122354500Y-95136611D01*
X122381598Y-95307701D01*
X122435127Y-95472445D01*
X122513768Y-95626788D01*
X122615586Y-95766928D01*
X122615588Y-95766930D01*
X122723491Y-95874833D01*
X122756976Y-95936156D01*
X122751992Y-96005848D01*
X122710120Y-96061781D01*
X122700907Y-96068053D01*
X122636654Y-96107684D01*
X122512684Y-96231654D01*
X122420643Y-96380875D01*
X122420641Y-96380880D01*
X122365494Y-96547302D01*
X122365493Y-96547309D01*
X122355000Y-96650013D01*
X122355000Y-96800000D01*
X123449670Y-96800000D01*
X123429925Y-96819745D01*
X123380556Y-96905255D01*
X123355000Y-97000630D01*
X123355000Y-97099370D01*
X123380556Y-97194745D01*
X123429925Y-97280255D01*
X123449670Y-97300000D01*
X122355001Y-97300000D01*
X122355001Y-97449986D01*
X122365494Y-97552697D01*
X122420641Y-97719119D01*
X122420643Y-97719124D01*
X122512684Y-97868345D01*
X122636654Y-97992315D01*
X122785875Y-98084356D01*
X122785880Y-98084358D01*
X122952302Y-98139505D01*
X122952309Y-98139506D01*
X123055019Y-98149999D01*
X123479999Y-98149999D01*
X123480000Y-98149998D01*
X123480000Y-97330330D01*
X123499745Y-97350075D01*
X123585255Y-97399444D01*
X123680630Y-97425000D01*
X123779370Y-97425000D01*
X123874745Y-97399444D01*
X123960255Y-97350075D01*
X123980000Y-97330330D01*
X123980000Y-98149999D01*
X124404972Y-98149999D01*
X124404986Y-98149998D01*
X124507697Y-98139505D01*
X124674119Y-98084358D01*
X124674124Y-98084356D01*
X124823345Y-97992315D01*
X124947315Y-97868345D01*
X125039356Y-97719124D01*
X125039358Y-97719119D01*
X125094505Y-97552697D01*
X125094506Y-97552690D01*
X125104999Y-97449986D01*
X125105000Y-97449973D01*
X125105000Y-97300000D01*
X124010330Y-97300000D01*
X124030075Y-97280255D01*
X124079444Y-97194745D01*
X124105000Y-97099370D01*
X124105000Y-97000630D01*
X124079444Y-96905255D01*
X124030075Y-96819745D01*
X124010330Y-96800000D01*
X125104999Y-96800000D01*
X125104999Y-96650028D01*
X125104998Y-96650013D01*
X125094505Y-96547302D01*
X125039358Y-96380880D01*
X125039356Y-96380875D01*
X124947315Y-96231654D01*
X124823343Y-96107682D01*
X124759093Y-96068053D01*
X124712368Y-96016105D01*
X124701145Y-95947143D01*
X124728988Y-95883061D01*
X124736486Y-95874855D01*
X124844414Y-95766928D01*
X124946232Y-95626788D01*
X125024873Y-95472445D01*
X125078402Y-95307701D01*
X125105500Y-95136611D01*
X125105500Y-94963389D01*
X125078402Y-94792299D01*
X125024873Y-94627555D01*
X124946232Y-94473212D01*
X124844414Y-94333072D01*
X124813523Y-94302181D01*
X124780038Y-94240858D01*
X124785022Y-94171166D01*
X124826894Y-94115233D01*
X124892358Y-94090816D01*
X124901204Y-94090500D01*
X126529903Y-94090500D01*
X126596942Y-94110185D01*
X126617584Y-94126819D01*
X128418181Y-95927417D01*
X128451666Y-95988740D01*
X128454500Y-96015098D01*
X128454500Y-96450001D01*
X128454501Y-96450019D01*
X128465000Y-96552796D01*
X128465001Y-96552799D01*
X128520185Y-96719331D01*
X128520187Y-96719336D01*
X128555069Y-96775888D01*
X128612288Y-96868656D01*
X128736344Y-96992712D01*
X128885666Y-97084814D01*
X129052203Y-97139999D01*
X129154991Y-97150500D01*
X130505008Y-97150499D01*
X130607797Y-97139999D01*
X130774334Y-97084814D01*
X130923656Y-96992712D01*
X131047712Y-96868656D01*
X131139814Y-96719334D01*
X131194999Y-96552797D01*
X131205500Y-96450009D01*
X131205499Y-95649992D01*
X131194999Y-95547203D01*
X131139814Y-95380666D01*
X131047712Y-95231344D01*
X130923656Y-95107288D01*
X130923652Y-95107285D01*
X130859456Y-95067688D01*
X130812731Y-95015740D01*
X130801510Y-94946777D01*
X130829353Y-94882695D01*
X130836850Y-94874491D01*
X130944414Y-94766928D01*
X131046232Y-94626788D01*
X131124873Y-94472445D01*
X131178402Y-94307701D01*
X131205500Y-94136611D01*
X131205500Y-93963389D01*
X131178402Y-93792299D01*
X131124873Y-93627555D01*
X131046232Y-93473212D01*
X130944414Y-93333072D01*
X130821928Y-93210586D01*
X130738550Y-93150008D01*
X130695885Y-93094677D01*
X130689906Y-93025064D01*
X130722512Y-92963269D01*
X130738552Y-92949371D01*
X130821598Y-92889036D01*
X130944032Y-92766602D01*
X131045804Y-92626524D01*
X131124408Y-92472255D01*
X131177914Y-92307584D01*
X131179115Y-92300000D01*
X130110330Y-92300000D01*
X130130075Y-92280255D01*
X130179444Y-92194745D01*
X130205000Y-92099370D01*
X130205000Y-92000630D01*
X130179444Y-91905255D01*
X130130075Y-91819745D01*
X130110330Y-91800000D01*
X131179115Y-91800000D01*
X131179115Y-91799999D01*
X131177914Y-91792415D01*
X131124408Y-91627744D01*
X131045804Y-91473475D01*
X130944032Y-91333397D01*
X130821602Y-91210967D01*
X130738551Y-91150628D01*
X130695885Y-91095298D01*
X130689906Y-91025685D01*
X130722511Y-90963889D01*
X130738551Y-90949991D01*
X130821928Y-90889414D01*
X130944414Y-90766928D01*
X131046232Y-90626788D01*
X131124873Y-90472445D01*
X131178402Y-90307701D01*
X131205500Y-90136611D01*
X131205500Y-89964005D01*
X131225185Y-89896966D01*
X131241819Y-89876324D01*
X134130042Y-86988102D01*
X134130042Y-86988101D01*
X134130045Y-86988099D01*
X134225858Y-86844705D01*
X134291855Y-86685374D01*
X134314296Y-86572554D01*
X134346680Y-86510644D01*
X134407396Y-86476070D01*
X134477165Y-86479809D01*
X134533838Y-86520675D01*
X134548295Y-86544341D01*
X134569421Y-86589646D01*
X134569423Y-86589650D01*
X134695322Y-86769452D01*
X134695327Y-86769458D01*
X134850541Y-86924672D01*
X134850547Y-86924677D01*
X135030349Y-87050576D01*
X135030351Y-87050577D01*
X135030354Y-87050579D01*
X135114963Y-87090032D01*
X135174120Y-87117618D01*
X135226560Y-87163790D01*
X135245712Y-87230983D01*
X135225496Y-87297865D01*
X135174120Y-87342382D01*
X135030357Y-87409419D01*
X135030349Y-87409423D01*
X134850547Y-87535322D01*
X134850541Y-87535327D01*
X134695327Y-87690541D01*
X134695322Y-87690547D01*
X134569423Y-87870349D01*
X134569419Y-87870357D01*
X134476655Y-88069291D01*
X134419839Y-88281324D01*
X134419838Y-88281331D01*
X134400708Y-88499997D01*
X134400708Y-88500000D01*
X134419839Y-88718674D01*
X134476653Y-88930703D01*
X134476654Y-88930706D01*
X134476655Y-88930708D01*
X134569419Y-89129642D01*
X134569423Y-89129650D01*
X134695322Y-89309452D01*
X134695327Y-89309458D01*
X134850541Y-89464672D01*
X134850547Y-89464677D01*
X135030349Y-89590576D01*
X135030351Y-89590577D01*
X135030354Y-89590579D01*
X135108005Y-89626788D01*
X135174120Y-89657618D01*
X135226560Y-89703790D01*
X135245712Y-89770983D01*
X135225496Y-89837865D01*
X135174120Y-89882382D01*
X135030357Y-89949419D01*
X135030349Y-89949423D01*
X134850547Y-90075322D01*
X134850541Y-90075327D01*
X134695327Y-90230541D01*
X134695322Y-90230547D01*
X134569423Y-90410349D01*
X134569419Y-90410357D01*
X134476655Y-90609291D01*
X134476653Y-90609295D01*
X134476653Y-90609297D01*
X134471762Y-90627552D01*
X134419839Y-90821324D01*
X134419838Y-90821331D01*
X134400708Y-91039997D01*
X134400708Y-91040002D01*
X134415664Y-91210961D01*
X134419839Y-91258674D01*
X134476653Y-91470703D01*
X134476654Y-91470706D01*
X134476655Y-91470708D01*
X134569419Y-91669642D01*
X134569423Y-91669650D01*
X134695322Y-91849452D01*
X134695327Y-91849458D01*
X134850541Y-92004672D01*
X134850547Y-92004677D01*
X135030349Y-92130576D01*
X135030351Y-92130577D01*
X135030354Y-92130579D01*
X135072683Y-92150317D01*
X135174120Y-92197618D01*
X135226560Y-92243790D01*
X135245712Y-92310983D01*
X135225496Y-92377865D01*
X135174120Y-92422382D01*
X135030357Y-92489419D01*
X135030349Y-92489423D01*
X134850547Y-92615322D01*
X134850541Y-92615327D01*
X134695327Y-92770541D01*
X134695325Y-92770544D01*
X134569423Y-92950349D01*
X134569419Y-92950357D01*
X134476655Y-93149291D01*
X134476653Y-93149295D01*
X134476653Y-93149297D01*
X134460231Y-93210585D01*
X134419839Y-93361324D01*
X134419838Y-93361331D01*
X134400708Y-93579997D01*
X134400708Y-93580002D01*
X134419281Y-93792302D01*
X134419839Y-93798674D01*
X134476653Y-94010703D01*
X134476654Y-94010706D01*
X134476655Y-94010708D01*
X134569419Y-94209642D01*
X134569423Y-94209650D01*
X134695322Y-94389452D01*
X134695327Y-94389458D01*
X134850541Y-94544672D01*
X134850547Y-94544677D01*
X135030349Y-94670576D01*
X135030351Y-94670577D01*
X135030354Y-94670579D01*
X135114963Y-94710032D01*
X135174120Y-94737618D01*
X135226560Y-94783790D01*
X135245712Y-94850983D01*
X135225496Y-94917865D01*
X135174120Y-94962382D01*
X135030357Y-95029419D01*
X135030349Y-95029423D01*
X134850547Y-95155322D01*
X134850541Y-95155327D01*
X134695327Y-95310541D01*
X134695322Y-95310547D01*
X134569423Y-95490349D01*
X134569419Y-95490357D01*
X134476655Y-95689291D01*
X134476653Y-95689295D01*
X134476653Y-95689297D01*
X134455851Y-95766929D01*
X134419839Y-95901324D01*
X134419838Y-95901331D01*
X134400708Y-96119997D01*
X134400708Y-96120002D01*
X134401005Y-96123402D01*
X134419839Y-96338674D01*
X134476653Y-96550703D01*
X134476654Y-96550706D01*
X134476655Y-96550708D01*
X134569419Y-96749642D01*
X134569423Y-96749650D01*
X134695322Y-96929452D01*
X134695327Y-96929458D01*
X134850541Y-97084672D01*
X134850547Y-97084677D01*
X135030349Y-97210576D01*
X135030351Y-97210577D01*
X135030354Y-97210579D01*
X135114963Y-97250032D01*
X135174120Y-97277618D01*
X135226560Y-97323790D01*
X135245712Y-97390983D01*
X135225496Y-97457865D01*
X135174120Y-97502382D01*
X135030357Y-97569419D01*
X135030349Y-97569423D01*
X134850547Y-97695322D01*
X134850541Y-97695327D01*
X134695327Y-97850541D01*
X134695322Y-97850547D01*
X134569423Y-98030349D01*
X134569419Y-98030357D01*
X134476655Y-98229291D01*
X134419839Y-98441324D01*
X134419838Y-98441331D01*
X134400708Y-98659997D01*
X134400708Y-98660000D01*
X134419839Y-98878674D01*
X134476653Y-99090703D01*
X134476654Y-99090706D01*
X134476655Y-99090708D01*
X134569419Y-99289642D01*
X134569423Y-99289650D01*
X134695322Y-99469452D01*
X134695327Y-99469458D01*
X134850541Y-99624672D01*
X134850547Y-99624677D01*
X135030349Y-99750576D01*
X135030351Y-99750577D01*
X135030354Y-99750579D01*
X135229297Y-99843347D01*
X135441326Y-99900161D01*
X135597521Y-99913826D01*
X135659998Y-99919292D01*
X135660000Y-99919292D01*
X135660002Y-99919292D01*
X135714668Y-99914509D01*
X135878674Y-99900161D01*
X136090703Y-99843347D01*
X136289646Y-99750579D01*
X136469457Y-99624674D01*
X136624674Y-99469457D01*
X136750579Y-99289646D01*
X136843347Y-99090703D01*
X136900161Y-98878674D01*
X136919292Y-98660000D01*
X136900161Y-98441326D01*
X136843347Y-98229297D01*
X136750579Y-98030354D01*
X136750577Y-98030351D01*
X136750576Y-98030349D01*
X136624677Y-97850547D01*
X136624672Y-97850541D01*
X136469458Y-97695327D01*
X136469452Y-97695322D01*
X136289650Y-97569423D01*
X136289642Y-97569419D01*
X136145879Y-97502382D01*
X136093439Y-97456210D01*
X136074287Y-97389017D01*
X136094502Y-97322136D01*
X136145879Y-97277618D01*
X136289646Y-97210579D01*
X136469457Y-97084674D01*
X136624674Y-96929457D01*
X136750579Y-96749646D01*
X136843347Y-96550703D01*
X136900161Y-96338674D01*
X136916624Y-96150500D01*
X136919292Y-96120002D01*
X136919292Y-96119997D01*
X136910203Y-96016105D01*
X136900161Y-95901326D01*
X136843347Y-95689297D01*
X136750579Y-95490354D01*
X136750577Y-95490351D01*
X136750576Y-95490349D01*
X136624677Y-95310547D01*
X136624672Y-95310541D01*
X136469458Y-95155327D01*
X136469452Y-95155322D01*
X136289650Y-95029423D01*
X136289642Y-95029419D01*
X136145879Y-94962382D01*
X136093439Y-94916210D01*
X136074287Y-94849017D01*
X136094502Y-94782136D01*
X136145879Y-94737618D01*
X136289646Y-94670579D01*
X136469457Y-94544674D01*
X136624674Y-94389457D01*
X136750579Y-94209646D01*
X136843347Y-94010703D01*
X136900161Y-93798674D01*
X136919292Y-93580000D01*
X136916114Y-93543680D01*
X136911201Y-93487522D01*
X136900161Y-93361326D01*
X136843347Y-93149297D01*
X136750579Y-92950354D01*
X136750577Y-92950351D01*
X136750576Y-92950349D01*
X136624675Y-92770544D01*
X136469458Y-92615327D01*
X136469452Y-92615322D01*
X136289650Y-92489423D01*
X136289642Y-92489419D01*
X136229497Y-92461373D01*
X136145878Y-92422381D01*
X136093439Y-92376210D01*
X136074287Y-92309017D01*
X136094502Y-92242136D01*
X136145879Y-92197618D01*
X136289646Y-92130579D01*
X136469457Y-92004674D01*
X136624674Y-91849457D01*
X136750579Y-91669646D01*
X136843347Y-91470703D01*
X136900161Y-91258674D01*
X136919292Y-91040000D01*
X136915025Y-90991232D01*
X136906118Y-90889414D01*
X136900161Y-90821326D01*
X136843347Y-90609297D01*
X136750579Y-90410354D01*
X136750577Y-90410351D01*
X136750576Y-90410349D01*
X136624677Y-90230547D01*
X136624672Y-90230541D01*
X136469458Y-90075327D01*
X136469452Y-90075322D01*
X136289650Y-89949423D01*
X136289642Y-89949419D01*
X136160968Y-89889418D01*
X136145878Y-89882381D01*
X136093439Y-89836210D01*
X136074287Y-89769017D01*
X136094502Y-89702136D01*
X136145879Y-89657618D01*
X136289646Y-89590579D01*
X136469457Y-89464674D01*
X136624674Y-89309457D01*
X136750579Y-89129646D01*
X136843347Y-88930703D01*
X136900161Y-88718674D01*
X136919292Y-88500000D01*
X136916948Y-88473212D01*
X136900161Y-88281331D01*
X136900161Y-88281326D01*
X136843347Y-88069297D01*
X136750579Y-87870354D01*
X136750577Y-87870351D01*
X136750576Y-87870349D01*
X136624677Y-87690547D01*
X136624672Y-87690541D01*
X136469458Y-87535327D01*
X136469452Y-87535322D01*
X136289650Y-87409423D01*
X136289642Y-87409419D01*
X136145879Y-87342382D01*
X136093439Y-87296210D01*
X136074287Y-87229017D01*
X136094502Y-87162136D01*
X136145879Y-87117618D01*
X136289646Y-87050579D01*
X136469457Y-86924674D01*
X136624674Y-86769457D01*
X136750579Y-86589646D01*
X136843347Y-86390703D01*
X136900161Y-86178674D01*
X136919292Y-85960000D01*
X136900161Y-85741326D01*
X136843347Y-85529297D01*
X136750579Y-85330354D01*
X136750577Y-85330351D01*
X136750576Y-85330349D01*
X136624677Y-85150547D01*
X136624672Y-85150541D01*
X136469458Y-84995327D01*
X136469452Y-84995322D01*
X136289650Y-84869423D01*
X136289642Y-84869419D01*
X136145879Y-84802382D01*
X136093439Y-84756210D01*
X136074287Y-84689017D01*
X136094502Y-84622136D01*
X136145879Y-84577618D01*
X136289646Y-84510579D01*
X136469457Y-84384674D01*
X136624674Y-84229457D01*
X136750579Y-84049646D01*
X136843347Y-83850703D01*
X136900161Y-83638674D01*
X136919292Y-83420000D01*
X136900161Y-83201326D01*
X136843347Y-82989297D01*
X136750579Y-82790354D01*
X136750577Y-82790351D01*
X136750576Y-82790349D01*
X136624677Y-82610547D01*
X136624672Y-82610541D01*
X136469458Y-82455327D01*
X136469452Y-82455322D01*
X136289650Y-82329423D01*
X136289642Y-82329419D01*
X136145879Y-82262382D01*
X136093439Y-82216210D01*
X136074287Y-82149017D01*
X136094502Y-82082136D01*
X136145879Y-82037618D01*
X136289646Y-81970579D01*
X136469457Y-81844674D01*
X136624674Y-81689457D01*
X136733963Y-81533375D01*
X136788540Y-81489752D01*
X136835538Y-81480500D01*
X137295807Y-81480500D01*
X137295823Y-81480501D01*
X137303419Y-81480501D01*
X137461530Y-81480501D01*
X137461533Y-81480501D01*
X137614261Y-81439577D01*
X137664380Y-81410639D01*
X137751192Y-81360520D01*
X137862996Y-81248716D01*
X137862996Y-81248714D01*
X137873204Y-81238507D01*
X137873205Y-81238504D01*
X148391715Y-70719997D01*
X149640708Y-70719997D01*
X149640708Y-70720002D01*
X149659348Y-70933072D01*
X149659839Y-70938674D01*
X149716653Y-71150703D01*
X149716654Y-71150706D01*
X149716655Y-71150708D01*
X149809419Y-71349642D01*
X149809423Y-71349650D01*
X149935322Y-71529452D01*
X149935327Y-71529458D01*
X150090541Y-71684672D01*
X150090547Y-71684677D01*
X150270349Y-71810576D01*
X150270351Y-71810577D01*
X150270354Y-71810579D01*
X150354963Y-71850032D01*
X150414120Y-71877618D01*
X150466560Y-71923790D01*
X150485712Y-71990983D01*
X150465496Y-72057865D01*
X150414120Y-72102382D01*
X150270357Y-72169419D01*
X150270349Y-72169423D01*
X150090547Y-72295322D01*
X150090541Y-72295327D01*
X149935327Y-72450541D01*
X149935322Y-72450547D01*
X149809423Y-72630349D01*
X149809419Y-72630357D01*
X149716655Y-72829291D01*
X149716653Y-72829295D01*
X149716653Y-72829297D01*
X149695980Y-72906447D01*
X149659839Y-73041324D01*
X149659838Y-73041331D01*
X149640708Y-73259997D01*
X149640708Y-73260002D01*
X149659838Y-73478668D01*
X149659839Y-73478675D01*
X149671177Y-73520989D01*
X149716653Y-73690703D01*
X149716654Y-73690706D01*
X149716655Y-73690708D01*
X149809419Y-73889642D01*
X149809423Y-73889650D01*
X149935322Y-74069452D01*
X149935327Y-74069458D01*
X150090541Y-74224672D01*
X150090547Y-74224677D01*
X150270349Y-74350576D01*
X150270351Y-74350577D01*
X150270354Y-74350579D01*
X150317182Y-74372415D01*
X150414120Y-74417618D01*
X150466560Y-74463790D01*
X150485712Y-74530983D01*
X150465496Y-74597865D01*
X150414120Y-74642382D01*
X150270357Y-74709419D01*
X150270349Y-74709423D01*
X150090547Y-74835322D01*
X150090541Y-74835327D01*
X149935327Y-74990541D01*
X149935322Y-74990547D01*
X149809423Y-75170349D01*
X149809419Y-75170357D01*
X149716655Y-75369291D01*
X149716653Y-75369295D01*
X149716653Y-75369297D01*
X149710490Y-75392299D01*
X149659839Y-75581324D01*
X149659838Y-75581331D01*
X149640708Y-75799997D01*
X149640708Y-75800002D01*
X149659838Y-76018668D01*
X149659839Y-76018675D01*
X149671030Y-76060439D01*
X149716653Y-76230703D01*
X149716654Y-76230706D01*
X149716655Y-76230708D01*
X149809419Y-76429642D01*
X149809423Y-76429650D01*
X149935322Y-76609452D01*
X149935327Y-76609458D01*
X150090541Y-76764672D01*
X150090547Y-76764677D01*
X150270349Y-76890576D01*
X150270351Y-76890577D01*
X150270354Y-76890579D01*
X150307064Y-76907697D01*
X150414120Y-76957618D01*
X150466560Y-77003790D01*
X150485712Y-77070983D01*
X150465496Y-77137865D01*
X150414120Y-77182382D01*
X150270357Y-77249419D01*
X150270349Y-77249423D01*
X150090547Y-77375322D01*
X150090541Y-77375327D01*
X149935327Y-77530541D01*
X149935322Y-77530547D01*
X149809423Y-77710349D01*
X149809419Y-77710357D01*
X149716655Y-77909291D01*
X149716653Y-77909295D01*
X149716653Y-77909297D01*
X149697530Y-77980663D01*
X149659839Y-78121324D01*
X149659838Y-78121331D01*
X149640708Y-78339997D01*
X149640708Y-78340002D01*
X149659838Y-78558668D01*
X149659839Y-78558675D01*
X149668563Y-78591232D01*
X149716653Y-78770703D01*
X149716654Y-78770706D01*
X149716655Y-78770708D01*
X149809419Y-78969642D01*
X149809423Y-78969650D01*
X149935322Y-79149452D01*
X149935327Y-79149458D01*
X150090541Y-79304672D01*
X150090547Y-79304677D01*
X150270349Y-79430576D01*
X150270351Y-79430577D01*
X150270354Y-79430579D01*
X150309121Y-79448656D01*
X150414120Y-79497618D01*
X150466560Y-79543790D01*
X150485712Y-79610983D01*
X150465496Y-79677865D01*
X150414120Y-79722382D01*
X150270357Y-79789419D01*
X150270349Y-79789423D01*
X150090547Y-79915322D01*
X150090541Y-79915327D01*
X149935327Y-80070541D01*
X149935322Y-80070547D01*
X149809423Y-80250349D01*
X149809419Y-80250357D01*
X149716655Y-80449291D01*
X149659839Y-80661324D01*
X149659838Y-80661331D01*
X149653874Y-80729505D01*
X149640708Y-80880000D01*
X149659839Y-81098674D01*
X149716653Y-81310703D01*
X149716654Y-81310706D01*
X149716655Y-81310708D01*
X149809419Y-81509642D01*
X149809423Y-81509650D01*
X149935322Y-81689452D01*
X149935327Y-81689458D01*
X150090541Y-81844672D01*
X150090547Y-81844677D01*
X150270349Y-81970576D01*
X150270351Y-81970577D01*
X150270354Y-81970579D01*
X150354963Y-82010032D01*
X150414120Y-82037618D01*
X150466560Y-82083790D01*
X150485712Y-82150983D01*
X150465496Y-82217865D01*
X150414120Y-82262382D01*
X150270357Y-82329419D01*
X150270349Y-82329423D01*
X150090547Y-82455322D01*
X150090541Y-82455327D01*
X149935327Y-82610541D01*
X149935322Y-82610547D01*
X149809423Y-82790349D01*
X149809419Y-82790357D01*
X149716655Y-82989291D01*
X149659839Y-83201324D01*
X149659838Y-83201331D01*
X149640708Y-83419997D01*
X149640708Y-83420000D01*
X149659839Y-83638674D01*
X149716653Y-83850703D01*
X149716654Y-83850706D01*
X149716655Y-83850708D01*
X149809419Y-84049642D01*
X149809423Y-84049650D01*
X149935322Y-84229452D01*
X149935327Y-84229458D01*
X150090541Y-84384672D01*
X150090547Y-84384677D01*
X150270349Y-84510576D01*
X150270351Y-84510577D01*
X150270354Y-84510579D01*
X150354963Y-84550032D01*
X150414120Y-84577618D01*
X150466560Y-84623790D01*
X150485712Y-84690983D01*
X150465496Y-84757865D01*
X150414120Y-84802382D01*
X150270357Y-84869419D01*
X150270349Y-84869423D01*
X150090547Y-84995322D01*
X150090541Y-84995327D01*
X149935327Y-85150541D01*
X149935322Y-85150547D01*
X149809423Y-85330349D01*
X149809419Y-85330357D01*
X149716655Y-85529291D01*
X149659839Y-85741324D01*
X149659838Y-85741331D01*
X149640708Y-85959997D01*
X149640708Y-85960002D01*
X149653277Y-86103675D01*
X149659839Y-86178674D01*
X149716653Y-86390703D01*
X149716654Y-86390706D01*
X149716655Y-86390708D01*
X149809419Y-86589642D01*
X149809423Y-86589650D01*
X149935322Y-86769452D01*
X149935327Y-86769458D01*
X150090541Y-86924672D01*
X150090547Y-86924677D01*
X150270349Y-87050576D01*
X150270351Y-87050577D01*
X150270354Y-87050579D01*
X150354963Y-87090032D01*
X150414120Y-87117618D01*
X150466560Y-87163790D01*
X150485712Y-87230983D01*
X150465496Y-87297865D01*
X150414120Y-87342382D01*
X150270357Y-87409419D01*
X150270349Y-87409423D01*
X150090547Y-87535322D01*
X150090541Y-87535327D01*
X149935327Y-87690541D01*
X149935322Y-87690547D01*
X149809423Y-87870349D01*
X149809419Y-87870357D01*
X149716655Y-88069291D01*
X149659839Y-88281324D01*
X149659838Y-88281331D01*
X149640708Y-88499997D01*
X149640708Y-88500000D01*
X149659839Y-88718674D01*
X149716653Y-88930703D01*
X149716654Y-88930706D01*
X149716655Y-88930708D01*
X149809419Y-89129642D01*
X149809423Y-89129650D01*
X149935322Y-89309452D01*
X149935327Y-89309458D01*
X150090541Y-89464672D01*
X150090547Y-89464677D01*
X150270349Y-89590576D01*
X150270351Y-89590577D01*
X150270354Y-89590579D01*
X150348005Y-89626788D01*
X150414120Y-89657618D01*
X150466560Y-89703790D01*
X150485712Y-89770983D01*
X150465496Y-89837865D01*
X150414120Y-89882382D01*
X150270357Y-89949419D01*
X150270349Y-89949423D01*
X150090547Y-90075322D01*
X150090541Y-90075327D01*
X149935327Y-90230541D01*
X149935322Y-90230547D01*
X149809423Y-90410349D01*
X149809419Y-90410357D01*
X149716655Y-90609291D01*
X149716653Y-90609295D01*
X149716653Y-90609297D01*
X149711762Y-90627552D01*
X149659839Y-90821324D01*
X149659838Y-90821331D01*
X149640708Y-91039997D01*
X149640708Y-91040002D01*
X149655664Y-91210961D01*
X149659839Y-91258674D01*
X149716653Y-91470703D01*
X149716654Y-91470706D01*
X149716655Y-91470708D01*
X149809419Y-91669642D01*
X149809423Y-91669650D01*
X149935322Y-91849452D01*
X149935327Y-91849458D01*
X150090541Y-92004672D01*
X150090547Y-92004677D01*
X150270349Y-92130576D01*
X150270351Y-92130577D01*
X150270354Y-92130579D01*
X150312683Y-92150317D01*
X150414120Y-92197618D01*
X150466560Y-92243790D01*
X150485712Y-92310983D01*
X150465496Y-92377865D01*
X150414120Y-92422382D01*
X150270357Y-92489419D01*
X150270349Y-92489423D01*
X150090547Y-92615322D01*
X150090541Y-92615327D01*
X149935327Y-92770541D01*
X149935325Y-92770544D01*
X149809423Y-92950349D01*
X149809419Y-92950357D01*
X149716655Y-93149291D01*
X149716653Y-93149295D01*
X149716653Y-93149297D01*
X149700231Y-93210585D01*
X149659839Y-93361324D01*
X149659838Y-93361331D01*
X149640708Y-93579997D01*
X149640708Y-93580002D01*
X149659281Y-93792302D01*
X149659839Y-93798674D01*
X149716653Y-94010703D01*
X149716654Y-94010706D01*
X149716655Y-94010708D01*
X149809419Y-94209642D01*
X149809423Y-94209650D01*
X149935322Y-94389452D01*
X149935327Y-94389458D01*
X150090541Y-94544672D01*
X150090547Y-94544677D01*
X150270349Y-94670576D01*
X150270351Y-94670577D01*
X150270354Y-94670579D01*
X150354963Y-94710032D01*
X150414120Y-94737618D01*
X150466560Y-94783790D01*
X150485712Y-94850983D01*
X150465496Y-94917865D01*
X150414120Y-94962382D01*
X150270357Y-95029419D01*
X150270349Y-95029423D01*
X150090547Y-95155322D01*
X150090541Y-95155327D01*
X149935327Y-95310541D01*
X149935322Y-95310547D01*
X149809423Y-95490349D01*
X149809419Y-95490357D01*
X149716655Y-95689291D01*
X149716653Y-95689295D01*
X149716653Y-95689297D01*
X149695851Y-95766929D01*
X149659839Y-95901324D01*
X149659838Y-95901331D01*
X149640708Y-96119997D01*
X149640708Y-96120002D01*
X149641005Y-96123402D01*
X149659839Y-96338674D01*
X149716653Y-96550703D01*
X149716654Y-96550706D01*
X149716655Y-96550708D01*
X149809419Y-96749642D01*
X149809423Y-96749650D01*
X149935322Y-96929452D01*
X149935327Y-96929458D01*
X150090541Y-97084672D01*
X150090547Y-97084677D01*
X150270349Y-97210576D01*
X150270351Y-97210577D01*
X150270354Y-97210579D01*
X150354963Y-97250032D01*
X150414120Y-97277618D01*
X150466560Y-97323790D01*
X150485712Y-97390983D01*
X150465496Y-97457865D01*
X150414120Y-97502382D01*
X150270357Y-97569419D01*
X150270349Y-97569423D01*
X150090547Y-97695322D01*
X150090541Y-97695327D01*
X149935327Y-97850541D01*
X149935322Y-97850547D01*
X149809423Y-98030349D01*
X149809419Y-98030357D01*
X149716655Y-98229291D01*
X149659839Y-98441324D01*
X149659838Y-98441331D01*
X149640708Y-98659997D01*
X149640708Y-98660000D01*
X149659839Y-98878674D01*
X149716653Y-99090703D01*
X149716654Y-99090706D01*
X149716655Y-99090708D01*
X149809419Y-99289642D01*
X149809423Y-99289650D01*
X149935322Y-99469452D01*
X149935327Y-99469458D01*
X150090541Y-99624672D01*
X150090547Y-99624677D01*
X150270349Y-99750576D01*
X150270351Y-99750577D01*
X150270354Y-99750579D01*
X150469297Y-99843347D01*
X150681326Y-99900161D01*
X150837521Y-99913826D01*
X150899998Y-99919292D01*
X150900000Y-99919292D01*
X150900002Y-99919292D01*
X150954668Y-99914509D01*
X151118674Y-99900161D01*
X151330703Y-99843347D01*
X151529646Y-99750579D01*
X151709457Y-99624674D01*
X151864674Y-99469457D01*
X151990579Y-99289646D01*
X152083347Y-99090703D01*
X152140161Y-98878674D01*
X152159292Y-98660000D01*
X152140161Y-98441326D01*
X152083347Y-98229297D01*
X151990579Y-98030354D01*
X151990577Y-98030351D01*
X151990576Y-98030349D01*
X151864677Y-97850547D01*
X151864672Y-97850541D01*
X151709458Y-97695327D01*
X151709452Y-97695322D01*
X151529650Y-97569423D01*
X151529642Y-97569419D01*
X151385879Y-97502382D01*
X151333439Y-97456210D01*
X151314287Y-97389017D01*
X151334502Y-97322136D01*
X151385879Y-97277618D01*
X151529646Y-97210579D01*
X151709457Y-97084674D01*
X151864674Y-96929457D01*
X151990579Y-96749646D01*
X152083347Y-96550703D01*
X152140161Y-96338674D01*
X152156624Y-96150500D01*
X152159292Y-96120002D01*
X152159292Y-96119997D01*
X152150203Y-96016105D01*
X152140161Y-95901326D01*
X152083347Y-95689297D01*
X151990579Y-95490354D01*
X151990577Y-95490351D01*
X151990576Y-95490349D01*
X151864677Y-95310547D01*
X151864672Y-95310541D01*
X151709458Y-95155327D01*
X151709452Y-95155322D01*
X151529650Y-95029423D01*
X151529642Y-95029419D01*
X151385879Y-94962382D01*
X151333439Y-94916210D01*
X151314287Y-94849017D01*
X151334502Y-94782136D01*
X151385879Y-94737618D01*
X151529646Y-94670579D01*
X151709457Y-94544674D01*
X151864674Y-94389457D01*
X151990579Y-94209646D01*
X152083347Y-94010703D01*
X152140161Y-93798674D01*
X152159292Y-93580000D01*
X152156114Y-93543680D01*
X152151201Y-93487522D01*
X152140161Y-93361326D01*
X152083347Y-93149297D01*
X151990579Y-92950354D01*
X151990577Y-92950351D01*
X151990576Y-92950349D01*
X151864675Y-92770544D01*
X151709458Y-92615327D01*
X151709452Y-92615322D01*
X151529650Y-92489423D01*
X151529642Y-92489419D01*
X151469497Y-92461373D01*
X151385878Y-92422381D01*
X151333439Y-92376210D01*
X151314287Y-92309017D01*
X151334502Y-92242136D01*
X151385879Y-92197618D01*
X151529646Y-92130579D01*
X151709457Y-92004674D01*
X151864674Y-91849457D01*
X151990579Y-91669646D01*
X152083347Y-91470703D01*
X152140161Y-91258674D01*
X152159292Y-91040000D01*
X152155025Y-90991232D01*
X152146118Y-90889414D01*
X152140161Y-90821326D01*
X152083347Y-90609297D01*
X151990579Y-90410354D01*
X151990577Y-90410351D01*
X151990576Y-90410349D01*
X151864677Y-90230547D01*
X151864672Y-90230541D01*
X151709458Y-90075327D01*
X151709452Y-90075322D01*
X151529650Y-89949423D01*
X151529642Y-89949419D01*
X151400968Y-89889418D01*
X151385878Y-89882381D01*
X151333439Y-89836210D01*
X151314287Y-89769017D01*
X151334502Y-89702136D01*
X151385879Y-89657618D01*
X151529646Y-89590579D01*
X151709457Y-89464674D01*
X151864674Y-89309457D01*
X151990579Y-89129646D01*
X152083347Y-88930703D01*
X152140161Y-88718674D01*
X152159292Y-88500000D01*
X152156948Y-88473212D01*
X152140161Y-88281331D01*
X152140161Y-88281326D01*
X152086796Y-88082168D01*
X152088459Y-88012322D01*
X152127621Y-87954460D01*
X152191849Y-87926955D01*
X152260751Y-87938541D01*
X152294252Y-87962397D01*
X154208181Y-89876325D01*
X154241666Y-89937648D01*
X154244500Y-89964005D01*
X154244500Y-90136611D01*
X154271598Y-90307701D01*
X154325127Y-90472445D01*
X154403768Y-90626788D01*
X154505586Y-90766928D01*
X154628072Y-90889414D01*
X154711449Y-90949991D01*
X154754114Y-91005322D01*
X154760093Y-91074935D01*
X154727487Y-91136730D01*
X154711448Y-91150627D01*
X154628404Y-91210961D01*
X154628399Y-91210965D01*
X154505967Y-91333397D01*
X154404195Y-91473475D01*
X154325591Y-91627744D01*
X154272085Y-91792415D01*
X154270884Y-91799999D01*
X154270885Y-91800000D01*
X155339670Y-91800000D01*
X155319925Y-91819745D01*
X155270556Y-91905255D01*
X155245000Y-92000630D01*
X155245000Y-92099370D01*
X155270556Y-92194745D01*
X155319925Y-92280255D01*
X155339670Y-92300000D01*
X154270885Y-92300000D01*
X154272085Y-92307584D01*
X154325591Y-92472255D01*
X154404195Y-92626524D01*
X154505967Y-92766602D01*
X154628401Y-92889036D01*
X154711447Y-92949371D01*
X154754114Y-93004701D01*
X154760093Y-93074314D01*
X154727488Y-93136109D01*
X154711450Y-93150007D01*
X154628072Y-93210585D01*
X154505588Y-93333069D01*
X154505588Y-93333070D01*
X154505586Y-93333072D01*
X154485060Y-93361324D01*
X154403768Y-93473211D01*
X154325128Y-93627552D01*
X154271597Y-93792302D01*
X154244500Y-93963389D01*
X154244500Y-94136610D01*
X154270723Y-94302181D01*
X154271598Y-94307701D01*
X154325127Y-94472445D01*
X154403768Y-94626788D01*
X154505586Y-94766928D01*
X154505588Y-94766930D01*
X154613127Y-94874469D01*
X154646612Y-94935792D01*
X154641628Y-95005484D01*
X154599756Y-95061417D01*
X154590544Y-95067688D01*
X154526344Y-95107287D01*
X154402289Y-95231342D01*
X154310187Y-95380663D01*
X154310185Y-95380668D01*
X154288316Y-95446666D01*
X154255001Y-95547203D01*
X154255001Y-95547204D01*
X154255000Y-95547204D01*
X154244500Y-95649983D01*
X154244500Y-96450001D01*
X154244501Y-96450019D01*
X154255000Y-96552796D01*
X154255001Y-96552799D01*
X154310185Y-96719331D01*
X154310187Y-96719336D01*
X154345069Y-96775888D01*
X154402288Y-96868656D01*
X154526344Y-96992712D01*
X154675666Y-97084814D01*
X154842203Y-97139999D01*
X154944991Y-97150500D01*
X156295008Y-97150499D01*
X156397797Y-97139999D01*
X156564334Y-97084814D01*
X156713656Y-96992712D01*
X156837712Y-96868656D01*
X156929814Y-96719334D01*
X156929815Y-96719331D01*
X156933605Y-96713187D01*
X156935399Y-96714293D01*
X156974687Y-96669663D01*
X157040908Y-96650500D01*
X158633331Y-96650500D01*
X158633347Y-96650501D01*
X158640943Y-96650501D01*
X158799054Y-96650501D01*
X158799057Y-96650501D01*
X158951785Y-96609577D01*
X159001904Y-96580639D01*
X159088716Y-96530520D01*
X159200520Y-96418716D01*
X159200520Y-96418714D01*
X159210728Y-96408507D01*
X159210730Y-96408504D01*
X160213787Y-95405446D01*
X160275108Y-95371963D01*
X160344800Y-95376947D01*
X160400733Y-95418819D01*
X160419396Y-95454808D01*
X160425127Y-95472446D01*
X160458255Y-95537463D01*
X160503768Y-95626788D01*
X160605586Y-95766928D01*
X160605588Y-95766930D01*
X160713491Y-95874833D01*
X160746976Y-95936156D01*
X160741992Y-96005848D01*
X160700120Y-96061781D01*
X160690907Y-96068053D01*
X160626654Y-96107684D01*
X160502684Y-96231654D01*
X160410643Y-96380875D01*
X160410641Y-96380880D01*
X160355494Y-96547302D01*
X160355493Y-96547309D01*
X160345000Y-96650013D01*
X160345000Y-96800000D01*
X161439670Y-96800000D01*
X161419925Y-96819745D01*
X161370556Y-96905255D01*
X161345000Y-97000630D01*
X161345000Y-97099370D01*
X161370556Y-97194745D01*
X161419925Y-97280255D01*
X161439670Y-97300000D01*
X160345001Y-97300000D01*
X160345001Y-97449986D01*
X160355494Y-97552697D01*
X160410641Y-97719119D01*
X160410643Y-97719124D01*
X160502684Y-97868345D01*
X160626654Y-97992315D01*
X160775875Y-98084356D01*
X160775880Y-98084358D01*
X160942302Y-98139505D01*
X160942309Y-98139506D01*
X161045019Y-98149999D01*
X161469999Y-98149999D01*
X161470000Y-98149998D01*
X161470000Y-97330330D01*
X161489745Y-97350075D01*
X161575255Y-97399444D01*
X161670630Y-97425000D01*
X161769370Y-97425000D01*
X161864745Y-97399444D01*
X161950255Y-97350075D01*
X161970000Y-97330330D01*
X161970000Y-98149999D01*
X162394972Y-98149999D01*
X162394986Y-98149998D01*
X162497697Y-98139505D01*
X162664119Y-98084358D01*
X162664124Y-98084356D01*
X162813345Y-97992315D01*
X162937315Y-97868345D01*
X163029356Y-97719124D01*
X163029358Y-97719119D01*
X163084505Y-97552697D01*
X163084506Y-97552690D01*
X163094999Y-97449986D01*
X163095000Y-97449973D01*
X163095000Y-97300000D01*
X162000330Y-97300000D01*
X162020075Y-97280255D01*
X162069444Y-97194745D01*
X162095000Y-97099370D01*
X162095000Y-97000630D01*
X162069444Y-96905255D01*
X162020075Y-96819745D01*
X162000330Y-96800000D01*
X163094999Y-96800000D01*
X163094999Y-96650028D01*
X163094998Y-96650013D01*
X163084505Y-96547302D01*
X163029358Y-96380880D01*
X163029356Y-96380875D01*
X162937315Y-96231654D01*
X162813343Y-96107682D01*
X162749093Y-96068053D01*
X162702368Y-96016105D01*
X162691145Y-95947143D01*
X162718988Y-95883061D01*
X162726486Y-95874855D01*
X162834414Y-95766928D01*
X162936232Y-95626788D01*
X163014873Y-95472445D01*
X163068402Y-95307701D01*
X163095500Y-95136611D01*
X163095500Y-94963389D01*
X163068402Y-94792299D01*
X163014873Y-94627555D01*
X162936232Y-94473212D01*
X162834414Y-94333072D01*
X162711928Y-94210586D01*
X162628975Y-94150317D01*
X162586311Y-94094988D01*
X162580332Y-94025374D01*
X162612938Y-93963579D01*
X162628976Y-93949682D01*
X162711928Y-93889414D01*
X162834414Y-93766928D01*
X162936232Y-93626788D01*
X163014873Y-93472445D01*
X163068402Y-93307701D01*
X163095500Y-93136611D01*
X163095500Y-92963389D01*
X163068402Y-92792299D01*
X163014873Y-92627555D01*
X162936232Y-92473212D01*
X162834414Y-92333072D01*
X162711928Y-92210586D01*
X162628975Y-92150317D01*
X162586311Y-92094988D01*
X162580332Y-92025374D01*
X162612938Y-91963579D01*
X162628976Y-91949682D01*
X162711928Y-91889414D01*
X162834414Y-91766928D01*
X162936232Y-91626788D01*
X163014873Y-91472445D01*
X163068402Y-91307701D01*
X163095500Y-91136611D01*
X163095500Y-90963389D01*
X163068402Y-90792299D01*
X163014873Y-90627555D01*
X162936232Y-90473212D01*
X162834414Y-90333072D01*
X162711928Y-90210586D01*
X162628975Y-90150317D01*
X162586311Y-90094988D01*
X162580332Y-90025374D01*
X162612938Y-89963579D01*
X162613157Y-89963389D01*
X167344500Y-89963389D01*
X167344500Y-90136611D01*
X167371598Y-90307701D01*
X167425127Y-90472445D01*
X167503768Y-90626788D01*
X167605586Y-90766928D01*
X167728072Y-90889414D01*
X167811449Y-90949991D01*
X167854114Y-91005322D01*
X167860093Y-91074935D01*
X167827487Y-91136730D01*
X167811448Y-91150627D01*
X167728404Y-91210961D01*
X167728399Y-91210965D01*
X167605967Y-91333397D01*
X167504195Y-91473475D01*
X167425591Y-91627744D01*
X167372085Y-91792415D01*
X167370884Y-91799999D01*
X167370885Y-91800000D01*
X168439670Y-91800000D01*
X168419925Y-91819745D01*
X168370556Y-91905255D01*
X168345000Y-92000630D01*
X168345000Y-92099370D01*
X168370556Y-92194745D01*
X168419925Y-92280255D01*
X168439670Y-92300000D01*
X167370885Y-92300000D01*
X167372085Y-92307584D01*
X167425591Y-92472255D01*
X167504195Y-92626524D01*
X167605967Y-92766602D01*
X167728401Y-92889036D01*
X167811447Y-92949371D01*
X167854114Y-93004701D01*
X167860093Y-93074314D01*
X167827488Y-93136109D01*
X167811450Y-93150007D01*
X167728072Y-93210585D01*
X167605588Y-93333069D01*
X167605588Y-93333070D01*
X167605586Y-93333072D01*
X167585060Y-93361324D01*
X167503768Y-93473211D01*
X167425128Y-93627552D01*
X167371597Y-93792302D01*
X167344500Y-93963389D01*
X167344500Y-94136610D01*
X167370723Y-94302181D01*
X167371598Y-94307701D01*
X167425127Y-94472445D01*
X167503768Y-94626788D01*
X167605586Y-94766928D01*
X167605588Y-94766930D01*
X167713127Y-94874469D01*
X167746612Y-94935792D01*
X167741628Y-95005484D01*
X167699756Y-95061417D01*
X167690544Y-95067688D01*
X167626344Y-95107287D01*
X167502289Y-95231342D01*
X167410187Y-95380663D01*
X167410185Y-95380668D01*
X167388316Y-95446666D01*
X167355001Y-95547203D01*
X167355001Y-95547204D01*
X167355000Y-95547204D01*
X167344500Y-95649983D01*
X167344500Y-96450001D01*
X167344501Y-96450019D01*
X167355000Y-96552796D01*
X167355001Y-96552799D01*
X167410185Y-96719331D01*
X167410187Y-96719336D01*
X167445069Y-96775888D01*
X167502288Y-96868656D01*
X167626344Y-96992712D01*
X167775666Y-97084814D01*
X167942203Y-97139999D01*
X168044991Y-97150500D01*
X169395008Y-97150499D01*
X169497797Y-97139999D01*
X169664334Y-97084814D01*
X169813656Y-96992712D01*
X169937712Y-96868656D01*
X170029814Y-96719334D01*
X170029815Y-96719331D01*
X170033605Y-96713187D01*
X170035399Y-96714293D01*
X170074687Y-96669663D01*
X170140908Y-96650500D01*
X171733331Y-96650500D01*
X171733347Y-96650501D01*
X171740943Y-96650501D01*
X171899054Y-96650501D01*
X171899057Y-96650501D01*
X172051785Y-96609577D01*
X172101904Y-96580639D01*
X172188716Y-96530520D01*
X172300520Y-96418716D01*
X172300520Y-96418714D01*
X172310728Y-96408507D01*
X172310730Y-96408504D01*
X173313787Y-95405446D01*
X173375108Y-95371963D01*
X173444800Y-95376947D01*
X173500733Y-95418819D01*
X173519396Y-95454808D01*
X173525127Y-95472446D01*
X173558255Y-95537463D01*
X173603768Y-95626788D01*
X173705586Y-95766928D01*
X173705588Y-95766930D01*
X173813491Y-95874833D01*
X173846976Y-95936156D01*
X173841992Y-96005848D01*
X173800120Y-96061781D01*
X173790907Y-96068053D01*
X173726654Y-96107684D01*
X173602684Y-96231654D01*
X173510643Y-96380875D01*
X173510641Y-96380880D01*
X173455494Y-96547302D01*
X173455493Y-96547309D01*
X173445000Y-96650013D01*
X173445000Y-96800000D01*
X174539670Y-96800000D01*
X174519925Y-96819745D01*
X174470556Y-96905255D01*
X174445000Y-97000630D01*
X174445000Y-97099370D01*
X174470556Y-97194745D01*
X174519925Y-97280255D01*
X174539670Y-97300000D01*
X173445001Y-97300000D01*
X173445001Y-97449986D01*
X173455494Y-97552697D01*
X173510641Y-97719119D01*
X173510643Y-97719124D01*
X173602684Y-97868345D01*
X173726654Y-97992315D01*
X173875875Y-98084356D01*
X173875880Y-98084358D01*
X174042302Y-98139505D01*
X174042309Y-98139506D01*
X174145019Y-98149999D01*
X174569999Y-98149999D01*
X174570000Y-98149998D01*
X174570000Y-97330330D01*
X174589745Y-97350075D01*
X174675255Y-97399444D01*
X174770630Y-97425000D01*
X174869370Y-97425000D01*
X174964745Y-97399444D01*
X175050255Y-97350075D01*
X175070000Y-97330330D01*
X175070000Y-98149999D01*
X175494972Y-98149999D01*
X175494986Y-98149998D01*
X175597697Y-98139505D01*
X175764119Y-98084358D01*
X175764124Y-98084356D01*
X175913345Y-97992315D01*
X176037315Y-97868345D01*
X176129356Y-97719124D01*
X176129358Y-97719119D01*
X176184505Y-97552697D01*
X176184506Y-97552690D01*
X176194999Y-97449986D01*
X176195000Y-97449973D01*
X176195000Y-97300000D01*
X175100330Y-97300000D01*
X175120075Y-97280255D01*
X175169444Y-97194745D01*
X175195000Y-97099370D01*
X175195000Y-97000630D01*
X175169444Y-96905255D01*
X175120075Y-96819745D01*
X175100330Y-96800000D01*
X176194999Y-96800000D01*
X176194999Y-96650028D01*
X176194998Y-96650013D01*
X176184505Y-96547302D01*
X176129358Y-96380880D01*
X176129356Y-96380875D01*
X176037315Y-96231654D01*
X175913343Y-96107682D01*
X175849093Y-96068053D01*
X175802368Y-96016105D01*
X175791145Y-95947143D01*
X175818988Y-95883061D01*
X175826486Y-95874855D01*
X175934414Y-95766928D01*
X176036232Y-95626788D01*
X176114873Y-95472445D01*
X176168402Y-95307701D01*
X176195500Y-95136611D01*
X176195500Y-94963389D01*
X176168402Y-94792299D01*
X176114873Y-94627555D01*
X176036232Y-94473212D01*
X175934414Y-94333072D01*
X175811928Y-94210586D01*
X175728975Y-94150317D01*
X175686311Y-94094988D01*
X175680332Y-94025374D01*
X175712938Y-93963579D01*
X175728976Y-93949682D01*
X175811928Y-93889414D01*
X175934414Y-93766928D01*
X176036232Y-93626788D01*
X176114873Y-93472445D01*
X176168402Y-93307701D01*
X176195500Y-93136611D01*
X176195500Y-92963389D01*
X176168402Y-92792299D01*
X176114873Y-92627555D01*
X176036232Y-92473212D01*
X175934414Y-92333072D01*
X175811928Y-92210586D01*
X175728975Y-92150317D01*
X175686311Y-92094988D01*
X175680332Y-92025374D01*
X175712938Y-91963579D01*
X175728976Y-91949682D01*
X175811928Y-91889414D01*
X175934414Y-91766928D01*
X176036232Y-91626788D01*
X176114873Y-91472445D01*
X176168402Y-91307701D01*
X176195500Y-91136611D01*
X176195500Y-90963389D01*
X176168402Y-90792299D01*
X176114873Y-90627555D01*
X176036232Y-90473212D01*
X175934414Y-90333072D01*
X175811928Y-90210586D01*
X175728975Y-90150317D01*
X175686311Y-90094988D01*
X175680332Y-90025374D01*
X175712938Y-89963579D01*
X175728976Y-89949682D01*
X175811928Y-89889414D01*
X175934414Y-89766928D01*
X176036232Y-89626788D01*
X176114873Y-89472445D01*
X176168402Y-89307701D01*
X176195500Y-89136611D01*
X176195500Y-88963389D01*
X176168402Y-88792299D01*
X176114873Y-88627555D01*
X176036232Y-88473212D01*
X175934414Y-88333072D01*
X175811928Y-88210586D01*
X175671788Y-88108768D01*
X175517445Y-88030127D01*
X175352701Y-87976598D01*
X175352699Y-87976597D01*
X175352698Y-87976597D01*
X175212927Y-87954460D01*
X175181611Y-87949500D01*
X174458389Y-87949500D01*
X174427073Y-87954460D01*
X174287302Y-87976597D01*
X174122552Y-88030128D01*
X173968211Y-88108768D01*
X173888256Y-88166859D01*
X173828072Y-88210586D01*
X173828070Y-88210588D01*
X173828069Y-88210588D01*
X173705588Y-88333069D01*
X173705588Y-88333070D01*
X173705586Y-88333072D01*
X173661859Y-88393256D01*
X173603768Y-88473211D01*
X173525128Y-88627552D01*
X173471597Y-88792302D01*
X173449677Y-88930703D01*
X173444500Y-88963389D01*
X173444500Y-89136611D01*
X173471598Y-89307701D01*
X173525127Y-89472445D01*
X173603768Y-89626788D01*
X173705586Y-89766928D01*
X173828072Y-89889414D01*
X173845257Y-89901899D01*
X173911023Y-89949683D01*
X173953689Y-90005013D01*
X173959667Y-90074626D01*
X173927061Y-90136421D01*
X173911023Y-90150317D01*
X173828078Y-90210581D01*
X173828069Y-90210588D01*
X173705588Y-90333069D01*
X173705588Y-90333070D01*
X173705586Y-90333072D01*
X173661859Y-90393256D01*
X173603768Y-90473211D01*
X173525128Y-90627552D01*
X173471597Y-90792302D01*
X173444500Y-90963389D01*
X173444500Y-91136610D01*
X173456276Y-91210965D01*
X173471598Y-91307701D01*
X173525127Y-91472445D01*
X173603768Y-91626788D01*
X173705586Y-91766928D01*
X173828072Y-91889414D01*
X173828078Y-91889418D01*
X173911023Y-91949683D01*
X173953689Y-92005013D01*
X173959667Y-92074626D01*
X173927061Y-92136421D01*
X173911023Y-92150317D01*
X173828078Y-92210581D01*
X173828069Y-92210588D01*
X173705588Y-92333069D01*
X173705588Y-92333070D01*
X173705586Y-92333072D01*
X173693233Y-92350075D01*
X173603768Y-92473211D01*
X173525128Y-92627552D01*
X173471597Y-92792302D01*
X173444500Y-92963389D01*
X173444500Y-93136610D01*
X173471597Y-93307698D01*
X173507333Y-93417681D01*
X173509328Y-93487522D01*
X173477083Y-93543680D01*
X171607584Y-95413181D01*
X171546261Y-95446666D01*
X171519903Y-95449500D01*
X170140908Y-95449500D01*
X170073869Y-95429815D01*
X170035363Y-95385728D01*
X170033605Y-95386813D01*
X170027520Y-95376947D01*
X169937712Y-95231344D01*
X169813656Y-95107288D01*
X169813652Y-95107285D01*
X169749456Y-95067688D01*
X169702731Y-95015740D01*
X169691510Y-94946777D01*
X169719353Y-94882695D01*
X169726850Y-94874491D01*
X169834414Y-94766928D01*
X169936232Y-94626788D01*
X170014873Y-94472445D01*
X170068402Y-94307701D01*
X170095500Y-94136611D01*
X170095500Y-93963389D01*
X170068402Y-93792299D01*
X170014873Y-93627555D01*
X169936232Y-93473212D01*
X169834414Y-93333072D01*
X169711928Y-93210586D01*
X169628550Y-93150008D01*
X169585885Y-93094677D01*
X169579906Y-93025064D01*
X169612512Y-92963269D01*
X169628552Y-92949371D01*
X169711598Y-92889036D01*
X169834032Y-92766602D01*
X169935804Y-92626524D01*
X170014408Y-92472255D01*
X170067914Y-92307584D01*
X170069115Y-92300000D01*
X169000330Y-92300000D01*
X169020075Y-92280255D01*
X169069444Y-92194745D01*
X169095000Y-92099370D01*
X169095000Y-92000630D01*
X169069444Y-91905255D01*
X169020075Y-91819745D01*
X169000330Y-91800000D01*
X170069115Y-91800000D01*
X170069115Y-91799999D01*
X170067914Y-91792415D01*
X170014408Y-91627744D01*
X169935804Y-91473475D01*
X169834032Y-91333397D01*
X169711602Y-91210967D01*
X169628551Y-91150628D01*
X169585885Y-91095298D01*
X169579906Y-91025685D01*
X169612511Y-90963889D01*
X169628551Y-90949991D01*
X169711928Y-90889414D01*
X169834414Y-90766928D01*
X169936232Y-90626788D01*
X170014873Y-90472445D01*
X170068402Y-90307701D01*
X170095500Y-90136611D01*
X170095500Y-89963389D01*
X170068402Y-89792299D01*
X170014873Y-89627555D01*
X169936232Y-89473212D01*
X169834414Y-89333072D01*
X169711928Y-89210586D01*
X169571788Y-89108768D01*
X169417445Y-89030127D01*
X169252701Y-88976598D01*
X169252699Y-88976597D01*
X169252698Y-88976597D01*
X169121271Y-88955781D01*
X169081611Y-88949500D01*
X168358389Y-88949500D01*
X168318728Y-88955781D01*
X168187302Y-88976597D01*
X168022552Y-89030128D01*
X167868211Y-89108768D01*
X167788256Y-89166859D01*
X167728072Y-89210586D01*
X167728070Y-89210588D01*
X167728069Y-89210588D01*
X167605588Y-89333069D01*
X167605588Y-89333070D01*
X167605586Y-89333072D01*
X167561859Y-89393256D01*
X167503768Y-89473211D01*
X167425128Y-89627552D01*
X167371597Y-89792302D01*
X167357330Y-89882382D01*
X167344500Y-89963389D01*
X162613157Y-89963389D01*
X162628976Y-89949682D01*
X162711928Y-89889414D01*
X162834414Y-89766928D01*
X162936232Y-89626788D01*
X163014873Y-89472445D01*
X163068402Y-89307701D01*
X163095500Y-89136611D01*
X163095500Y-88963389D01*
X163068402Y-88792299D01*
X163014873Y-88627555D01*
X162936232Y-88473212D01*
X162834414Y-88333072D01*
X162711928Y-88210586D01*
X162571788Y-88108768D01*
X162417445Y-88030127D01*
X162252701Y-87976598D01*
X162252699Y-87976597D01*
X162252698Y-87976597D01*
X162112927Y-87954460D01*
X162081611Y-87949500D01*
X161358389Y-87949500D01*
X161327073Y-87954460D01*
X161187302Y-87976597D01*
X161022552Y-88030128D01*
X160868211Y-88108768D01*
X160788256Y-88166859D01*
X160728072Y-88210586D01*
X160728070Y-88210588D01*
X160728069Y-88210588D01*
X160605588Y-88333069D01*
X160605588Y-88333070D01*
X160605586Y-88333072D01*
X160561859Y-88393256D01*
X160503768Y-88473211D01*
X160425128Y-88627552D01*
X160371597Y-88792302D01*
X160349677Y-88930703D01*
X160344500Y-88963389D01*
X160344500Y-89136611D01*
X160371598Y-89307701D01*
X160425127Y-89472445D01*
X160503768Y-89626788D01*
X160605586Y-89766928D01*
X160728072Y-89889414D01*
X160745257Y-89901899D01*
X160811023Y-89949683D01*
X160853689Y-90005013D01*
X160859667Y-90074626D01*
X160827061Y-90136421D01*
X160811023Y-90150317D01*
X160728078Y-90210581D01*
X160728069Y-90210588D01*
X160605588Y-90333069D01*
X160605588Y-90333070D01*
X160605586Y-90333072D01*
X160561859Y-90393256D01*
X160503768Y-90473211D01*
X160425128Y-90627552D01*
X160371597Y-90792302D01*
X160344500Y-90963389D01*
X160344500Y-91136610D01*
X160356276Y-91210965D01*
X160371598Y-91307701D01*
X160425127Y-91472445D01*
X160503768Y-91626788D01*
X160605586Y-91766928D01*
X160728072Y-91889414D01*
X160728078Y-91889418D01*
X160811023Y-91949683D01*
X160853689Y-92005013D01*
X160859667Y-92074626D01*
X160827061Y-92136421D01*
X160811023Y-92150317D01*
X160728078Y-92210581D01*
X160728069Y-92210588D01*
X160605588Y-92333069D01*
X160605588Y-92333070D01*
X160605586Y-92333072D01*
X160593233Y-92350075D01*
X160503768Y-92473211D01*
X160425128Y-92627552D01*
X160371597Y-92792302D01*
X160344500Y-92963389D01*
X160344500Y-93136610D01*
X160371597Y-93307698D01*
X160407333Y-93417681D01*
X160409328Y-93487522D01*
X160377083Y-93543680D01*
X158507584Y-95413181D01*
X158446261Y-95446666D01*
X158419903Y-95449500D01*
X157040908Y-95449500D01*
X156973869Y-95429815D01*
X156935363Y-95385728D01*
X156933605Y-95386813D01*
X156927520Y-95376947D01*
X156837712Y-95231344D01*
X156713656Y-95107288D01*
X156713652Y-95107285D01*
X156649456Y-95067688D01*
X156602731Y-95015740D01*
X156591510Y-94946777D01*
X156619353Y-94882695D01*
X156626850Y-94874491D01*
X156734414Y-94766928D01*
X156836232Y-94626788D01*
X156914873Y-94472445D01*
X156968402Y-94307701D01*
X156995500Y-94136611D01*
X156995500Y-93963389D01*
X156968402Y-93792299D01*
X156914873Y-93627555D01*
X156836232Y-93473212D01*
X156734414Y-93333072D01*
X156611928Y-93210586D01*
X156528550Y-93150008D01*
X156485885Y-93094677D01*
X156479906Y-93025064D01*
X156512512Y-92963269D01*
X156528552Y-92949371D01*
X156611598Y-92889036D01*
X156734032Y-92766602D01*
X156835804Y-92626524D01*
X156914408Y-92472255D01*
X156967914Y-92307584D01*
X156969115Y-92300000D01*
X155900330Y-92300000D01*
X155920075Y-92280255D01*
X155969444Y-92194745D01*
X155995000Y-92099370D01*
X155995000Y-92000630D01*
X155969444Y-91905255D01*
X155920075Y-91819745D01*
X155900330Y-91800000D01*
X156969115Y-91800000D01*
X156969115Y-91799999D01*
X156967914Y-91792415D01*
X156914408Y-91627744D01*
X156835804Y-91473475D01*
X156734032Y-91333397D01*
X156611602Y-91210967D01*
X156528551Y-91150628D01*
X156485885Y-91095298D01*
X156479906Y-91025685D01*
X156512511Y-90963889D01*
X156528551Y-90949991D01*
X156611928Y-90889414D01*
X156734414Y-90766928D01*
X156836232Y-90626788D01*
X156914873Y-90472445D01*
X156968402Y-90307701D01*
X156995500Y-90136611D01*
X156995500Y-89963389D01*
X156968402Y-89792299D01*
X156914873Y-89627555D01*
X156836232Y-89473212D01*
X156734414Y-89333072D01*
X156611928Y-89210586D01*
X156471788Y-89108768D01*
X156317445Y-89030127D01*
X156152701Y-88976598D01*
X156152699Y-88976597D01*
X156152698Y-88976597D01*
X156021271Y-88955781D01*
X155981611Y-88949500D01*
X155981610Y-88949500D01*
X155809006Y-88949500D01*
X155741967Y-88929815D01*
X155721325Y-88913181D01*
X153731819Y-86923675D01*
X153698334Y-86862352D01*
X153695500Y-86835994D01*
X153695500Y-73649500D01*
X153715185Y-73582461D01*
X153767989Y-73536706D01*
X153819500Y-73525500D01*
X154637449Y-73525500D01*
X154704488Y-73545185D01*
X154710313Y-73549166D01*
X154711427Y-73549975D01*
X154754104Y-73605296D01*
X154760099Y-73674908D01*
X154727506Y-73736710D01*
X154711448Y-73750627D01*
X154628404Y-73810961D01*
X154628399Y-73810965D01*
X154505967Y-73933397D01*
X154404195Y-74073475D01*
X154325591Y-74227744D01*
X154272085Y-74392415D01*
X154270884Y-74399999D01*
X154270885Y-74400000D01*
X155339670Y-74400000D01*
X155319925Y-74419745D01*
X155270556Y-74505255D01*
X155245000Y-74600630D01*
X155245000Y-74699370D01*
X155270556Y-74794745D01*
X155319925Y-74880255D01*
X155339670Y-74900000D01*
X154270885Y-74900000D01*
X154272085Y-74907584D01*
X154325591Y-75072255D01*
X154404195Y-75226524D01*
X154505967Y-75366602D01*
X154628401Y-75489036D01*
X154711447Y-75549371D01*
X154754114Y-75604701D01*
X154760093Y-75674314D01*
X154727488Y-75736109D01*
X154711450Y-75750007D01*
X154628072Y-75810585D01*
X154505588Y-75933069D01*
X154505588Y-75933070D01*
X154505586Y-75933072D01*
X154491033Y-75953103D01*
X154403768Y-76073211D01*
X154325128Y-76227552D01*
X154271597Y-76392302D01*
X154244500Y-76563389D01*
X154244500Y-76736610D01*
X154268885Y-76890576D01*
X154271598Y-76907701D01*
X154325127Y-77072445D01*
X154403768Y-77226788D01*
X154505586Y-77366928D01*
X154505588Y-77366930D01*
X154613127Y-77474469D01*
X154646612Y-77535792D01*
X154641628Y-77605484D01*
X154599756Y-77661417D01*
X154590544Y-77667688D01*
X154526344Y-77707287D01*
X154402289Y-77831342D01*
X154310187Y-77980663D01*
X154310185Y-77980668D01*
X154300857Y-78008819D01*
X154255001Y-78147203D01*
X154255001Y-78147204D01*
X154255000Y-78147204D01*
X154244500Y-78249983D01*
X154244500Y-79050001D01*
X154244501Y-79050019D01*
X154252958Y-79132796D01*
X154254440Y-79147309D01*
X154255001Y-79152795D01*
X154255001Y-79152797D01*
X154310185Y-79319331D01*
X154310187Y-79319336D01*
X154340816Y-79368993D01*
X154402288Y-79468656D01*
X154526344Y-79592712D01*
X154675666Y-79684814D01*
X154842203Y-79739999D01*
X154944991Y-79750500D01*
X156295008Y-79750499D01*
X156397797Y-79739999D01*
X156564334Y-79684814D01*
X156713656Y-79592712D01*
X156837712Y-79468656D01*
X156929814Y-79319334D01*
X156984999Y-79152797D01*
X156995500Y-79050009D01*
X156995499Y-78249992D01*
X156989785Y-78194053D01*
X157002555Y-78125360D01*
X157025459Y-78093774D01*
X158832417Y-76286819D01*
X158893740Y-76253334D01*
X158920098Y-76250500D01*
X160457815Y-76250500D01*
X160524854Y-76270185D01*
X160558131Y-76301612D01*
X160605586Y-76366928D01*
X160728072Y-76489414D01*
X160728078Y-76489418D01*
X160811023Y-76549683D01*
X160853689Y-76605013D01*
X160859667Y-76674626D01*
X160827061Y-76736421D01*
X160811023Y-76750317D01*
X160728078Y-76810581D01*
X160728069Y-76810588D01*
X160605588Y-76933069D01*
X160605588Y-76933070D01*
X160605586Y-76933072D01*
X160569059Y-76983347D01*
X160503768Y-77073211D01*
X160425128Y-77227552D01*
X160371597Y-77392302D01*
X160344500Y-77563389D01*
X160344500Y-77736610D01*
X160370013Y-77897697D01*
X160371598Y-77907701D01*
X160425127Y-78072445D01*
X160503768Y-78226788D01*
X160605586Y-78366928D01*
X160605588Y-78366930D01*
X160713491Y-78474833D01*
X160746976Y-78536156D01*
X160741992Y-78605848D01*
X160700120Y-78661781D01*
X160690907Y-78668053D01*
X160626654Y-78707684D01*
X160502684Y-78831654D01*
X160410643Y-78980875D01*
X160410641Y-78980880D01*
X160355494Y-79147302D01*
X160355493Y-79147309D01*
X160345000Y-79250013D01*
X160345000Y-79400000D01*
X161439670Y-79400000D01*
X161419925Y-79419745D01*
X161370556Y-79505255D01*
X161345000Y-79600630D01*
X161345000Y-79699370D01*
X161370556Y-79794745D01*
X161419925Y-79880255D01*
X161439670Y-79900000D01*
X160345001Y-79900000D01*
X160345001Y-80049986D01*
X160355494Y-80152697D01*
X160410641Y-80319119D01*
X160410643Y-80319124D01*
X160502684Y-80468345D01*
X160626654Y-80592315D01*
X160775875Y-80684356D01*
X160775880Y-80684358D01*
X160942302Y-80739505D01*
X160942309Y-80739506D01*
X161045019Y-80749999D01*
X161469999Y-80749999D01*
X161470000Y-80749998D01*
X161470000Y-79930330D01*
X161489745Y-79950075D01*
X161575255Y-79999444D01*
X161670630Y-80025000D01*
X161769370Y-80025000D01*
X161864745Y-79999444D01*
X161950255Y-79950075D01*
X161970000Y-79930330D01*
X161970000Y-80749999D01*
X162394972Y-80749999D01*
X162394986Y-80749998D01*
X162497697Y-80739505D01*
X162664119Y-80684358D01*
X162664124Y-80684356D01*
X162813345Y-80592315D01*
X162937315Y-80468345D01*
X163029356Y-80319124D01*
X163029358Y-80319119D01*
X163084505Y-80152697D01*
X163084506Y-80152690D01*
X163094999Y-80049986D01*
X163095000Y-80049973D01*
X163095000Y-79900000D01*
X162000330Y-79900000D01*
X162020075Y-79880255D01*
X162069444Y-79794745D01*
X162095000Y-79699370D01*
X162095000Y-79600630D01*
X162069444Y-79505255D01*
X162020075Y-79419745D01*
X162000330Y-79400000D01*
X163094999Y-79400000D01*
X163094999Y-79250028D01*
X163094998Y-79250013D01*
X163084505Y-79147302D01*
X163029358Y-78980880D01*
X163029356Y-78980875D01*
X162937315Y-78831654D01*
X162813343Y-78707682D01*
X162749093Y-78668053D01*
X162702368Y-78616105D01*
X162691145Y-78547143D01*
X162718988Y-78483061D01*
X162726486Y-78474855D01*
X162834414Y-78366928D01*
X162936232Y-78226788D01*
X163014873Y-78072445D01*
X163068402Y-77907701D01*
X163095500Y-77736611D01*
X163095500Y-77563389D01*
X163068402Y-77392299D01*
X163014873Y-77227555D01*
X162936232Y-77073212D01*
X162834414Y-76933072D01*
X162711928Y-76810586D01*
X162628975Y-76750317D01*
X162586311Y-76694988D01*
X162580332Y-76625374D01*
X162612938Y-76563579D01*
X162628976Y-76549682D01*
X162711928Y-76489414D01*
X162834414Y-76366928D01*
X162936232Y-76226788D01*
X163014873Y-76072445D01*
X163068402Y-75907701D01*
X163095500Y-75736611D01*
X163095500Y-75563389D01*
X163068402Y-75392299D01*
X163014873Y-75227555D01*
X162936232Y-75073212D01*
X162834414Y-74933072D01*
X162711928Y-74810586D01*
X162628975Y-74750317D01*
X162586311Y-74694988D01*
X162580332Y-74625374D01*
X162612938Y-74563579D01*
X162628976Y-74549682D01*
X162711928Y-74489414D01*
X162834414Y-74366928D01*
X162936232Y-74226788D01*
X163014873Y-74072445D01*
X163068402Y-73907701D01*
X163095500Y-73736611D01*
X163095500Y-73563389D01*
X163068402Y-73392299D01*
X163014873Y-73227555D01*
X162936232Y-73073212D01*
X162834414Y-72933072D01*
X162711928Y-72810586D01*
X162628975Y-72750317D01*
X162586311Y-72694988D01*
X162580332Y-72625374D01*
X162612938Y-72563579D01*
X162628976Y-72549682D01*
X162637638Y-72543389D01*
X167344500Y-72543389D01*
X167344500Y-72716610D01*
X167357799Y-72800581D01*
X167371598Y-72887701D01*
X167421514Y-73041326D01*
X167425128Y-73052447D01*
X167430613Y-73063212D01*
X167503768Y-73206788D01*
X167605586Y-73346928D01*
X167728072Y-73469414D01*
X167759831Y-73492488D01*
X167811449Y-73529991D01*
X167854114Y-73585322D01*
X167860093Y-73654935D01*
X167827487Y-73716730D01*
X167811448Y-73730627D01*
X167728404Y-73790961D01*
X167728399Y-73790965D01*
X167605967Y-73913397D01*
X167504195Y-74053475D01*
X167425591Y-74207744D01*
X167372085Y-74372415D01*
X167370884Y-74379999D01*
X167370885Y-74380000D01*
X168439670Y-74380000D01*
X168419925Y-74399745D01*
X168370556Y-74485255D01*
X168345000Y-74580630D01*
X168345000Y-74679370D01*
X168370556Y-74774745D01*
X168419925Y-74860255D01*
X168439670Y-74880000D01*
X167370885Y-74880000D01*
X167372085Y-74887584D01*
X167425591Y-75052255D01*
X167504195Y-75206524D01*
X167605967Y-75346602D01*
X167728401Y-75469036D01*
X167811447Y-75529371D01*
X167854114Y-75584701D01*
X167860093Y-75654314D01*
X167827488Y-75716109D01*
X167811450Y-75730007D01*
X167728072Y-75790585D01*
X167605588Y-75913069D01*
X167605588Y-75913070D01*
X167605586Y-75913072D01*
X167576502Y-75953103D01*
X167503768Y-76053211D01*
X167425128Y-76207552D01*
X167425127Y-76207554D01*
X167425127Y-76207555D01*
X167412897Y-76245194D01*
X167371597Y-76372302D01*
X167344500Y-76543389D01*
X167344500Y-76716610D01*
X167362299Y-76828993D01*
X167371598Y-76887701D01*
X167408780Y-77002136D01*
X167425128Y-77052447D01*
X167435317Y-77072445D01*
X167503768Y-77206788D01*
X167605586Y-77346928D01*
X167605588Y-77346930D01*
X167713127Y-77454469D01*
X167746612Y-77515792D01*
X167741628Y-77585484D01*
X167699756Y-77641417D01*
X167690544Y-77647688D01*
X167626344Y-77687287D01*
X167502289Y-77811342D01*
X167410187Y-77960663D01*
X167410185Y-77960668D01*
X167388316Y-78026666D01*
X167355001Y-78127203D01*
X167355001Y-78127204D01*
X167355000Y-78127204D01*
X167344500Y-78229983D01*
X167344500Y-79030001D01*
X167344501Y-79030019D01*
X167355000Y-79132796D01*
X167355001Y-79132799D01*
X167410185Y-79299331D01*
X167410187Y-79299336D01*
X167422520Y-79319331D01*
X167502288Y-79448656D01*
X167626344Y-79572712D01*
X167775666Y-79664814D01*
X167942203Y-79719999D01*
X168044991Y-79730500D01*
X169395008Y-79730499D01*
X169497797Y-79719999D01*
X169664334Y-79664814D01*
X169813656Y-79572712D01*
X169937712Y-79448656D01*
X170029814Y-79299334D01*
X170029815Y-79299331D01*
X170033605Y-79293187D01*
X170035399Y-79294293D01*
X170074687Y-79249663D01*
X170140908Y-79230500D01*
X171743331Y-79230500D01*
X171743347Y-79230501D01*
X171750943Y-79230501D01*
X171909054Y-79230501D01*
X171909057Y-79230501D01*
X172061785Y-79189577D01*
X172125489Y-79152797D01*
X172198716Y-79110520D01*
X172310520Y-78998716D01*
X172310520Y-78998714D01*
X172320724Y-78988511D01*
X172320728Y-78988506D01*
X173313787Y-77995446D01*
X173375108Y-77961963D01*
X173444800Y-77966947D01*
X173500733Y-78008819D01*
X173519396Y-78044808D01*
X173525127Y-78062446D01*
X173558123Y-78127204D01*
X173603768Y-78216788D01*
X173705586Y-78356928D01*
X173705588Y-78356930D01*
X173813491Y-78464833D01*
X173846976Y-78526156D01*
X173841992Y-78595848D01*
X173800120Y-78651781D01*
X173790907Y-78658053D01*
X173726654Y-78697684D01*
X173602684Y-78821654D01*
X173510643Y-78970875D01*
X173510641Y-78970880D01*
X173455494Y-79137302D01*
X173455493Y-79137309D01*
X173445000Y-79240013D01*
X173445000Y-79390000D01*
X174539670Y-79390000D01*
X174519925Y-79409745D01*
X174470556Y-79495255D01*
X174445000Y-79590630D01*
X174445000Y-79689370D01*
X174470556Y-79784745D01*
X174519925Y-79870255D01*
X174539670Y-79890000D01*
X173445001Y-79890000D01*
X173445001Y-80039986D01*
X173455494Y-80142697D01*
X173510641Y-80309119D01*
X173510643Y-80309124D01*
X173602684Y-80458345D01*
X173726654Y-80582315D01*
X173875875Y-80674356D01*
X173875880Y-80674358D01*
X174042302Y-80729505D01*
X174042309Y-80729506D01*
X174145019Y-80739999D01*
X174569999Y-80739999D01*
X174570000Y-80739998D01*
X174570000Y-79920330D01*
X174589745Y-79940075D01*
X174675255Y-79989444D01*
X174770630Y-80015000D01*
X174869370Y-80015000D01*
X174964745Y-79989444D01*
X175050255Y-79940075D01*
X175070000Y-79920330D01*
X175070000Y-80739999D01*
X175494972Y-80739999D01*
X175494986Y-80739998D01*
X175597697Y-80729505D01*
X175764119Y-80674358D01*
X175764124Y-80674356D01*
X175913345Y-80582315D01*
X176037315Y-80458345D01*
X176129356Y-80309124D01*
X176129358Y-80309119D01*
X176184505Y-80142697D01*
X176184506Y-80142690D01*
X176194999Y-80039986D01*
X176195000Y-80039973D01*
X176195000Y-79890000D01*
X175100330Y-79890000D01*
X175120075Y-79870255D01*
X175169444Y-79784745D01*
X175195000Y-79689370D01*
X175195000Y-79590630D01*
X175169444Y-79495255D01*
X175120075Y-79409745D01*
X175100330Y-79390000D01*
X176194999Y-79390000D01*
X176194999Y-79240028D01*
X176194998Y-79240013D01*
X176184505Y-79137302D01*
X176129358Y-78970880D01*
X176129356Y-78970875D01*
X176037315Y-78821654D01*
X175913343Y-78697682D01*
X175849093Y-78658053D01*
X175802368Y-78606105D01*
X175791145Y-78537143D01*
X175818988Y-78473061D01*
X175826486Y-78464855D01*
X175934414Y-78356928D01*
X176036232Y-78216788D01*
X176114873Y-78062445D01*
X176168402Y-77897701D01*
X176195500Y-77726611D01*
X176195500Y-77553389D01*
X176168402Y-77382299D01*
X176114873Y-77217555D01*
X176036232Y-77063212D01*
X175934414Y-76923072D01*
X175811928Y-76800586D01*
X175728975Y-76740317D01*
X175686311Y-76684988D01*
X175680332Y-76615374D01*
X175712938Y-76553579D01*
X175728976Y-76539682D01*
X175811928Y-76479414D01*
X175934414Y-76356928D01*
X176036232Y-76216788D01*
X176114873Y-76062445D01*
X176168402Y-75897701D01*
X176195500Y-75726611D01*
X176195500Y-75553389D01*
X176168402Y-75382299D01*
X176114873Y-75217555D01*
X176036232Y-75063212D01*
X175934414Y-74923072D01*
X175811928Y-74800586D01*
X175728975Y-74740317D01*
X175686311Y-74684988D01*
X175680332Y-74615374D01*
X175712938Y-74553579D01*
X175728976Y-74539682D01*
X175811928Y-74479414D01*
X175934414Y-74356928D01*
X176036232Y-74216788D01*
X176114873Y-74062445D01*
X176168402Y-73897701D01*
X176195500Y-73726611D01*
X176195500Y-73553389D01*
X176168402Y-73382299D01*
X176114873Y-73217555D01*
X176036232Y-73063212D01*
X175934414Y-72923072D01*
X175811928Y-72800586D01*
X175728975Y-72740317D01*
X175686311Y-72684988D01*
X175680332Y-72615374D01*
X175712938Y-72553579D01*
X175728976Y-72539682D01*
X175811928Y-72479414D01*
X175934414Y-72356928D01*
X176036232Y-72216788D01*
X176114873Y-72062445D01*
X176168402Y-71897701D01*
X176195500Y-71726611D01*
X176195500Y-71553389D01*
X176168402Y-71382299D01*
X176114873Y-71217555D01*
X176036232Y-71063212D01*
X175934414Y-70923072D01*
X175811928Y-70800586D01*
X175671788Y-70698768D01*
X175517445Y-70620127D01*
X175352701Y-70566598D01*
X175352699Y-70566597D01*
X175352698Y-70566597D01*
X175221271Y-70545781D01*
X175181611Y-70539500D01*
X174458389Y-70539500D01*
X174418728Y-70545781D01*
X174287302Y-70566597D01*
X174122552Y-70620128D01*
X173968211Y-70698768D01*
X173888256Y-70756859D01*
X173828072Y-70800586D01*
X173828070Y-70800588D01*
X173828069Y-70800588D01*
X173705588Y-70923069D01*
X173705588Y-70923070D01*
X173705586Y-70923072D01*
X173694250Y-70938675D01*
X173603768Y-71063211D01*
X173525128Y-71217552D01*
X173471597Y-71382302D01*
X173444500Y-71553389D01*
X173444500Y-71726610D01*
X173467866Y-71874142D01*
X173471598Y-71897701D01*
X173511283Y-72019839D01*
X173525128Y-72062447D01*
X173530613Y-72073212D01*
X173603768Y-72216788D01*
X173705586Y-72356928D01*
X173828072Y-72479414D01*
X173828078Y-72479418D01*
X173911023Y-72539683D01*
X173953689Y-72595013D01*
X173959667Y-72664626D01*
X173927061Y-72726421D01*
X173911023Y-72740317D01*
X173828078Y-72800581D01*
X173828069Y-72800588D01*
X173705588Y-72923069D01*
X173705588Y-72923070D01*
X173705586Y-72923072D01*
X173698323Y-72933069D01*
X173603768Y-73063211D01*
X173525128Y-73217552D01*
X173471597Y-73382302D01*
X173444500Y-73553389D01*
X173444500Y-73726610D01*
X173470321Y-73889642D01*
X173471598Y-73897701D01*
X173522212Y-74053475D01*
X173525128Y-74062447D01*
X173581361Y-74172811D01*
X173603768Y-74216788D01*
X173705586Y-74356928D01*
X173828072Y-74479414D01*
X173841832Y-74489411D01*
X173911023Y-74539683D01*
X173953689Y-74595013D01*
X173959667Y-74664626D01*
X173927061Y-74726421D01*
X173911023Y-74740317D01*
X173828078Y-74800581D01*
X173828069Y-74800588D01*
X173705588Y-74923069D01*
X173705588Y-74923070D01*
X173705586Y-74923072D01*
X173670809Y-74970938D01*
X173603768Y-75063211D01*
X173525128Y-75217552D01*
X173471597Y-75382302D01*
X173444500Y-75553389D01*
X173444500Y-75726610D01*
X173471597Y-75897698D01*
X173507333Y-76007681D01*
X173509328Y-76077522D01*
X173477083Y-76133680D01*
X171617584Y-77993181D01*
X171556261Y-78026666D01*
X171529903Y-78029500D01*
X170140908Y-78029500D01*
X170073869Y-78009815D01*
X170035363Y-77965728D01*
X170033605Y-77966813D01*
X170013891Y-77934851D01*
X169937712Y-77811344D01*
X169813656Y-77687288D01*
X169813652Y-77687285D01*
X169749456Y-77647688D01*
X169702731Y-77595740D01*
X169691510Y-77526777D01*
X169719353Y-77462695D01*
X169726850Y-77454491D01*
X169834414Y-77346928D01*
X169936232Y-77206788D01*
X170014873Y-77052445D01*
X170068402Y-76887701D01*
X170095500Y-76716611D01*
X170095500Y-76543389D01*
X170068402Y-76372299D01*
X170014873Y-76207555D01*
X169936232Y-76053212D01*
X169834414Y-75913072D01*
X169711928Y-75790586D01*
X169628550Y-75730008D01*
X169585885Y-75674677D01*
X169579906Y-75605064D01*
X169612512Y-75543269D01*
X169628552Y-75529371D01*
X169711598Y-75469036D01*
X169834032Y-75346602D01*
X169935804Y-75206524D01*
X170014408Y-75052255D01*
X170067914Y-74887584D01*
X170069115Y-74880000D01*
X169000330Y-74880000D01*
X169020075Y-74860255D01*
X169069444Y-74774745D01*
X169095000Y-74679370D01*
X169095000Y-74580630D01*
X169069444Y-74485255D01*
X169020075Y-74399745D01*
X169000330Y-74380000D01*
X170069115Y-74380000D01*
X170069115Y-74379999D01*
X170067914Y-74372415D01*
X170014408Y-74207744D01*
X169935804Y-74053475D01*
X169834032Y-73913397D01*
X169711602Y-73790967D01*
X169628551Y-73730628D01*
X169585885Y-73675298D01*
X169579906Y-73605685D01*
X169612511Y-73543889D01*
X169628551Y-73529991D01*
X169680169Y-73492488D01*
X169711928Y-73469414D01*
X169834414Y-73346928D01*
X169936232Y-73206788D01*
X170014873Y-73052445D01*
X170068402Y-72887701D01*
X170095500Y-72716611D01*
X170095500Y-72543389D01*
X170068402Y-72372299D01*
X170014873Y-72207555D01*
X169936232Y-72053212D01*
X169834414Y-71913072D01*
X169711928Y-71790586D01*
X169571788Y-71688768D01*
X169417445Y-71610127D01*
X169252701Y-71556598D01*
X169252699Y-71556597D01*
X169252698Y-71556597D01*
X169121271Y-71535781D01*
X169081611Y-71529500D01*
X168358389Y-71529500D01*
X168318728Y-71535781D01*
X168187302Y-71556597D01*
X168022552Y-71610128D01*
X167868211Y-71688768D01*
X167802363Y-71736610D01*
X167728072Y-71790586D01*
X167728070Y-71790588D01*
X167728069Y-71790588D01*
X167605588Y-71913069D01*
X167605588Y-71913070D01*
X167605586Y-71913072D01*
X167561859Y-71973256D01*
X167503768Y-72053211D01*
X167425128Y-72207552D01*
X167371597Y-72372302D01*
X167344500Y-72543389D01*
X162637638Y-72543389D01*
X162711928Y-72489414D01*
X162834414Y-72366928D01*
X162936232Y-72226788D01*
X163014873Y-72072445D01*
X163068402Y-71907701D01*
X163095500Y-71736611D01*
X163095500Y-71563389D01*
X163068402Y-71392299D01*
X163014873Y-71227555D01*
X162936232Y-71073212D01*
X162834414Y-70933072D01*
X162711928Y-70810586D01*
X162571788Y-70708768D01*
X162417445Y-70630127D01*
X162252701Y-70576598D01*
X162252699Y-70576597D01*
X162252698Y-70576597D01*
X162121271Y-70555781D01*
X162081611Y-70549500D01*
X161358389Y-70549500D01*
X161318728Y-70555781D01*
X161187302Y-70576597D01*
X161022552Y-70630128D01*
X160868211Y-70708768D01*
X160788256Y-70766859D01*
X160728072Y-70810586D01*
X160728070Y-70810588D01*
X160728069Y-70810588D01*
X160605588Y-70933069D01*
X160605588Y-70933070D01*
X160605586Y-70933072D01*
X160561859Y-70993256D01*
X160503768Y-71073211D01*
X160425128Y-71227552D01*
X160371597Y-71392302D01*
X160344500Y-71563389D01*
X160344500Y-71736610D01*
X160370013Y-71897697D01*
X160371598Y-71907701D01*
X160425127Y-72072445D01*
X160503768Y-72226788D01*
X160605586Y-72366928D01*
X160728072Y-72489414D01*
X160728078Y-72489418D01*
X160811023Y-72549683D01*
X160853689Y-72605013D01*
X160859667Y-72674626D01*
X160827061Y-72736421D01*
X160811023Y-72750317D01*
X160728078Y-72810581D01*
X160728069Y-72810588D01*
X160605588Y-72933069D01*
X160605588Y-72933070D01*
X160605586Y-72933072D01*
X160561859Y-72993256D01*
X160503768Y-73073211D01*
X160425128Y-73227552D01*
X160371597Y-73392302D01*
X160350501Y-73525500D01*
X160344500Y-73563389D01*
X160344500Y-73736611D01*
X160352677Y-73788239D01*
X160370013Y-73897697D01*
X160371598Y-73907701D01*
X160425127Y-74072445D01*
X160503768Y-74226788D01*
X160605586Y-74366928D01*
X160728072Y-74489414D01*
X160728078Y-74489418D01*
X160811023Y-74549683D01*
X160853689Y-74605013D01*
X160859667Y-74674626D01*
X160827061Y-74736421D01*
X160811023Y-74750317D01*
X160728078Y-74810581D01*
X160728069Y-74810588D01*
X160605588Y-74933069D01*
X160605588Y-74933070D01*
X160605586Y-74933072D01*
X160563831Y-74990543D01*
X160558133Y-74998386D01*
X160502803Y-75041051D01*
X160457815Y-75049500D01*
X158706670Y-75049500D01*
X158706654Y-75049499D01*
X158699058Y-75049499D01*
X158540943Y-75049499D01*
X158489767Y-75063212D01*
X158388214Y-75090423D01*
X158388209Y-75090426D01*
X158251290Y-75169475D01*
X158251282Y-75169481D01*
X157126213Y-76294550D01*
X157064890Y-76328035D01*
X156995198Y-76323051D01*
X156939265Y-76281179D01*
X156920602Y-76245189D01*
X156914873Y-76227555D01*
X156836232Y-76073212D01*
X156734414Y-75933072D01*
X156611928Y-75810586D01*
X156528550Y-75750008D01*
X156485885Y-75694677D01*
X156479906Y-75625064D01*
X156512512Y-75563269D01*
X156528552Y-75549371D01*
X156611598Y-75489036D01*
X156734032Y-75366602D01*
X156835804Y-75226524D01*
X156914408Y-75072255D01*
X156967914Y-74907584D01*
X156969115Y-74900000D01*
X155900330Y-74900000D01*
X155920075Y-74880255D01*
X155969444Y-74794745D01*
X155995000Y-74699370D01*
X155995000Y-74600630D01*
X155969444Y-74505255D01*
X155920075Y-74419745D01*
X155900330Y-74400000D01*
X156969115Y-74400000D01*
X156969115Y-74399999D01*
X156967914Y-74392415D01*
X156914408Y-74227744D01*
X156835804Y-74073475D01*
X156734032Y-73933397D01*
X156611602Y-73810967D01*
X156528551Y-73750628D01*
X156485885Y-73695298D01*
X156479906Y-73625685D01*
X156512511Y-73563889D01*
X156528551Y-73549991D01*
X156528616Y-73549944D01*
X156611928Y-73489414D01*
X156734414Y-73366928D01*
X156836232Y-73226788D01*
X156914873Y-73072445D01*
X156968402Y-72907701D01*
X156995500Y-72736611D01*
X156995500Y-72563389D01*
X156968402Y-72392299D01*
X156914873Y-72227555D01*
X156836232Y-72073212D01*
X156734414Y-71933072D01*
X156611928Y-71810586D01*
X156471788Y-71708768D01*
X156317445Y-71630127D01*
X156152701Y-71576598D01*
X156152699Y-71576597D01*
X156152698Y-71576597D01*
X156004075Y-71553058D01*
X155981611Y-71549500D01*
X155258389Y-71549500D01*
X155235925Y-71553058D01*
X155087302Y-71576597D01*
X154922552Y-71630128D01*
X154768208Y-71708770D01*
X154710334Y-71750818D01*
X154644528Y-71774298D01*
X154637449Y-71774500D01*
X153303768Y-71774500D01*
X153134633Y-71808143D01*
X153134621Y-71808146D01*
X152975301Y-71874138D01*
X152975288Y-71874145D01*
X152831901Y-71969954D01*
X152831897Y-71969957D01*
X152261901Y-72539955D01*
X152261900Y-72539956D01*
X152169582Y-72632272D01*
X152108259Y-72665756D01*
X152038567Y-72660771D01*
X151982634Y-72618899D01*
X151980327Y-72615713D01*
X151943689Y-72563389D01*
X151891890Y-72489411D01*
X151864677Y-72450547D01*
X151864672Y-72450541D01*
X151709458Y-72295327D01*
X151709452Y-72295322D01*
X151529650Y-72169423D01*
X151529642Y-72169419D01*
X151385879Y-72102382D01*
X151333439Y-72056210D01*
X151314287Y-71989017D01*
X151334502Y-71922136D01*
X151385879Y-71877618D01*
X151393327Y-71874145D01*
X151529646Y-71810579D01*
X151709457Y-71684674D01*
X151864674Y-71529457D01*
X151990579Y-71349646D01*
X152083347Y-71150703D01*
X152140161Y-70938674D01*
X152159292Y-70720000D01*
X152158309Y-70708768D01*
X152145871Y-70566597D01*
X152140161Y-70501326D01*
X152083347Y-70289297D01*
X151990579Y-70090354D01*
X151990577Y-70090351D01*
X151990576Y-70090349D01*
X151864677Y-69910547D01*
X151864672Y-69910541D01*
X151709458Y-69755327D01*
X151709452Y-69755322D01*
X151529650Y-69629423D01*
X151529642Y-69629419D01*
X151330708Y-69536655D01*
X151330706Y-69536654D01*
X151330703Y-69536653D01*
X151154419Y-69489417D01*
X151118675Y-69479839D01*
X151118668Y-69479838D01*
X150900002Y-69460708D01*
X150899998Y-69460708D01*
X150681331Y-69479838D01*
X150681324Y-69479839D01*
X150568545Y-69510059D01*
X150469297Y-69536653D01*
X150469295Y-69536653D01*
X150469291Y-69536655D01*
X150270357Y-69629419D01*
X150270349Y-69629423D01*
X150090547Y-69755322D01*
X150090541Y-69755327D01*
X149935327Y-69910541D01*
X149935322Y-69910547D01*
X149809423Y-70090349D01*
X149809419Y-70090357D01*
X149716655Y-70289291D01*
X149659839Y-70501324D01*
X149659838Y-70501331D01*
X149640708Y-70719997D01*
X148391715Y-70719997D01*
X149020520Y-70091192D01*
X149099577Y-69954260D01*
X149140501Y-69801533D01*
X149140501Y-69643418D01*
X149140501Y-69635823D01*
X149140500Y-69635805D01*
X149140500Y-63855242D01*
X149160185Y-63788203D01*
X149212989Y-63742448D01*
X149225491Y-63737537D01*
X149339334Y-63699814D01*
X149488656Y-63607712D01*
X149612712Y-63483656D01*
X149704814Y-63334334D01*
X149759999Y-63167797D01*
X149770500Y-63065009D01*
X149770499Y-61714992D01*
X149759999Y-61612203D01*
X149704814Y-61445666D01*
X149612712Y-61296344D01*
X149488656Y-61172288D01*
X149363559Y-61095128D01*
X149339336Y-61080187D01*
X149339331Y-61080185D01*
X149337862Y-61079698D01*
X149172797Y-61025001D01*
X149172795Y-61025000D01*
X149070010Y-61014500D01*
X148269998Y-61014500D01*
X148269980Y-61014501D01*
X148167203Y-61025000D01*
X148167200Y-61025001D01*
X148000668Y-61080185D01*
X148000663Y-61080187D01*
X147851342Y-61172289D01*
X147727287Y-61296344D01*
X147687688Y-61360544D01*
X147635739Y-61407268D01*
X147566777Y-61418489D01*
X147502695Y-61390645D01*
X147494469Y-61383127D01*
X147386930Y-61275588D01*
X147386928Y-61275586D01*
X147246788Y-61173768D01*
X147092445Y-61095127D01*
X146927701Y-61041598D01*
X146927699Y-61041597D01*
X146927698Y-61041597D01*
X146796271Y-61020781D01*
X146756611Y-61014500D01*
X146583389Y-61014500D01*
X146543728Y-61020781D01*
X146412302Y-61041597D01*
X146247552Y-61095128D01*
X146093211Y-61173768D01*
X146013256Y-61231859D01*
X145953072Y-61275586D01*
X145953070Y-61275588D01*
X145953069Y-61275588D01*
X145830588Y-61398069D01*
X145830581Y-61398078D01*
X145770317Y-61481023D01*
X145714987Y-61523689D01*
X145645374Y-61529667D01*
X145583579Y-61497061D01*
X145569683Y-61481023D01*
X145509653Y-61398401D01*
X145509414Y-61398072D01*
X145386928Y-61275586D01*
X145246788Y-61173768D01*
X145092445Y-61095127D01*
X144927701Y-61041598D01*
X144927699Y-61041597D01*
X144927698Y-61041597D01*
X144796271Y-61020781D01*
X144756611Y-61014500D01*
X144583389Y-61014500D01*
X144543728Y-61020781D01*
X144412302Y-61041597D01*
X144247552Y-61095128D01*
X144093211Y-61173768D01*
X144013256Y-61231859D01*
X143953072Y-61275586D01*
X143953070Y-61275588D01*
X143953069Y-61275588D01*
X143830585Y-61398072D01*
X143770007Y-61481450D01*
X143714677Y-61524115D01*
X143645063Y-61530093D01*
X143583269Y-61497486D01*
X143569371Y-61481447D01*
X143509036Y-61398401D01*
X143386602Y-61275967D01*
X143246524Y-61174195D01*
X143092257Y-61095591D01*
X142927589Y-61042087D01*
X142927581Y-61042085D01*
X142920000Y-61040884D01*
X142920000Y-62109670D01*
X142900255Y-62089925D01*
X142814745Y-62040556D01*
X142719370Y-62015000D01*
X142620630Y-62015000D01*
X142525255Y-62040556D01*
X142439745Y-62089925D01*
X142420000Y-62109670D01*
X142420000Y-61040884D01*
X142419999Y-61040884D01*
X142412418Y-61042085D01*
X142412410Y-61042087D01*
X142247742Y-61095591D01*
X142093475Y-61174195D01*
X141953397Y-61275967D01*
X141830965Y-61398399D01*
X141830961Y-61398404D01*
X141770627Y-61481448D01*
X141715297Y-61524114D01*
X141645684Y-61530093D01*
X141583889Y-61497488D01*
X141569991Y-61481449D01*
X141569990Y-61481447D01*
X141509414Y-61398072D01*
X141386928Y-61275586D01*
X141246788Y-61173768D01*
X141092445Y-61095127D01*
X140927701Y-61041598D01*
X140927699Y-61041597D01*
X140927698Y-61041597D01*
X140796271Y-61020781D01*
X140756611Y-61014500D01*
X140583389Y-61014500D01*
X140543728Y-61020781D01*
X140412302Y-61041597D01*
X140247552Y-61095128D01*
X140093211Y-61173768D01*
X140013256Y-61231859D01*
X139953072Y-61275586D01*
X139953070Y-61275588D01*
X139953069Y-61275588D01*
X139830588Y-61398069D01*
X139830588Y-61398070D01*
X139830586Y-61398072D01*
X139830345Y-61398404D01*
X139728768Y-61538211D01*
X139650128Y-61692552D01*
X139596597Y-61857302D01*
X139571621Y-62015000D01*
X139569500Y-62028389D01*
X139569500Y-62751611D01*
X139596598Y-62922701D01*
X139650127Y-63087445D01*
X139728768Y-63241788D01*
X139830586Y-63381928D01*
X139953072Y-63504414D01*
X140093212Y-63606232D01*
X140247555Y-63684873D01*
X140412299Y-63738402D01*
X140583389Y-63765500D01*
X140583390Y-63765500D01*
X140756610Y-63765500D01*
X140756611Y-63765500D01*
X140927701Y-63738402D01*
X141092445Y-63684873D01*
X141246788Y-63606232D01*
X141386928Y-63504414D01*
X141509414Y-63381928D01*
X141569991Y-63298550D01*
X141625321Y-63255885D01*
X141694934Y-63249906D01*
X141756729Y-63282512D01*
X141770628Y-63298551D01*
X141830967Y-63381602D01*
X141953397Y-63504032D01*
X142093475Y-63605804D01*
X142247744Y-63684408D01*
X142412415Y-63737914D01*
X142412414Y-63737914D01*
X142419999Y-63739115D01*
X142420000Y-63739114D01*
X142420000Y-62670330D01*
X142439745Y-62690075D01*
X142525255Y-62739444D01*
X142620630Y-62765000D01*
X142719370Y-62765000D01*
X142814745Y-62739444D01*
X142900255Y-62690075D01*
X142920000Y-62670330D01*
X142920000Y-63739115D01*
X142927584Y-63737914D01*
X143092255Y-63684408D01*
X143246524Y-63605804D01*
X143386602Y-63504032D01*
X143509036Y-63381598D01*
X143569371Y-63298552D01*
X143624700Y-63255886D01*
X143694313Y-63249905D01*
X143756109Y-63282510D01*
X143770008Y-63298550D01*
X143770318Y-63298976D01*
X143830586Y-63381928D01*
X143953072Y-63504414D01*
X144018388Y-63551868D01*
X144061051Y-63607195D01*
X144069500Y-63652184D01*
X144069500Y-63759902D01*
X144049815Y-63826941D01*
X144033181Y-63847583D01*
X138069481Y-69811282D01*
X138069479Y-69811285D01*
X138019361Y-69898094D01*
X138019359Y-69898096D01*
X137990425Y-69948209D01*
X137990424Y-69948210D01*
X137974544Y-70007472D01*
X137949499Y-70100943D01*
X137949499Y-70100945D01*
X137949499Y-70269046D01*
X137949500Y-70269059D01*
X137949500Y-72609902D01*
X137929815Y-72676941D01*
X137913181Y-72697583D01*
X137118275Y-73492488D01*
X137056952Y-73525973D01*
X136987260Y-73520989D01*
X136931327Y-73479117D01*
X136906910Y-73413653D01*
X136907066Y-73393999D01*
X136918790Y-73260000D01*
X136918790Y-73259999D01*
X136899666Y-73041417D01*
X136899664Y-73041407D01*
X136842878Y-72829475D01*
X136842874Y-72829466D01*
X136750144Y-72630605D01*
X136750142Y-72630601D01*
X136705996Y-72567555D01*
X136142962Y-73130589D01*
X136125925Y-73067007D01*
X136060099Y-72952993D01*
X135967007Y-72859901D01*
X135852993Y-72794075D01*
X135789409Y-72777037D01*
X136352443Y-72214003D01*
X136332550Y-72200074D01*
X136288925Y-72145497D01*
X136281731Y-72075999D01*
X136313254Y-72013644D01*
X136373484Y-71978230D01*
X136403672Y-71974499D01*
X136461872Y-71974499D01*
X136521483Y-71968091D01*
X136656331Y-71917796D01*
X136771546Y-71831546D01*
X136857796Y-71716331D01*
X136908091Y-71581483D01*
X136914500Y-71521873D01*
X136914499Y-69918128D01*
X136908091Y-69858517D01*
X136890474Y-69811284D01*
X136857797Y-69723671D01*
X136857793Y-69723664D01*
X136771547Y-69608455D01*
X136771544Y-69608452D01*
X136656335Y-69522206D01*
X136656328Y-69522202D01*
X136521482Y-69471908D01*
X136521483Y-69471908D01*
X136461883Y-69465501D01*
X136461881Y-69465500D01*
X136461873Y-69465500D01*
X136461864Y-69465500D01*
X134858129Y-69465500D01*
X134858123Y-69465501D01*
X134798516Y-69471908D01*
X134663671Y-69522202D01*
X134663664Y-69522206D01*
X134548455Y-69608452D01*
X134548452Y-69608455D01*
X134462206Y-69723664D01*
X134462202Y-69723671D01*
X134411908Y-69858517D01*
X134406315Y-69910543D01*
X134405501Y-69918123D01*
X134405500Y-69918135D01*
X134405500Y-71521870D01*
X134405501Y-71521876D01*
X134411908Y-71581483D01*
X134462202Y-71716328D01*
X134462206Y-71716335D01*
X134548452Y-71831544D01*
X134548455Y-71831547D01*
X134663664Y-71917793D01*
X134663671Y-71917797D01*
X134798517Y-71968091D01*
X134798516Y-71968091D01*
X134805444Y-71968835D01*
X134858127Y-71974500D01*
X134916325Y-71974499D01*
X134983362Y-71994182D01*
X135029118Y-72046986D01*
X135039062Y-72116144D01*
X135010038Y-72179700D01*
X134987448Y-72200073D01*
X134967556Y-72214001D01*
X134967555Y-72214003D01*
X135530590Y-72777037D01*
X135467007Y-72794075D01*
X135352993Y-72859901D01*
X135259901Y-72952993D01*
X135194075Y-73067007D01*
X135177037Y-73130589D01*
X134614003Y-72567555D01*
X134614003Y-72567556D01*
X134569856Y-72630604D01*
X134569855Y-72630606D01*
X134477124Y-72829466D01*
X134477121Y-72829475D01*
X134420335Y-73041407D01*
X134420333Y-73041417D01*
X134401210Y-73259999D01*
X134401210Y-73260000D01*
X134420333Y-73478582D01*
X134420335Y-73478592D01*
X134477121Y-73690524D01*
X134477125Y-73690533D01*
X134569854Y-73889392D01*
X134614003Y-73952443D01*
X135177037Y-73389409D01*
X135194075Y-73452993D01*
X135259901Y-73567007D01*
X135352993Y-73660099D01*
X135467007Y-73725925D01*
X135530590Y-73742962D01*
X134967555Y-74305996D01*
X135030601Y-74350142D01*
X135030605Y-74350144D01*
X135174711Y-74417342D01*
X135227150Y-74463514D01*
X135246302Y-74530708D01*
X135226086Y-74597589D01*
X135174711Y-74642106D01*
X135030353Y-74709421D01*
X135030349Y-74709423D01*
X134850547Y-74835322D01*
X134850541Y-74835327D01*
X134695327Y-74990541D01*
X134695322Y-74990547D01*
X134569423Y-75170349D01*
X134569421Y-75170353D01*
X134564221Y-75181503D01*
X134562717Y-75184732D01*
X134561882Y-75186522D01*
X134515710Y-75238961D01*
X134448516Y-75258113D01*
X134381635Y-75237897D01*
X134336300Y-75184732D01*
X134325500Y-75134117D01*
X134325500Y-74713768D01*
X134325499Y-74713766D01*
X134318657Y-74679370D01*
X134291855Y-74544626D01*
X134268987Y-74489418D01*
X134225861Y-74385301D01*
X134225854Y-74385288D01*
X134130046Y-74241902D01*
X134072930Y-74184786D01*
X134008099Y-74119955D01*
X132940589Y-73052445D01*
X131858102Y-71969957D01*
X131858098Y-71969954D01*
X131714711Y-71874145D01*
X131714698Y-71874138D01*
X131555378Y-71808146D01*
X131555366Y-71808143D01*
X131386232Y-71774500D01*
X131386229Y-71774500D01*
X130812551Y-71774500D01*
X130745512Y-71754815D01*
X130739666Y-71750818D01*
X130681791Y-71708770D01*
X130681790Y-71708769D01*
X130681788Y-71708768D01*
X130527445Y-71630127D01*
X130362701Y-71576598D01*
X130362699Y-71576597D01*
X130362698Y-71576597D01*
X130214075Y-71553058D01*
X130191611Y-71549500D01*
X129468389Y-71549500D01*
X129445925Y-71553058D01*
X129297302Y-71576597D01*
X129132552Y-71630128D01*
X128978211Y-71708768D01*
X128920335Y-71750818D01*
X128838072Y-71810586D01*
X128838070Y-71810588D01*
X128838069Y-71810588D01*
X128715588Y-71933069D01*
X128715588Y-71933070D01*
X128715586Y-71933072D01*
X128685487Y-71974500D01*
X128613768Y-72073211D01*
X128535128Y-72227552D01*
X128481597Y-72392302D01*
X128466217Y-72489411D01*
X128454500Y-72563389D01*
X128454500Y-72736611D01*
X128462677Y-72788239D01*
X128478429Y-72887697D01*
X128481598Y-72907701D01*
X128535127Y-73072445D01*
X128613768Y-73226788D01*
X128715586Y-73366928D01*
X128838072Y-73489414D01*
X128903164Y-73536706D01*
X128921449Y-73549991D01*
X128964114Y-73605322D01*
X128970093Y-73674935D01*
X128937487Y-73736730D01*
X128921448Y-73750627D01*
X128838404Y-73810961D01*
X128838399Y-73810965D01*
X128715967Y-73933397D01*
X128614195Y-74073475D01*
X128535591Y-74227744D01*
X128482085Y-74392415D01*
X128480884Y-74399999D01*
X128480885Y-74400000D01*
X129549670Y-74400000D01*
X129529925Y-74419745D01*
X129480556Y-74505255D01*
X129455000Y-74600630D01*
X129455000Y-74699370D01*
X129480556Y-74794745D01*
X129529925Y-74880255D01*
X129549670Y-74900000D01*
X128480885Y-74900000D01*
X128482085Y-74907584D01*
X128535591Y-75072255D01*
X128614195Y-75226524D01*
X128715967Y-75366602D01*
X128838401Y-75489036D01*
X128921447Y-75549371D01*
X128964114Y-75604701D01*
X128970093Y-75674314D01*
X128937488Y-75736109D01*
X128921450Y-75750007D01*
X128838072Y-75810585D01*
X128715588Y-75933069D01*
X128715588Y-75933070D01*
X128715586Y-75933072D01*
X128701033Y-75953103D01*
X128613768Y-76073211D01*
X128535128Y-76227552D01*
X128529395Y-76245194D01*
X128489954Y-76302867D01*
X128425594Y-76330062D01*
X128356749Y-76318143D01*
X128323785Y-76294550D01*
X127317590Y-75288355D01*
X127317588Y-75288352D01*
X127198717Y-75169481D01*
X127198716Y-75169480D01*
X127111904Y-75119360D01*
X127111904Y-75119359D01*
X127111900Y-75119358D01*
X127061785Y-75090423D01*
X126909057Y-75049499D01*
X126750943Y-75049499D01*
X126743347Y-75049499D01*
X126743331Y-75049500D01*
X124992185Y-75049500D01*
X124925146Y-75029815D01*
X124891867Y-74998386D01*
X124844414Y-74933072D01*
X124721928Y-74810586D01*
X124638975Y-74750317D01*
X124596311Y-74694988D01*
X124590332Y-74625374D01*
X124622938Y-74563579D01*
X124638976Y-74549682D01*
X124721928Y-74489414D01*
X124844414Y-74366928D01*
X124946232Y-74226788D01*
X125024873Y-74072445D01*
X125078402Y-73907701D01*
X125105500Y-73736611D01*
X125105500Y-73563389D01*
X125078402Y-73392299D01*
X125024873Y-73227555D01*
X124946232Y-73073212D01*
X124844414Y-72933072D01*
X124721928Y-72810586D01*
X124638975Y-72750317D01*
X124596311Y-72694988D01*
X124590332Y-72625374D01*
X124622938Y-72563579D01*
X124638976Y-72549682D01*
X124721928Y-72489414D01*
X124844414Y-72366928D01*
X124946232Y-72226788D01*
X125024873Y-72072445D01*
X125078402Y-71907701D01*
X125105500Y-71736611D01*
X125105500Y-71563389D01*
X125078402Y-71392299D01*
X125024873Y-71227555D01*
X124946232Y-71073212D01*
X124844414Y-70933072D01*
X124721928Y-70810586D01*
X124581788Y-70708768D01*
X124427445Y-70630127D01*
X124262701Y-70576598D01*
X124262699Y-70576597D01*
X124262698Y-70576597D01*
X124131271Y-70555781D01*
X124091611Y-70549500D01*
X123368389Y-70549500D01*
X123328728Y-70555781D01*
X123197302Y-70576597D01*
X123032552Y-70630128D01*
X122878211Y-70708768D01*
X122798256Y-70766859D01*
X122738072Y-70810586D01*
X122738070Y-70810588D01*
X122738069Y-70810588D01*
X122615588Y-70933069D01*
X122615588Y-70933070D01*
X122615586Y-70933072D01*
X122571859Y-70993256D01*
X122513768Y-71073211D01*
X122435128Y-71227552D01*
X122381597Y-71392302D01*
X122354500Y-71563389D01*
X117179304Y-71563389D01*
X117114075Y-71553058D01*
X117091611Y-71549500D01*
X116368389Y-71549500D01*
X116345925Y-71553058D01*
X116197302Y-71576597D01*
X116032552Y-71630128D01*
X115878211Y-71708768D01*
X115820335Y-71750818D01*
X115738072Y-71810586D01*
X115738070Y-71810588D01*
X115738069Y-71810588D01*
X115615588Y-71933069D01*
X115615588Y-71933070D01*
X115615586Y-71933072D01*
X115585487Y-71974500D01*
X115513768Y-72073211D01*
X115435128Y-72227552D01*
X115381597Y-72392302D01*
X115366217Y-72489411D01*
X115354500Y-72563389D01*
X115354500Y-72736611D01*
X115362677Y-72788239D01*
X115378429Y-72887697D01*
X115381598Y-72907701D01*
X115435127Y-73072445D01*
X115513768Y-73226788D01*
X115615586Y-73366928D01*
X115738072Y-73489414D01*
X115803164Y-73536706D01*
X115821449Y-73549991D01*
X115864114Y-73605322D01*
X115870093Y-73674935D01*
X115837487Y-73736730D01*
X115821448Y-73750627D01*
X115738404Y-73810961D01*
X115738399Y-73810965D01*
X115615967Y-73933397D01*
X115514195Y-74073475D01*
X115435591Y-74227744D01*
X115382085Y-74392415D01*
X115380884Y-74399999D01*
X115380885Y-74400000D01*
X116449670Y-74400000D01*
X116429925Y-74419745D01*
X116380556Y-74505255D01*
X116355000Y-74600630D01*
X116355000Y-74699370D01*
X116380556Y-74794745D01*
X116429925Y-74880255D01*
X116449670Y-74900000D01*
X115380885Y-74900000D01*
X115382085Y-74907584D01*
X115435591Y-75072255D01*
X115514195Y-75226524D01*
X115615967Y-75366602D01*
X115738401Y-75489036D01*
X115821447Y-75549371D01*
X115864114Y-75604701D01*
X115870093Y-75674314D01*
X115837488Y-75736109D01*
X115821450Y-75750007D01*
X115738072Y-75810585D01*
X115615588Y-75933069D01*
X115615588Y-75933070D01*
X115615586Y-75933072D01*
X115601033Y-75953103D01*
X115513768Y-76073211D01*
X115435128Y-76227552D01*
X115429395Y-76245194D01*
X115389954Y-76302867D01*
X115325594Y-76330062D01*
X115256749Y-76318143D01*
X115223785Y-76294550D01*
X114217590Y-75288355D01*
X114217588Y-75288352D01*
X114098717Y-75169481D01*
X114098716Y-75169480D01*
X114011904Y-75119360D01*
X114011904Y-75119359D01*
X114011900Y-75119358D01*
X113961785Y-75090423D01*
X113809057Y-75049499D01*
X113650943Y-75049499D01*
X113643347Y-75049499D01*
X113643331Y-75049500D01*
X111892185Y-75049500D01*
X111825146Y-75029815D01*
X111791867Y-74998386D01*
X111744414Y-74933072D01*
X111621928Y-74810586D01*
X111538975Y-74750317D01*
X111496311Y-74694988D01*
X111490332Y-74625374D01*
X111522938Y-74563579D01*
X111538976Y-74549682D01*
X111621928Y-74489414D01*
X111744414Y-74366928D01*
X111846232Y-74226788D01*
X111924873Y-74072445D01*
X111978402Y-73907701D01*
X112005500Y-73736611D01*
X112005500Y-73563389D01*
X111978402Y-73392299D01*
X111924873Y-73227555D01*
X111846232Y-73073212D01*
X111744414Y-72933072D01*
X111621928Y-72810586D01*
X111538975Y-72750317D01*
X111496311Y-72694988D01*
X111490332Y-72625374D01*
X111522938Y-72563579D01*
X111538976Y-72549682D01*
X111621928Y-72489414D01*
X111744414Y-72366928D01*
X111846232Y-72226788D01*
X111924873Y-72072445D01*
X111978402Y-71907701D01*
X112005500Y-71736611D01*
X112005500Y-71563389D01*
X111978402Y-71392299D01*
X111924873Y-71227555D01*
X111846232Y-71073212D01*
X111744414Y-70933072D01*
X111621928Y-70810586D01*
X111481788Y-70708768D01*
X111327445Y-70630127D01*
X111162701Y-70576598D01*
X111162699Y-70576597D01*
X111162698Y-70576597D01*
X111031271Y-70555781D01*
X110991611Y-70549500D01*
X110268389Y-70549500D01*
X110228728Y-70555781D01*
X110097302Y-70576597D01*
X109932552Y-70630128D01*
X109778211Y-70708768D01*
X109698256Y-70766859D01*
X109638072Y-70810586D01*
X109638070Y-70810588D01*
X109638069Y-70810588D01*
X109515588Y-70933069D01*
X109515588Y-70933070D01*
X109515586Y-70933072D01*
X109471859Y-70993256D01*
X109413768Y-71073211D01*
X109335128Y-71227552D01*
X109281597Y-71392302D01*
X109254500Y-71563389D01*
X107110500Y-71563389D01*
X107110500Y-58814500D01*
X107130185Y-58747461D01*
X107182989Y-58701706D01*
X107234500Y-58690500D01*
X179505500Y-58690500D01*
X179572539Y-58710185D01*
G37*
%TD.AperFunction*%
%TD*%
M02*
