M48
; DRILL file {KiCad 8.0.5} date 2025-12-20T23:08:51+0530
; FORMAT={-:-/ absolute / inch / decimal}
; #@! TF.CreationDate,2025-12-20T23:08:51+05:30
; #@! TF.GenerationSoftware,Kicad,Pcbnew,8.0.5
; #@! TF.FileFunction,Plated,1,2,PTH
FMAT,2
INCH
; #@! TA.AperFunction,Plated,PTH,ViaDrill
T1C0.0118
; #@! TA.AperFunction,Plated,PTH,ComponentDrill
T2C0.0295
; #@! TA.AperFunction,Plated,PTH,ComponentDrill
T3C0.0394
%
G90
G05
T1
X4.2673Y-2.6575
X4.7752Y-3.3374
X4.7862Y-2.6583
X6.2677Y-2.6567
X6.276Y-3.3402
X6.7917Y-2.6547
T2
X4.3555Y-2.8209
X4.3555Y-2.8996
X4.3555Y-2.9783
X4.3555Y-3.0571
X4.3555Y-3.1358
X4.3555Y-3.5059
X4.3555Y-3.5846
X4.3555Y-3.6634
X4.3555Y-3.7421
X4.3555Y-3.8209
X4.5957Y-2.8602
X4.5957Y-2.939
X4.5957Y-3.0177
X4.5957Y-3.0965
X4.5957Y-3.5453
X4.5957Y-3.624
X4.5957Y-3.7028
X4.5957Y-3.7815
X4.8713Y-2.8209
X4.8713Y-2.8996
X4.8713Y-2.9783
X4.8713Y-3.0571
X4.8713Y-3.1358
X4.8713Y-3.5059
X4.8713Y-3.5846
X4.8713Y-3.6634
X4.8713Y-3.7421
X4.8713Y-3.8209
X5.1114Y-2.8602
X5.1114Y-2.939
X5.1114Y-3.0177
X5.1114Y-3.0965
X5.1114Y-3.5453
X5.1114Y-3.624
X5.1114Y-3.7028
X5.1114Y-3.7815
X5.5382Y-2.4563
X5.6169Y-2.4563
X5.6957Y-2.4563
X5.7744Y-2.4563
X5.8531Y-2.4563
X6.1268Y-2.8602
X6.1268Y-2.939
X6.1268Y-3.0177
X6.1268Y-3.0965
X6.1268Y-3.5453
X6.1268Y-3.624
X6.1268Y-3.7028
X6.1268Y-3.7815
X6.3669Y-2.8209
X6.3669Y-2.8996
X6.3669Y-2.9783
X6.3669Y-3.0571
X6.3669Y-3.1358
X6.3669Y-3.5059
X6.3669Y-3.5846
X6.3669Y-3.6634
X6.3669Y-3.7421
X6.3669Y-3.8209
X6.6425Y-2.8594
X6.6425Y-2.9382
X6.6425Y-3.0169
X6.6425Y-3.0957
X6.6425Y-3.5453
X6.6425Y-3.624
X6.6425Y-3.7028
X6.6425Y-3.7815
X6.8827Y-2.8205
X6.8827Y-2.8992
X6.8827Y-2.978
X6.8827Y-3.0567
X6.8827Y-3.1354
X6.8827Y-3.5059
X6.8827Y-3.5846
X6.8827Y-3.6634
X6.8827Y-3.7421
X6.8827Y-3.8209
T3
X5.3409Y-2.7843
X5.3409Y-2.8843
X5.3409Y-2.9843
X5.3409Y-3.0843
X5.3409Y-3.1843
X5.3409Y-3.2843
X5.3409Y-3.3843
X5.3409Y-3.4843
X5.3409Y-3.5843
X5.3409Y-3.6843
X5.3409Y-3.7843
X5.3409Y-3.8843
X5.9409Y-2.7843
X5.9409Y-2.8843
X5.9409Y-2.9843
X5.9409Y-3.0843
X5.9409Y-3.1843
X5.9409Y-3.2843
X5.9409Y-3.3843
X5.9409Y-3.4843
X5.9409Y-3.5843
X5.9409Y-3.6843
X5.9409Y-3.7843
X5.9409Y-3.8843
M30
