%TF.GenerationSoftware,KiCad,Pcbnew,8.0.5*%
%TF.CreationDate,2025-12-20T23:08:16+05:30*%
%TF.ProjectId,I2C_MUX,4932435f-4d55-4582-9e6b-696361645f70,rev?*%
%TF.SameCoordinates,Original*%
%TF.FileFunction,Legend,Top*%
%TF.FilePolarity,Positive*%
%FSLAX46Y46*%
G04 Gerber Fmt 4.6, Leading zero omitted, Abs format (unit mm)*
G04 Created by KiCad (PCBNEW 8.0.5) date 2025-12-20 23:08:16*
%MOMM*%
%LPD*%
G01*
G04 APERTURE LIST*
%ADD10C,0.100000*%
%ADD11C,0.150000*%
%ADD12C,0.120000*%
%ADD13C,0.127000*%
%ADD14C,0.200000*%
G04 APERTURE END LIST*
D10*
X152960000Y-64920000D02*
X165520000Y-64920000D01*
X165520000Y-82200000D01*
X152960000Y-82200000D01*
X152960000Y-64920000D01*
X121070000Y-64920000D02*
X133630000Y-64920000D01*
X133630000Y-82200000D01*
X121070000Y-82200000D01*
X121070000Y-64920000D01*
X107970000Y-82320000D02*
X120530000Y-82320000D01*
X120530000Y-99600000D01*
X107970000Y-99600000D01*
X107970000Y-82320000D01*
X121070000Y-66150000D02*
X121070000Y-64920000D01*
X121070000Y-82320000D02*
X133630000Y-82320000D01*
X133630000Y-99600000D01*
X121070000Y-99600000D01*
X121070000Y-82320000D01*
X166060000Y-82320000D02*
X178620000Y-82320000D01*
X178620000Y-99600000D01*
X166060000Y-99600000D01*
X166060000Y-82320000D01*
X107970000Y-64920000D02*
X120530000Y-64920000D01*
X120530000Y-82200000D01*
X107970000Y-82200000D01*
X107970000Y-64920000D01*
X166060000Y-64920000D02*
X178620000Y-64920000D01*
X178620000Y-82200000D01*
X166060000Y-82200000D01*
X166060000Y-64920000D01*
X152960000Y-82320000D02*
X165520000Y-82320000D01*
X165520000Y-99600000D01*
X152960000Y-99600000D01*
X152960000Y-82320000D01*
X171116265Y-64704856D02*
X171259122Y-64752475D01*
X171259122Y-64752475D02*
X171497217Y-64752475D01*
X171497217Y-64752475D02*
X171592455Y-64704856D01*
X171592455Y-64704856D02*
X171640074Y-64657236D01*
X171640074Y-64657236D02*
X171687693Y-64561998D01*
X171687693Y-64561998D02*
X171687693Y-64466760D01*
X171687693Y-64466760D02*
X171640074Y-64371522D01*
X171640074Y-64371522D02*
X171592455Y-64323903D01*
X171592455Y-64323903D02*
X171497217Y-64276284D01*
X171497217Y-64276284D02*
X171306741Y-64228665D01*
X171306741Y-64228665D02*
X171211503Y-64181046D01*
X171211503Y-64181046D02*
X171163884Y-64133427D01*
X171163884Y-64133427D02*
X171116265Y-64038189D01*
X171116265Y-64038189D02*
X171116265Y-63942951D01*
X171116265Y-63942951D02*
X171163884Y-63847713D01*
X171163884Y-63847713D02*
X171211503Y-63800094D01*
X171211503Y-63800094D02*
X171306741Y-63752475D01*
X171306741Y-63752475D02*
X171544836Y-63752475D01*
X171544836Y-63752475D02*
X171687693Y-63800094D01*
X172687693Y-64657236D02*
X172640074Y-64704856D01*
X172640074Y-64704856D02*
X172497217Y-64752475D01*
X172497217Y-64752475D02*
X172401979Y-64752475D01*
X172401979Y-64752475D02*
X172259122Y-64704856D01*
X172259122Y-64704856D02*
X172163884Y-64609617D01*
X172163884Y-64609617D02*
X172116265Y-64514379D01*
X172116265Y-64514379D02*
X172068646Y-64323903D01*
X172068646Y-64323903D02*
X172068646Y-64181046D01*
X172068646Y-64181046D02*
X172116265Y-63990570D01*
X172116265Y-63990570D02*
X172163884Y-63895332D01*
X172163884Y-63895332D02*
X172259122Y-63800094D01*
X172259122Y-63800094D02*
X172401979Y-63752475D01*
X172401979Y-63752475D02*
X172497217Y-63752475D01*
X172497217Y-63752475D02*
X172640074Y-63800094D01*
X172640074Y-63800094D02*
X172687693Y-63847713D01*
X173592455Y-64752475D02*
X173116265Y-64752475D01*
X173116265Y-64752475D02*
X173116265Y-63752475D01*
X174354360Y-63752475D02*
X174163884Y-63752475D01*
X174163884Y-63752475D02*
X174068646Y-63800094D01*
X174068646Y-63800094D02*
X174021027Y-63847713D01*
X174021027Y-63847713D02*
X173925789Y-63990570D01*
X173925789Y-63990570D02*
X173878170Y-64181046D01*
X173878170Y-64181046D02*
X173878170Y-64561998D01*
X173878170Y-64561998D02*
X173925789Y-64657236D01*
X173925789Y-64657236D02*
X173973408Y-64704856D01*
X173973408Y-64704856D02*
X174068646Y-64752475D01*
X174068646Y-64752475D02*
X174259122Y-64752475D01*
X174259122Y-64752475D02*
X174354360Y-64704856D01*
X174354360Y-64704856D02*
X174401979Y-64657236D01*
X174401979Y-64657236D02*
X174449598Y-64561998D01*
X174449598Y-64561998D02*
X174449598Y-64323903D01*
X174449598Y-64323903D02*
X174401979Y-64228665D01*
X174401979Y-64228665D02*
X174354360Y-64181046D01*
X174354360Y-64181046D02*
X174259122Y-64133427D01*
X174259122Y-64133427D02*
X174068646Y-64133427D01*
X174068646Y-64133427D02*
X173973408Y-64181046D01*
X173973408Y-64181046D02*
X173925789Y-64228665D01*
X173925789Y-64228665D02*
X173878170Y-64323903D01*
X112986265Y-64704800D02*
X113129122Y-64752419D01*
X113129122Y-64752419D02*
X113367217Y-64752419D01*
X113367217Y-64752419D02*
X113462455Y-64704800D01*
X113462455Y-64704800D02*
X113510074Y-64657180D01*
X113510074Y-64657180D02*
X113557693Y-64561942D01*
X113557693Y-64561942D02*
X113557693Y-64466704D01*
X113557693Y-64466704D02*
X113510074Y-64371466D01*
X113510074Y-64371466D02*
X113462455Y-64323847D01*
X113462455Y-64323847D02*
X113367217Y-64276228D01*
X113367217Y-64276228D02*
X113176741Y-64228609D01*
X113176741Y-64228609D02*
X113081503Y-64180990D01*
X113081503Y-64180990D02*
X113033884Y-64133371D01*
X113033884Y-64133371D02*
X112986265Y-64038133D01*
X112986265Y-64038133D02*
X112986265Y-63942895D01*
X112986265Y-63942895D02*
X113033884Y-63847657D01*
X113033884Y-63847657D02*
X113081503Y-63800038D01*
X113081503Y-63800038D02*
X113176741Y-63752419D01*
X113176741Y-63752419D02*
X113414836Y-63752419D01*
X113414836Y-63752419D02*
X113557693Y-63800038D01*
X114557693Y-64657180D02*
X114510074Y-64704800D01*
X114510074Y-64704800D02*
X114367217Y-64752419D01*
X114367217Y-64752419D02*
X114271979Y-64752419D01*
X114271979Y-64752419D02*
X114129122Y-64704800D01*
X114129122Y-64704800D02*
X114033884Y-64609561D01*
X114033884Y-64609561D02*
X113986265Y-64514323D01*
X113986265Y-64514323D02*
X113938646Y-64323847D01*
X113938646Y-64323847D02*
X113938646Y-64180990D01*
X113938646Y-64180990D02*
X113986265Y-63990514D01*
X113986265Y-63990514D02*
X114033884Y-63895276D01*
X114033884Y-63895276D02*
X114129122Y-63800038D01*
X114129122Y-63800038D02*
X114271979Y-63752419D01*
X114271979Y-63752419D02*
X114367217Y-63752419D01*
X114367217Y-63752419D02*
X114510074Y-63800038D01*
X114510074Y-63800038D02*
X114557693Y-63847657D01*
X115462455Y-64752419D02*
X114986265Y-64752419D01*
X114986265Y-64752419D02*
X114986265Y-63752419D01*
X116319598Y-64752419D02*
X115748170Y-64752419D01*
X116033884Y-64752419D02*
X116033884Y-63752419D01*
X116033884Y-63752419D02*
X115938646Y-63895276D01*
X115938646Y-63895276D02*
X115843408Y-63990514D01*
X115843408Y-63990514D02*
X115748170Y-64038133D01*
X157736265Y-100984800D02*
X157879122Y-101032419D01*
X157879122Y-101032419D02*
X158117217Y-101032419D01*
X158117217Y-101032419D02*
X158212455Y-100984800D01*
X158212455Y-100984800D02*
X158260074Y-100937180D01*
X158260074Y-100937180D02*
X158307693Y-100841942D01*
X158307693Y-100841942D02*
X158307693Y-100746704D01*
X158307693Y-100746704D02*
X158260074Y-100651466D01*
X158260074Y-100651466D02*
X158212455Y-100603847D01*
X158212455Y-100603847D02*
X158117217Y-100556228D01*
X158117217Y-100556228D02*
X157926741Y-100508609D01*
X157926741Y-100508609D02*
X157831503Y-100460990D01*
X157831503Y-100460990D02*
X157783884Y-100413371D01*
X157783884Y-100413371D02*
X157736265Y-100318133D01*
X157736265Y-100318133D02*
X157736265Y-100222895D01*
X157736265Y-100222895D02*
X157783884Y-100127657D01*
X157783884Y-100127657D02*
X157831503Y-100080038D01*
X157831503Y-100080038D02*
X157926741Y-100032419D01*
X157926741Y-100032419D02*
X158164836Y-100032419D01*
X158164836Y-100032419D02*
X158307693Y-100080038D01*
X159307693Y-100937180D02*
X159260074Y-100984800D01*
X159260074Y-100984800D02*
X159117217Y-101032419D01*
X159117217Y-101032419D02*
X159021979Y-101032419D01*
X159021979Y-101032419D02*
X158879122Y-100984800D01*
X158879122Y-100984800D02*
X158783884Y-100889561D01*
X158783884Y-100889561D02*
X158736265Y-100794323D01*
X158736265Y-100794323D02*
X158688646Y-100603847D01*
X158688646Y-100603847D02*
X158688646Y-100460990D01*
X158688646Y-100460990D02*
X158736265Y-100270514D01*
X158736265Y-100270514D02*
X158783884Y-100175276D01*
X158783884Y-100175276D02*
X158879122Y-100080038D01*
X158879122Y-100080038D02*
X159021979Y-100032419D01*
X159021979Y-100032419D02*
X159117217Y-100032419D01*
X159117217Y-100032419D02*
X159260074Y-100080038D01*
X159260074Y-100080038D02*
X159307693Y-100127657D01*
X160212455Y-101032419D02*
X159736265Y-101032419D01*
X159736265Y-101032419D02*
X159736265Y-100032419D01*
X161021979Y-100032419D02*
X160545789Y-100032419D01*
X160545789Y-100032419D02*
X160498170Y-100508609D01*
X160498170Y-100508609D02*
X160545789Y-100460990D01*
X160545789Y-100460990D02*
X160641027Y-100413371D01*
X160641027Y-100413371D02*
X160879122Y-100413371D01*
X160879122Y-100413371D02*
X160974360Y-100460990D01*
X160974360Y-100460990D02*
X161021979Y-100508609D01*
X161021979Y-100508609D02*
X161069598Y-100603847D01*
X161069598Y-100603847D02*
X161069598Y-100841942D01*
X161069598Y-100841942D02*
X161021979Y-100937180D01*
X161021979Y-100937180D02*
X160974360Y-100984800D01*
X160974360Y-100984800D02*
X160879122Y-101032419D01*
X160879122Y-101032419D02*
X160641027Y-101032419D01*
X160641027Y-101032419D02*
X160545789Y-100984800D01*
X160545789Y-100984800D02*
X160498170Y-100937180D01*
X125936265Y-64664356D02*
X126079122Y-64711975D01*
X126079122Y-64711975D02*
X126317217Y-64711975D01*
X126317217Y-64711975D02*
X126412455Y-64664356D01*
X126412455Y-64664356D02*
X126460074Y-64616736D01*
X126460074Y-64616736D02*
X126507693Y-64521498D01*
X126507693Y-64521498D02*
X126507693Y-64426260D01*
X126507693Y-64426260D02*
X126460074Y-64331022D01*
X126460074Y-64331022D02*
X126412455Y-64283403D01*
X126412455Y-64283403D02*
X126317217Y-64235784D01*
X126317217Y-64235784D02*
X126126741Y-64188165D01*
X126126741Y-64188165D02*
X126031503Y-64140546D01*
X126031503Y-64140546D02*
X125983884Y-64092927D01*
X125983884Y-64092927D02*
X125936265Y-63997689D01*
X125936265Y-63997689D02*
X125936265Y-63902451D01*
X125936265Y-63902451D02*
X125983884Y-63807213D01*
X125983884Y-63807213D02*
X126031503Y-63759594D01*
X126031503Y-63759594D02*
X126126741Y-63711975D01*
X126126741Y-63711975D02*
X126364836Y-63711975D01*
X126364836Y-63711975D02*
X126507693Y-63759594D01*
X127507693Y-64616736D02*
X127460074Y-64664356D01*
X127460074Y-64664356D02*
X127317217Y-64711975D01*
X127317217Y-64711975D02*
X127221979Y-64711975D01*
X127221979Y-64711975D02*
X127079122Y-64664356D01*
X127079122Y-64664356D02*
X126983884Y-64569117D01*
X126983884Y-64569117D02*
X126936265Y-64473879D01*
X126936265Y-64473879D02*
X126888646Y-64283403D01*
X126888646Y-64283403D02*
X126888646Y-64140546D01*
X126888646Y-64140546D02*
X126936265Y-63950070D01*
X126936265Y-63950070D02*
X126983884Y-63854832D01*
X126983884Y-63854832D02*
X127079122Y-63759594D01*
X127079122Y-63759594D02*
X127221979Y-63711975D01*
X127221979Y-63711975D02*
X127317217Y-63711975D01*
X127317217Y-63711975D02*
X127460074Y-63759594D01*
X127460074Y-63759594D02*
X127507693Y-63807213D01*
X128412455Y-64711975D02*
X127936265Y-64711975D01*
X127936265Y-64711975D02*
X127936265Y-63711975D01*
X128936265Y-63711975D02*
X129031503Y-63711975D01*
X129031503Y-63711975D02*
X129126741Y-63759594D01*
X129126741Y-63759594D02*
X129174360Y-63807213D01*
X129174360Y-63807213D02*
X129221979Y-63902451D01*
X129221979Y-63902451D02*
X129269598Y-64092927D01*
X129269598Y-64092927D02*
X129269598Y-64331022D01*
X129269598Y-64331022D02*
X129221979Y-64521498D01*
X129221979Y-64521498D02*
X129174360Y-64616736D01*
X129174360Y-64616736D02*
X129126741Y-64664356D01*
X129126741Y-64664356D02*
X129031503Y-64711975D01*
X129031503Y-64711975D02*
X128936265Y-64711975D01*
X128936265Y-64711975D02*
X128841027Y-64664356D01*
X128841027Y-64664356D02*
X128793408Y-64616736D01*
X128793408Y-64616736D02*
X128745789Y-64521498D01*
X128745789Y-64521498D02*
X128698170Y-64331022D01*
X128698170Y-64331022D02*
X128698170Y-64092927D01*
X128698170Y-64092927D02*
X128745789Y-63902451D01*
X128745789Y-63902451D02*
X128793408Y-63807213D01*
X128793408Y-63807213D02*
X128841027Y-63759594D01*
X128841027Y-63759594D02*
X128936265Y-63711975D01*
X158146265Y-64714800D02*
X158289122Y-64762419D01*
X158289122Y-64762419D02*
X158527217Y-64762419D01*
X158527217Y-64762419D02*
X158622455Y-64714800D01*
X158622455Y-64714800D02*
X158670074Y-64667180D01*
X158670074Y-64667180D02*
X158717693Y-64571942D01*
X158717693Y-64571942D02*
X158717693Y-64476704D01*
X158717693Y-64476704D02*
X158670074Y-64381466D01*
X158670074Y-64381466D02*
X158622455Y-64333847D01*
X158622455Y-64333847D02*
X158527217Y-64286228D01*
X158527217Y-64286228D02*
X158336741Y-64238609D01*
X158336741Y-64238609D02*
X158241503Y-64190990D01*
X158241503Y-64190990D02*
X158193884Y-64143371D01*
X158193884Y-64143371D02*
X158146265Y-64048133D01*
X158146265Y-64048133D02*
X158146265Y-63952895D01*
X158146265Y-63952895D02*
X158193884Y-63857657D01*
X158193884Y-63857657D02*
X158241503Y-63810038D01*
X158241503Y-63810038D02*
X158336741Y-63762419D01*
X158336741Y-63762419D02*
X158574836Y-63762419D01*
X158574836Y-63762419D02*
X158717693Y-63810038D01*
X159717693Y-64667180D02*
X159670074Y-64714800D01*
X159670074Y-64714800D02*
X159527217Y-64762419D01*
X159527217Y-64762419D02*
X159431979Y-64762419D01*
X159431979Y-64762419D02*
X159289122Y-64714800D01*
X159289122Y-64714800D02*
X159193884Y-64619561D01*
X159193884Y-64619561D02*
X159146265Y-64524323D01*
X159146265Y-64524323D02*
X159098646Y-64333847D01*
X159098646Y-64333847D02*
X159098646Y-64190990D01*
X159098646Y-64190990D02*
X159146265Y-64000514D01*
X159146265Y-64000514D02*
X159193884Y-63905276D01*
X159193884Y-63905276D02*
X159289122Y-63810038D01*
X159289122Y-63810038D02*
X159431979Y-63762419D01*
X159431979Y-63762419D02*
X159527217Y-63762419D01*
X159527217Y-63762419D02*
X159670074Y-63810038D01*
X159670074Y-63810038D02*
X159717693Y-63857657D01*
X160622455Y-64762419D02*
X160146265Y-64762419D01*
X160146265Y-64762419D02*
X160146265Y-63762419D01*
X160860551Y-63762419D02*
X161527217Y-63762419D01*
X161527217Y-63762419D02*
X161098646Y-64762419D01*
X170446265Y-100814856D02*
X170589122Y-100862475D01*
X170589122Y-100862475D02*
X170827217Y-100862475D01*
X170827217Y-100862475D02*
X170922455Y-100814856D01*
X170922455Y-100814856D02*
X170970074Y-100767236D01*
X170970074Y-100767236D02*
X171017693Y-100671998D01*
X171017693Y-100671998D02*
X171017693Y-100576760D01*
X171017693Y-100576760D02*
X170970074Y-100481522D01*
X170970074Y-100481522D02*
X170922455Y-100433903D01*
X170922455Y-100433903D02*
X170827217Y-100386284D01*
X170827217Y-100386284D02*
X170636741Y-100338665D01*
X170636741Y-100338665D02*
X170541503Y-100291046D01*
X170541503Y-100291046D02*
X170493884Y-100243427D01*
X170493884Y-100243427D02*
X170446265Y-100148189D01*
X170446265Y-100148189D02*
X170446265Y-100052951D01*
X170446265Y-100052951D02*
X170493884Y-99957713D01*
X170493884Y-99957713D02*
X170541503Y-99910094D01*
X170541503Y-99910094D02*
X170636741Y-99862475D01*
X170636741Y-99862475D02*
X170874836Y-99862475D01*
X170874836Y-99862475D02*
X171017693Y-99910094D01*
X172017693Y-100767236D02*
X171970074Y-100814856D01*
X171970074Y-100814856D02*
X171827217Y-100862475D01*
X171827217Y-100862475D02*
X171731979Y-100862475D01*
X171731979Y-100862475D02*
X171589122Y-100814856D01*
X171589122Y-100814856D02*
X171493884Y-100719617D01*
X171493884Y-100719617D02*
X171446265Y-100624379D01*
X171446265Y-100624379D02*
X171398646Y-100433903D01*
X171398646Y-100433903D02*
X171398646Y-100291046D01*
X171398646Y-100291046D02*
X171446265Y-100100570D01*
X171446265Y-100100570D02*
X171493884Y-100005332D01*
X171493884Y-100005332D02*
X171589122Y-99910094D01*
X171589122Y-99910094D02*
X171731979Y-99862475D01*
X171731979Y-99862475D02*
X171827217Y-99862475D01*
X171827217Y-99862475D02*
X171970074Y-99910094D01*
X171970074Y-99910094D02*
X172017693Y-99957713D01*
X172922455Y-100862475D02*
X172446265Y-100862475D01*
X172446265Y-100862475D02*
X172446265Y-99862475D01*
X173684360Y-100195808D02*
X173684360Y-100862475D01*
X173446265Y-99814856D02*
X173208170Y-100529141D01*
X173208170Y-100529141D02*
X173827217Y-100529141D01*
X112576265Y-100794800D02*
X112719122Y-100842419D01*
X112719122Y-100842419D02*
X112957217Y-100842419D01*
X112957217Y-100842419D02*
X113052455Y-100794800D01*
X113052455Y-100794800D02*
X113100074Y-100747180D01*
X113100074Y-100747180D02*
X113147693Y-100651942D01*
X113147693Y-100651942D02*
X113147693Y-100556704D01*
X113147693Y-100556704D02*
X113100074Y-100461466D01*
X113100074Y-100461466D02*
X113052455Y-100413847D01*
X113052455Y-100413847D02*
X112957217Y-100366228D01*
X112957217Y-100366228D02*
X112766741Y-100318609D01*
X112766741Y-100318609D02*
X112671503Y-100270990D01*
X112671503Y-100270990D02*
X112623884Y-100223371D01*
X112623884Y-100223371D02*
X112576265Y-100128133D01*
X112576265Y-100128133D02*
X112576265Y-100032895D01*
X112576265Y-100032895D02*
X112623884Y-99937657D01*
X112623884Y-99937657D02*
X112671503Y-99890038D01*
X112671503Y-99890038D02*
X112766741Y-99842419D01*
X112766741Y-99842419D02*
X113004836Y-99842419D01*
X113004836Y-99842419D02*
X113147693Y-99890038D01*
X114147693Y-100747180D02*
X114100074Y-100794800D01*
X114100074Y-100794800D02*
X113957217Y-100842419D01*
X113957217Y-100842419D02*
X113861979Y-100842419D01*
X113861979Y-100842419D02*
X113719122Y-100794800D01*
X113719122Y-100794800D02*
X113623884Y-100699561D01*
X113623884Y-100699561D02*
X113576265Y-100604323D01*
X113576265Y-100604323D02*
X113528646Y-100413847D01*
X113528646Y-100413847D02*
X113528646Y-100270990D01*
X113528646Y-100270990D02*
X113576265Y-100080514D01*
X113576265Y-100080514D02*
X113623884Y-99985276D01*
X113623884Y-99985276D02*
X113719122Y-99890038D01*
X113719122Y-99890038D02*
X113861979Y-99842419D01*
X113861979Y-99842419D02*
X113957217Y-99842419D01*
X113957217Y-99842419D02*
X114100074Y-99890038D01*
X114100074Y-99890038D02*
X114147693Y-99937657D01*
X115052455Y-100842419D02*
X114576265Y-100842419D01*
X114576265Y-100842419D02*
X114576265Y-99842419D01*
X115338170Y-99937657D02*
X115385789Y-99890038D01*
X115385789Y-99890038D02*
X115481027Y-99842419D01*
X115481027Y-99842419D02*
X115719122Y-99842419D01*
X115719122Y-99842419D02*
X115814360Y-99890038D01*
X115814360Y-99890038D02*
X115861979Y-99937657D01*
X115861979Y-99937657D02*
X115909598Y-100032895D01*
X115909598Y-100032895D02*
X115909598Y-100128133D01*
X115909598Y-100128133D02*
X115861979Y-100270990D01*
X115861979Y-100270990D02*
X115290551Y-100842419D01*
X115290551Y-100842419D02*
X115909598Y-100842419D01*
X125886265Y-100704800D02*
X126029122Y-100752419D01*
X126029122Y-100752419D02*
X126267217Y-100752419D01*
X126267217Y-100752419D02*
X126362455Y-100704800D01*
X126362455Y-100704800D02*
X126410074Y-100657180D01*
X126410074Y-100657180D02*
X126457693Y-100561942D01*
X126457693Y-100561942D02*
X126457693Y-100466704D01*
X126457693Y-100466704D02*
X126410074Y-100371466D01*
X126410074Y-100371466D02*
X126362455Y-100323847D01*
X126362455Y-100323847D02*
X126267217Y-100276228D01*
X126267217Y-100276228D02*
X126076741Y-100228609D01*
X126076741Y-100228609D02*
X125981503Y-100180990D01*
X125981503Y-100180990D02*
X125933884Y-100133371D01*
X125933884Y-100133371D02*
X125886265Y-100038133D01*
X125886265Y-100038133D02*
X125886265Y-99942895D01*
X125886265Y-99942895D02*
X125933884Y-99847657D01*
X125933884Y-99847657D02*
X125981503Y-99800038D01*
X125981503Y-99800038D02*
X126076741Y-99752419D01*
X126076741Y-99752419D02*
X126314836Y-99752419D01*
X126314836Y-99752419D02*
X126457693Y-99800038D01*
X127457693Y-100657180D02*
X127410074Y-100704800D01*
X127410074Y-100704800D02*
X127267217Y-100752419D01*
X127267217Y-100752419D02*
X127171979Y-100752419D01*
X127171979Y-100752419D02*
X127029122Y-100704800D01*
X127029122Y-100704800D02*
X126933884Y-100609561D01*
X126933884Y-100609561D02*
X126886265Y-100514323D01*
X126886265Y-100514323D02*
X126838646Y-100323847D01*
X126838646Y-100323847D02*
X126838646Y-100180990D01*
X126838646Y-100180990D02*
X126886265Y-99990514D01*
X126886265Y-99990514D02*
X126933884Y-99895276D01*
X126933884Y-99895276D02*
X127029122Y-99800038D01*
X127029122Y-99800038D02*
X127171979Y-99752419D01*
X127171979Y-99752419D02*
X127267217Y-99752419D01*
X127267217Y-99752419D02*
X127410074Y-99800038D01*
X127410074Y-99800038D02*
X127457693Y-99847657D01*
X128362455Y-100752419D02*
X127886265Y-100752419D01*
X127886265Y-100752419D02*
X127886265Y-99752419D01*
X128600551Y-99752419D02*
X129219598Y-99752419D01*
X129219598Y-99752419D02*
X128886265Y-100133371D01*
X128886265Y-100133371D02*
X129029122Y-100133371D01*
X129029122Y-100133371D02*
X129124360Y-100180990D01*
X129124360Y-100180990D02*
X129171979Y-100228609D01*
X129171979Y-100228609D02*
X129219598Y-100323847D01*
X129219598Y-100323847D02*
X129219598Y-100561942D01*
X129219598Y-100561942D02*
X129171979Y-100657180D01*
X129171979Y-100657180D02*
X129124360Y-100704800D01*
X129124360Y-100704800D02*
X129029122Y-100752419D01*
X129029122Y-100752419D02*
X128743408Y-100752419D01*
X128743408Y-100752419D02*
X128648170Y-100704800D01*
X128648170Y-100704800D02*
X128600551Y-100657180D01*
D11*
X109703810Y-66104319D02*
X109703810Y-65104319D01*
X109703810Y-65104319D02*
X109941905Y-65104319D01*
X109941905Y-65104319D02*
X110084762Y-65151938D01*
X110084762Y-65151938D02*
X110180000Y-65247176D01*
X110180000Y-65247176D02*
X110227619Y-65342414D01*
X110227619Y-65342414D02*
X110275238Y-65532890D01*
X110275238Y-65532890D02*
X110275238Y-65675747D01*
X110275238Y-65675747D02*
X110227619Y-65866223D01*
X110227619Y-65866223D02*
X110180000Y-65961461D01*
X110180000Y-65961461D02*
X110084762Y-66056700D01*
X110084762Y-66056700D02*
X109941905Y-66104319D01*
X109941905Y-66104319D02*
X109703810Y-66104319D01*
X110703810Y-66104319D02*
X110703810Y-65104319D01*
X111751428Y-66104319D02*
X111418095Y-65628128D01*
X111180000Y-66104319D02*
X111180000Y-65104319D01*
X111180000Y-65104319D02*
X111560952Y-65104319D01*
X111560952Y-65104319D02*
X111656190Y-65151938D01*
X111656190Y-65151938D02*
X111703809Y-65199557D01*
X111703809Y-65199557D02*
X111751428Y-65294795D01*
X111751428Y-65294795D02*
X111751428Y-65437652D01*
X111751428Y-65437652D02*
X111703809Y-65532890D01*
X111703809Y-65532890D02*
X111656190Y-65580509D01*
X111656190Y-65580509D02*
X111560952Y-65628128D01*
X111560952Y-65628128D02*
X111180000Y-65628128D01*
X112132381Y-65199557D02*
X112180000Y-65151938D01*
X112180000Y-65151938D02*
X112275238Y-65104319D01*
X112275238Y-65104319D02*
X112513333Y-65104319D01*
X112513333Y-65104319D02*
X112608571Y-65151938D01*
X112608571Y-65151938D02*
X112656190Y-65199557D01*
X112656190Y-65199557D02*
X112703809Y-65294795D01*
X112703809Y-65294795D02*
X112703809Y-65390033D01*
X112703809Y-65390033D02*
X112656190Y-65532890D01*
X112656190Y-65532890D02*
X112084762Y-66104319D01*
X112084762Y-66104319D02*
X112703809Y-66104319D01*
X137226666Y-61474819D02*
X137226666Y-62189104D01*
X137226666Y-62189104D02*
X137179047Y-62331961D01*
X137179047Y-62331961D02*
X137083809Y-62427200D01*
X137083809Y-62427200D02*
X136940952Y-62474819D01*
X136940952Y-62474819D02*
X136845714Y-62474819D01*
X138226666Y-62474819D02*
X137655238Y-62474819D01*
X137940952Y-62474819D02*
X137940952Y-61474819D01*
X137940952Y-61474819D02*
X137845714Y-61617676D01*
X137845714Y-61617676D02*
X137750476Y-61712914D01*
X137750476Y-61712914D02*
X137655238Y-61760533D01*
X114231009Y-86054285D02*
X114231009Y-85720952D01*
X114754819Y-85578095D02*
X114754819Y-86054285D01*
X114754819Y-86054285D02*
X113754819Y-86054285D01*
X113754819Y-86054285D02*
X113754819Y-85578095D01*
X114754819Y-85149523D02*
X113754819Y-85149523D01*
X113754819Y-85149523D02*
X114754819Y-84578095D01*
X114754819Y-84578095D02*
X113754819Y-84578095D01*
X113754819Y-84197142D02*
X113754819Y-83578095D01*
X113754819Y-83578095D02*
X114135771Y-83911428D01*
X114135771Y-83911428D02*
X114135771Y-83768571D01*
X114135771Y-83768571D02*
X114183390Y-83673333D01*
X114183390Y-83673333D02*
X114231009Y-83625714D01*
X114231009Y-83625714D02*
X114326247Y-83578095D01*
X114326247Y-83578095D02*
X114564342Y-83578095D01*
X114564342Y-83578095D02*
X114659580Y-83625714D01*
X114659580Y-83625714D02*
X114707200Y-83673333D01*
X114707200Y-83673333D02*
X114754819Y-83768571D01*
X114754819Y-83768571D02*
X114754819Y-84054285D01*
X114754819Y-84054285D02*
X114707200Y-84149523D01*
X114707200Y-84149523D02*
X114659580Y-84197142D01*
X115718572Y-70034819D02*
X115718572Y-69034819D01*
X116194762Y-70034819D02*
X116194762Y-69034819D01*
X116194762Y-69034819D02*
X116528095Y-69749104D01*
X116528095Y-69749104D02*
X116861428Y-69034819D01*
X116861428Y-69034819D02*
X116861428Y-70034819D01*
X117337619Y-69034819D02*
X117337619Y-69844342D01*
X117337619Y-69844342D02*
X117385238Y-69939580D01*
X117385238Y-69939580D02*
X117432857Y-69987200D01*
X117432857Y-69987200D02*
X117528095Y-70034819D01*
X117528095Y-70034819D02*
X117718571Y-70034819D01*
X117718571Y-70034819D02*
X117813809Y-69987200D01*
X117813809Y-69987200D02*
X117861428Y-69939580D01*
X117861428Y-69939580D02*
X117909047Y-69844342D01*
X117909047Y-69844342D02*
X117909047Y-69034819D01*
X118337619Y-69130057D02*
X118385238Y-69082438D01*
X118385238Y-69082438D02*
X118480476Y-69034819D01*
X118480476Y-69034819D02*
X118718571Y-69034819D01*
X118718571Y-69034819D02*
X118813809Y-69082438D01*
X118813809Y-69082438D02*
X118861428Y-69130057D01*
X118861428Y-69130057D02*
X118909047Y-69225295D01*
X118909047Y-69225295D02*
X118909047Y-69320533D01*
X118909047Y-69320533D02*
X118861428Y-69463390D01*
X118861428Y-69463390D02*
X118290000Y-70034819D01*
X118290000Y-70034819D02*
X118909047Y-70034819D01*
X173893810Y-66104319D02*
X173893810Y-65104319D01*
X173893810Y-65104319D02*
X174131905Y-65104319D01*
X174131905Y-65104319D02*
X174274762Y-65151938D01*
X174274762Y-65151938D02*
X174370000Y-65247176D01*
X174370000Y-65247176D02*
X174417619Y-65342414D01*
X174417619Y-65342414D02*
X174465238Y-65532890D01*
X174465238Y-65532890D02*
X174465238Y-65675747D01*
X174465238Y-65675747D02*
X174417619Y-65866223D01*
X174417619Y-65866223D02*
X174370000Y-65961461D01*
X174370000Y-65961461D02*
X174274762Y-66056700D01*
X174274762Y-66056700D02*
X174131905Y-66104319D01*
X174131905Y-66104319D02*
X173893810Y-66104319D01*
X174893810Y-66104319D02*
X174893810Y-65104319D01*
X175941428Y-66104319D02*
X175608095Y-65628128D01*
X175370000Y-66104319D02*
X175370000Y-65104319D01*
X175370000Y-65104319D02*
X175750952Y-65104319D01*
X175750952Y-65104319D02*
X175846190Y-65151938D01*
X175846190Y-65151938D02*
X175893809Y-65199557D01*
X175893809Y-65199557D02*
X175941428Y-65294795D01*
X175941428Y-65294795D02*
X175941428Y-65437652D01*
X175941428Y-65437652D02*
X175893809Y-65532890D01*
X175893809Y-65532890D02*
X175846190Y-65580509D01*
X175846190Y-65580509D02*
X175750952Y-65628128D01*
X175750952Y-65628128D02*
X175370000Y-65628128D01*
X176274762Y-65104319D02*
X176941428Y-65104319D01*
X176941428Y-65104319D02*
X176512857Y-66104319D01*
X167558572Y-87294819D02*
X167558572Y-86294819D01*
X168034762Y-87294819D02*
X168034762Y-86294819D01*
X168034762Y-86294819D02*
X168368095Y-87009104D01*
X168368095Y-87009104D02*
X168701428Y-86294819D01*
X168701428Y-86294819D02*
X168701428Y-87294819D01*
X169177619Y-86294819D02*
X169177619Y-87104342D01*
X169177619Y-87104342D02*
X169225238Y-87199580D01*
X169225238Y-87199580D02*
X169272857Y-87247200D01*
X169272857Y-87247200D02*
X169368095Y-87294819D01*
X169368095Y-87294819D02*
X169558571Y-87294819D01*
X169558571Y-87294819D02*
X169653809Y-87247200D01*
X169653809Y-87247200D02*
X169701428Y-87199580D01*
X169701428Y-87199580D02*
X169749047Y-87104342D01*
X169749047Y-87104342D02*
X169749047Y-86294819D01*
X170701428Y-86294819D02*
X170225238Y-86294819D01*
X170225238Y-86294819D02*
X170177619Y-86771009D01*
X170177619Y-86771009D02*
X170225238Y-86723390D01*
X170225238Y-86723390D02*
X170320476Y-86675771D01*
X170320476Y-86675771D02*
X170558571Y-86675771D01*
X170558571Y-86675771D02*
X170653809Y-86723390D01*
X170653809Y-86723390D02*
X170701428Y-86771009D01*
X170701428Y-86771009D02*
X170749047Y-86866247D01*
X170749047Y-86866247D02*
X170749047Y-87104342D01*
X170749047Y-87104342D02*
X170701428Y-87199580D01*
X170701428Y-87199580D02*
X170653809Y-87247200D01*
X170653809Y-87247200D02*
X170558571Y-87294819D01*
X170558571Y-87294819D02*
X170320476Y-87294819D01*
X170320476Y-87294819D02*
X170225238Y-87247200D01*
X170225238Y-87247200D02*
X170177619Y-87199580D01*
X122803810Y-83504319D02*
X122803810Y-82504319D01*
X122803810Y-82504319D02*
X123041905Y-82504319D01*
X123041905Y-82504319D02*
X123184762Y-82551938D01*
X123184762Y-82551938D02*
X123280000Y-82647176D01*
X123280000Y-82647176D02*
X123327619Y-82742414D01*
X123327619Y-82742414D02*
X123375238Y-82932890D01*
X123375238Y-82932890D02*
X123375238Y-83075747D01*
X123375238Y-83075747D02*
X123327619Y-83266223D01*
X123327619Y-83266223D02*
X123280000Y-83361461D01*
X123280000Y-83361461D02*
X123184762Y-83456700D01*
X123184762Y-83456700D02*
X123041905Y-83504319D01*
X123041905Y-83504319D02*
X122803810Y-83504319D01*
X123803810Y-83504319D02*
X123803810Y-82504319D01*
X124851428Y-83504319D02*
X124518095Y-83028128D01*
X124280000Y-83504319D02*
X124280000Y-82504319D01*
X124280000Y-82504319D02*
X124660952Y-82504319D01*
X124660952Y-82504319D02*
X124756190Y-82551938D01*
X124756190Y-82551938D02*
X124803809Y-82599557D01*
X124803809Y-82599557D02*
X124851428Y-82694795D01*
X124851428Y-82694795D02*
X124851428Y-82837652D01*
X124851428Y-82837652D02*
X124803809Y-82932890D01*
X124803809Y-82932890D02*
X124756190Y-82980509D01*
X124756190Y-82980509D02*
X124660952Y-83028128D01*
X124660952Y-83028128D02*
X124280000Y-83028128D01*
X125708571Y-82837652D02*
X125708571Y-83504319D01*
X125470476Y-82456700D02*
X125232381Y-83170985D01*
X125232381Y-83170985D02*
X125851428Y-83170985D01*
X160793810Y-66104319D02*
X160793810Y-65104319D01*
X160793810Y-65104319D02*
X161031905Y-65104319D01*
X161031905Y-65104319D02*
X161174762Y-65151938D01*
X161174762Y-65151938D02*
X161270000Y-65247176D01*
X161270000Y-65247176D02*
X161317619Y-65342414D01*
X161317619Y-65342414D02*
X161365238Y-65532890D01*
X161365238Y-65532890D02*
X161365238Y-65675747D01*
X161365238Y-65675747D02*
X161317619Y-65866223D01*
X161317619Y-65866223D02*
X161270000Y-65961461D01*
X161270000Y-65961461D02*
X161174762Y-66056700D01*
X161174762Y-66056700D02*
X161031905Y-66104319D01*
X161031905Y-66104319D02*
X160793810Y-66104319D01*
X161793810Y-66104319D02*
X161793810Y-65104319D01*
X162841428Y-66104319D02*
X162508095Y-65628128D01*
X162270000Y-66104319D02*
X162270000Y-65104319D01*
X162270000Y-65104319D02*
X162650952Y-65104319D01*
X162650952Y-65104319D02*
X162746190Y-65151938D01*
X162746190Y-65151938D02*
X162793809Y-65199557D01*
X162793809Y-65199557D02*
X162841428Y-65294795D01*
X162841428Y-65294795D02*
X162841428Y-65437652D01*
X162841428Y-65437652D02*
X162793809Y-65532890D01*
X162793809Y-65532890D02*
X162746190Y-65580509D01*
X162746190Y-65580509D02*
X162650952Y-65628128D01*
X162650952Y-65628128D02*
X162270000Y-65628128D01*
X163412857Y-65532890D02*
X163317619Y-65485271D01*
X163317619Y-65485271D02*
X163270000Y-65437652D01*
X163270000Y-65437652D02*
X163222381Y-65342414D01*
X163222381Y-65342414D02*
X163222381Y-65294795D01*
X163222381Y-65294795D02*
X163270000Y-65199557D01*
X163270000Y-65199557D02*
X163317619Y-65151938D01*
X163317619Y-65151938D02*
X163412857Y-65104319D01*
X163412857Y-65104319D02*
X163603333Y-65104319D01*
X163603333Y-65104319D02*
X163698571Y-65151938D01*
X163698571Y-65151938D02*
X163746190Y-65199557D01*
X163746190Y-65199557D02*
X163793809Y-65294795D01*
X163793809Y-65294795D02*
X163793809Y-65342414D01*
X163793809Y-65342414D02*
X163746190Y-65437652D01*
X163746190Y-65437652D02*
X163698571Y-65485271D01*
X163698571Y-65485271D02*
X163603333Y-65532890D01*
X163603333Y-65532890D02*
X163412857Y-65532890D01*
X163412857Y-65532890D02*
X163317619Y-65580509D01*
X163317619Y-65580509D02*
X163270000Y-65628128D01*
X163270000Y-65628128D02*
X163222381Y-65723366D01*
X163222381Y-65723366D02*
X163222381Y-65913842D01*
X163222381Y-65913842D02*
X163270000Y-66009080D01*
X163270000Y-66009080D02*
X163317619Y-66056700D01*
X163317619Y-66056700D02*
X163412857Y-66104319D01*
X163412857Y-66104319D02*
X163603333Y-66104319D01*
X163603333Y-66104319D02*
X163698571Y-66056700D01*
X163698571Y-66056700D02*
X163746190Y-66009080D01*
X163746190Y-66009080D02*
X163793809Y-65913842D01*
X163793809Y-65913842D02*
X163793809Y-65723366D01*
X163793809Y-65723366D02*
X163746190Y-65628128D01*
X163746190Y-65628128D02*
X163698571Y-65580509D01*
X163698571Y-65580509D02*
X163603333Y-65532890D01*
X160793810Y-83504319D02*
X160793810Y-82504319D01*
X160793810Y-82504319D02*
X161031905Y-82504319D01*
X161031905Y-82504319D02*
X161174762Y-82551938D01*
X161174762Y-82551938D02*
X161270000Y-82647176D01*
X161270000Y-82647176D02*
X161317619Y-82742414D01*
X161317619Y-82742414D02*
X161365238Y-82932890D01*
X161365238Y-82932890D02*
X161365238Y-83075747D01*
X161365238Y-83075747D02*
X161317619Y-83266223D01*
X161317619Y-83266223D02*
X161270000Y-83361461D01*
X161270000Y-83361461D02*
X161174762Y-83456700D01*
X161174762Y-83456700D02*
X161031905Y-83504319D01*
X161031905Y-83504319D02*
X160793810Y-83504319D01*
X161793810Y-83504319D02*
X161793810Y-82504319D01*
X162841428Y-83504319D02*
X162508095Y-83028128D01*
X162270000Y-83504319D02*
X162270000Y-82504319D01*
X162270000Y-82504319D02*
X162650952Y-82504319D01*
X162650952Y-82504319D02*
X162746190Y-82551938D01*
X162746190Y-82551938D02*
X162793809Y-82599557D01*
X162793809Y-82599557D02*
X162841428Y-82694795D01*
X162841428Y-82694795D02*
X162841428Y-82837652D01*
X162841428Y-82837652D02*
X162793809Y-82932890D01*
X162793809Y-82932890D02*
X162746190Y-82980509D01*
X162746190Y-82980509D02*
X162650952Y-83028128D01*
X162650952Y-83028128D02*
X162270000Y-83028128D01*
X163698571Y-82504319D02*
X163508095Y-82504319D01*
X163508095Y-82504319D02*
X163412857Y-82551938D01*
X163412857Y-82551938D02*
X163365238Y-82599557D01*
X163365238Y-82599557D02*
X163270000Y-82742414D01*
X163270000Y-82742414D02*
X163222381Y-82932890D01*
X163222381Y-82932890D02*
X163222381Y-83313842D01*
X163222381Y-83313842D02*
X163270000Y-83409080D01*
X163270000Y-83409080D02*
X163317619Y-83456700D01*
X163317619Y-83456700D02*
X163412857Y-83504319D01*
X163412857Y-83504319D02*
X163603333Y-83504319D01*
X163603333Y-83504319D02*
X163698571Y-83456700D01*
X163698571Y-83456700D02*
X163746190Y-83409080D01*
X163746190Y-83409080D02*
X163793809Y-83313842D01*
X163793809Y-83313842D02*
X163793809Y-83075747D01*
X163793809Y-83075747D02*
X163746190Y-82980509D01*
X163746190Y-82980509D02*
X163698571Y-82932890D01*
X163698571Y-82932890D02*
X163603333Y-82885271D01*
X163603333Y-82885271D02*
X163412857Y-82885271D01*
X163412857Y-82885271D02*
X163317619Y-82932890D01*
X163317619Y-82932890D02*
X163270000Y-82980509D01*
X163270000Y-82980509D02*
X163222381Y-83075747D01*
X172201009Y-68754285D02*
X172201009Y-68420952D01*
X172724819Y-68278095D02*
X172724819Y-68754285D01*
X172724819Y-68754285D02*
X171724819Y-68754285D01*
X171724819Y-68754285D02*
X171724819Y-68278095D01*
X172724819Y-67849523D02*
X171724819Y-67849523D01*
X171724819Y-67849523D02*
X172724819Y-67278095D01*
X172724819Y-67278095D02*
X171724819Y-67278095D01*
X171724819Y-66897142D02*
X171724819Y-66230476D01*
X171724819Y-66230476D02*
X172724819Y-66659047D01*
X115738572Y-87324819D02*
X115738572Y-86324819D01*
X116214762Y-87324819D02*
X116214762Y-86324819D01*
X116214762Y-86324819D02*
X116548095Y-87039104D01*
X116548095Y-87039104D02*
X116881428Y-86324819D01*
X116881428Y-86324819D02*
X116881428Y-87324819D01*
X117357619Y-86324819D02*
X117357619Y-87134342D01*
X117357619Y-87134342D02*
X117405238Y-87229580D01*
X117405238Y-87229580D02*
X117452857Y-87277200D01*
X117452857Y-87277200D02*
X117548095Y-87324819D01*
X117548095Y-87324819D02*
X117738571Y-87324819D01*
X117738571Y-87324819D02*
X117833809Y-87277200D01*
X117833809Y-87277200D02*
X117881428Y-87229580D01*
X117881428Y-87229580D02*
X117929047Y-87134342D01*
X117929047Y-87134342D02*
X117929047Y-86324819D01*
X118310000Y-86324819D02*
X118929047Y-86324819D01*
X118929047Y-86324819D02*
X118595714Y-86705771D01*
X118595714Y-86705771D02*
X118738571Y-86705771D01*
X118738571Y-86705771D02*
X118833809Y-86753390D01*
X118833809Y-86753390D02*
X118881428Y-86801009D01*
X118881428Y-86801009D02*
X118929047Y-86896247D01*
X118929047Y-86896247D02*
X118929047Y-87134342D01*
X118929047Y-87134342D02*
X118881428Y-87229580D01*
X118881428Y-87229580D02*
X118833809Y-87277200D01*
X118833809Y-87277200D02*
X118738571Y-87324819D01*
X118738571Y-87324819D02*
X118452857Y-87324819D01*
X118452857Y-87324819D02*
X118357619Y-87277200D01*
X118357619Y-87277200D02*
X118310000Y-87229580D01*
X159241009Y-68614285D02*
X159241009Y-68280952D01*
X159764819Y-68138095D02*
X159764819Y-68614285D01*
X159764819Y-68614285D02*
X158764819Y-68614285D01*
X158764819Y-68614285D02*
X158764819Y-68138095D01*
X159764819Y-67709523D02*
X158764819Y-67709523D01*
X158764819Y-67709523D02*
X159764819Y-67138095D01*
X159764819Y-67138095D02*
X158764819Y-67138095D01*
X159193390Y-66519047D02*
X159145771Y-66614285D01*
X159145771Y-66614285D02*
X159098152Y-66661904D01*
X159098152Y-66661904D02*
X159002914Y-66709523D01*
X159002914Y-66709523D02*
X158955295Y-66709523D01*
X158955295Y-66709523D02*
X158860057Y-66661904D01*
X158860057Y-66661904D02*
X158812438Y-66614285D01*
X158812438Y-66614285D02*
X158764819Y-66519047D01*
X158764819Y-66519047D02*
X158764819Y-66328571D01*
X158764819Y-66328571D02*
X158812438Y-66233333D01*
X158812438Y-66233333D02*
X158860057Y-66185714D01*
X158860057Y-66185714D02*
X158955295Y-66138095D01*
X158955295Y-66138095D02*
X159002914Y-66138095D01*
X159002914Y-66138095D02*
X159098152Y-66185714D01*
X159098152Y-66185714D02*
X159145771Y-66233333D01*
X159145771Y-66233333D02*
X159193390Y-66328571D01*
X159193390Y-66328571D02*
X159193390Y-66519047D01*
X159193390Y-66519047D02*
X159241009Y-66614285D01*
X159241009Y-66614285D02*
X159288628Y-66661904D01*
X159288628Y-66661904D02*
X159383866Y-66709523D01*
X159383866Y-66709523D02*
X159574342Y-66709523D01*
X159574342Y-66709523D02*
X159669580Y-66661904D01*
X159669580Y-66661904D02*
X159717200Y-66614285D01*
X159717200Y-66614285D02*
X159764819Y-66519047D01*
X159764819Y-66519047D02*
X159764819Y-66328571D01*
X159764819Y-66328571D02*
X159717200Y-66233333D01*
X159717200Y-66233333D02*
X159669580Y-66185714D01*
X159669580Y-66185714D02*
X159574342Y-66138095D01*
X159574342Y-66138095D02*
X159383866Y-66138095D01*
X159383866Y-66138095D02*
X159288628Y-66185714D01*
X159288628Y-66185714D02*
X159241009Y-66233333D01*
X159241009Y-66233333D02*
X159193390Y-66328571D01*
X145225714Y-64999104D02*
X145701904Y-64999104D01*
X145130476Y-65284819D02*
X145463809Y-64284819D01*
X145463809Y-64284819D02*
X145797142Y-65284819D01*
X146654285Y-65284819D02*
X146082857Y-65284819D01*
X146368571Y-65284819D02*
X146368571Y-64284819D01*
X146368571Y-64284819D02*
X146273333Y-64427676D01*
X146273333Y-64427676D02*
X146178095Y-64522914D01*
X146178095Y-64522914D02*
X146082857Y-64570533D01*
X127291009Y-85984285D02*
X127291009Y-85650952D01*
X127814819Y-85508095D02*
X127814819Y-85984285D01*
X127814819Y-85984285D02*
X126814819Y-85984285D01*
X126814819Y-85984285D02*
X126814819Y-85508095D01*
X127814819Y-85079523D02*
X126814819Y-85079523D01*
X126814819Y-85079523D02*
X127814819Y-84508095D01*
X127814819Y-84508095D02*
X126814819Y-84508095D01*
X127148152Y-83603333D02*
X127814819Y-83603333D01*
X126767200Y-83841428D02*
X127481485Y-84079523D01*
X127481485Y-84079523D02*
X127481485Y-83460476D01*
X167598572Y-69954819D02*
X167598572Y-68954819D01*
X168074762Y-69954819D02*
X168074762Y-68954819D01*
X168074762Y-68954819D02*
X168408095Y-69669104D01*
X168408095Y-69669104D02*
X168741428Y-68954819D01*
X168741428Y-68954819D02*
X168741428Y-69954819D01*
X169217619Y-68954819D02*
X169217619Y-69764342D01*
X169217619Y-69764342D02*
X169265238Y-69859580D01*
X169265238Y-69859580D02*
X169312857Y-69907200D01*
X169312857Y-69907200D02*
X169408095Y-69954819D01*
X169408095Y-69954819D02*
X169598571Y-69954819D01*
X169598571Y-69954819D02*
X169693809Y-69907200D01*
X169693809Y-69907200D02*
X169741428Y-69859580D01*
X169741428Y-69859580D02*
X169789047Y-69764342D01*
X169789047Y-69764342D02*
X169789047Y-68954819D01*
X170170000Y-68954819D02*
X170836666Y-68954819D01*
X170836666Y-68954819D02*
X170408095Y-69954819D01*
X122803810Y-66104319D02*
X122803810Y-65104319D01*
X122803810Y-65104319D02*
X123041905Y-65104319D01*
X123041905Y-65104319D02*
X123184762Y-65151938D01*
X123184762Y-65151938D02*
X123280000Y-65247176D01*
X123280000Y-65247176D02*
X123327619Y-65342414D01*
X123327619Y-65342414D02*
X123375238Y-65532890D01*
X123375238Y-65532890D02*
X123375238Y-65675747D01*
X123375238Y-65675747D02*
X123327619Y-65866223D01*
X123327619Y-65866223D02*
X123280000Y-65961461D01*
X123280000Y-65961461D02*
X123184762Y-66056700D01*
X123184762Y-66056700D02*
X123041905Y-66104319D01*
X123041905Y-66104319D02*
X122803810Y-66104319D01*
X123803810Y-66104319D02*
X123803810Y-65104319D01*
X124851428Y-66104319D02*
X124518095Y-65628128D01*
X124280000Y-66104319D02*
X124280000Y-65104319D01*
X124280000Y-65104319D02*
X124660952Y-65104319D01*
X124660952Y-65104319D02*
X124756190Y-65151938D01*
X124756190Y-65151938D02*
X124803809Y-65199557D01*
X124803809Y-65199557D02*
X124851428Y-65294795D01*
X124851428Y-65294795D02*
X124851428Y-65437652D01*
X124851428Y-65437652D02*
X124803809Y-65532890D01*
X124803809Y-65532890D02*
X124756190Y-65580509D01*
X124756190Y-65580509D02*
X124660952Y-65628128D01*
X124660952Y-65628128D02*
X124280000Y-65628128D01*
X125803809Y-66104319D02*
X125232381Y-66104319D01*
X125518095Y-66104319D02*
X125518095Y-65104319D01*
X125518095Y-65104319D02*
X125422857Y-65247176D01*
X125422857Y-65247176D02*
X125327619Y-65342414D01*
X125327619Y-65342414D02*
X125232381Y-65390033D01*
X154638572Y-87324819D02*
X154638572Y-86324819D01*
X155114762Y-87324819D02*
X155114762Y-86324819D01*
X155114762Y-86324819D02*
X155448095Y-87039104D01*
X155448095Y-87039104D02*
X155781428Y-86324819D01*
X155781428Y-86324819D02*
X155781428Y-87324819D01*
X156257619Y-86324819D02*
X156257619Y-87134342D01*
X156257619Y-87134342D02*
X156305238Y-87229580D01*
X156305238Y-87229580D02*
X156352857Y-87277200D01*
X156352857Y-87277200D02*
X156448095Y-87324819D01*
X156448095Y-87324819D02*
X156638571Y-87324819D01*
X156638571Y-87324819D02*
X156733809Y-87277200D01*
X156733809Y-87277200D02*
X156781428Y-87229580D01*
X156781428Y-87229580D02*
X156829047Y-87134342D01*
X156829047Y-87134342D02*
X156829047Y-86324819D01*
X157733809Y-86324819D02*
X157543333Y-86324819D01*
X157543333Y-86324819D02*
X157448095Y-86372438D01*
X157448095Y-86372438D02*
X157400476Y-86420057D01*
X157400476Y-86420057D02*
X157305238Y-86562914D01*
X157305238Y-86562914D02*
X157257619Y-86753390D01*
X157257619Y-86753390D02*
X157257619Y-87134342D01*
X157257619Y-87134342D02*
X157305238Y-87229580D01*
X157305238Y-87229580D02*
X157352857Y-87277200D01*
X157352857Y-87277200D02*
X157448095Y-87324819D01*
X157448095Y-87324819D02*
X157638571Y-87324819D01*
X157638571Y-87324819D02*
X157733809Y-87277200D01*
X157733809Y-87277200D02*
X157781428Y-87229580D01*
X157781428Y-87229580D02*
X157829047Y-87134342D01*
X157829047Y-87134342D02*
X157829047Y-86896247D01*
X157829047Y-86896247D02*
X157781428Y-86801009D01*
X157781428Y-86801009D02*
X157733809Y-86753390D01*
X157733809Y-86753390D02*
X157638571Y-86705771D01*
X157638571Y-86705771D02*
X157448095Y-86705771D01*
X157448095Y-86705771D02*
X157352857Y-86753390D01*
X157352857Y-86753390D02*
X157305238Y-86801009D01*
X157305238Y-86801009D02*
X157257619Y-86896247D01*
X142445714Y-64989104D02*
X142921904Y-64989104D01*
X142350476Y-65274819D02*
X142683809Y-64274819D01*
X142683809Y-64274819D02*
X143017142Y-65274819D01*
X143540952Y-64274819D02*
X143636190Y-64274819D01*
X143636190Y-64274819D02*
X143731428Y-64322438D01*
X143731428Y-64322438D02*
X143779047Y-64370057D01*
X143779047Y-64370057D02*
X143826666Y-64465295D01*
X143826666Y-64465295D02*
X143874285Y-64655771D01*
X143874285Y-64655771D02*
X143874285Y-64893866D01*
X143874285Y-64893866D02*
X143826666Y-65084342D01*
X143826666Y-65084342D02*
X143779047Y-65179580D01*
X143779047Y-65179580D02*
X143731428Y-65227200D01*
X143731428Y-65227200D02*
X143636190Y-65274819D01*
X143636190Y-65274819D02*
X143540952Y-65274819D01*
X143540952Y-65274819D02*
X143445714Y-65227200D01*
X143445714Y-65227200D02*
X143398095Y-65179580D01*
X143398095Y-65179580D02*
X143350476Y-65084342D01*
X143350476Y-65084342D02*
X143302857Y-64893866D01*
X143302857Y-64893866D02*
X143302857Y-64655771D01*
X143302857Y-64655771D02*
X143350476Y-64465295D01*
X143350476Y-64465295D02*
X143398095Y-64370057D01*
X143398095Y-64370057D02*
X143445714Y-64322438D01*
X143445714Y-64322438D02*
X143540952Y-64274819D01*
X109703810Y-83504319D02*
X109703810Y-82504319D01*
X109703810Y-82504319D02*
X109941905Y-82504319D01*
X109941905Y-82504319D02*
X110084762Y-82551938D01*
X110084762Y-82551938D02*
X110180000Y-82647176D01*
X110180000Y-82647176D02*
X110227619Y-82742414D01*
X110227619Y-82742414D02*
X110275238Y-82932890D01*
X110275238Y-82932890D02*
X110275238Y-83075747D01*
X110275238Y-83075747D02*
X110227619Y-83266223D01*
X110227619Y-83266223D02*
X110180000Y-83361461D01*
X110180000Y-83361461D02*
X110084762Y-83456700D01*
X110084762Y-83456700D02*
X109941905Y-83504319D01*
X109941905Y-83504319D02*
X109703810Y-83504319D01*
X110703810Y-83504319D02*
X110703810Y-82504319D01*
X111751428Y-83504319D02*
X111418095Y-83028128D01*
X111180000Y-83504319D02*
X111180000Y-82504319D01*
X111180000Y-82504319D02*
X111560952Y-82504319D01*
X111560952Y-82504319D02*
X111656190Y-82551938D01*
X111656190Y-82551938D02*
X111703809Y-82599557D01*
X111703809Y-82599557D02*
X111751428Y-82694795D01*
X111751428Y-82694795D02*
X111751428Y-82837652D01*
X111751428Y-82837652D02*
X111703809Y-82932890D01*
X111703809Y-82932890D02*
X111656190Y-82980509D01*
X111656190Y-82980509D02*
X111560952Y-83028128D01*
X111560952Y-83028128D02*
X111180000Y-83028128D01*
X112084762Y-82504319D02*
X112703809Y-82504319D01*
X112703809Y-82504319D02*
X112370476Y-82885271D01*
X112370476Y-82885271D02*
X112513333Y-82885271D01*
X112513333Y-82885271D02*
X112608571Y-82932890D01*
X112608571Y-82932890D02*
X112656190Y-82980509D01*
X112656190Y-82980509D02*
X112703809Y-83075747D01*
X112703809Y-83075747D02*
X112703809Y-83313842D01*
X112703809Y-83313842D02*
X112656190Y-83409080D01*
X112656190Y-83409080D02*
X112608571Y-83456700D01*
X112608571Y-83456700D02*
X112513333Y-83504319D01*
X112513333Y-83504319D02*
X112227619Y-83504319D01*
X112227619Y-83504319D02*
X112132381Y-83456700D01*
X112132381Y-83456700D02*
X112084762Y-83409080D01*
X159111009Y-85944285D02*
X159111009Y-85610952D01*
X159634819Y-85468095D02*
X159634819Y-85944285D01*
X159634819Y-85944285D02*
X158634819Y-85944285D01*
X158634819Y-85944285D02*
X158634819Y-85468095D01*
X159634819Y-85039523D02*
X158634819Y-85039523D01*
X158634819Y-85039523D02*
X159634819Y-84468095D01*
X159634819Y-84468095D02*
X158634819Y-84468095D01*
X158634819Y-83563333D02*
X158634819Y-83753809D01*
X158634819Y-83753809D02*
X158682438Y-83849047D01*
X158682438Y-83849047D02*
X158730057Y-83896666D01*
X158730057Y-83896666D02*
X158872914Y-83991904D01*
X158872914Y-83991904D02*
X159063390Y-84039523D01*
X159063390Y-84039523D02*
X159444342Y-84039523D01*
X159444342Y-84039523D02*
X159539580Y-83991904D01*
X159539580Y-83991904D02*
X159587200Y-83944285D01*
X159587200Y-83944285D02*
X159634819Y-83849047D01*
X159634819Y-83849047D02*
X159634819Y-83658571D01*
X159634819Y-83658571D02*
X159587200Y-83563333D01*
X159587200Y-83563333D02*
X159539580Y-83515714D01*
X159539580Y-83515714D02*
X159444342Y-83468095D01*
X159444342Y-83468095D02*
X159206247Y-83468095D01*
X159206247Y-83468095D02*
X159111009Y-83515714D01*
X159111009Y-83515714D02*
X159063390Y-83563333D01*
X159063390Y-83563333D02*
X159015771Y-83658571D01*
X159015771Y-83658571D02*
X159015771Y-83849047D01*
X159015771Y-83849047D02*
X159063390Y-83944285D01*
X159063390Y-83944285D02*
X159111009Y-83991904D01*
X159111009Y-83991904D02*
X159206247Y-84039523D01*
X154468572Y-69984819D02*
X154468572Y-68984819D01*
X154944762Y-69984819D02*
X154944762Y-68984819D01*
X154944762Y-68984819D02*
X155278095Y-69699104D01*
X155278095Y-69699104D02*
X155611428Y-68984819D01*
X155611428Y-68984819D02*
X155611428Y-69984819D01*
X156087619Y-68984819D02*
X156087619Y-69794342D01*
X156087619Y-69794342D02*
X156135238Y-69889580D01*
X156135238Y-69889580D02*
X156182857Y-69937200D01*
X156182857Y-69937200D02*
X156278095Y-69984819D01*
X156278095Y-69984819D02*
X156468571Y-69984819D01*
X156468571Y-69984819D02*
X156563809Y-69937200D01*
X156563809Y-69937200D02*
X156611428Y-69889580D01*
X156611428Y-69889580D02*
X156659047Y-69794342D01*
X156659047Y-69794342D02*
X156659047Y-68984819D01*
X157278095Y-69413390D02*
X157182857Y-69365771D01*
X157182857Y-69365771D02*
X157135238Y-69318152D01*
X157135238Y-69318152D02*
X157087619Y-69222914D01*
X157087619Y-69222914D02*
X157087619Y-69175295D01*
X157087619Y-69175295D02*
X157135238Y-69080057D01*
X157135238Y-69080057D02*
X157182857Y-69032438D01*
X157182857Y-69032438D02*
X157278095Y-68984819D01*
X157278095Y-68984819D02*
X157468571Y-68984819D01*
X157468571Y-68984819D02*
X157563809Y-69032438D01*
X157563809Y-69032438D02*
X157611428Y-69080057D01*
X157611428Y-69080057D02*
X157659047Y-69175295D01*
X157659047Y-69175295D02*
X157659047Y-69222914D01*
X157659047Y-69222914D02*
X157611428Y-69318152D01*
X157611428Y-69318152D02*
X157563809Y-69365771D01*
X157563809Y-69365771D02*
X157468571Y-69413390D01*
X157468571Y-69413390D02*
X157278095Y-69413390D01*
X157278095Y-69413390D02*
X157182857Y-69461009D01*
X157182857Y-69461009D02*
X157135238Y-69508628D01*
X157135238Y-69508628D02*
X157087619Y-69603866D01*
X157087619Y-69603866D02*
X157087619Y-69794342D01*
X157087619Y-69794342D02*
X157135238Y-69889580D01*
X157135238Y-69889580D02*
X157182857Y-69937200D01*
X157182857Y-69937200D02*
X157278095Y-69984819D01*
X157278095Y-69984819D02*
X157468571Y-69984819D01*
X157468571Y-69984819D02*
X157563809Y-69937200D01*
X157563809Y-69937200D02*
X157611428Y-69889580D01*
X157611428Y-69889580D02*
X157659047Y-69794342D01*
X157659047Y-69794342D02*
X157659047Y-69603866D01*
X157659047Y-69603866D02*
X157611428Y-69508628D01*
X157611428Y-69508628D02*
X157563809Y-69461009D01*
X157563809Y-69461009D02*
X157468571Y-69413390D01*
X136803095Y-67634819D02*
X136803095Y-68444342D01*
X136803095Y-68444342D02*
X136850714Y-68539580D01*
X136850714Y-68539580D02*
X136898333Y-68587200D01*
X136898333Y-68587200D02*
X136993571Y-68634819D01*
X136993571Y-68634819D02*
X137184047Y-68634819D01*
X137184047Y-68634819D02*
X137279285Y-68587200D01*
X137279285Y-68587200D02*
X137326904Y-68539580D01*
X137326904Y-68539580D02*
X137374523Y-68444342D01*
X137374523Y-68444342D02*
X137374523Y-67634819D01*
X138374523Y-68634819D02*
X137803095Y-68634819D01*
X138088809Y-68634819D02*
X138088809Y-67634819D01*
X138088809Y-67634819D02*
X137993571Y-67777676D01*
X137993571Y-67777676D02*
X137898333Y-67872914D01*
X137898333Y-67872914D02*
X137803095Y-67920533D01*
X128558572Y-87364819D02*
X128558572Y-86364819D01*
X129034762Y-87364819D02*
X129034762Y-86364819D01*
X129034762Y-86364819D02*
X129368095Y-87079104D01*
X129368095Y-87079104D02*
X129701428Y-86364819D01*
X129701428Y-86364819D02*
X129701428Y-87364819D01*
X130177619Y-86364819D02*
X130177619Y-87174342D01*
X130177619Y-87174342D02*
X130225238Y-87269580D01*
X130225238Y-87269580D02*
X130272857Y-87317200D01*
X130272857Y-87317200D02*
X130368095Y-87364819D01*
X130368095Y-87364819D02*
X130558571Y-87364819D01*
X130558571Y-87364819D02*
X130653809Y-87317200D01*
X130653809Y-87317200D02*
X130701428Y-87269580D01*
X130701428Y-87269580D02*
X130749047Y-87174342D01*
X130749047Y-87174342D02*
X130749047Y-86364819D01*
X131653809Y-86698152D02*
X131653809Y-87364819D01*
X131415714Y-86317200D02*
X131177619Y-87031485D01*
X131177619Y-87031485D02*
X131796666Y-87031485D01*
X127341009Y-68594285D02*
X127341009Y-68260952D01*
X127864819Y-68118095D02*
X127864819Y-68594285D01*
X127864819Y-68594285D02*
X126864819Y-68594285D01*
X126864819Y-68594285D02*
X126864819Y-68118095D01*
X127864819Y-67689523D02*
X126864819Y-67689523D01*
X126864819Y-67689523D02*
X127864819Y-67118095D01*
X127864819Y-67118095D02*
X126864819Y-67118095D01*
X127864819Y-66118095D02*
X127864819Y-66689523D01*
X127864819Y-66403809D02*
X126864819Y-66403809D01*
X126864819Y-66403809D02*
X127007676Y-66499047D01*
X127007676Y-66499047D02*
X127102914Y-66594285D01*
X127102914Y-66594285D02*
X127150533Y-66689523D01*
X173893810Y-83504319D02*
X173893810Y-82504319D01*
X173893810Y-82504319D02*
X174131905Y-82504319D01*
X174131905Y-82504319D02*
X174274762Y-82551938D01*
X174274762Y-82551938D02*
X174370000Y-82647176D01*
X174370000Y-82647176D02*
X174417619Y-82742414D01*
X174417619Y-82742414D02*
X174465238Y-82932890D01*
X174465238Y-82932890D02*
X174465238Y-83075747D01*
X174465238Y-83075747D02*
X174417619Y-83266223D01*
X174417619Y-83266223D02*
X174370000Y-83361461D01*
X174370000Y-83361461D02*
X174274762Y-83456700D01*
X174274762Y-83456700D02*
X174131905Y-83504319D01*
X174131905Y-83504319D02*
X173893810Y-83504319D01*
X174893810Y-83504319D02*
X174893810Y-82504319D01*
X175941428Y-83504319D02*
X175608095Y-83028128D01*
X175370000Y-83504319D02*
X175370000Y-82504319D01*
X175370000Y-82504319D02*
X175750952Y-82504319D01*
X175750952Y-82504319D02*
X175846190Y-82551938D01*
X175846190Y-82551938D02*
X175893809Y-82599557D01*
X175893809Y-82599557D02*
X175941428Y-82694795D01*
X175941428Y-82694795D02*
X175941428Y-82837652D01*
X175941428Y-82837652D02*
X175893809Y-82932890D01*
X175893809Y-82932890D02*
X175846190Y-82980509D01*
X175846190Y-82980509D02*
X175750952Y-83028128D01*
X175750952Y-83028128D02*
X175370000Y-83028128D01*
X176846190Y-82504319D02*
X176370000Y-82504319D01*
X176370000Y-82504319D02*
X176322381Y-82980509D01*
X176322381Y-82980509D02*
X176370000Y-82932890D01*
X176370000Y-82932890D02*
X176465238Y-82885271D01*
X176465238Y-82885271D02*
X176703333Y-82885271D01*
X176703333Y-82885271D02*
X176798571Y-82932890D01*
X176798571Y-82932890D02*
X176846190Y-82980509D01*
X176846190Y-82980509D02*
X176893809Y-83075747D01*
X176893809Y-83075747D02*
X176893809Y-83313842D01*
X176893809Y-83313842D02*
X176846190Y-83409080D01*
X176846190Y-83409080D02*
X176798571Y-83456700D01*
X176798571Y-83456700D02*
X176703333Y-83504319D01*
X176703333Y-83504319D02*
X176465238Y-83504319D01*
X176465238Y-83504319D02*
X176370000Y-83456700D01*
X176370000Y-83456700D02*
X176322381Y-83409080D01*
X148025714Y-64969104D02*
X148501904Y-64969104D01*
X147930476Y-65254819D02*
X148263809Y-64254819D01*
X148263809Y-64254819D02*
X148597142Y-65254819D01*
X148882857Y-64350057D02*
X148930476Y-64302438D01*
X148930476Y-64302438D02*
X149025714Y-64254819D01*
X149025714Y-64254819D02*
X149263809Y-64254819D01*
X149263809Y-64254819D02*
X149359047Y-64302438D01*
X149359047Y-64302438D02*
X149406666Y-64350057D01*
X149406666Y-64350057D02*
X149454285Y-64445295D01*
X149454285Y-64445295D02*
X149454285Y-64540533D01*
X149454285Y-64540533D02*
X149406666Y-64683390D01*
X149406666Y-64683390D02*
X148835238Y-65254819D01*
X148835238Y-65254819D02*
X149454285Y-65254819D01*
X114201009Y-68614285D02*
X114201009Y-68280952D01*
X114724819Y-68138095D02*
X114724819Y-68614285D01*
X114724819Y-68614285D02*
X113724819Y-68614285D01*
X113724819Y-68614285D02*
X113724819Y-68138095D01*
X114724819Y-67709523D02*
X113724819Y-67709523D01*
X113724819Y-67709523D02*
X114724819Y-67138095D01*
X114724819Y-67138095D02*
X113724819Y-67138095D01*
X113820057Y-66709523D02*
X113772438Y-66661904D01*
X113772438Y-66661904D02*
X113724819Y-66566666D01*
X113724819Y-66566666D02*
X113724819Y-66328571D01*
X113724819Y-66328571D02*
X113772438Y-66233333D01*
X113772438Y-66233333D02*
X113820057Y-66185714D01*
X113820057Y-66185714D02*
X113915295Y-66138095D01*
X113915295Y-66138095D02*
X114010533Y-66138095D01*
X114010533Y-66138095D02*
X114153390Y-66185714D01*
X114153390Y-66185714D02*
X114724819Y-66757142D01*
X114724819Y-66757142D02*
X114724819Y-66138095D01*
X172281009Y-85974285D02*
X172281009Y-85640952D01*
X172804819Y-85498095D02*
X172804819Y-85974285D01*
X172804819Y-85974285D02*
X171804819Y-85974285D01*
X171804819Y-85974285D02*
X171804819Y-85498095D01*
X172804819Y-85069523D02*
X171804819Y-85069523D01*
X171804819Y-85069523D02*
X172804819Y-84498095D01*
X172804819Y-84498095D02*
X171804819Y-84498095D01*
X171804819Y-83545714D02*
X171804819Y-84021904D01*
X171804819Y-84021904D02*
X172281009Y-84069523D01*
X172281009Y-84069523D02*
X172233390Y-84021904D01*
X172233390Y-84021904D02*
X172185771Y-83926666D01*
X172185771Y-83926666D02*
X172185771Y-83688571D01*
X172185771Y-83688571D02*
X172233390Y-83593333D01*
X172233390Y-83593333D02*
X172281009Y-83545714D01*
X172281009Y-83545714D02*
X172376247Y-83498095D01*
X172376247Y-83498095D02*
X172614342Y-83498095D01*
X172614342Y-83498095D02*
X172709580Y-83545714D01*
X172709580Y-83545714D02*
X172757200Y-83593333D01*
X172757200Y-83593333D02*
X172804819Y-83688571D01*
X172804819Y-83688571D02*
X172804819Y-83926666D01*
X172804819Y-83926666D02*
X172757200Y-84021904D01*
X172757200Y-84021904D02*
X172709580Y-84069523D01*
X128938572Y-70014819D02*
X128938572Y-69014819D01*
X129414762Y-70014819D02*
X129414762Y-69014819D01*
X129414762Y-69014819D02*
X129748095Y-69729104D01*
X129748095Y-69729104D02*
X130081428Y-69014819D01*
X130081428Y-69014819D02*
X130081428Y-70014819D01*
X130557619Y-69014819D02*
X130557619Y-69824342D01*
X130557619Y-69824342D02*
X130605238Y-69919580D01*
X130605238Y-69919580D02*
X130652857Y-69967200D01*
X130652857Y-69967200D02*
X130748095Y-70014819D01*
X130748095Y-70014819D02*
X130938571Y-70014819D01*
X130938571Y-70014819D02*
X131033809Y-69967200D01*
X131033809Y-69967200D02*
X131081428Y-69919580D01*
X131081428Y-69919580D02*
X131129047Y-69824342D01*
X131129047Y-69824342D02*
X131129047Y-69014819D01*
X132129047Y-70014819D02*
X131557619Y-70014819D01*
X131843333Y-70014819D02*
X131843333Y-69014819D01*
X131843333Y-69014819D02*
X131748095Y-69157676D01*
X131748095Y-69157676D02*
X131652857Y-69252914D01*
X131652857Y-69252914D02*
X131557619Y-69300533D01*
D12*
%TO.C,DIR2*%
X109130000Y-67749500D02*
X109130000Y-67149500D01*
X109680000Y-68949500D02*
X110280000Y-68949500D01*
X109780000Y-66449500D02*
X112580000Y-66449500D01*
X109980000Y-68649500D02*
X109680000Y-68949500D01*
X109980000Y-68649500D02*
X110280000Y-68949500D01*
X112580000Y-68449500D02*
X109780000Y-68449500D01*
X113230000Y-67149500D02*
X113230000Y-67749500D01*
X109130000Y-67149500D02*
G75*
G02*
X109830000Y-66449500I699999J1D01*
G01*
X109830000Y-68449500D02*
G75*
G02*
X109130000Y-67749500I-1J699999D01*
G01*
X112530000Y-66449500D02*
G75*
G02*
X113230000Y-67149500I0J-700000D01*
G01*
X113230000Y-67749500D02*
G75*
G02*
X112530000Y-68449500I-700000J0D01*
G01*
%TO.C,J1*%
X138610000Y-59480000D02*
X138610000Y-64200000D01*
X138610000Y-61590000D02*
X139220000Y-61590000D01*
X138610000Y-62890000D02*
X139220000Y-62890000D01*
X138610000Y-64200000D02*
X150730000Y-64200000D01*
X139220000Y-60090000D02*
X139220000Y-63590000D01*
X139220000Y-63590000D02*
X141170000Y-63590000D01*
X141170000Y-63590000D02*
X141170000Y-64200000D01*
X141570000Y-60590000D02*
X141570000Y-60090000D01*
X141670000Y-60090000D02*
X141670000Y-60590000D01*
X141770000Y-60090000D02*
X141770000Y-60590000D01*
X141770000Y-60590000D02*
X141570000Y-60590000D01*
X143570000Y-60590000D02*
X143570000Y-60090000D01*
X143670000Y-60090000D02*
X143670000Y-60590000D01*
X143770000Y-60090000D02*
X143770000Y-60590000D01*
X143770000Y-60590000D02*
X143570000Y-60590000D01*
X145570000Y-60590000D02*
X145570000Y-60090000D01*
X145670000Y-60090000D02*
X145670000Y-60590000D01*
X145770000Y-60090000D02*
X145770000Y-60590000D01*
X145770000Y-60590000D02*
X145570000Y-60590000D01*
X147570000Y-60590000D02*
X147570000Y-60090000D01*
X147670000Y-60090000D02*
X147670000Y-60590000D01*
X147770000Y-60090000D02*
X147770000Y-60590000D01*
X147770000Y-60590000D02*
X147570000Y-60590000D01*
X148170000Y-63590000D02*
X150120000Y-63590000D01*
X148170000Y-64200000D02*
X148170000Y-63590000D01*
X148970000Y-64200000D02*
X148970000Y-64400000D01*
X148970000Y-64300000D02*
X149270000Y-64300000D01*
X148970000Y-64400000D02*
X149270000Y-64400000D01*
X149270000Y-64400000D02*
X149270000Y-64200000D01*
X149780000Y-64500000D02*
X151030000Y-64500000D01*
X150120000Y-60090000D02*
X139220000Y-60090000D01*
X150120000Y-63590000D02*
X150120000Y-60090000D01*
X150730000Y-59480000D02*
X138610000Y-59480000D01*
X150730000Y-61590000D02*
X150120000Y-61590000D01*
X150730000Y-62890000D02*
X150120000Y-62890000D01*
X150730000Y-64200000D02*
X150730000Y-59480000D01*
X151030000Y-64500000D02*
X151030000Y-63250000D01*
%TO.C,EN3*%
X108520000Y-98160000D02*
X108520000Y-99410000D01*
X108520000Y-99410000D02*
X109770000Y-99410000D01*
X108620000Y-97350000D02*
X108620000Y-97650000D01*
X108620000Y-97650000D02*
X108820000Y-97650000D01*
X108720000Y-97350000D02*
X108720000Y-97650000D01*
X108820000Y-86990000D02*
X108820000Y-99110000D01*
X108820000Y-96550000D02*
X109430000Y-96550000D01*
X108820000Y-97350000D02*
X108620000Y-97350000D01*
X108820000Y-99110000D02*
X113540000Y-99110000D01*
X109430000Y-87600000D02*
X109430000Y-89550000D01*
X109430000Y-89550000D02*
X108820000Y-89550000D01*
X109430000Y-96550000D02*
X109430000Y-98500000D01*
X109430000Y-98500000D02*
X112930000Y-98500000D01*
X110130000Y-86990000D02*
X110130000Y-87600000D01*
X110130000Y-99110000D02*
X110130000Y-98500000D01*
X111430000Y-86990000D02*
X111430000Y-87600000D01*
X111430000Y-99110000D02*
X111430000Y-98500000D01*
X112430000Y-89950000D02*
X112930000Y-89950000D01*
X112430000Y-90150000D02*
X112430000Y-89950000D01*
X112430000Y-91950000D02*
X112930000Y-91950000D01*
X112430000Y-92150000D02*
X112430000Y-91950000D01*
X112430000Y-93950000D02*
X112930000Y-93950000D01*
X112430000Y-94150000D02*
X112430000Y-93950000D01*
X112430000Y-95950000D02*
X112930000Y-95950000D01*
X112430000Y-96150000D02*
X112430000Y-95950000D01*
X112930000Y-87600000D02*
X109430000Y-87600000D01*
X112930000Y-90050000D02*
X112430000Y-90050000D01*
X112930000Y-90150000D02*
X112430000Y-90150000D01*
X112930000Y-92050000D02*
X112430000Y-92050000D01*
X112930000Y-92150000D02*
X112430000Y-92150000D01*
X112930000Y-94050000D02*
X112430000Y-94050000D01*
X112930000Y-94150000D02*
X112430000Y-94150000D01*
X112930000Y-96050000D02*
X112430000Y-96050000D01*
X112930000Y-96150000D02*
X112430000Y-96150000D01*
X112930000Y-98500000D02*
X112930000Y-87600000D01*
X113540000Y-86990000D02*
X108820000Y-86990000D01*
X113540000Y-99110000D02*
X113540000Y-86990000D01*
%TO.C,IMU2*%
X114620000Y-79760000D02*
X114620000Y-81010000D01*
X114620000Y-81010000D02*
X115870000Y-81010000D01*
X114720000Y-78950000D02*
X114720000Y-79250000D01*
X114720000Y-79250000D02*
X114920000Y-79250000D01*
X114820000Y-78950000D02*
X114820000Y-79250000D01*
X114920000Y-70590000D02*
X114920000Y-80710000D01*
X114920000Y-78150000D02*
X115530000Y-78150000D01*
X114920000Y-78950000D02*
X114720000Y-78950000D01*
X114920000Y-80710000D02*
X119640000Y-80710000D01*
X115530000Y-71200000D02*
X115530000Y-73150000D01*
X115530000Y-73150000D02*
X114920000Y-73150000D01*
X115530000Y-78150000D02*
X115530000Y-80100000D01*
X115530000Y-80100000D02*
X119030000Y-80100000D01*
X116230000Y-70590000D02*
X116230000Y-71200000D01*
X116230000Y-80710000D02*
X116230000Y-80100000D01*
X117530000Y-70590000D02*
X117530000Y-71200000D01*
X117530000Y-80710000D02*
X117530000Y-80100000D01*
X118530000Y-73550000D02*
X119030000Y-73550000D01*
X118530000Y-73750000D02*
X118530000Y-73550000D01*
X118530000Y-75550000D02*
X119030000Y-75550000D01*
X118530000Y-75750000D02*
X118530000Y-75550000D01*
X118530000Y-77550000D02*
X119030000Y-77550000D01*
X118530000Y-77750000D02*
X118530000Y-77550000D01*
X119030000Y-71200000D02*
X115530000Y-71200000D01*
X119030000Y-73650000D02*
X118530000Y-73650000D01*
X119030000Y-73750000D02*
X118530000Y-73750000D01*
X119030000Y-75650000D02*
X118530000Y-75650000D01*
X119030000Y-75750000D02*
X118530000Y-75750000D01*
X119030000Y-77650000D02*
X118530000Y-77650000D01*
X119030000Y-77750000D02*
X118530000Y-77750000D01*
X119030000Y-80100000D02*
X119030000Y-71200000D01*
X119640000Y-70590000D02*
X114920000Y-70590000D01*
X119640000Y-80710000D02*
X119640000Y-70590000D01*
%TO.C,DIR7*%
X173320000Y-67749500D02*
X173320000Y-67149500D01*
X173870000Y-68949500D02*
X174470000Y-68949500D01*
X173970000Y-66449500D02*
X176770000Y-66449500D01*
X174170000Y-68649500D02*
X173870000Y-68949500D01*
X174170000Y-68649500D02*
X174470000Y-68949500D01*
X176770000Y-68449500D02*
X173970000Y-68449500D01*
X177420000Y-67149500D02*
X177420000Y-67749500D01*
X173320000Y-67149500D02*
G75*
G02*
X174020000Y-66449500I699999J1D01*
G01*
X174020000Y-68449500D02*
G75*
G02*
X173320000Y-67749500I-1J699999D01*
G01*
X176720000Y-66449500D02*
G75*
G02*
X177420000Y-67149500I0J-700000D01*
G01*
X177420000Y-67749500D02*
G75*
G02*
X176720000Y-68449500I-700000J0D01*
G01*
%TO.C,IMU5*%
X166610000Y-97160000D02*
X166610000Y-98410000D01*
X166610000Y-98410000D02*
X167860000Y-98410000D01*
X166710000Y-96350000D02*
X166710000Y-96650000D01*
X166710000Y-96650000D02*
X166910000Y-96650000D01*
X166810000Y-96350000D02*
X166810000Y-96650000D01*
X166910000Y-87990000D02*
X166910000Y-98110000D01*
X166910000Y-95550000D02*
X167520000Y-95550000D01*
X166910000Y-96350000D02*
X166710000Y-96350000D01*
X166910000Y-98110000D02*
X171630000Y-98110000D01*
X167520000Y-88600000D02*
X167520000Y-90550000D01*
X167520000Y-90550000D02*
X166910000Y-90550000D01*
X167520000Y-95550000D02*
X167520000Y-97500000D01*
X167520000Y-97500000D02*
X171020000Y-97500000D01*
X168220000Y-87990000D02*
X168220000Y-88600000D01*
X168220000Y-98110000D02*
X168220000Y-97500000D01*
X169520000Y-87990000D02*
X169520000Y-88600000D01*
X169520000Y-98110000D02*
X169520000Y-97500000D01*
X170520000Y-90950000D02*
X171020000Y-90950000D01*
X170520000Y-91150000D02*
X170520000Y-90950000D01*
X170520000Y-92950000D02*
X171020000Y-92950000D01*
X170520000Y-93150000D02*
X170520000Y-92950000D01*
X170520000Y-94950000D02*
X171020000Y-94950000D01*
X170520000Y-95150000D02*
X170520000Y-94950000D01*
X171020000Y-88600000D02*
X167520000Y-88600000D01*
X171020000Y-91050000D02*
X170520000Y-91050000D01*
X171020000Y-91150000D02*
X170520000Y-91150000D01*
X171020000Y-93050000D02*
X170520000Y-93050000D01*
X171020000Y-93150000D02*
X170520000Y-93150000D01*
X171020000Y-95050000D02*
X170520000Y-95050000D01*
X171020000Y-95150000D02*
X170520000Y-95150000D01*
X171020000Y-97500000D02*
X171020000Y-88600000D01*
X171630000Y-87990000D02*
X166910000Y-87990000D01*
X171630000Y-98110000D02*
X171630000Y-87990000D01*
%TO.C,DIR4*%
X122230000Y-85149500D02*
X122230000Y-84549500D01*
X122780000Y-86349500D02*
X123380000Y-86349500D01*
X122880000Y-83849500D02*
X125680000Y-83849500D01*
X123080000Y-86049500D02*
X122780000Y-86349500D01*
X123080000Y-86049500D02*
X123380000Y-86349500D01*
X125680000Y-85849500D02*
X122880000Y-85849500D01*
X126330000Y-84549500D02*
X126330000Y-85149500D01*
X122230000Y-84549500D02*
G75*
G02*
X122930000Y-83849500I699999J1D01*
G01*
X122930000Y-85849500D02*
G75*
G02*
X122230000Y-85149500I-1J699999D01*
G01*
X125630000Y-83849500D02*
G75*
G02*
X126330000Y-84549500I0J-700000D01*
G01*
X126330000Y-85149500D02*
G75*
G02*
X125630000Y-85849500I-700000J0D01*
G01*
%TO.C,DIR8*%
X160220000Y-67749500D02*
X160220000Y-67149500D01*
X160770000Y-68949500D02*
X161370000Y-68949500D01*
X160870000Y-66449500D02*
X163670000Y-66449500D01*
X161070000Y-68649500D02*
X160770000Y-68949500D01*
X161070000Y-68649500D02*
X161370000Y-68949500D01*
X163670000Y-68449500D02*
X160870000Y-68449500D01*
X164320000Y-67149500D02*
X164320000Y-67749500D01*
X160220000Y-67149500D02*
G75*
G02*
X160920000Y-66449500I699999J1D01*
G01*
X160920000Y-68449500D02*
G75*
G02*
X160220000Y-67749500I-1J699999D01*
G01*
X163620000Y-66449500D02*
G75*
G02*
X164320000Y-67149500I0J-700000D01*
G01*
X164320000Y-67749500D02*
G75*
G02*
X163620000Y-68449500I-700000J0D01*
G01*
%TO.C,DIR6*%
X160220000Y-85149500D02*
X160220000Y-84549500D01*
X160770000Y-86349500D02*
X161370000Y-86349500D01*
X160870000Y-83849500D02*
X163670000Y-83849500D01*
X161070000Y-86049500D02*
X160770000Y-86349500D01*
X161070000Y-86049500D02*
X161370000Y-86349500D01*
X163670000Y-85849500D02*
X160870000Y-85849500D01*
X164320000Y-84549500D02*
X164320000Y-85149500D01*
X160220000Y-84549500D02*
G75*
G02*
X160920000Y-83849500I699999J1D01*
G01*
X160920000Y-85849500D02*
G75*
G02*
X160220000Y-85149500I-1J699999D01*
G01*
X163620000Y-83849500D02*
G75*
G02*
X164320000Y-84549500I0J-700000D01*
G01*
X164320000Y-85149500D02*
G75*
G02*
X163620000Y-85849500I-700000J0D01*
G01*
%TO.C,EN7*%
X172710000Y-80750000D02*
X172710000Y-82000000D01*
X172710000Y-82000000D02*
X173960000Y-82000000D01*
X172810000Y-79940000D02*
X172810000Y-80240000D01*
X172810000Y-80240000D02*
X173010000Y-80240000D01*
X172910000Y-79940000D02*
X172910000Y-80240000D01*
X173010000Y-69580000D02*
X173010000Y-81700000D01*
X173010000Y-79140000D02*
X173620000Y-79140000D01*
X173010000Y-79940000D02*
X172810000Y-79940000D01*
X173010000Y-81700000D02*
X177730000Y-81700000D01*
X173620000Y-70190000D02*
X173620000Y-72140000D01*
X173620000Y-72140000D02*
X173010000Y-72140000D01*
X173620000Y-79140000D02*
X173620000Y-81090000D01*
X173620000Y-81090000D02*
X177120000Y-81090000D01*
X174320000Y-69580000D02*
X174320000Y-70190000D01*
X174320000Y-81700000D02*
X174320000Y-81090000D01*
X175620000Y-69580000D02*
X175620000Y-70190000D01*
X175620000Y-81700000D02*
X175620000Y-81090000D01*
X176620000Y-72540000D02*
X177120000Y-72540000D01*
X176620000Y-72740000D02*
X176620000Y-72540000D01*
X176620000Y-74540000D02*
X177120000Y-74540000D01*
X176620000Y-74740000D02*
X176620000Y-74540000D01*
X176620000Y-76540000D02*
X177120000Y-76540000D01*
X176620000Y-76740000D02*
X176620000Y-76540000D01*
X176620000Y-78540000D02*
X177120000Y-78540000D01*
X176620000Y-78740000D02*
X176620000Y-78540000D01*
X177120000Y-70190000D02*
X173620000Y-70190000D01*
X177120000Y-72640000D02*
X176620000Y-72640000D01*
X177120000Y-72740000D02*
X176620000Y-72740000D01*
X177120000Y-74640000D02*
X176620000Y-74640000D01*
X177120000Y-74740000D02*
X176620000Y-74740000D01*
X177120000Y-76640000D02*
X176620000Y-76640000D01*
X177120000Y-76740000D02*
X176620000Y-76740000D01*
X177120000Y-78640000D02*
X176620000Y-78640000D01*
X177120000Y-78740000D02*
X176620000Y-78740000D01*
X177120000Y-81090000D02*
X177120000Y-70190000D01*
X177730000Y-69580000D02*
X173010000Y-69580000D01*
X177730000Y-81700000D02*
X177730000Y-69580000D01*
%TO.C,IMU3*%
X114620000Y-97160000D02*
X114620000Y-98410000D01*
X114620000Y-98410000D02*
X115870000Y-98410000D01*
X114720000Y-96350000D02*
X114720000Y-96650000D01*
X114720000Y-96650000D02*
X114920000Y-96650000D01*
X114820000Y-96350000D02*
X114820000Y-96650000D01*
X114920000Y-87990000D02*
X114920000Y-98110000D01*
X114920000Y-95550000D02*
X115530000Y-95550000D01*
X114920000Y-96350000D02*
X114720000Y-96350000D01*
X114920000Y-98110000D02*
X119640000Y-98110000D01*
X115530000Y-88600000D02*
X115530000Y-90550000D01*
X115530000Y-90550000D02*
X114920000Y-90550000D01*
X115530000Y-95550000D02*
X115530000Y-97500000D01*
X115530000Y-97500000D02*
X119030000Y-97500000D01*
X116230000Y-87990000D02*
X116230000Y-88600000D01*
X116230000Y-98110000D02*
X116230000Y-97500000D01*
X117530000Y-87990000D02*
X117530000Y-88600000D01*
X117530000Y-98110000D02*
X117530000Y-97500000D01*
X118530000Y-90950000D02*
X119030000Y-90950000D01*
X118530000Y-91150000D02*
X118530000Y-90950000D01*
X118530000Y-92950000D02*
X119030000Y-92950000D01*
X118530000Y-93150000D02*
X118530000Y-92950000D01*
X118530000Y-94950000D02*
X119030000Y-94950000D01*
X118530000Y-95150000D02*
X118530000Y-94950000D01*
X119030000Y-88600000D02*
X115530000Y-88600000D01*
X119030000Y-91050000D02*
X118530000Y-91050000D01*
X119030000Y-91150000D02*
X118530000Y-91150000D01*
X119030000Y-93050000D02*
X118530000Y-93050000D01*
X119030000Y-93150000D02*
X118530000Y-93150000D01*
X119030000Y-95050000D02*
X118530000Y-95050000D01*
X119030000Y-95150000D02*
X118530000Y-95150000D01*
X119030000Y-97500000D02*
X119030000Y-88600000D01*
X119640000Y-87990000D02*
X114920000Y-87990000D01*
X119640000Y-98110000D02*
X119640000Y-87990000D01*
%TO.C,EN8*%
X159610000Y-80760000D02*
X159610000Y-82010000D01*
X159610000Y-82010000D02*
X160860000Y-82010000D01*
X159710000Y-79950000D02*
X159710000Y-80250000D01*
X159710000Y-80250000D02*
X159910000Y-80250000D01*
X159810000Y-79950000D02*
X159810000Y-80250000D01*
X159910000Y-69590000D02*
X159910000Y-81710000D01*
X159910000Y-79150000D02*
X160520000Y-79150000D01*
X159910000Y-79950000D02*
X159710000Y-79950000D01*
X159910000Y-81710000D02*
X164630000Y-81710000D01*
X160520000Y-70200000D02*
X160520000Y-72150000D01*
X160520000Y-72150000D02*
X159910000Y-72150000D01*
X160520000Y-79150000D02*
X160520000Y-81100000D01*
X160520000Y-81100000D02*
X164020000Y-81100000D01*
X161220000Y-69590000D02*
X161220000Y-70200000D01*
X161220000Y-81710000D02*
X161220000Y-81100000D01*
X162520000Y-69590000D02*
X162520000Y-70200000D01*
X162520000Y-81710000D02*
X162520000Y-81100000D01*
X163520000Y-72550000D02*
X164020000Y-72550000D01*
X163520000Y-72750000D02*
X163520000Y-72550000D01*
X163520000Y-74550000D02*
X164020000Y-74550000D01*
X163520000Y-74750000D02*
X163520000Y-74550000D01*
X163520000Y-76550000D02*
X164020000Y-76550000D01*
X163520000Y-76750000D02*
X163520000Y-76550000D01*
X163520000Y-78550000D02*
X164020000Y-78550000D01*
X163520000Y-78750000D02*
X163520000Y-78550000D01*
X164020000Y-70200000D02*
X160520000Y-70200000D01*
X164020000Y-72650000D02*
X163520000Y-72650000D01*
X164020000Y-72750000D02*
X163520000Y-72750000D01*
X164020000Y-74650000D02*
X163520000Y-74650000D01*
X164020000Y-74750000D02*
X163520000Y-74750000D01*
X164020000Y-76650000D02*
X163520000Y-76650000D01*
X164020000Y-76750000D02*
X163520000Y-76750000D01*
X164020000Y-78650000D02*
X163520000Y-78650000D01*
X164020000Y-78750000D02*
X163520000Y-78750000D01*
X164020000Y-81100000D02*
X164020000Y-70200000D01*
X164630000Y-69590000D02*
X159910000Y-69590000D01*
X164630000Y-81710000D02*
X164630000Y-69590000D01*
%TO.C,A1*%
X144940000Y-67760000D02*
X144940000Y-66360000D01*
X145640000Y-65660000D02*
X146240000Y-65660000D01*
X146240000Y-68460000D02*
X145640000Y-68460000D01*
X146940000Y-66360000D02*
X146940000Y-67760000D01*
X144940000Y-66360000D02*
G75*
G02*
X145640000Y-65660000I699999J1D01*
G01*
X145640000Y-68460000D02*
G75*
G02*
X144940000Y-67760000I0J700000D01*
G01*
X146240000Y-65660000D02*
G75*
G02*
X146940000Y-66360000I1J-699999D01*
G01*
X146940000Y-67760000D02*
G75*
G02*
X146240000Y-68460000I-700000J0D01*
G01*
%TO.C,EN4*%
X121620000Y-98160000D02*
X121620000Y-99410000D01*
X121620000Y-99410000D02*
X122870000Y-99410000D01*
X121720000Y-97350000D02*
X121720000Y-97650000D01*
X121720000Y-97650000D02*
X121920000Y-97650000D01*
X121820000Y-97350000D02*
X121820000Y-97650000D01*
X121920000Y-86990000D02*
X121920000Y-99110000D01*
X121920000Y-96550000D02*
X122530000Y-96550000D01*
X121920000Y-97350000D02*
X121720000Y-97350000D01*
X121920000Y-99110000D02*
X126640000Y-99110000D01*
X122530000Y-87600000D02*
X122530000Y-89550000D01*
X122530000Y-89550000D02*
X121920000Y-89550000D01*
X122530000Y-96550000D02*
X122530000Y-98500000D01*
X122530000Y-98500000D02*
X126030000Y-98500000D01*
X123230000Y-86990000D02*
X123230000Y-87600000D01*
X123230000Y-99110000D02*
X123230000Y-98500000D01*
X124530000Y-86990000D02*
X124530000Y-87600000D01*
X124530000Y-99110000D02*
X124530000Y-98500000D01*
X125530000Y-89950000D02*
X126030000Y-89950000D01*
X125530000Y-90150000D02*
X125530000Y-89950000D01*
X125530000Y-91950000D02*
X126030000Y-91950000D01*
X125530000Y-92150000D02*
X125530000Y-91950000D01*
X125530000Y-93950000D02*
X126030000Y-93950000D01*
X125530000Y-94150000D02*
X125530000Y-93950000D01*
X125530000Y-95950000D02*
X126030000Y-95950000D01*
X125530000Y-96150000D02*
X125530000Y-95950000D01*
X126030000Y-87600000D02*
X122530000Y-87600000D01*
X126030000Y-90050000D02*
X125530000Y-90050000D01*
X126030000Y-90150000D02*
X125530000Y-90150000D01*
X126030000Y-92050000D02*
X125530000Y-92050000D01*
X126030000Y-92150000D02*
X125530000Y-92150000D01*
X126030000Y-94050000D02*
X125530000Y-94050000D01*
X126030000Y-94150000D02*
X125530000Y-94150000D01*
X126030000Y-96050000D02*
X125530000Y-96050000D01*
X126030000Y-96150000D02*
X125530000Y-96150000D01*
X126030000Y-98500000D02*
X126030000Y-87600000D01*
X126640000Y-86990000D02*
X121920000Y-86990000D01*
X126640000Y-99110000D02*
X126640000Y-86990000D01*
%TO.C,IMU7*%
X166610000Y-79740000D02*
X166610000Y-80990000D01*
X166610000Y-80990000D02*
X167860000Y-80990000D01*
X166710000Y-78930000D02*
X166710000Y-79230000D01*
X166710000Y-79230000D02*
X166910000Y-79230000D01*
X166810000Y-78930000D02*
X166810000Y-79230000D01*
X166910000Y-70570000D02*
X166910000Y-80690000D01*
X166910000Y-78130000D02*
X167520000Y-78130000D01*
X166910000Y-78930000D02*
X166710000Y-78930000D01*
X166910000Y-80690000D02*
X171630000Y-80690000D01*
X167520000Y-71180000D02*
X167520000Y-73130000D01*
X167520000Y-73130000D02*
X166910000Y-73130000D01*
X167520000Y-78130000D02*
X167520000Y-80080000D01*
X167520000Y-80080000D02*
X171020000Y-80080000D01*
X168220000Y-70570000D02*
X168220000Y-71180000D01*
X168220000Y-80690000D02*
X168220000Y-80080000D01*
X169520000Y-70570000D02*
X169520000Y-71180000D01*
X169520000Y-80690000D02*
X169520000Y-80080000D01*
X170520000Y-73530000D02*
X171020000Y-73530000D01*
X170520000Y-73730000D02*
X170520000Y-73530000D01*
X170520000Y-75530000D02*
X171020000Y-75530000D01*
X170520000Y-75730000D02*
X170520000Y-75530000D01*
X170520000Y-77530000D02*
X171020000Y-77530000D01*
X170520000Y-77730000D02*
X170520000Y-77530000D01*
X171020000Y-71180000D02*
X167520000Y-71180000D01*
X171020000Y-73630000D02*
X170520000Y-73630000D01*
X171020000Y-73730000D02*
X170520000Y-73730000D01*
X171020000Y-75630000D02*
X170520000Y-75630000D01*
X171020000Y-75730000D02*
X170520000Y-75730000D01*
X171020000Y-77630000D02*
X170520000Y-77630000D01*
X171020000Y-77730000D02*
X170520000Y-77730000D01*
X171020000Y-80080000D02*
X171020000Y-71180000D01*
X171630000Y-70570000D02*
X166910000Y-70570000D01*
X171630000Y-80690000D02*
X171630000Y-70570000D01*
%TO.C,DIR1*%
X122230000Y-67749500D02*
X122230000Y-67149500D01*
X122780000Y-68949500D02*
X123380000Y-68949500D01*
X122880000Y-66449500D02*
X125680000Y-66449500D01*
X123080000Y-68649500D02*
X122780000Y-68949500D01*
X123080000Y-68649500D02*
X123380000Y-68949500D01*
X125680000Y-68449500D02*
X122880000Y-68449500D01*
X126330000Y-67149500D02*
X126330000Y-67749500D01*
X122230000Y-67149500D02*
G75*
G02*
X122930000Y-66449500I699999J1D01*
G01*
X122930000Y-68449500D02*
G75*
G02*
X122230000Y-67749500I-1J699999D01*
G01*
X125630000Y-66449500D02*
G75*
G02*
X126330000Y-67149500I0J-700000D01*
G01*
X126330000Y-67749500D02*
G75*
G02*
X125630000Y-68449500I-700000J0D01*
G01*
%TO.C,IMU6*%
X153510000Y-97160000D02*
X153510000Y-98410000D01*
X153510000Y-98410000D02*
X154760000Y-98410000D01*
X153610000Y-96350000D02*
X153610000Y-96650000D01*
X153610000Y-96650000D02*
X153810000Y-96650000D01*
X153710000Y-96350000D02*
X153710000Y-96650000D01*
X153810000Y-87990000D02*
X153810000Y-98110000D01*
X153810000Y-95550000D02*
X154420000Y-95550000D01*
X153810000Y-96350000D02*
X153610000Y-96350000D01*
X153810000Y-98110000D02*
X158530000Y-98110000D01*
X154420000Y-88600000D02*
X154420000Y-90550000D01*
X154420000Y-90550000D02*
X153810000Y-90550000D01*
X154420000Y-95550000D02*
X154420000Y-97500000D01*
X154420000Y-97500000D02*
X157920000Y-97500000D01*
X155120000Y-87990000D02*
X155120000Y-88600000D01*
X155120000Y-98110000D02*
X155120000Y-97500000D01*
X156420000Y-87990000D02*
X156420000Y-88600000D01*
X156420000Y-98110000D02*
X156420000Y-97500000D01*
X157420000Y-90950000D02*
X157920000Y-90950000D01*
X157420000Y-91150000D02*
X157420000Y-90950000D01*
X157420000Y-92950000D02*
X157920000Y-92950000D01*
X157420000Y-93150000D02*
X157420000Y-92950000D01*
X157420000Y-94950000D02*
X157920000Y-94950000D01*
X157420000Y-95150000D02*
X157420000Y-94950000D01*
X157920000Y-88600000D02*
X154420000Y-88600000D01*
X157920000Y-91050000D02*
X157420000Y-91050000D01*
X157920000Y-91150000D02*
X157420000Y-91150000D01*
X157920000Y-93050000D02*
X157420000Y-93050000D01*
X157920000Y-93150000D02*
X157420000Y-93150000D01*
X157920000Y-95050000D02*
X157420000Y-95050000D01*
X157920000Y-95150000D02*
X157420000Y-95150000D01*
X157920000Y-97500000D02*
X157920000Y-88600000D01*
X158530000Y-87990000D02*
X153810000Y-87990000D01*
X158530000Y-98110000D02*
X158530000Y-87990000D01*
%TO.C,A0*%
X142140000Y-67760000D02*
X142140000Y-66360000D01*
X142840000Y-65660000D02*
X143440000Y-65660000D01*
X143440000Y-68460000D02*
X142840000Y-68460000D01*
X144140000Y-66360000D02*
X144140000Y-67760000D01*
X142140000Y-66360000D02*
G75*
G02*
X142840000Y-65660000I699999J1D01*
G01*
X142840000Y-68460000D02*
G75*
G02*
X142140000Y-67760000I0J700000D01*
G01*
X143440000Y-65660000D02*
G75*
G02*
X144140000Y-66360000I1J-699999D01*
G01*
X144140000Y-67760000D02*
G75*
G02*
X143440000Y-68460000I-700000J0D01*
G01*
%TO.C,DIR3*%
X109130000Y-85149500D02*
X109130000Y-84549500D01*
X109680000Y-86349500D02*
X110280000Y-86349500D01*
X109780000Y-83849500D02*
X112580000Y-83849500D01*
X109980000Y-86049500D02*
X109680000Y-86349500D01*
X109980000Y-86049500D02*
X110280000Y-86349500D01*
X112580000Y-85849500D02*
X109780000Y-85849500D01*
X113230000Y-84549500D02*
X113230000Y-85149500D01*
X109130000Y-84549500D02*
G75*
G02*
X109830000Y-83849500I699999J1D01*
G01*
X109830000Y-85849500D02*
G75*
G02*
X109130000Y-85149500I-1J699999D01*
G01*
X112530000Y-83849500D02*
G75*
G02*
X113230000Y-84549500I0J-700000D01*
G01*
X113230000Y-85149500D02*
G75*
G02*
X112530000Y-85849500I-700000J0D01*
G01*
%TO.C,EN6*%
X159610000Y-98160000D02*
X159610000Y-99410000D01*
X159610000Y-99410000D02*
X160860000Y-99410000D01*
X159710000Y-97350000D02*
X159710000Y-97650000D01*
X159710000Y-97650000D02*
X159910000Y-97650000D01*
X159810000Y-97350000D02*
X159810000Y-97650000D01*
X159910000Y-86990000D02*
X159910000Y-99110000D01*
X159910000Y-96550000D02*
X160520000Y-96550000D01*
X159910000Y-97350000D02*
X159710000Y-97350000D01*
X159910000Y-99110000D02*
X164630000Y-99110000D01*
X160520000Y-87600000D02*
X160520000Y-89550000D01*
X160520000Y-89550000D02*
X159910000Y-89550000D01*
X160520000Y-96550000D02*
X160520000Y-98500000D01*
X160520000Y-98500000D02*
X164020000Y-98500000D01*
X161220000Y-86990000D02*
X161220000Y-87600000D01*
X161220000Y-99110000D02*
X161220000Y-98500000D01*
X162520000Y-86990000D02*
X162520000Y-87600000D01*
X162520000Y-99110000D02*
X162520000Y-98500000D01*
X163520000Y-89950000D02*
X164020000Y-89950000D01*
X163520000Y-90150000D02*
X163520000Y-89950000D01*
X163520000Y-91950000D02*
X164020000Y-91950000D01*
X163520000Y-92150000D02*
X163520000Y-91950000D01*
X163520000Y-93950000D02*
X164020000Y-93950000D01*
X163520000Y-94150000D02*
X163520000Y-93950000D01*
X163520000Y-95950000D02*
X164020000Y-95950000D01*
X163520000Y-96150000D02*
X163520000Y-95950000D01*
X164020000Y-87600000D02*
X160520000Y-87600000D01*
X164020000Y-90050000D02*
X163520000Y-90050000D01*
X164020000Y-90150000D02*
X163520000Y-90150000D01*
X164020000Y-92050000D02*
X163520000Y-92050000D01*
X164020000Y-92150000D02*
X163520000Y-92150000D01*
X164020000Y-94050000D02*
X163520000Y-94050000D01*
X164020000Y-94150000D02*
X163520000Y-94150000D01*
X164020000Y-96050000D02*
X163520000Y-96050000D01*
X164020000Y-96150000D02*
X163520000Y-96150000D01*
X164020000Y-98500000D02*
X164020000Y-87600000D01*
X164630000Y-86990000D02*
X159910000Y-86990000D01*
X164630000Y-99110000D02*
X164630000Y-86990000D01*
%TO.C,IMU8*%
X153510000Y-79760000D02*
X153510000Y-81010000D01*
X153510000Y-81010000D02*
X154760000Y-81010000D01*
X153610000Y-78950000D02*
X153610000Y-79250000D01*
X153610000Y-79250000D02*
X153810000Y-79250000D01*
X153710000Y-78950000D02*
X153710000Y-79250000D01*
X153810000Y-70590000D02*
X153810000Y-80710000D01*
X153810000Y-78150000D02*
X154420000Y-78150000D01*
X153810000Y-78950000D02*
X153610000Y-78950000D01*
X153810000Y-80710000D02*
X158530000Y-80710000D01*
X154420000Y-71200000D02*
X154420000Y-73150000D01*
X154420000Y-73150000D02*
X153810000Y-73150000D01*
X154420000Y-78150000D02*
X154420000Y-80100000D01*
X154420000Y-80100000D02*
X157920000Y-80100000D01*
X155120000Y-70590000D02*
X155120000Y-71200000D01*
X155120000Y-80710000D02*
X155120000Y-80100000D01*
X156420000Y-70590000D02*
X156420000Y-71200000D01*
X156420000Y-80710000D02*
X156420000Y-80100000D01*
X157420000Y-73550000D02*
X157920000Y-73550000D01*
X157420000Y-73750000D02*
X157420000Y-73550000D01*
X157420000Y-75550000D02*
X157920000Y-75550000D01*
X157420000Y-75750000D02*
X157420000Y-75550000D01*
X157420000Y-77550000D02*
X157920000Y-77550000D01*
X157420000Y-77750000D02*
X157420000Y-77550000D01*
X157920000Y-71200000D02*
X154420000Y-71200000D01*
X157920000Y-73650000D02*
X157420000Y-73650000D01*
X157920000Y-73750000D02*
X157420000Y-73750000D01*
X157920000Y-75650000D02*
X157420000Y-75650000D01*
X157920000Y-75750000D02*
X157420000Y-75750000D01*
X157920000Y-77650000D02*
X157420000Y-77650000D01*
X157920000Y-77750000D02*
X157420000Y-77750000D01*
X157920000Y-80100000D02*
X157920000Y-71200000D01*
X158530000Y-70590000D02*
X153810000Y-70590000D01*
X158530000Y-80710000D02*
X158530000Y-70590000D01*
D13*
%TO.C,U1*%
X134390000Y-69450000D02*
X152170000Y-69450000D01*
X134390000Y-99930000D02*
X134390000Y-69450000D01*
X152170000Y-69450000D02*
X152170000Y-99930000D01*
X152170000Y-99930000D02*
X134390000Y-99930000D01*
D14*
X133880000Y-70720000D02*
G75*
G02*
X133680000Y-70720000I-100000J0D01*
G01*
X133680000Y-70720000D02*
G75*
G02*
X133880000Y-70720000I100000J0D01*
G01*
D12*
%TO.C,IMU4*%
X127720000Y-97160000D02*
X127720000Y-98410000D01*
X127720000Y-98410000D02*
X128970000Y-98410000D01*
X127820000Y-96350000D02*
X127820000Y-96650000D01*
X127820000Y-96650000D02*
X128020000Y-96650000D01*
X127920000Y-96350000D02*
X127920000Y-96650000D01*
X128020000Y-87990000D02*
X128020000Y-98110000D01*
X128020000Y-95550000D02*
X128630000Y-95550000D01*
X128020000Y-96350000D02*
X127820000Y-96350000D01*
X128020000Y-98110000D02*
X132740000Y-98110000D01*
X128630000Y-88600000D02*
X128630000Y-90550000D01*
X128630000Y-90550000D02*
X128020000Y-90550000D01*
X128630000Y-95550000D02*
X128630000Y-97500000D01*
X128630000Y-97500000D02*
X132130000Y-97500000D01*
X129330000Y-87990000D02*
X129330000Y-88600000D01*
X129330000Y-98110000D02*
X129330000Y-97500000D01*
X130630000Y-87990000D02*
X130630000Y-88600000D01*
X130630000Y-98110000D02*
X130630000Y-97500000D01*
X131630000Y-90950000D02*
X132130000Y-90950000D01*
X131630000Y-91150000D02*
X131630000Y-90950000D01*
X131630000Y-92950000D02*
X132130000Y-92950000D01*
X131630000Y-93150000D02*
X131630000Y-92950000D01*
X131630000Y-94950000D02*
X132130000Y-94950000D01*
X131630000Y-95150000D02*
X131630000Y-94950000D01*
X132130000Y-88600000D02*
X128630000Y-88600000D01*
X132130000Y-91050000D02*
X131630000Y-91050000D01*
X132130000Y-91150000D02*
X131630000Y-91150000D01*
X132130000Y-93050000D02*
X131630000Y-93050000D01*
X132130000Y-93150000D02*
X131630000Y-93150000D01*
X132130000Y-95050000D02*
X131630000Y-95050000D01*
X132130000Y-95150000D02*
X131630000Y-95150000D01*
X132130000Y-97500000D02*
X132130000Y-88600000D01*
X132740000Y-87990000D02*
X128020000Y-87990000D01*
X132740000Y-98110000D02*
X132740000Y-87990000D01*
%TO.C,EN1*%
X121620000Y-80760000D02*
X121620000Y-82010000D01*
X121620000Y-82010000D02*
X122870000Y-82010000D01*
X121720000Y-79950000D02*
X121720000Y-80250000D01*
X121720000Y-80250000D02*
X121920000Y-80250000D01*
X121820000Y-79950000D02*
X121820000Y-80250000D01*
X121920000Y-69590000D02*
X121920000Y-81710000D01*
X121920000Y-79150000D02*
X122530000Y-79150000D01*
X121920000Y-79950000D02*
X121720000Y-79950000D01*
X121920000Y-81710000D02*
X126640000Y-81710000D01*
X122530000Y-70200000D02*
X122530000Y-72150000D01*
X122530000Y-72150000D02*
X121920000Y-72150000D01*
X122530000Y-79150000D02*
X122530000Y-81100000D01*
X122530000Y-81100000D02*
X126030000Y-81100000D01*
X123230000Y-69590000D02*
X123230000Y-70200000D01*
X123230000Y-81710000D02*
X123230000Y-81100000D01*
X124530000Y-69590000D02*
X124530000Y-70200000D01*
X124530000Y-81710000D02*
X124530000Y-81100000D01*
X125530000Y-72550000D02*
X126030000Y-72550000D01*
X125530000Y-72750000D02*
X125530000Y-72550000D01*
X125530000Y-74550000D02*
X126030000Y-74550000D01*
X125530000Y-74750000D02*
X125530000Y-74550000D01*
X125530000Y-76550000D02*
X126030000Y-76550000D01*
X125530000Y-76750000D02*
X125530000Y-76550000D01*
X125530000Y-78550000D02*
X126030000Y-78550000D01*
X125530000Y-78750000D02*
X125530000Y-78550000D01*
X126030000Y-70200000D02*
X122530000Y-70200000D01*
X126030000Y-72650000D02*
X125530000Y-72650000D01*
X126030000Y-72750000D02*
X125530000Y-72750000D01*
X126030000Y-74650000D02*
X125530000Y-74650000D01*
X126030000Y-74750000D02*
X125530000Y-74750000D01*
X126030000Y-76650000D02*
X125530000Y-76650000D01*
X126030000Y-76750000D02*
X125530000Y-76750000D01*
X126030000Y-78650000D02*
X125530000Y-78650000D01*
X126030000Y-78750000D02*
X125530000Y-78750000D01*
X126030000Y-81100000D02*
X126030000Y-70200000D01*
X126640000Y-69590000D02*
X121920000Y-69590000D01*
X126640000Y-81710000D02*
X126640000Y-69590000D01*
%TO.C,DIR5*%
X173320000Y-85149500D02*
X173320000Y-84549500D01*
X173870000Y-86349500D02*
X174470000Y-86349500D01*
X173970000Y-83849500D02*
X176770000Y-83849500D01*
X174170000Y-86049500D02*
X173870000Y-86349500D01*
X174170000Y-86049500D02*
X174470000Y-86349500D01*
X176770000Y-85849500D02*
X173970000Y-85849500D01*
X177420000Y-84549500D02*
X177420000Y-85149500D01*
X173320000Y-84549500D02*
G75*
G02*
X174020000Y-83849500I699999J1D01*
G01*
X174020000Y-85849500D02*
G75*
G02*
X173320000Y-85149500I-1J699999D01*
G01*
X176720000Y-83849500D02*
G75*
G02*
X177420000Y-84549500I0J-700000D01*
G01*
X177420000Y-85149500D02*
G75*
G02*
X176720000Y-85849500I-700000J0D01*
G01*
%TO.C,A2*%
X147740000Y-67760000D02*
X147740000Y-66360000D01*
X148440000Y-65660000D02*
X149040000Y-65660000D01*
X149040000Y-68460000D02*
X148440000Y-68460000D01*
X149740000Y-66360000D02*
X149740000Y-67760000D01*
X147740000Y-66360000D02*
G75*
G02*
X148440000Y-65660000I699999J1D01*
G01*
X148440000Y-68460000D02*
G75*
G02*
X147740000Y-67760000I0J700000D01*
G01*
X149040000Y-65660000D02*
G75*
G02*
X149740000Y-66360000I1J-699999D01*
G01*
X149740000Y-67760000D02*
G75*
G02*
X149040000Y-68460000I-700000J0D01*
G01*
%TO.C,EN2*%
X108520000Y-80760000D02*
X108520000Y-82010000D01*
X108520000Y-82010000D02*
X109770000Y-82010000D01*
X108620000Y-79950000D02*
X108620000Y-80250000D01*
X108620000Y-80250000D02*
X108820000Y-80250000D01*
X108720000Y-79950000D02*
X108720000Y-80250000D01*
X108820000Y-69590000D02*
X108820000Y-81710000D01*
X108820000Y-79150000D02*
X109430000Y-79150000D01*
X108820000Y-79950000D02*
X108620000Y-79950000D01*
X108820000Y-81710000D02*
X113540000Y-81710000D01*
X109430000Y-70200000D02*
X109430000Y-72150000D01*
X109430000Y-72150000D02*
X108820000Y-72150000D01*
X109430000Y-79150000D02*
X109430000Y-81100000D01*
X109430000Y-81100000D02*
X112930000Y-81100000D01*
X110130000Y-69590000D02*
X110130000Y-70200000D01*
X110130000Y-81710000D02*
X110130000Y-81100000D01*
X111430000Y-69590000D02*
X111430000Y-70200000D01*
X111430000Y-81710000D02*
X111430000Y-81100000D01*
X112430000Y-72550000D02*
X112930000Y-72550000D01*
X112430000Y-72750000D02*
X112430000Y-72550000D01*
X112430000Y-74550000D02*
X112930000Y-74550000D01*
X112430000Y-74750000D02*
X112430000Y-74550000D01*
X112430000Y-76550000D02*
X112930000Y-76550000D01*
X112430000Y-76750000D02*
X112430000Y-76550000D01*
X112430000Y-78550000D02*
X112930000Y-78550000D01*
X112430000Y-78750000D02*
X112430000Y-78550000D01*
X112930000Y-70200000D02*
X109430000Y-70200000D01*
X112930000Y-72650000D02*
X112430000Y-72650000D01*
X112930000Y-72750000D02*
X112430000Y-72750000D01*
X112930000Y-74650000D02*
X112430000Y-74650000D01*
X112930000Y-74750000D02*
X112430000Y-74750000D01*
X112930000Y-76650000D02*
X112430000Y-76650000D01*
X112930000Y-76750000D02*
X112430000Y-76750000D01*
X112930000Y-78650000D02*
X112430000Y-78650000D01*
X112930000Y-78750000D02*
X112430000Y-78750000D01*
X112930000Y-81100000D02*
X112930000Y-70200000D01*
X113540000Y-69590000D02*
X108820000Y-69590000D01*
X113540000Y-81710000D02*
X113540000Y-69590000D01*
%TO.C,EN5*%
X172710000Y-98160000D02*
X172710000Y-99410000D01*
X172710000Y-99410000D02*
X173960000Y-99410000D01*
X172810000Y-97350000D02*
X172810000Y-97650000D01*
X172810000Y-97650000D02*
X173010000Y-97650000D01*
X172910000Y-97350000D02*
X172910000Y-97650000D01*
X173010000Y-86990000D02*
X173010000Y-99110000D01*
X173010000Y-96550000D02*
X173620000Y-96550000D01*
X173010000Y-97350000D02*
X172810000Y-97350000D01*
X173010000Y-99110000D02*
X177730000Y-99110000D01*
X173620000Y-87600000D02*
X173620000Y-89550000D01*
X173620000Y-89550000D02*
X173010000Y-89550000D01*
X173620000Y-96550000D02*
X173620000Y-98500000D01*
X173620000Y-98500000D02*
X177120000Y-98500000D01*
X174320000Y-86990000D02*
X174320000Y-87600000D01*
X174320000Y-99110000D02*
X174320000Y-98500000D01*
X175620000Y-86990000D02*
X175620000Y-87600000D01*
X175620000Y-99110000D02*
X175620000Y-98500000D01*
X176620000Y-89950000D02*
X177120000Y-89950000D01*
X176620000Y-90150000D02*
X176620000Y-89950000D01*
X176620000Y-91950000D02*
X177120000Y-91950000D01*
X176620000Y-92150000D02*
X176620000Y-91950000D01*
X176620000Y-93950000D02*
X177120000Y-93950000D01*
X176620000Y-94150000D02*
X176620000Y-93950000D01*
X176620000Y-95950000D02*
X177120000Y-95950000D01*
X176620000Y-96150000D02*
X176620000Y-95950000D01*
X177120000Y-87600000D02*
X173620000Y-87600000D01*
X177120000Y-90050000D02*
X176620000Y-90050000D01*
X177120000Y-90150000D02*
X176620000Y-90150000D01*
X177120000Y-92050000D02*
X176620000Y-92050000D01*
X177120000Y-92150000D02*
X176620000Y-92150000D01*
X177120000Y-94050000D02*
X176620000Y-94050000D01*
X177120000Y-94150000D02*
X176620000Y-94150000D01*
X177120000Y-96050000D02*
X176620000Y-96050000D01*
X177120000Y-96150000D02*
X176620000Y-96150000D01*
X177120000Y-98500000D02*
X177120000Y-87600000D01*
X177730000Y-86990000D02*
X173010000Y-86990000D01*
X177730000Y-99110000D02*
X177730000Y-86990000D01*
%TO.C,IMU1*%
X127720000Y-79760000D02*
X127720000Y-81010000D01*
X127720000Y-81010000D02*
X128970000Y-81010000D01*
X127820000Y-78950000D02*
X127820000Y-79250000D01*
X127820000Y-79250000D02*
X128020000Y-79250000D01*
X127920000Y-78950000D02*
X127920000Y-79250000D01*
X128020000Y-70590000D02*
X128020000Y-80710000D01*
X128020000Y-78150000D02*
X128630000Y-78150000D01*
X128020000Y-78950000D02*
X127820000Y-78950000D01*
X128020000Y-80710000D02*
X132740000Y-80710000D01*
X128630000Y-71200000D02*
X128630000Y-73150000D01*
X128630000Y-73150000D02*
X128020000Y-73150000D01*
X128630000Y-78150000D02*
X128630000Y-80100000D01*
X128630000Y-80100000D02*
X132130000Y-80100000D01*
X129330000Y-70590000D02*
X129330000Y-71200000D01*
X129330000Y-80710000D02*
X129330000Y-80100000D01*
X130630000Y-70590000D02*
X130630000Y-71200000D01*
X130630000Y-80710000D02*
X130630000Y-80100000D01*
X131630000Y-73550000D02*
X132130000Y-73550000D01*
X131630000Y-73750000D02*
X131630000Y-73550000D01*
X131630000Y-75550000D02*
X132130000Y-75550000D01*
X131630000Y-75750000D02*
X131630000Y-75550000D01*
X131630000Y-77550000D02*
X132130000Y-77550000D01*
X131630000Y-77750000D02*
X131630000Y-77550000D01*
X132130000Y-71200000D02*
X128630000Y-71200000D01*
X132130000Y-73650000D02*
X131630000Y-73650000D01*
X132130000Y-73750000D02*
X131630000Y-73750000D01*
X132130000Y-75650000D02*
X131630000Y-75650000D01*
X132130000Y-75750000D02*
X131630000Y-75750000D01*
X132130000Y-77650000D02*
X131630000Y-77650000D01*
X132130000Y-77750000D02*
X131630000Y-77750000D01*
X132130000Y-80100000D02*
X132130000Y-71200000D01*
X132740000Y-70590000D02*
X128020000Y-70590000D01*
X132740000Y-80710000D02*
X132740000Y-70590000D01*
%TD*%
M02*
