%TF.GenerationSoftware,KiCad,Pcbnew,8.0.5*%
%TF.CreationDate,2025-12-23T13:38:44+05:30*%
%TF.ProjectId,I2C_MUX,4932435f-4d55-4582-9e6b-696361645f70,rev?*%
%TF.SameCoordinates,Original*%
%TF.FileFunction,Other,User*%
%FSLAX46Y46*%
G04 Gerber Fmt 4.6, Leading zero omitted, Abs format (unit mm)*
G04 Created by KiCad (PCBNEW 8.0.5) date 2025-12-23 13:38:44*
%MOMM*%
%LPD*%
G01*
G04 APERTURE LIST*
%ADD10C,0.050000*%
G04 APERTURE END LIST*
D10*
%TO.C,DIR2*%
X108880000Y-66199500D02*
X108880000Y-68699500D01*
X108880000Y-66199500D02*
X113480000Y-66199500D01*
X113480000Y-68699500D02*
X108880000Y-68699500D01*
X113480000Y-68699500D02*
X113480000Y-66199500D01*
%TO.C,J1*%
X138220000Y-59090000D02*
X138220000Y-64590000D01*
X138220000Y-64590000D02*
X151120000Y-64590000D01*
X151120000Y-59090000D02*
X138220000Y-59090000D01*
X151120000Y-64590000D02*
X151120000Y-59090000D01*
%TO.C,EN3*%
X108430000Y-86600000D02*
X108430000Y-99500000D01*
X108430000Y-99500000D02*
X113930000Y-99500000D01*
X113930000Y-86600000D02*
X108430000Y-86600000D01*
X113930000Y-99500000D02*
X113930000Y-86600000D01*
%TO.C,IMU2*%
X114530000Y-70200000D02*
X114530000Y-81100000D01*
X114530000Y-81100000D02*
X120030000Y-81100000D01*
X120030000Y-70200000D02*
X114530000Y-70200000D01*
X120030000Y-81100000D02*
X120030000Y-70200000D01*
%TO.C,DIR7*%
X173070000Y-66199500D02*
X173070000Y-68699500D01*
X173070000Y-66199500D02*
X177670000Y-66199500D01*
X177670000Y-68699500D02*
X173070000Y-68699500D01*
X177670000Y-68699500D02*
X177670000Y-66199500D01*
%TO.C,IMU5*%
X166520000Y-87600000D02*
X166520000Y-98500000D01*
X166520000Y-98500000D02*
X172020000Y-98500000D01*
X172020000Y-87600000D02*
X166520000Y-87600000D01*
X172020000Y-98500000D02*
X172020000Y-87600000D01*
%TO.C,DIR4*%
X121980000Y-83599500D02*
X121980000Y-86099500D01*
X121980000Y-83599500D02*
X126580000Y-83599500D01*
X126580000Y-86099500D02*
X121980000Y-86099500D01*
X126580000Y-86099500D02*
X126580000Y-83599500D01*
%TO.C,DIR8*%
X159970000Y-66199500D02*
X159970000Y-68699500D01*
X159970000Y-66199500D02*
X164570000Y-66199500D01*
X164570000Y-68699500D02*
X159970000Y-68699500D01*
X164570000Y-68699500D02*
X164570000Y-66199500D01*
%TO.C,DIR6*%
X159970000Y-83599500D02*
X159970000Y-86099500D01*
X159970000Y-83599500D02*
X164570000Y-83599500D01*
X164570000Y-86099500D02*
X159970000Y-86099500D01*
X164570000Y-86099500D02*
X164570000Y-83599500D01*
%TO.C,EN7*%
X172620000Y-69190000D02*
X172620000Y-82090000D01*
X172620000Y-82090000D02*
X178120000Y-82090000D01*
X178120000Y-69190000D02*
X172620000Y-69190000D01*
X178120000Y-82090000D02*
X178120000Y-69190000D01*
%TO.C,IMU3*%
X114530000Y-87600000D02*
X114530000Y-98500000D01*
X114530000Y-98500000D02*
X120030000Y-98500000D01*
X120030000Y-87600000D02*
X114530000Y-87600000D01*
X120030000Y-98500000D02*
X120030000Y-87600000D01*
%TO.C,EN8*%
X159520000Y-69200000D02*
X159520000Y-82100000D01*
X159520000Y-82100000D02*
X165020000Y-82100000D01*
X165020000Y-69200000D02*
X159520000Y-69200000D01*
X165020000Y-82100000D02*
X165020000Y-69200000D01*
%TO.C,A1*%
X144690000Y-68710000D02*
X144690000Y-65410000D01*
X144690000Y-68710000D02*
X147190000Y-68710000D01*
X147190000Y-65410000D02*
X144690000Y-65410000D01*
X147190000Y-65410000D02*
X147190000Y-68710000D01*
%TO.C,EN4*%
X121530000Y-86600000D02*
X121530000Y-99500000D01*
X121530000Y-99500000D02*
X127030000Y-99500000D01*
X127030000Y-86600000D02*
X121530000Y-86600000D01*
X127030000Y-99500000D02*
X127030000Y-86600000D01*
%TO.C,IMU7*%
X166520000Y-70180000D02*
X166520000Y-81080000D01*
X166520000Y-81080000D02*
X172020000Y-81080000D01*
X172020000Y-70180000D02*
X166520000Y-70180000D01*
X172020000Y-81080000D02*
X172020000Y-70180000D01*
%TO.C,DIR1*%
X121980000Y-66199500D02*
X121980000Y-68699500D01*
X121980000Y-66199500D02*
X126580000Y-66199500D01*
X126580000Y-68699500D02*
X121980000Y-68699500D01*
X126580000Y-68699500D02*
X126580000Y-66199500D01*
%TO.C,IMU6*%
X153420000Y-87600000D02*
X153420000Y-98500000D01*
X153420000Y-98500000D02*
X158920000Y-98500000D01*
X158920000Y-87600000D02*
X153420000Y-87600000D01*
X158920000Y-98500000D02*
X158920000Y-87600000D01*
%TO.C,A0*%
X141890000Y-68710000D02*
X141890000Y-65410000D01*
X141890000Y-68710000D02*
X144390000Y-68710000D01*
X144390000Y-65410000D02*
X141890000Y-65410000D01*
X144390000Y-65410000D02*
X144390000Y-68710000D01*
%TO.C,DIR3*%
X108880000Y-83599500D02*
X108880000Y-86099500D01*
X108880000Y-83599500D02*
X113480000Y-83599500D01*
X113480000Y-86099500D02*
X108880000Y-86099500D01*
X113480000Y-86099500D02*
X113480000Y-83599500D01*
%TO.C,EN6*%
X159520000Y-86600000D02*
X159520000Y-99500000D01*
X159520000Y-99500000D02*
X165020000Y-99500000D01*
X165020000Y-86600000D02*
X159520000Y-86600000D01*
X165020000Y-99500000D02*
X165020000Y-86600000D01*
%TO.C,IMU8*%
X153420000Y-70200000D02*
X153420000Y-81100000D01*
X153420000Y-81100000D02*
X158920000Y-81100000D01*
X158920000Y-70200000D02*
X153420000Y-70200000D01*
X158920000Y-81100000D02*
X158920000Y-70200000D01*
%TO.C,U1*%
X134140000Y-69200000D02*
X134140000Y-100180000D01*
X134140000Y-100180000D02*
X152420000Y-100180000D01*
X152420000Y-69200000D02*
X134140000Y-69200000D01*
X152420000Y-100180000D02*
X152420000Y-69200000D01*
%TO.C,IMU4*%
X127630000Y-87600000D02*
X127630000Y-98500000D01*
X127630000Y-98500000D02*
X133130000Y-98500000D01*
X133130000Y-87600000D02*
X127630000Y-87600000D01*
X133130000Y-98500000D02*
X133130000Y-87600000D01*
%TO.C,EN1*%
X121530000Y-69200000D02*
X121530000Y-82100000D01*
X121530000Y-82100000D02*
X127030000Y-82100000D01*
X127030000Y-69200000D02*
X121530000Y-69200000D01*
X127030000Y-82100000D02*
X127030000Y-69200000D01*
%TO.C,DIR5*%
X173070000Y-83599500D02*
X173070000Y-86099500D01*
X173070000Y-83599500D02*
X177670000Y-83599500D01*
X177670000Y-86099500D02*
X173070000Y-86099500D01*
X177670000Y-86099500D02*
X177670000Y-83599500D01*
%TO.C,A2*%
X147490000Y-68710000D02*
X147490000Y-65410000D01*
X147490000Y-68710000D02*
X149990000Y-68710000D01*
X149990000Y-65410000D02*
X147490000Y-65410000D01*
X149990000Y-65410000D02*
X149990000Y-68710000D01*
%TO.C,EN2*%
X108430000Y-69200000D02*
X108430000Y-82100000D01*
X108430000Y-82100000D02*
X113930000Y-82100000D01*
X113930000Y-69200000D02*
X108430000Y-69200000D01*
X113930000Y-82100000D02*
X113930000Y-69200000D01*
%TO.C,EN5*%
X172620000Y-86600000D02*
X172620000Y-99500000D01*
X172620000Y-99500000D02*
X178120000Y-99500000D01*
X178120000Y-86600000D02*
X172620000Y-86600000D01*
X178120000Y-99500000D02*
X178120000Y-86600000D01*
%TO.C,IMU1*%
X127630000Y-70200000D02*
X127630000Y-81100000D01*
X127630000Y-81100000D02*
X133130000Y-81100000D01*
X133130000Y-70200000D02*
X127630000Y-70200000D01*
X133130000Y-81100000D02*
X133130000Y-70200000D01*
%TD*%
M02*
