%TF.GenerationSoftware,KiCad,Pcbnew,8.0.5*%
%TF.CreationDate,2025-12-23T13:38:43+05:30*%
%TF.ProjectId,I2C_MUX,4932435f-4d55-4582-9e6b-696361645f70,rev?*%
%TF.SameCoordinates,Original*%
%TF.FileFunction,Copper,L1,Top*%
%TF.FilePolarity,Positive*%
%FSLAX46Y46*%
G04 Gerber Fmt 4.6, Leading zero omitted, Abs format (unit mm)*
G04 Created by KiCad (PCBNEW 8.0.5) date 2025-12-23 13:38:43*
%MOMM*%
%LPD*%
G01*
G04 APERTURE LIST*
G04 Aperture macros list*
%AMRoundRect*
0 Rectangle with rounded corners*
0 $1 Rounding radius*
0 $2 $3 $4 $5 $6 $7 $8 $9 X,Y pos of 4 corners*
0 Add a 4 corners polygon primitive as box body*
4,1,4,$2,$3,$4,$5,$6,$7,$8,$9,$2,$3,0*
0 Add four circle primitives for the rounded corners*
1,1,$1+$1,$2,$3*
1,1,$1+$1,$4,$5*
1,1,$1+$1,$6,$7*
1,1,$1+$1,$8,$9*
0 Add four rect primitives between the rounded corners*
20,1,$1+$1,$2,$3,$4,$5,0*
20,1,$1+$1,$4,$5,$6,$7,0*
20,1,$1+$1,$6,$7,$8,$9,0*
20,1,$1+$1,$8,$9,$2,$3,0*%
%AMFreePoly0*
4,1,19,0.550000,-0.750000,0.000000,-0.750000,0.000000,-0.744911,-0.071157,-0.744911,-0.207708,-0.704816,-0.327430,-0.627875,-0.420627,-0.520320,-0.479746,-0.390866,-0.500000,-0.250000,-0.500000,0.250000,-0.479746,0.390866,-0.420627,0.520320,-0.327430,0.627875,-0.207708,0.704816,-0.071157,0.744911,0.000000,0.744911,0.000000,0.750000,0.550000,0.750000,0.550000,-0.750000,0.550000,-0.750000,
$1*%
%AMFreePoly1*
4,1,19,0.000000,0.744911,0.071157,0.744911,0.207708,0.704816,0.327430,0.627875,0.420627,0.520320,0.479746,0.390866,0.500000,0.250000,0.500000,-0.250000,0.479746,-0.390866,0.420627,-0.520320,0.327430,-0.627875,0.207708,-0.704816,0.071157,-0.744911,0.000000,-0.744911,0.000000,-0.750000,-0.550000,-0.750000,-0.550000,0.750000,0.000000,0.750000,0.000000,0.744911,0.000000,0.744911,
$1*%
%AMFreePoly2*
4,1,19,0.500000,-0.750000,0.000000,-0.750000,0.000000,-0.744911,-0.071157,-0.744911,-0.207708,-0.704816,-0.327430,-0.627875,-0.420627,-0.520320,-0.479746,-0.390866,-0.500000,-0.250000,-0.500000,0.250000,-0.479746,0.390866,-0.420627,0.520320,-0.327430,0.627875,-0.207708,0.704816,-0.071157,0.744911,0.000000,0.744911,0.000000,0.750000,0.500000,0.750000,0.500000,-0.750000,0.500000,-0.750000,
$1*%
%AMFreePoly3*
4,1,19,0.000000,0.744911,0.071157,0.744911,0.207708,0.704816,0.327430,0.627875,0.420627,0.520320,0.479746,0.390866,0.500000,0.250000,0.500000,-0.250000,0.479746,-0.390866,0.420627,-0.520320,0.327430,-0.627875,0.207708,-0.704816,0.071157,-0.744911,0.000000,-0.744911,0.000000,-0.750000,-0.500000,-0.750000,-0.500000,0.750000,0.000000,0.750000,0.000000,0.744911,0.000000,0.744911,
$1*%
G04 Aperture macros list end*
%TA.AperFunction,SMDPad,CuDef*%
%ADD10FreePoly0,0.000000*%
%TD*%
%TA.AperFunction,SMDPad,CuDef*%
%ADD11R,1.000000X1.500000*%
%TD*%
%TA.AperFunction,SMDPad,CuDef*%
%ADD12FreePoly1,0.000000*%
%TD*%
%TA.AperFunction,ComponentPad*%
%ADD13RoundRect,0.250000X0.350000X0.625000X-0.350000X0.625000X-0.350000X-0.625000X0.350000X-0.625000X0*%
%TD*%
%TA.AperFunction,ComponentPad*%
%ADD14O,1.200000X1.750000*%
%TD*%
%TA.AperFunction,ComponentPad*%
%ADD15RoundRect,0.250000X0.625000X-0.350000X0.625000X0.350000X-0.625000X0.350000X-0.625000X-0.350000X0*%
%TD*%
%TA.AperFunction,ComponentPad*%
%ADD16O,1.750000X1.200000*%
%TD*%
%TA.AperFunction,SMDPad,CuDef*%
%ADD17FreePoly2,270.000000*%
%TD*%
%TA.AperFunction,SMDPad,CuDef*%
%ADD18FreePoly3,270.000000*%
%TD*%
%TA.AperFunction,ComponentPad*%
%ADD19R,1.508000X1.508000*%
%TD*%
%TA.AperFunction,ComponentPad*%
%ADD20C,1.508000*%
%TD*%
%TA.AperFunction,ViaPad*%
%ADD21C,0.600000*%
%TD*%
%TA.AperFunction,Conductor*%
%ADD22C,0.200000*%
%TD*%
%TA.AperFunction,Conductor*%
%ADD23C,0.500000*%
%TD*%
%TA.AperFunction,Conductor*%
%ADD24C,0.750000*%
%TD*%
G04 APERTURE END LIST*
D10*
%TO.P,DIR2,1,A*%
%TO.N,GND*%
X109880000Y-67449500D03*
D11*
%TO.P,DIR2,2,C*%
%TO.N,/DIR2*%
X111180000Y-67449500D03*
D12*
%TO.P,DIR2,3,B*%
%TO.N,VCC*%
X112480000Y-67449500D03*
%TD*%
D13*
%TO.P,J1,1,Pin_1*%
%TO.N,/RST*%
X148670000Y-62390000D03*
D14*
%TO.P,J1,2,Pin_2*%
%TO.N,/SCL*%
X146670000Y-62390000D03*
%TO.P,J1,3,Pin_3*%
%TO.N,/SDA*%
X144670000Y-62390000D03*
%TO.P,J1,4,Pin_4*%
%TO.N,GND*%
X142670000Y-62390000D03*
%TO.P,J1,5,Pin_5*%
%TO.N,VCC*%
X140670000Y-62390000D03*
%TD*%
D15*
%TO.P,EN3,1,Pin_1*%
%TO.N,GND*%
X110630000Y-97050000D03*
D16*
%TO.P,EN3,2,Pin_2*%
%TO.N,/SCL2*%
X110630000Y-95050000D03*
%TO.P,EN3,3,Pin_3*%
%TO.N,/SDA2*%
X110630000Y-93050000D03*
%TO.P,EN3,4,Pin_4*%
%TO.N,VCC*%
X110630000Y-91050000D03*
%TO.P,EN3,5,Pin_5*%
%TO.N,/DIR3*%
X110630000Y-89050000D03*
%TD*%
D15*
%TO.P,IMU2,1,Pin_1*%
%TO.N,/SDA1*%
X116730000Y-78650000D03*
D16*
%TO.P,IMU2,2,Pin_2*%
%TO.N,/SCL1*%
X116730000Y-76650000D03*
%TO.P,IMU2,3,Pin_3*%
%TO.N,GND*%
X116730000Y-74650000D03*
%TO.P,IMU2,4,Pin_4*%
%TO.N,VCC*%
X116730000Y-72650000D03*
%TD*%
D10*
%TO.P,DIR7,1,A*%
%TO.N,GND*%
X174070000Y-67449500D03*
D11*
%TO.P,DIR7,2,C*%
%TO.N,/DIR7*%
X175370000Y-67449500D03*
D12*
%TO.P,DIR7,3,B*%
%TO.N,VCC*%
X176670000Y-67449500D03*
%TD*%
D15*
%TO.P,IMU5,1,Pin_1*%
%TO.N,/SDA4*%
X168720000Y-96050000D03*
D16*
%TO.P,IMU5,2,Pin_2*%
%TO.N,/SCL4*%
X168720000Y-94050000D03*
%TO.P,IMU5,3,Pin_3*%
%TO.N,GND*%
X168720000Y-92050000D03*
%TO.P,IMU5,4,Pin_4*%
%TO.N,VCC*%
X168720000Y-90050000D03*
%TD*%
D10*
%TO.P,DIR4,1,A*%
%TO.N,GND*%
X122980000Y-84849500D03*
D11*
%TO.P,DIR4,2,C*%
%TO.N,/DIR4*%
X124280000Y-84849500D03*
D12*
%TO.P,DIR4,3,B*%
%TO.N,VCC*%
X125580000Y-84849500D03*
%TD*%
D10*
%TO.P,DIR8,1,A*%
%TO.N,GND*%
X160970000Y-67449500D03*
D11*
%TO.P,DIR8,2,C*%
%TO.N,/DIR8*%
X162270000Y-67449500D03*
D12*
%TO.P,DIR8,3,B*%
%TO.N,VCC*%
X163570000Y-67449500D03*
%TD*%
D10*
%TO.P,DIR6,1,A*%
%TO.N,GND*%
X160970000Y-84849500D03*
D11*
%TO.P,DIR6,2,C*%
%TO.N,/DIR6*%
X162270000Y-84849500D03*
D12*
%TO.P,DIR6,3,B*%
%TO.N,VCC*%
X163570000Y-84849500D03*
%TD*%
D15*
%TO.P,EN7,1,Pin_1*%
%TO.N,GND*%
X174820000Y-79640000D03*
D16*
%TO.P,EN7,2,Pin_2*%
%TO.N,/SCL6*%
X174820000Y-77640000D03*
%TO.P,EN7,3,Pin_3*%
%TO.N,/SDA6*%
X174820000Y-75640000D03*
%TO.P,EN7,4,Pin_4*%
%TO.N,VCC*%
X174820000Y-73640000D03*
%TO.P,EN7,5,Pin_5*%
%TO.N,/DIR7*%
X174820000Y-71640000D03*
%TD*%
D15*
%TO.P,IMU3,1,Pin_1*%
%TO.N,/SDA2*%
X116730000Y-96050000D03*
D16*
%TO.P,IMU3,2,Pin_2*%
%TO.N,/SCL2*%
X116730000Y-94050000D03*
%TO.P,IMU3,3,Pin_3*%
%TO.N,GND*%
X116730000Y-92050000D03*
%TO.P,IMU3,4,Pin_4*%
%TO.N,VCC*%
X116730000Y-90050000D03*
%TD*%
D15*
%TO.P,EN8,1,Pin_1*%
%TO.N,GND*%
X161720000Y-79650000D03*
D16*
%TO.P,EN8,2,Pin_2*%
%TO.N,/SCL7*%
X161720000Y-77650000D03*
%TO.P,EN8,3,Pin_3*%
%TO.N,/SDA7*%
X161720000Y-75650000D03*
%TO.P,EN8,4,Pin_4*%
%TO.N,VCC*%
X161720000Y-73650000D03*
%TO.P,EN8,5,Pin_5*%
%TO.N,/DIR8*%
X161720000Y-71650000D03*
%TD*%
D17*
%TO.P,A1,1,A*%
%TO.N,VCC*%
X145940000Y-66410000D03*
D18*
%TO.P,A1,2,B*%
%TO.N,Net-(JP2-B)*%
X145940000Y-67710000D03*
%TD*%
D15*
%TO.P,EN4,1,Pin_1*%
%TO.N,GND*%
X123730000Y-97050000D03*
D16*
%TO.P,EN4,2,Pin_2*%
%TO.N,/SCL3*%
X123730000Y-95050000D03*
%TO.P,EN4,3,Pin_3*%
%TO.N,/SDA3*%
X123730000Y-93050000D03*
%TO.P,EN4,4,Pin_4*%
%TO.N,VCC*%
X123730000Y-91050000D03*
%TO.P,EN4,5,Pin_5*%
%TO.N,/DIR4*%
X123730000Y-89050000D03*
%TD*%
D15*
%TO.P,IMU7,1,Pin_1*%
%TO.N,/SDA6*%
X168720000Y-78630000D03*
D16*
%TO.P,IMU7,2,Pin_2*%
%TO.N,/SCL6*%
X168720000Y-76630000D03*
%TO.P,IMU7,3,Pin_3*%
%TO.N,GND*%
X168720000Y-74630000D03*
%TO.P,IMU7,4,Pin_4*%
%TO.N,VCC*%
X168720000Y-72630000D03*
%TD*%
D10*
%TO.P,DIR1,1,A*%
%TO.N,GND*%
X122980000Y-67449500D03*
D11*
%TO.P,DIR1,2,C*%
%TO.N,/DIR1*%
X124280000Y-67449500D03*
D12*
%TO.P,DIR1,3,B*%
%TO.N,VCC*%
X125580000Y-67449500D03*
%TD*%
D15*
%TO.P,IMU6,1,Pin_1*%
%TO.N,/SDA5*%
X155620000Y-96050000D03*
D16*
%TO.P,IMU6,2,Pin_2*%
%TO.N,/SCL5*%
X155620000Y-94050000D03*
%TO.P,IMU6,3,Pin_3*%
%TO.N,GND*%
X155620000Y-92050000D03*
%TO.P,IMU6,4,Pin_4*%
%TO.N,VCC*%
X155620000Y-90050000D03*
%TD*%
D17*
%TO.P,A0,1,A*%
%TO.N,VCC*%
X143140000Y-66410000D03*
D18*
%TO.P,A0,2,B*%
%TO.N,Net-(JP1-B)*%
X143140000Y-67710000D03*
%TD*%
D10*
%TO.P,DIR3,1,A*%
%TO.N,GND*%
X109880000Y-84849500D03*
D11*
%TO.P,DIR3,2,C*%
%TO.N,/DIR3*%
X111180000Y-84849500D03*
D12*
%TO.P,DIR3,3,B*%
%TO.N,VCC*%
X112480000Y-84849500D03*
%TD*%
D15*
%TO.P,EN6,1,Pin_1*%
%TO.N,GND*%
X161720000Y-97050000D03*
D16*
%TO.P,EN6,2,Pin_2*%
%TO.N,/SCL5*%
X161720000Y-95050000D03*
%TO.P,EN6,3,Pin_3*%
%TO.N,/SDA5*%
X161720000Y-93050000D03*
%TO.P,EN6,4,Pin_4*%
%TO.N,VCC*%
X161720000Y-91050000D03*
%TO.P,EN6,5,Pin_5*%
%TO.N,/DIR6*%
X161720000Y-89050000D03*
%TD*%
D15*
%TO.P,IMU8,1,Pin_1*%
%TO.N,/SDA7*%
X155620000Y-78650000D03*
D16*
%TO.P,IMU8,2,Pin_2*%
%TO.N,/SCL7*%
X155620000Y-76650000D03*
%TO.P,IMU8,3,Pin_3*%
%TO.N,GND*%
X155620000Y-74650000D03*
%TO.P,IMU8,4,Pin_4*%
%TO.N,VCC*%
X155620000Y-72650000D03*
%TD*%
D19*
%TO.P,U1,1,VIN*%
%TO.N,VCC*%
X135660000Y-70720000D03*
D20*
%TO.P,U1,2,GND*%
%TO.N,GND*%
X135660000Y-73260000D03*
%TO.P,U1,3,SDA*%
%TO.N,/SDA*%
X135660000Y-75800000D03*
%TO.P,U1,4,SCL*%
%TO.N,/SCL*%
X135660000Y-78340000D03*
%TO.P,U1,5,RST*%
%TO.N,/RST*%
X135660000Y-80880000D03*
%TO.P,U1,6,A0*%
%TO.N,Net-(JP1-B)*%
X135660000Y-83420000D03*
%TO.P,U1,7,A1*%
%TO.N,Net-(JP2-B)*%
X135660000Y-85960000D03*
%TO.P,U1,8,A2*%
%TO.N,Net-(JP3-B)*%
X135660000Y-88500000D03*
%TO.P,U1,9,SDA0*%
%TO.N,/SDA0*%
X135660000Y-91040000D03*
%TO.P,U1,10,SCL0*%
%TO.N,/SCL0*%
X135660000Y-93580000D03*
%TO.P,U1,11,SDA1*%
%TO.N,/SDA1*%
X135660000Y-96120000D03*
%TO.P,U1,12,SCL1*%
%TO.N,/SCL1*%
X135660000Y-98660000D03*
%TO.P,U1,13,SDA2*%
%TO.N,/SDA2*%
X150900000Y-98660000D03*
%TO.P,U1,14,SCL2*%
%TO.N,/SCL2*%
X150900000Y-96120000D03*
%TO.P,U1,15,SDA3*%
%TO.N,/SDA3*%
X150900000Y-93580000D03*
%TO.P,U1,16,SCL3*%
%TO.N,/SCL3*%
X150900000Y-91040000D03*
%TO.P,U1,17,SDA4*%
%TO.N,/SDA4*%
X150900000Y-88500000D03*
%TO.P,U1,18,SCL4*%
%TO.N,/SCL4*%
X150900000Y-85960000D03*
%TO.P,U1,19,SDA5*%
%TO.N,/SDA5*%
X150900000Y-83420000D03*
%TO.P,U1,20,SCL5*%
%TO.N,/SCL5*%
X150900000Y-80880000D03*
%TO.P,U1,21,SDA6*%
%TO.N,/SDA6*%
X150900000Y-78340000D03*
%TO.P,U1,22,SCL6*%
%TO.N,/SCL6*%
X150900000Y-75800000D03*
%TO.P,U1,23,SDA7*%
%TO.N,/SDA7*%
X150900000Y-73260000D03*
%TO.P,U1,24,SCL7*%
%TO.N,/SCL7*%
X150900000Y-70720000D03*
%TD*%
D15*
%TO.P,IMU4,1,Pin_1*%
%TO.N,/SDA3*%
X129830000Y-96050000D03*
D16*
%TO.P,IMU4,2,Pin_2*%
%TO.N,/SCL3*%
X129830000Y-94050000D03*
%TO.P,IMU4,3,Pin_3*%
%TO.N,GND*%
X129830000Y-92050000D03*
%TO.P,IMU4,4,Pin_4*%
%TO.N,VCC*%
X129830000Y-90050000D03*
%TD*%
D15*
%TO.P,EN1,1,Pin_1*%
%TO.N,GND*%
X123730000Y-79650000D03*
D16*
%TO.P,EN1,2,Pin_2*%
%TO.N,/SCL0*%
X123730000Y-77650000D03*
%TO.P,EN1,3,Pin_3*%
%TO.N,/SDA0*%
X123730000Y-75650000D03*
%TO.P,EN1,4,Pin_4*%
%TO.N,VCC*%
X123730000Y-73650000D03*
%TO.P,EN1,5,Pin_5*%
%TO.N,/DIR1*%
X123730000Y-71650000D03*
%TD*%
D10*
%TO.P,DIR5,1,A*%
%TO.N,GND*%
X174070000Y-84849500D03*
D11*
%TO.P,DIR5,2,C*%
%TO.N,/DIR5*%
X175370000Y-84849500D03*
D12*
%TO.P,DIR5,3,B*%
%TO.N,VCC*%
X176670000Y-84849500D03*
%TD*%
D17*
%TO.P,A2,1,A*%
%TO.N,VCC*%
X148740000Y-66410000D03*
D18*
%TO.P,A2,2,B*%
%TO.N,Net-(JP3-B)*%
X148740000Y-67710000D03*
%TD*%
D15*
%TO.P,EN2,1,Pin_1*%
%TO.N,GND*%
X110630000Y-79650000D03*
D16*
%TO.P,EN2,2,Pin_2*%
%TO.N,/SCL1*%
X110630000Y-77650000D03*
%TO.P,EN2,3,Pin_3*%
%TO.N,/SDA1*%
X110630000Y-75650000D03*
%TO.P,EN2,4,Pin_4*%
%TO.N,VCC*%
X110630000Y-73650000D03*
%TO.P,EN2,5,Pin_5*%
%TO.N,/DIR2*%
X110630000Y-71650000D03*
%TD*%
D15*
%TO.P,EN5,1,Pin_1*%
%TO.N,GND*%
X174820000Y-97050000D03*
D16*
%TO.P,EN5,2,Pin_2*%
%TO.N,/SCL4*%
X174820000Y-95050000D03*
%TO.P,EN5,3,Pin_3*%
%TO.N,/SDA4*%
X174820000Y-93050000D03*
%TO.P,EN5,4,Pin_4*%
%TO.N,VCC*%
X174820000Y-91050000D03*
%TO.P,EN5,5,Pin_5*%
%TO.N,/DIR5*%
X174820000Y-89050000D03*
%TD*%
D15*
%TO.P,IMU1,1,Pin_1*%
%TO.N,/SDA0*%
X129830000Y-78650000D03*
D16*
%TO.P,IMU1,2,Pin_2*%
%TO.N,/SCL0*%
X129830000Y-76650000D03*
%TO.P,IMU1,3,Pin_3*%
%TO.N,GND*%
X129830000Y-74650000D03*
%TO.P,IMU1,4,Pin_4*%
%TO.N,VCC*%
X129830000Y-72650000D03*
%TD*%
D21*
%TO.N,GND*%
X159410000Y-84840000D03*
X159200000Y-67480000D03*
X121570000Y-67520000D03*
X121290000Y-84770000D03*
X172510000Y-67430000D03*
X108390000Y-67500000D03*
%TD*%
D22*
%TO.N,GND*%
X122980000Y-84849500D02*
X121369500Y-84849500D01*
X159419500Y-84849500D02*
X159410000Y-84840000D01*
X160970000Y-67449500D02*
X159230500Y-67449500D01*
X108440500Y-67449500D02*
X108390000Y-67500000D01*
D23*
X109880000Y-80400000D02*
X109880000Y-84849500D01*
D22*
X121369500Y-84849500D02*
X121290000Y-84770000D01*
X109880000Y-67449500D02*
X108440500Y-67449500D01*
X174070000Y-67449500D02*
X172529500Y-67449500D01*
X121640500Y-67449500D02*
X121570000Y-67520000D01*
X122980000Y-67449500D02*
X121640500Y-67449500D01*
X174070000Y-84849500D02*
X174070000Y-80390000D01*
X160970000Y-84849500D02*
X159419500Y-84849500D01*
X174070000Y-80390000D02*
X174820000Y-79640000D01*
X172529500Y-67449500D02*
X172510000Y-67430000D01*
X159230500Y-67449500D02*
X159200000Y-67480000D01*
D23*
X110630000Y-79650000D02*
X109880000Y-80400000D01*
D22*
%TO.N,/DIR1*%
X124280000Y-67449500D02*
X124280000Y-71100000D01*
X124280000Y-71100000D02*
X123730000Y-71650000D01*
D23*
%TO.N,VCC*%
X163570000Y-67449500D02*
X168720000Y-72599500D01*
X168720000Y-72630000D02*
X165140000Y-72630000D01*
X173820000Y-90050000D02*
X174820000Y-91050000D01*
X116730000Y-72650000D02*
X113620000Y-72650000D01*
X158410000Y-72650000D02*
X155620000Y-72650000D01*
X112620000Y-73650000D02*
X110630000Y-73650000D01*
D24*
X150600000Y-64890000D02*
X155620000Y-69910000D01*
D23*
X145940000Y-66410000D02*
X148740000Y-66410000D01*
X176730000Y-75550000D02*
X174820000Y-73640000D01*
X126440000Y-91050000D02*
X127440000Y-90050000D01*
X176670000Y-89200000D02*
X176670000Y-84849500D01*
X143140000Y-66355000D02*
X143140000Y-66410000D01*
D24*
X140670000Y-62390000D02*
X143170000Y-64890000D01*
D23*
X128830000Y-73650000D02*
X129830000Y-72650000D01*
D24*
X135660000Y-70720000D02*
X131760000Y-70720000D01*
X143170000Y-64890000D02*
X150600000Y-64890000D01*
D23*
X167720000Y-91050000D02*
X168720000Y-90050000D01*
X125580000Y-84849500D02*
X125580000Y-85800000D01*
X161720000Y-73650000D02*
X159410000Y-73650000D01*
X140670000Y-62390000D02*
X140670000Y-63940000D01*
X164120000Y-73650000D02*
X161720000Y-73650000D01*
X113620000Y-72650000D02*
X112620000Y-73650000D01*
D24*
X135660000Y-67400000D02*
X135660000Y-70720000D01*
D23*
X165140000Y-72630000D02*
X164120000Y-73650000D01*
X123730000Y-91050000D02*
X126440000Y-91050000D01*
X125580000Y-68400000D02*
X129830000Y-72650000D01*
X116730000Y-89099500D02*
X116730000Y-90050000D01*
X159410000Y-73650000D02*
X158410000Y-72650000D01*
X176670000Y-67449500D02*
X176670000Y-71790000D01*
X114540000Y-90050000D02*
X116730000Y-90050000D01*
X120680000Y-91050000D02*
X123730000Y-91050000D01*
X116730000Y-89099500D02*
X112480000Y-84849500D01*
X123730000Y-73650000D02*
X128830000Y-73650000D01*
D24*
X140670000Y-62390000D02*
X135660000Y-67400000D01*
D23*
X113540000Y-91050000D02*
X114540000Y-90050000D01*
X125580000Y-85800000D02*
X129830000Y-90050000D01*
X116730000Y-72650000D02*
X122730000Y-72650000D01*
X176730000Y-89140000D02*
X176730000Y-75550000D01*
X168720000Y-90050000D02*
X173820000Y-90050000D01*
X168720000Y-72599500D02*
X168720000Y-72630000D01*
X174820000Y-91050000D02*
X176730000Y-89140000D01*
X168720000Y-72630000D02*
X173810000Y-72630000D01*
X125580000Y-67449500D02*
X125580000Y-68400000D01*
X116730000Y-72650000D02*
X116730000Y-69570000D01*
X155620000Y-90050000D02*
X160720000Y-90050000D01*
X161720000Y-91050000D02*
X167720000Y-91050000D01*
X176670000Y-71790000D02*
X174820000Y-73640000D01*
X174820000Y-91050000D02*
X176670000Y-89200000D01*
X163570000Y-84849500D02*
X163570000Y-89200000D01*
X143140000Y-66410000D02*
X145940000Y-66410000D01*
X116730000Y-69570000D02*
X114609500Y-67449500D01*
X114609500Y-67449500D02*
X112480000Y-67449500D01*
X155090000Y-72650000D02*
X155620000Y-72650000D01*
D24*
X155620000Y-69910000D02*
X155620000Y-72650000D01*
D23*
X116730000Y-90050000D02*
X119680000Y-90050000D01*
X110630000Y-91050000D02*
X113540000Y-91050000D01*
X119680000Y-90050000D02*
X120680000Y-91050000D01*
X160720000Y-90050000D02*
X161720000Y-91050000D01*
X127440000Y-90050000D02*
X129830000Y-90050000D01*
D24*
X131760000Y-70720000D02*
X129830000Y-72650000D01*
D23*
X173810000Y-72630000D02*
X174820000Y-73640000D01*
X122730000Y-72650000D02*
X123730000Y-73650000D01*
X140670000Y-63940000D02*
X143140000Y-66410000D01*
X163570000Y-89200000D02*
X161720000Y-91050000D01*
D22*
%TO.N,/SCL0*%
X128460000Y-79850000D02*
X128460000Y-85300000D01*
X129830000Y-76650000D02*
X124730000Y-76650000D01*
X134606000Y-91476582D02*
X135223418Y-92094000D01*
X135223418Y-92094000D02*
X135254000Y-92094000D01*
X134606000Y-91446000D02*
X134606000Y-91476582D01*
X135660000Y-92500000D02*
X135660000Y-93580000D01*
X124730000Y-76650000D02*
X123730000Y-77650000D01*
X135254000Y-92094000D02*
X135660000Y-92500000D01*
X123730000Y-77650000D02*
X126260000Y-77650000D01*
X128460000Y-85300000D02*
X134606000Y-91446000D01*
X126260000Y-77650000D02*
X128460000Y-79850000D01*
%TO.N,/SDA0*%
X129830000Y-78650000D02*
X129830000Y-85210000D01*
X129830000Y-85210000D02*
X135660000Y-91040000D01*
%TO.N,/SDA1*%
X128060000Y-85910000D02*
X134240000Y-92090000D01*
X134240000Y-94700000D02*
X135660000Y-96120000D01*
X120820256Y-78500000D02*
X125714756Y-83394500D01*
X135660000Y-95660000D02*
X135660000Y-96120000D01*
X128060000Y-85369937D02*
X128060000Y-85910000D01*
X116730000Y-78650000D02*
X116880000Y-78500000D01*
X116880000Y-78500000D02*
X120820256Y-78500000D01*
X134240000Y-92090000D02*
X134240000Y-94700000D01*
X126084563Y-83394500D02*
X128060000Y-85369937D01*
X125714756Y-83394500D02*
X126084563Y-83394500D01*
%TO.N,/SCL1*%
X125918877Y-83794500D02*
X127660000Y-85535623D01*
X133840000Y-92255686D02*
X133840000Y-96840000D01*
X125378814Y-83794500D02*
X125918877Y-83794500D01*
X116730000Y-76650000D02*
X111630000Y-76650000D01*
X110630000Y-77650000D02*
X112530000Y-79550000D01*
X112530000Y-79550000D02*
X121134314Y-79550000D01*
X127660000Y-86075686D02*
X133840000Y-92255686D01*
X127660000Y-85535623D02*
X127660000Y-86075686D01*
X133840000Y-96840000D02*
X135660000Y-98660000D01*
X111630000Y-76650000D02*
X110630000Y-77650000D01*
X121134314Y-79550000D02*
X125378814Y-83794500D01*
%TO.N,/SCL2*%
X115260000Y-95490000D02*
X116260000Y-94490000D01*
X116730000Y-94050000D02*
X123194000Y-100514000D01*
X110630000Y-95490000D02*
X115260000Y-95490000D01*
X123194000Y-100514000D02*
X146506000Y-100514000D01*
X116260000Y-94490000D02*
X116730000Y-94490000D01*
X146506000Y-100514000D02*
X150900000Y-96120000D01*
%TO.N,/SDA2*%
X121594000Y-100914000D02*
X148646000Y-100914000D01*
X116730000Y-96050000D02*
X121594000Y-100914000D01*
X148646000Y-100914000D02*
X150900000Y-98660000D01*
%TO.N,/SDA3*%
X144741686Y-100114000D02*
X150900000Y-93955686D01*
X129830000Y-96490000D02*
X130547157Y-95772843D01*
X130547157Y-95772843D02*
X134888314Y-100114000D01*
X150900000Y-93955686D02*
X150900000Y-93580000D01*
X134888314Y-100114000D02*
X144741686Y-100114000D01*
%TO.N,/SCL3*%
X133110000Y-97600582D02*
X135223418Y-99714000D01*
X146256000Y-98034000D02*
X146256000Y-95344000D01*
X133110000Y-96400000D02*
X133110000Y-97600582D01*
X150560000Y-91040000D02*
X150900000Y-91040000D01*
X131200000Y-94490000D02*
X133110000Y-96400000D01*
X123730000Y-95490000D02*
X124730000Y-94490000D01*
X124730000Y-94490000D02*
X131200000Y-94490000D01*
X144576000Y-99714000D02*
X146256000Y-98034000D01*
X135223418Y-99714000D02*
X144576000Y-99714000D01*
X146256000Y-95344000D02*
X150560000Y-91040000D01*
%TO.N,/SCL4*%
X164420000Y-98350000D02*
X154760000Y-98350000D01*
X150900000Y-86920000D02*
X150900000Y-85960000D01*
X153200000Y-96790000D02*
X153200000Y-89220000D01*
X153200000Y-89220000D02*
X150900000Y-86920000D01*
X154760000Y-98350000D02*
X153200000Y-96790000D01*
X168720000Y-94050000D02*
X173820000Y-94050000D01*
X173820000Y-94050000D02*
X174820000Y-95050000D01*
X168720000Y-94050000D02*
X164420000Y-98350000D01*
%TO.N,/SDA4*%
X168720000Y-96050000D02*
X166020000Y-98750000D01*
X166020000Y-98750000D02*
X154594314Y-98750000D01*
X154594314Y-98750000D02*
X152580000Y-96735686D01*
X152580000Y-90180000D02*
X150900000Y-88500000D01*
X152580000Y-96735686D02*
X152580000Y-90180000D01*
%TO.N,/DIR2*%
X111180000Y-67449500D02*
X111180000Y-71100000D01*
X111180000Y-71100000D02*
X110630000Y-71650000D01*
%TO.N,/SCL5*%
X154445000Y-92875000D02*
X154445000Y-84425000D01*
X154445000Y-84425000D02*
X150900000Y-80880000D01*
X155620000Y-94050000D02*
X160720000Y-94050000D01*
X160720000Y-94050000D02*
X161720000Y-95050000D01*
X155620000Y-94050000D02*
X154445000Y-92875000D01*
%TO.N,/SDA5*%
X155620000Y-96050000D02*
X154045000Y-94475000D01*
X154045000Y-86565000D02*
X150900000Y-83420000D01*
X154045000Y-94475000D02*
X154045000Y-86565000D01*
%TO.N,/SDA6*%
X166400000Y-80950000D02*
X153510000Y-80950000D01*
X168720000Y-78630000D02*
X166400000Y-80950000D01*
X153510000Y-80950000D02*
X150900000Y-78340000D01*
%TO.N,/SCL6*%
X155650000Y-80550000D02*
X150900000Y-75800000D01*
X168720000Y-76630000D02*
X164800000Y-80550000D01*
X168720000Y-76630000D02*
X173810000Y-76630000D01*
X164800000Y-80550000D02*
X155650000Y-80550000D01*
X173810000Y-76630000D02*
X174820000Y-77640000D01*
%TO.N,/SCL7*%
X150900000Y-71477792D02*
X155620000Y-76197792D01*
X155620000Y-76197792D02*
X155620000Y-76650000D01*
X160720000Y-76650000D02*
X161720000Y-77650000D01*
X155620000Y-76650000D02*
X160720000Y-76650000D01*
X150900000Y-70720000D02*
X150900000Y-71477792D01*
%TO.N,/SDA7*%
X150900000Y-73260000D02*
X150900000Y-73930000D01*
X150900000Y-73930000D02*
X155620000Y-78650000D01*
%TO.N,Net-(JP1-B)*%
X137330000Y-81750000D02*
X135660000Y-83420000D01*
X143140000Y-67710000D02*
X137330000Y-73520000D01*
X137330000Y-73520000D02*
X137330000Y-81750000D01*
%TO.N,Net-(JP2-B)*%
X145940000Y-75680000D02*
X135660000Y-85960000D01*
X145940000Y-67710000D02*
X145940000Y-75680000D01*
%TO.N,Net-(JP3-B)*%
X148740000Y-75420000D02*
X135660000Y-88500000D01*
X148740000Y-67710000D02*
X148740000Y-75420000D01*
%TO.N,/DIR3*%
X111110000Y-84919500D02*
X111180000Y-84849500D01*
X111110000Y-88570000D02*
X111110000Y-84919500D01*
X110630000Y-89050000D02*
X111110000Y-88570000D01*
%TO.N,/DIR4*%
X123730000Y-89050000D02*
X124280000Y-88500000D01*
X124280000Y-88500000D02*
X124280000Y-84849500D01*
%TO.N,/DIR5*%
X175370000Y-84849500D02*
X175370000Y-88500000D01*
X175370000Y-88500000D02*
X174820000Y-89050000D01*
%TO.N,/DIR6*%
X162270000Y-84849500D02*
X162270000Y-88500000D01*
X162270000Y-88500000D02*
X161720000Y-89050000D01*
%TO.N,/DIR7*%
X175370000Y-67449500D02*
X175370000Y-71090000D01*
X175370000Y-71090000D02*
X174820000Y-71640000D01*
%TO.N,/DIR8*%
X162270000Y-71100000D02*
X161720000Y-71650000D01*
X162270000Y-67449500D02*
X162270000Y-71100000D01*
%TD*%
M02*
