%TF.GenerationSoftware,KiCad,Pcbnew,8.0.5*%
%TF.CreationDate,2025-12-23T13:38:43+05:30*%
%TF.ProjectId,I2C_MUX,4932435f-4d55-4582-9e6b-696361645f70,rev?*%
%TF.SameCoordinates,Original*%
%TF.FileFunction,Soldermask,Bot*%
%TF.FilePolarity,Negative*%
%FSLAX46Y46*%
G04 Gerber Fmt 4.6, Leading zero omitted, Abs format (unit mm)*
G04 Created by KiCad (PCBNEW 8.0.5) date 2025-12-23 13:38:43*
%MOMM*%
%LPD*%
G01*
G04 APERTURE LIST*
G04 Aperture macros list*
%AMRoundRect*
0 Rectangle with rounded corners*
0 $1 Rounding radius*
0 $2 $3 $4 $5 $6 $7 $8 $9 X,Y pos of 4 corners*
0 Add a 4 corners polygon primitive as box body*
4,1,4,$2,$3,$4,$5,$6,$7,$8,$9,$2,$3,0*
0 Add four circle primitives for the rounded corners*
1,1,$1+$1,$2,$3*
1,1,$1+$1,$4,$5*
1,1,$1+$1,$6,$7*
1,1,$1+$1,$8,$9*
0 Add four rect primitives between the rounded corners*
20,1,$1+$1,$2,$3,$4,$5,0*
20,1,$1+$1,$4,$5,$6,$7,0*
20,1,$1+$1,$6,$7,$8,$9,0*
20,1,$1+$1,$8,$9,$2,$3,0*%
G04 Aperture macros list end*
%ADD10RoundRect,0.250000X0.350000X0.625000X-0.350000X0.625000X-0.350000X-0.625000X0.350000X-0.625000X0*%
%ADD11O,1.200000X1.750000*%
%ADD12RoundRect,0.250000X0.625000X-0.350000X0.625000X0.350000X-0.625000X0.350000X-0.625000X-0.350000X0*%
%ADD13O,1.750000X1.200000*%
%ADD14RoundRect,0.102000X-0.754000X-0.754000X0.754000X-0.754000X0.754000X0.754000X-0.754000X0.754000X0*%
%ADD15C,1.712000*%
G04 APERTURE END LIST*
D10*
%TO.C,J1*%
X148670000Y-62390000D03*
D11*
X146670000Y-62390000D03*
X144670000Y-62390000D03*
X142670000Y-62390000D03*
X140670000Y-62390000D03*
%TD*%
D12*
%TO.C,EN3*%
X110630000Y-97050000D03*
D13*
X110630000Y-95050000D03*
X110630000Y-93050000D03*
X110630000Y-91050000D03*
X110630000Y-89050000D03*
%TD*%
D12*
%TO.C,IMU2*%
X116730000Y-78650000D03*
D13*
X116730000Y-76650000D03*
X116730000Y-74650000D03*
X116730000Y-72650000D03*
%TD*%
D12*
%TO.C,IMU5*%
X168720000Y-96050000D03*
D13*
X168720000Y-94050000D03*
X168720000Y-92050000D03*
X168720000Y-90050000D03*
%TD*%
D12*
%TO.C,EN7*%
X174820000Y-79640000D03*
D13*
X174820000Y-77640000D03*
X174820000Y-75640000D03*
X174820000Y-73640000D03*
X174820000Y-71640000D03*
%TD*%
D12*
%TO.C,IMU3*%
X116730000Y-96050000D03*
D13*
X116730000Y-94050000D03*
X116730000Y-92050000D03*
X116730000Y-90050000D03*
%TD*%
D12*
%TO.C,EN8*%
X161720000Y-79650000D03*
D13*
X161720000Y-77650000D03*
X161720000Y-75650000D03*
X161720000Y-73650000D03*
X161720000Y-71650000D03*
%TD*%
D12*
%TO.C,EN4*%
X123730000Y-97050000D03*
D13*
X123730000Y-95050000D03*
X123730000Y-93050000D03*
X123730000Y-91050000D03*
X123730000Y-89050000D03*
%TD*%
D12*
%TO.C,IMU7*%
X168720000Y-78630000D03*
D13*
X168720000Y-76630000D03*
X168720000Y-74630000D03*
X168720000Y-72630000D03*
%TD*%
D12*
%TO.C,IMU6*%
X155620000Y-96050000D03*
D13*
X155620000Y-94050000D03*
X155620000Y-92050000D03*
X155620000Y-90050000D03*
%TD*%
D12*
%TO.C,EN6*%
X161720000Y-97050000D03*
D13*
X161720000Y-95050000D03*
X161720000Y-93050000D03*
X161720000Y-91050000D03*
X161720000Y-89050000D03*
%TD*%
D12*
%TO.C,IMU8*%
X155620000Y-78650000D03*
D13*
X155620000Y-76650000D03*
X155620000Y-74650000D03*
X155620000Y-72650000D03*
%TD*%
D14*
%TO.C,U1*%
X135660000Y-70720000D03*
D15*
X135660000Y-73260000D03*
X135660000Y-75800000D03*
X135660000Y-78340000D03*
X135660000Y-80880000D03*
X135660000Y-83420000D03*
X135660000Y-85960000D03*
X135660000Y-88500000D03*
X135660000Y-91040000D03*
X135660000Y-93580000D03*
X135660000Y-96120000D03*
X135660000Y-98660000D03*
X150900000Y-98660000D03*
X150900000Y-96120000D03*
X150900000Y-93580000D03*
X150900000Y-91040000D03*
X150900000Y-88500000D03*
X150900000Y-85960000D03*
X150900000Y-83420000D03*
X150900000Y-80880000D03*
X150900000Y-78340000D03*
X150900000Y-75800000D03*
X150900000Y-73260000D03*
X150900000Y-70720000D03*
%TD*%
D12*
%TO.C,IMU4*%
X129830000Y-96050000D03*
D13*
X129830000Y-94050000D03*
X129830000Y-92050000D03*
X129830000Y-90050000D03*
%TD*%
D12*
%TO.C,EN1*%
X123730000Y-79650000D03*
D13*
X123730000Y-77650000D03*
X123730000Y-75650000D03*
X123730000Y-73650000D03*
X123730000Y-71650000D03*
%TD*%
D12*
%TO.C,EN2*%
X110630000Y-79650000D03*
D13*
X110630000Y-77650000D03*
X110630000Y-75650000D03*
X110630000Y-73650000D03*
X110630000Y-71650000D03*
%TD*%
D12*
%TO.C,EN5*%
X174820000Y-97050000D03*
D13*
X174820000Y-95050000D03*
X174820000Y-93050000D03*
X174820000Y-91050000D03*
X174820000Y-89050000D03*
%TD*%
D12*
%TO.C,IMU1*%
X129830000Y-78650000D03*
D13*
X129830000Y-76650000D03*
X129830000Y-74650000D03*
X129830000Y-72650000D03*
%TD*%
M02*
