%TF.GenerationSoftware,KiCad,Pcbnew,9.0.2*%
%TF.CreationDate,2025-11-30T20:45:03+05:30*%
%TF.ProjectId,Kratos26,4b726174-6f73-4323-962e-6b696361645f,rev?*%
%TF.SameCoordinates,Original*%
%TF.FileFunction,Copper,L2,Bot*%
%TF.FilePolarity,Positive*%
%FSLAX46Y46*%
G04 Gerber Fmt 4.6, Leading zero omitted, Abs format (unit mm)*
G04 Created by KiCad (PCBNEW 9.0.2) date 2025-11-30 20:45:03*
%MOMM*%
%LPD*%
G01*
G04 APERTURE LIST*
G04 Aperture macros list*
%AMRoundRect*
0 Rectangle with rounded corners*
0 $1 Rounding radius*
0 $2 $3 $4 $5 $6 $7 $8 $9 X,Y pos of 4 corners*
0 Add a 4 corners polygon primitive as box body*
4,1,4,$2,$3,$4,$5,$6,$7,$8,$9,$2,$3,0*
0 Add four circle primitives for the rounded corners*
1,1,$1+$1,$2,$3*
1,1,$1+$1,$4,$5*
1,1,$1+$1,$6,$7*
1,1,$1+$1,$8,$9*
0 Add four rect primitives between the rounded corners*
20,1,$1+$1,$2,$3,$4,$5,0*
20,1,$1+$1,$4,$5,$6,$7,0*
20,1,$1+$1,$6,$7,$8,$9,0*
20,1,$1+$1,$8,$9,$2,$3,0*%
G04 Aperture macros list end*
%TA.AperFunction,ComponentPad*%
%ADD10RoundRect,1.500000X-1.500000X-1.500000X1.500000X-1.500000X1.500000X1.500000X-1.500000X1.500000X0*%
%TD*%
%TA.AperFunction,ComponentPad*%
%ADD11C,6.000000*%
%TD*%
%TA.AperFunction,ComponentPad*%
%ADD12RoundRect,0.250000X-0.600000X-0.750000X0.600000X-0.750000X0.600000X0.750000X-0.600000X0.750000X0*%
%TD*%
%TA.AperFunction,ComponentPad*%
%ADD13O,1.700000X2.000000*%
%TD*%
%TA.AperFunction,ComponentPad*%
%ADD14RoundRect,1.500000X1.500000X-1.500000X1.500000X1.500000X-1.500000X1.500000X-1.500000X-1.500000X0*%
%TD*%
%TA.AperFunction,ComponentPad*%
%ADD15RoundRect,1.500000X1.500000X1.500000X-1.500000X1.500000X-1.500000X-1.500000X1.500000X-1.500000X0*%
%TD*%
%TA.AperFunction,ViaPad*%
%ADD16C,2.000000*%
%TD*%
%TA.AperFunction,ViaPad*%
%ADD17C,0.600000*%
%TD*%
%TA.AperFunction,Conductor*%
%ADD18C,2.300000*%
%TD*%
G04 APERTURE END LIST*
D10*
%TO.P,REF\u002A\u002A,1*%
%TO.N,N/C*%
X113500000Y-129000000D03*
D11*
%TO.P,REF\u002A\u002A,2*%
%TO.N,GND*%
X120700000Y-129000000D03*
%TD*%
D10*
%TO.P,REF\u002A\u002A,1*%
%TO.N,N/C*%
X112900000Y-100000000D03*
D11*
%TO.P,REF\u002A\u002A,2*%
%TO.N,GND*%
X120100000Y-100000000D03*
%TD*%
D12*
%TO.P,REF\u002A\u002A,1*%
%TO.N,N/C*%
X154750000Y-19200000D03*
D13*
%TO.P,REF\u002A\u002A,2*%
%TO.N,GND*%
X157250000Y-19200000D03*
%TD*%
D12*
%TO.P,REF\u002A\u002A,1*%
%TO.N,N/C*%
X90750000Y-19200000D03*
D13*
%TO.P,REF\u002A\u002A,2*%
%TO.N,GND*%
X93250000Y-19200000D03*
%TD*%
D12*
%TO.P,REF\u002A\u002A,1*%
%TO.N,N/C*%
X117750000Y-19200000D03*
D13*
%TO.P,REF\u002A\u002A,2*%
%TO.N,GND*%
X120250000Y-19200000D03*
%TD*%
D12*
%TO.P,REF\u002A\u002A,1*%
%TO.N,N/C*%
X108750000Y-19200000D03*
D13*
%TO.P,REF\u002A\u002A,2*%
%TO.N,GND*%
X111250000Y-19200000D03*
%TD*%
D10*
%TO.P,REF\u002A\u002A,1*%
%TO.N,N/C*%
X112400000Y-71000000D03*
D11*
%TO.P,REF\u002A\u002A,2*%
%TO.N,GND*%
X119600000Y-71000000D03*
%TD*%
D14*
%TO.P,REF\u002A\u002A,1*%
%TO.N,N/C*%
X84500000Y-80100000D03*
D11*
%TO.P,REF\u002A\u002A,2*%
%TO.N,GND*%
X84500000Y-72900000D03*
%TD*%
D12*
%TO.P,REF\u002A\u002A,1*%
%TO.N,N/C*%
X99750000Y-19200000D03*
D13*
%TO.P,REF\u002A\u002A,2*%
%TO.N,GND*%
X102250000Y-19200000D03*
%TD*%
D12*
%TO.P,REF\u002A\u002A,1*%
%TO.N,N/C*%
X136750000Y-19200000D03*
D13*
%TO.P,REF\u002A\u002A,2*%
%TO.N,GND*%
X139250000Y-19200000D03*
%TD*%
D10*
%TO.P,REF\u002A\u002A,1*%
%TO.N,N/C*%
X112500000Y-30000000D03*
D11*
%TO.P,REF\u002A\u002A,2*%
%TO.N,GND*%
X119700000Y-30000000D03*
%TD*%
D14*
%TO.P,REF\u002A\u002A,1*%
%TO.N,N/C*%
X84000000Y-121600000D03*
D11*
%TO.P,REF\u002A\u002A,2*%
%TO.N,GND*%
X84000000Y-114400000D03*
%TD*%
D15*
%TO.P,REF\u002A\u002A,1*%
%TO.N,N/C*%
X147600000Y-155500000D03*
D11*
%TO.P,REF\u002A\u002A,2*%
%TO.N,GND*%
X140400000Y-155500000D03*
%TD*%
D12*
%TO.P,REF\u002A\u002A,1*%
%TO.N,N/C*%
X145750000Y-19200000D03*
D13*
%TO.P,REF\u002A\u002A,2*%
%TO.N,GND*%
X148250000Y-19200000D03*
%TD*%
D12*
%TO.P,REF\u002A\u002A,1*%
%TO.N,N/C*%
X127750000Y-19200000D03*
D13*
%TO.P,REF\u002A\u002A,2*%
%TO.N,GND*%
X130250000Y-19200000D03*
%TD*%
D10*
%TO.P,REF\u002A\u002A,1*%
%TO.N,N/C*%
X112500000Y-47500000D03*
D11*
%TO.P,REF\u002A\u002A,2*%
%TO.N,GND*%
X119700000Y-47500000D03*
%TD*%
D10*
%TO.P,REF\u002A\u002A,1*%
%TO.N,N/C*%
X113900000Y-147500000D03*
D11*
%TO.P,REF\u002A\u002A,2*%
%TO.N,GND*%
X121100000Y-147500000D03*
%TD*%
D10*
%TO.P,REF\u002A\u002A,1*%
%TO.N,N/C*%
X83900000Y-147500000D03*
D11*
%TO.P,REF\u002A\u002A,2*%
%TO.N,GND*%
X91100000Y-147500000D03*
%TD*%
D14*
%TO.P,REF\u002A\u002A,1*%
%TO.N,N/C*%
X84500000Y-40600000D03*
D11*
%TO.P,REF\u002A\u002A,2*%
%TO.N,GND*%
X84500000Y-33400000D03*
%TD*%
D16*
%TO.N,*%
X162500000Y-54500000D03*
X171500000Y-54500000D03*
D17*
X113500000Y-129000000D03*
D16*
X143500000Y-135000000D03*
X153500000Y-136000000D03*
%TO.N,GND*%
X126500000Y-47500000D03*
X215000000Y-123000000D03*
X169000000Y-123000000D03*
X215000000Y-22500000D03*
X215000000Y-47500000D03*
X128500000Y-129000000D03*
X169000000Y-72500000D03*
X127500000Y-147500000D03*
X86000000Y-19000000D03*
X162000000Y-61000000D03*
X98000000Y-147500000D03*
X217500000Y-75000000D03*
X84000000Y-107000000D03*
X169000000Y-22500000D03*
X84500000Y-64500000D03*
X126500000Y-30000000D03*
X169000000Y-98000000D03*
X169000000Y-47500000D03*
X128500000Y-100000000D03*
X215000000Y-98000000D03*
X162000000Y-107000000D03*
X84500000Y-25500000D03*
X128500000Y-71000000D03*
X133000000Y-155500000D03*
%TD*%
D18*
%TO.N,*%
X162500000Y-54500000D02*
X171500000Y-54500000D01*
X152500000Y-135000000D02*
X143500000Y-135000000D01*
X153500000Y-136000000D02*
X152500000Y-135000000D01*
%TD*%
%TA.AperFunction,Conductor*%
%TO.N,GND*%
G36*
X219942539Y-15020185D02*
G01*
X219988294Y-15072989D01*
X219999500Y-15124500D01*
X219999500Y-163875500D01*
X219979815Y-163942539D01*
X219927011Y-163988294D01*
X219875500Y-163999500D01*
X71124500Y-163999500D01*
X71057461Y-163979815D01*
X71011706Y-163927011D01*
X71000500Y-163875500D01*
X71000500Y-155328059D01*
X136900000Y-155328059D01*
X136900000Y-155671940D01*
X136933705Y-156014165D01*
X136933708Y-156014182D01*
X137000791Y-156351437D01*
X137000792Y-156351443D01*
X137100623Y-156680540D01*
X137232219Y-156998241D01*
X137232226Y-156998255D01*
X137394322Y-157301518D01*
X137394333Y-157301536D01*
X137585377Y-157587453D01*
X137585387Y-157587467D01*
X137753785Y-157792659D01*
X137753786Y-157792660D01*
X138641777Y-156904668D01*
X138704731Y-156986711D01*
X138913289Y-157195269D01*
X138995329Y-157258221D01*
X138107338Y-158146212D01*
X138107339Y-158146213D01*
X138312533Y-158314612D01*
X138312546Y-158314622D01*
X138598463Y-158505666D01*
X138598481Y-158505677D01*
X138901744Y-158667773D01*
X138901758Y-158667780D01*
X139219459Y-158799376D01*
X139548556Y-158899207D01*
X139548562Y-158899208D01*
X139885817Y-158966291D01*
X139885834Y-158966294D01*
X140228059Y-159000000D01*
X140571941Y-159000000D01*
X140914165Y-158966294D01*
X140914182Y-158966291D01*
X141251437Y-158899208D01*
X141251443Y-158899207D01*
X141580540Y-158799376D01*
X141898241Y-158667780D01*
X141898255Y-158667773D01*
X142201518Y-158505677D01*
X142201536Y-158505666D01*
X142487453Y-158314622D01*
X142487466Y-158314612D01*
X142692659Y-158146213D01*
X142692659Y-158146212D01*
X141804669Y-157258222D01*
X141886711Y-157195269D01*
X142095269Y-156986711D01*
X142158222Y-156904669D01*
X143046212Y-157792659D01*
X143046213Y-157792659D01*
X143214612Y-157587466D01*
X143214622Y-157587453D01*
X143405666Y-157301536D01*
X143405677Y-157301518D01*
X143567773Y-156998255D01*
X143567780Y-156998241D01*
X143699376Y-156680540D01*
X143799207Y-156351443D01*
X143799208Y-156351437D01*
X143853883Y-156076567D01*
X143886267Y-156014656D01*
X143946983Y-155980082D01*
X144016753Y-155983821D01*
X144073425Y-156024687D01*
X144099006Y-156089705D01*
X144099500Y-156100758D01*
X144099500Y-157071450D01*
X144114804Y-157285433D01*
X144175628Y-157565037D01*
X144175630Y-157565043D01*
X144175631Y-157565046D01*
X144260527Y-157792660D01*
X144275635Y-157833166D01*
X144412770Y-158084309D01*
X144412775Y-158084317D01*
X144584254Y-158313387D01*
X144584270Y-158313405D01*
X144786594Y-158515729D01*
X144786612Y-158515745D01*
X145015682Y-158687224D01*
X145015690Y-158687229D01*
X145266833Y-158824364D01*
X145266832Y-158824364D01*
X145266836Y-158824365D01*
X145266839Y-158824367D01*
X145534954Y-158924369D01*
X145534960Y-158924370D01*
X145534962Y-158924371D01*
X145814566Y-158985195D01*
X145814568Y-158985195D01*
X145814572Y-158985196D01*
X146028552Y-159000500D01*
X149171448Y-159000500D01*
X149385428Y-158985196D01*
X149472320Y-158966294D01*
X149665037Y-158924371D01*
X149665037Y-158924370D01*
X149665046Y-158924369D01*
X149933161Y-158824367D01*
X150184315Y-158687226D01*
X150413395Y-158515739D01*
X150615739Y-158313395D01*
X150787226Y-158084315D01*
X150924367Y-157833161D01*
X151024369Y-157565046D01*
X151085196Y-157285428D01*
X151100500Y-157071448D01*
X151100500Y-153928552D01*
X151085196Y-153714572D01*
X151024369Y-153434954D01*
X150924367Y-153166839D01*
X150787226Y-152915685D01*
X150740889Y-152853786D01*
X150615745Y-152686612D01*
X150615729Y-152686594D01*
X150413405Y-152484270D01*
X150413387Y-152484254D01*
X150184317Y-152312775D01*
X150184309Y-152312770D01*
X149933166Y-152175635D01*
X149933167Y-152175635D01*
X149732502Y-152100791D01*
X149665046Y-152075631D01*
X149665043Y-152075630D01*
X149665037Y-152075628D01*
X149385433Y-152014804D01*
X149171450Y-151999500D01*
X149171448Y-151999500D01*
X146028552Y-151999500D01*
X146028549Y-151999500D01*
X145814566Y-152014804D01*
X145534962Y-152075628D01*
X145266833Y-152175635D01*
X145015690Y-152312770D01*
X145015682Y-152312775D01*
X144786612Y-152484254D01*
X144786594Y-152484270D01*
X144584270Y-152686594D01*
X144584254Y-152686612D01*
X144412775Y-152915682D01*
X144412770Y-152915690D01*
X144275635Y-153166833D01*
X144175628Y-153434962D01*
X144114804Y-153714566D01*
X144099500Y-153928549D01*
X144099500Y-154899241D01*
X144079815Y-154966280D01*
X144027011Y-155012035D01*
X143957853Y-155021979D01*
X143894297Y-154992954D01*
X143856523Y-154934176D01*
X143853883Y-154923432D01*
X143799208Y-154648562D01*
X143799207Y-154648556D01*
X143699376Y-154319459D01*
X143567780Y-154001758D01*
X143567773Y-154001744D01*
X143405677Y-153698481D01*
X143405666Y-153698463D01*
X143214622Y-153412546D01*
X143214612Y-153412533D01*
X143046213Y-153207339D01*
X143046212Y-153207338D01*
X142158220Y-154095329D01*
X142095269Y-154013289D01*
X141886711Y-153804731D01*
X141804668Y-153741777D01*
X142692660Y-152853786D01*
X142692659Y-152853785D01*
X142487467Y-152685387D01*
X142487453Y-152685377D01*
X142201536Y-152494333D01*
X142201518Y-152494322D01*
X141898255Y-152332226D01*
X141898241Y-152332219D01*
X141580540Y-152200623D01*
X141251443Y-152100792D01*
X141251437Y-152100791D01*
X140914182Y-152033708D01*
X140914165Y-152033705D01*
X140571941Y-152000000D01*
X140228059Y-152000000D01*
X139885834Y-152033705D01*
X139885817Y-152033708D01*
X139548562Y-152100791D01*
X139548556Y-152100792D01*
X139219459Y-152200623D01*
X138901758Y-152332219D01*
X138901744Y-152332226D01*
X138598481Y-152494322D01*
X138598463Y-152494333D01*
X138312546Y-152685377D01*
X138312532Y-152685387D01*
X138107338Y-152853786D01*
X138995330Y-153741778D01*
X138913289Y-153804731D01*
X138704731Y-154013289D01*
X138641778Y-154095330D01*
X137753786Y-153207338D01*
X137585387Y-153412532D01*
X137585377Y-153412546D01*
X137394333Y-153698463D01*
X137394322Y-153698481D01*
X137232226Y-154001744D01*
X137232219Y-154001758D01*
X137100623Y-154319459D01*
X137000792Y-154648556D01*
X137000791Y-154648562D01*
X136933708Y-154985817D01*
X136933705Y-154985834D01*
X136900000Y-155328059D01*
X71000500Y-155328059D01*
X71000500Y-145928549D01*
X80399500Y-145928549D01*
X80399500Y-149071450D01*
X80414804Y-149285433D01*
X80475628Y-149565037D01*
X80475630Y-149565043D01*
X80475631Y-149565046D01*
X80560527Y-149792660D01*
X80575635Y-149833166D01*
X80712770Y-150084309D01*
X80712775Y-150084317D01*
X80884254Y-150313387D01*
X80884270Y-150313405D01*
X81086594Y-150515729D01*
X81086612Y-150515745D01*
X81315682Y-150687224D01*
X81315690Y-150687229D01*
X81566833Y-150824364D01*
X81566832Y-150824364D01*
X81566836Y-150824365D01*
X81566839Y-150824367D01*
X81834954Y-150924369D01*
X81834960Y-150924370D01*
X81834962Y-150924371D01*
X82114566Y-150985195D01*
X82114568Y-150985195D01*
X82114572Y-150985196D01*
X82328552Y-151000500D01*
X85471448Y-151000500D01*
X85685428Y-150985196D01*
X85772320Y-150966294D01*
X85965037Y-150924371D01*
X85965037Y-150924370D01*
X85965046Y-150924369D01*
X86233161Y-150824367D01*
X86484315Y-150687226D01*
X86713395Y-150515739D01*
X86915739Y-150313395D01*
X87087226Y-150084315D01*
X87087230Y-150084309D01*
X87112532Y-150037971D01*
X87224364Y-149833166D01*
X87224367Y-149833161D01*
X87324369Y-149565046D01*
X87385196Y-149285428D01*
X87400500Y-149071448D01*
X87400500Y-148100758D01*
X87420185Y-148033719D01*
X87472989Y-147987964D01*
X87542147Y-147978020D01*
X87605703Y-148007045D01*
X87643477Y-148065823D01*
X87646117Y-148076567D01*
X87700791Y-148351437D01*
X87700792Y-148351443D01*
X87800623Y-148680540D01*
X87932219Y-148998241D01*
X87932226Y-148998255D01*
X88094322Y-149301518D01*
X88094333Y-149301536D01*
X88285377Y-149587453D01*
X88285387Y-149587467D01*
X88453785Y-149792659D01*
X88453786Y-149792660D01*
X89341777Y-148904668D01*
X89404731Y-148986711D01*
X89613289Y-149195269D01*
X89695329Y-149258221D01*
X88807338Y-150146212D01*
X88807339Y-150146213D01*
X89012533Y-150314612D01*
X89012546Y-150314622D01*
X89298463Y-150505666D01*
X89298481Y-150505677D01*
X89601744Y-150667773D01*
X89601758Y-150667780D01*
X89919459Y-150799376D01*
X90248556Y-150899207D01*
X90248562Y-150899208D01*
X90585817Y-150966291D01*
X90585834Y-150966294D01*
X90928059Y-151000000D01*
X91271941Y-151000000D01*
X91614165Y-150966294D01*
X91614182Y-150966291D01*
X91951437Y-150899208D01*
X91951443Y-150899207D01*
X92280540Y-150799376D01*
X92598241Y-150667780D01*
X92598255Y-150667773D01*
X92901518Y-150505677D01*
X92901536Y-150505666D01*
X93187453Y-150314622D01*
X93187466Y-150314612D01*
X93392659Y-150146213D01*
X93392659Y-150146212D01*
X92504669Y-149258222D01*
X92586711Y-149195269D01*
X92795269Y-148986711D01*
X92858222Y-148904669D01*
X93746212Y-149792659D01*
X93746213Y-149792659D01*
X93914612Y-149587466D01*
X93914622Y-149587453D01*
X94105666Y-149301536D01*
X94105677Y-149301518D01*
X94267773Y-148998255D01*
X94267780Y-148998241D01*
X94399376Y-148680540D01*
X94499207Y-148351443D01*
X94499208Y-148351437D01*
X94566291Y-148014182D01*
X94566294Y-148014165D01*
X94600000Y-147671940D01*
X94600000Y-147328059D01*
X94566294Y-146985834D01*
X94566291Y-146985817D01*
X94499208Y-146648562D01*
X94499207Y-146648556D01*
X94399376Y-146319459D01*
X94267780Y-146001758D01*
X94267773Y-146001744D01*
X94258712Y-145984791D01*
X94228650Y-145928549D01*
X110399500Y-145928549D01*
X110399500Y-149071450D01*
X110414804Y-149285433D01*
X110475628Y-149565037D01*
X110475630Y-149565043D01*
X110475631Y-149565046D01*
X110560527Y-149792660D01*
X110575635Y-149833166D01*
X110712770Y-150084309D01*
X110712775Y-150084317D01*
X110884254Y-150313387D01*
X110884270Y-150313405D01*
X111086594Y-150515729D01*
X111086612Y-150515745D01*
X111315682Y-150687224D01*
X111315690Y-150687229D01*
X111566833Y-150824364D01*
X111566832Y-150824364D01*
X111566836Y-150824365D01*
X111566839Y-150824367D01*
X111834954Y-150924369D01*
X111834960Y-150924370D01*
X111834962Y-150924371D01*
X112114566Y-150985195D01*
X112114568Y-150985195D01*
X112114572Y-150985196D01*
X112328552Y-151000500D01*
X115471448Y-151000500D01*
X115685428Y-150985196D01*
X115772320Y-150966294D01*
X115965037Y-150924371D01*
X115965037Y-150924370D01*
X115965046Y-150924369D01*
X116233161Y-150824367D01*
X116484315Y-150687226D01*
X116713395Y-150515739D01*
X116915739Y-150313395D01*
X117087226Y-150084315D01*
X117087230Y-150084309D01*
X117112532Y-150037971D01*
X117224364Y-149833166D01*
X117224367Y-149833161D01*
X117324369Y-149565046D01*
X117385196Y-149285428D01*
X117400500Y-149071448D01*
X117400500Y-148100758D01*
X117420185Y-148033719D01*
X117472989Y-147987964D01*
X117542147Y-147978020D01*
X117605703Y-148007045D01*
X117643477Y-148065823D01*
X117646117Y-148076567D01*
X117700791Y-148351437D01*
X117700792Y-148351443D01*
X117800623Y-148680540D01*
X117932219Y-148998241D01*
X117932226Y-148998255D01*
X118094322Y-149301518D01*
X118094333Y-149301536D01*
X118285377Y-149587453D01*
X118285387Y-149587467D01*
X118453785Y-149792659D01*
X118453786Y-149792660D01*
X119341777Y-148904668D01*
X119404731Y-148986711D01*
X119613289Y-149195269D01*
X119695329Y-149258221D01*
X118807338Y-150146212D01*
X118807339Y-150146213D01*
X119012533Y-150314612D01*
X119012546Y-150314622D01*
X119298463Y-150505666D01*
X119298481Y-150505677D01*
X119601744Y-150667773D01*
X119601758Y-150667780D01*
X119919459Y-150799376D01*
X120248556Y-150899207D01*
X120248562Y-150899208D01*
X120585817Y-150966291D01*
X120585834Y-150966294D01*
X120928059Y-151000000D01*
X121271941Y-151000000D01*
X121614165Y-150966294D01*
X121614182Y-150966291D01*
X121951437Y-150899208D01*
X121951443Y-150899207D01*
X122280540Y-150799376D01*
X122598241Y-150667780D01*
X122598255Y-150667773D01*
X122901518Y-150505677D01*
X122901536Y-150505666D01*
X123187453Y-150314622D01*
X123187466Y-150314612D01*
X123392659Y-150146213D01*
X123392659Y-150146212D01*
X122504669Y-149258222D01*
X122586711Y-149195269D01*
X122795269Y-148986711D01*
X122858222Y-148904669D01*
X123746212Y-149792659D01*
X123746213Y-149792659D01*
X123914612Y-149587466D01*
X123914622Y-149587453D01*
X124105666Y-149301536D01*
X124105677Y-149301518D01*
X124267773Y-148998255D01*
X124267780Y-148998241D01*
X124399376Y-148680540D01*
X124499207Y-148351443D01*
X124499208Y-148351437D01*
X124566291Y-148014182D01*
X124566294Y-148014165D01*
X124600000Y-147671940D01*
X124600000Y-147328059D01*
X124566294Y-146985834D01*
X124566291Y-146985817D01*
X124499208Y-146648562D01*
X124499207Y-146648556D01*
X124399376Y-146319459D01*
X124267780Y-146001758D01*
X124267773Y-146001744D01*
X124105677Y-145698481D01*
X124105666Y-145698463D01*
X123914622Y-145412546D01*
X123914612Y-145412533D01*
X123746213Y-145207339D01*
X123746212Y-145207338D01*
X122858221Y-146095329D01*
X122795269Y-146013289D01*
X122586711Y-145804731D01*
X122504668Y-145741777D01*
X123392660Y-144853786D01*
X123392659Y-144853785D01*
X123187467Y-144685387D01*
X123187453Y-144685377D01*
X122901536Y-144494333D01*
X122901518Y-144494322D01*
X122598255Y-144332226D01*
X122598241Y-144332219D01*
X122280540Y-144200623D01*
X121951443Y-144100792D01*
X121951437Y-144100791D01*
X121614182Y-144033708D01*
X121614165Y-144033705D01*
X121271941Y-144000000D01*
X120928059Y-144000000D01*
X120585834Y-144033705D01*
X120585817Y-144033708D01*
X120248562Y-144100791D01*
X120248556Y-144100792D01*
X119919459Y-144200623D01*
X119601758Y-144332219D01*
X119601744Y-144332226D01*
X119298481Y-144494322D01*
X119298463Y-144494333D01*
X119012546Y-144685377D01*
X119012532Y-144685387D01*
X118807338Y-144853786D01*
X119695330Y-145741778D01*
X119613289Y-145804731D01*
X119404731Y-146013289D01*
X119341778Y-146095330D01*
X118453786Y-145207338D01*
X118285387Y-145412532D01*
X118285377Y-145412546D01*
X118094333Y-145698463D01*
X118094322Y-145698481D01*
X117932226Y-146001744D01*
X117932219Y-146001758D01*
X117800623Y-146319459D01*
X117700792Y-146648556D01*
X117700791Y-146648562D01*
X117646117Y-146923432D01*
X117613732Y-146985343D01*
X117553017Y-147019917D01*
X117483247Y-147016178D01*
X117426575Y-146975312D01*
X117400994Y-146910294D01*
X117400500Y-146899241D01*
X117400500Y-145928552D01*
X117385196Y-145714572D01*
X117324369Y-145434954D01*
X117224367Y-145166839D01*
X117224364Y-145166833D01*
X117112532Y-144962028D01*
X117087229Y-144915690D01*
X117087224Y-144915682D01*
X116915745Y-144686612D01*
X116915729Y-144686594D01*
X116713405Y-144484270D01*
X116713387Y-144484254D01*
X116484317Y-144312775D01*
X116484309Y-144312770D01*
X116233166Y-144175635D01*
X116233167Y-144175635D01*
X116032502Y-144100791D01*
X115965046Y-144075631D01*
X115965043Y-144075630D01*
X115965037Y-144075628D01*
X115685433Y-144014804D01*
X115471450Y-143999500D01*
X115471448Y-143999500D01*
X112328552Y-143999500D01*
X112328549Y-143999500D01*
X112114566Y-144014804D01*
X111834962Y-144075628D01*
X111566833Y-144175635D01*
X111315690Y-144312770D01*
X111315682Y-144312775D01*
X111086612Y-144484254D01*
X111086594Y-144484270D01*
X110884270Y-144686594D01*
X110884254Y-144686612D01*
X110712775Y-144915682D01*
X110712770Y-144915690D01*
X110575635Y-145166833D01*
X110475628Y-145434962D01*
X110414804Y-145714566D01*
X110399500Y-145928549D01*
X94228650Y-145928549D01*
X94105677Y-145698481D01*
X94105666Y-145698463D01*
X93914622Y-145412546D01*
X93914612Y-145412533D01*
X93746213Y-145207339D01*
X93746212Y-145207338D01*
X92858221Y-146095329D01*
X92795269Y-146013289D01*
X92586711Y-145804731D01*
X92504668Y-145741777D01*
X93392660Y-144853786D01*
X93392659Y-144853785D01*
X93187467Y-144685387D01*
X93187453Y-144685377D01*
X92901536Y-144494333D01*
X92901518Y-144494322D01*
X92598255Y-144332226D01*
X92598241Y-144332219D01*
X92280540Y-144200623D01*
X91951443Y-144100792D01*
X91951437Y-144100791D01*
X91614182Y-144033708D01*
X91614165Y-144033705D01*
X91271941Y-144000000D01*
X90928059Y-144000000D01*
X90585834Y-144033705D01*
X90585817Y-144033708D01*
X90248562Y-144100791D01*
X90248556Y-144100792D01*
X89919459Y-144200623D01*
X89601758Y-144332219D01*
X89601744Y-144332226D01*
X89298481Y-144494322D01*
X89298463Y-144494333D01*
X89012546Y-144685377D01*
X89012532Y-144685387D01*
X88807338Y-144853786D01*
X89695330Y-145741778D01*
X89613289Y-145804731D01*
X89404731Y-146013289D01*
X89341778Y-146095330D01*
X88453786Y-145207338D01*
X88285387Y-145412532D01*
X88285377Y-145412546D01*
X88094333Y-145698463D01*
X88094322Y-145698481D01*
X87932226Y-146001744D01*
X87932219Y-146001758D01*
X87800623Y-146319459D01*
X87700792Y-146648556D01*
X87700791Y-146648562D01*
X87646117Y-146923432D01*
X87613732Y-146985343D01*
X87553017Y-147019917D01*
X87483247Y-147016178D01*
X87426575Y-146975312D01*
X87400994Y-146910294D01*
X87400500Y-146899241D01*
X87400500Y-145928552D01*
X87385196Y-145714572D01*
X87324369Y-145434954D01*
X87224367Y-145166839D01*
X87224364Y-145166833D01*
X87112532Y-144962028D01*
X87087229Y-144915690D01*
X87087224Y-144915682D01*
X86915745Y-144686612D01*
X86915729Y-144686594D01*
X86713405Y-144484270D01*
X86713387Y-144484254D01*
X86484317Y-144312775D01*
X86484309Y-144312770D01*
X86233166Y-144175635D01*
X86233167Y-144175635D01*
X86032502Y-144100791D01*
X85965046Y-144075631D01*
X85965043Y-144075630D01*
X85965037Y-144075628D01*
X85685433Y-144014804D01*
X85471450Y-143999500D01*
X85471448Y-143999500D01*
X82328552Y-143999500D01*
X82328549Y-143999500D01*
X82114566Y-144014804D01*
X81834962Y-144075628D01*
X81566833Y-144175635D01*
X81315690Y-144312770D01*
X81315682Y-144312775D01*
X81086612Y-144484254D01*
X81086594Y-144484270D01*
X80884270Y-144686594D01*
X80884254Y-144686612D01*
X80712775Y-144915682D01*
X80712770Y-144915690D01*
X80575635Y-145166833D01*
X80475628Y-145434962D01*
X80414804Y-145714566D01*
X80399500Y-145928549D01*
X71000500Y-145928549D01*
X71000500Y-134870097D01*
X141849500Y-134870097D01*
X141849500Y-135129902D01*
X141890140Y-135386493D01*
X141970422Y-135633576D01*
X142051534Y-135792764D01*
X142088366Y-135865051D01*
X142241069Y-136075229D01*
X142424771Y-136258931D01*
X142634949Y-136411634D01*
X142782445Y-136486787D01*
X142866423Y-136529577D01*
X142866425Y-136529577D01*
X142866428Y-136529579D01*
X143113507Y-136609860D01*
X143245706Y-136630797D01*
X143370098Y-136650500D01*
X143370103Y-136650500D01*
X151764978Y-136650500D01*
X151832017Y-136670185D01*
X151852659Y-136686819D01*
X152424772Y-137258931D01*
X152634949Y-137411635D01*
X152866428Y-137529579D01*
X152866430Y-137529580D01*
X153113504Y-137609859D01*
X153113505Y-137609859D01*
X153113508Y-137609860D01*
X153370103Y-137650501D01*
X153370104Y-137650501D01*
X153629896Y-137650501D01*
X153629897Y-137650501D01*
X153886493Y-137609860D01*
X153886496Y-137609859D01*
X153886497Y-137609859D01*
X154133570Y-137529580D01*
X154133570Y-137529579D01*
X154133573Y-137529579D01*
X154365051Y-137411635D01*
X154575229Y-137258931D01*
X154758931Y-137075229D01*
X154911635Y-136865051D01*
X155029579Y-136633573D01*
X155109860Y-136386493D01*
X155150501Y-136129897D01*
X155150501Y-135870103D01*
X155109860Y-135613508D01*
X155109859Y-135613504D01*
X155109859Y-135613503D01*
X155029580Y-135366430D01*
X154911634Y-135134948D01*
X154907964Y-135129897D01*
X154758931Y-134924772D01*
X153575229Y-133741069D01*
X153365051Y-133588365D01*
X153133573Y-133470420D01*
X153133567Y-133470418D01*
X153072980Y-133450733D01*
X153072979Y-133450733D01*
X152886495Y-133390140D01*
X152629902Y-133349500D01*
X152629897Y-133349500D01*
X143370103Y-133349500D01*
X143370098Y-133349500D01*
X143113506Y-133390140D01*
X142866423Y-133470422D01*
X142634945Y-133588368D01*
X142424774Y-133741066D01*
X142424768Y-133741071D01*
X142241071Y-133924768D01*
X142241066Y-133924774D01*
X142088368Y-134134945D01*
X141970422Y-134366423D01*
X141890140Y-134613506D01*
X141849500Y-134870097D01*
X71000500Y-134870097D01*
X71000500Y-127428549D01*
X109999500Y-127428549D01*
X109999500Y-130571450D01*
X110014804Y-130785433D01*
X110075628Y-131065037D01*
X110075630Y-131065043D01*
X110075631Y-131065046D01*
X110160527Y-131292660D01*
X110175635Y-131333166D01*
X110312770Y-131584309D01*
X110312775Y-131584317D01*
X110484254Y-131813387D01*
X110484270Y-131813405D01*
X110686594Y-132015729D01*
X110686612Y-132015745D01*
X110915682Y-132187224D01*
X110915690Y-132187229D01*
X111166833Y-132324364D01*
X111166832Y-132324364D01*
X111166836Y-132324365D01*
X111166839Y-132324367D01*
X111434954Y-132424369D01*
X111434960Y-132424370D01*
X111434962Y-132424371D01*
X111714566Y-132485195D01*
X111714568Y-132485195D01*
X111714572Y-132485196D01*
X111928552Y-132500500D01*
X115071448Y-132500500D01*
X115285428Y-132485196D01*
X115372320Y-132466294D01*
X115565037Y-132424371D01*
X115565037Y-132424370D01*
X115565046Y-132424369D01*
X115833161Y-132324367D01*
X116084315Y-132187226D01*
X116313395Y-132015739D01*
X116515739Y-131813395D01*
X116687226Y-131584315D01*
X116687230Y-131584309D01*
X116712532Y-131537971D01*
X116824364Y-131333166D01*
X116824367Y-131333161D01*
X116924369Y-131065046D01*
X116985196Y-130785428D01*
X117000500Y-130571448D01*
X117000500Y-129600758D01*
X117020185Y-129533719D01*
X117072989Y-129487964D01*
X117142147Y-129478020D01*
X117205703Y-129507045D01*
X117243477Y-129565823D01*
X117246117Y-129576567D01*
X117300791Y-129851437D01*
X117300792Y-129851443D01*
X117400623Y-130180540D01*
X117532219Y-130498241D01*
X117532226Y-130498255D01*
X117694322Y-130801518D01*
X117694333Y-130801536D01*
X117885377Y-131087453D01*
X117885387Y-131087467D01*
X118053785Y-131292659D01*
X118053786Y-131292660D01*
X118941777Y-130404668D01*
X119004731Y-130486711D01*
X119213289Y-130695269D01*
X119295329Y-130758221D01*
X118407338Y-131646212D01*
X118407339Y-131646213D01*
X118612533Y-131814612D01*
X118612546Y-131814622D01*
X118898463Y-132005666D01*
X118898481Y-132005677D01*
X119201744Y-132167773D01*
X119201758Y-132167780D01*
X119519459Y-132299376D01*
X119848556Y-132399207D01*
X119848562Y-132399208D01*
X120185817Y-132466291D01*
X120185834Y-132466294D01*
X120528059Y-132500000D01*
X120871941Y-132500000D01*
X121214165Y-132466294D01*
X121214182Y-132466291D01*
X121551437Y-132399208D01*
X121551443Y-132399207D01*
X121880540Y-132299376D01*
X122198241Y-132167780D01*
X122198255Y-132167773D01*
X122501518Y-132005677D01*
X122501536Y-132005666D01*
X122787453Y-131814622D01*
X122787466Y-131814612D01*
X122992659Y-131646213D01*
X122992659Y-131646212D01*
X122104669Y-130758222D01*
X122186711Y-130695269D01*
X122395269Y-130486711D01*
X122458222Y-130404669D01*
X123346212Y-131292659D01*
X123346213Y-131292659D01*
X123514612Y-131087466D01*
X123514622Y-131087453D01*
X123705666Y-130801536D01*
X123705677Y-130801518D01*
X123867773Y-130498255D01*
X123867780Y-130498241D01*
X123999376Y-130180540D01*
X124099207Y-129851443D01*
X124099208Y-129851437D01*
X124166291Y-129514182D01*
X124166294Y-129514165D01*
X124200000Y-129171940D01*
X124200000Y-128828059D01*
X124166294Y-128485834D01*
X124166291Y-128485817D01*
X124099208Y-128148562D01*
X124099207Y-128148556D01*
X123999376Y-127819459D01*
X123867780Y-127501758D01*
X123867773Y-127501744D01*
X123705677Y-127198481D01*
X123705666Y-127198463D01*
X123514622Y-126912546D01*
X123514612Y-126912533D01*
X123346213Y-126707339D01*
X123346212Y-126707338D01*
X122458221Y-127595329D01*
X122395269Y-127513289D01*
X122186711Y-127304731D01*
X122104668Y-127241777D01*
X122992660Y-126353786D01*
X122992659Y-126353785D01*
X122787467Y-126185387D01*
X122787453Y-126185377D01*
X122501536Y-125994333D01*
X122501518Y-125994322D01*
X122198255Y-125832226D01*
X122198241Y-125832219D01*
X121880540Y-125700623D01*
X121551443Y-125600792D01*
X121551437Y-125600791D01*
X121214182Y-125533708D01*
X121214165Y-125533705D01*
X120871941Y-125500000D01*
X120528059Y-125500000D01*
X120185834Y-125533705D01*
X120185817Y-125533708D01*
X119848562Y-125600791D01*
X119848556Y-125600792D01*
X119519459Y-125700623D01*
X119201758Y-125832219D01*
X119201744Y-125832226D01*
X118898481Y-125994322D01*
X118898463Y-125994333D01*
X118612546Y-126185377D01*
X118612532Y-126185387D01*
X118407338Y-126353786D01*
X119295330Y-127241778D01*
X119213289Y-127304731D01*
X119004731Y-127513289D01*
X118941778Y-127595330D01*
X118053786Y-126707338D01*
X117885387Y-126912532D01*
X117885377Y-126912546D01*
X117694333Y-127198463D01*
X117694322Y-127198481D01*
X117532226Y-127501744D01*
X117532219Y-127501758D01*
X117400623Y-127819459D01*
X117300792Y-128148556D01*
X117300791Y-128148562D01*
X117246117Y-128423432D01*
X117213732Y-128485343D01*
X117153017Y-128519917D01*
X117083247Y-128516178D01*
X117026575Y-128475312D01*
X117000994Y-128410294D01*
X117000500Y-128399241D01*
X117000500Y-127428552D01*
X116985196Y-127214572D01*
X116924369Y-126934954D01*
X116824367Y-126666839D01*
X116824364Y-126666833D01*
X116712532Y-126462028D01*
X116687229Y-126415690D01*
X116687224Y-126415682D01*
X116515745Y-126186612D01*
X116515729Y-126186594D01*
X116313405Y-125984270D01*
X116313387Y-125984254D01*
X116084317Y-125812775D01*
X116084309Y-125812770D01*
X115833166Y-125675635D01*
X115833167Y-125675635D01*
X115632502Y-125600791D01*
X115565046Y-125575631D01*
X115565043Y-125575630D01*
X115565037Y-125575628D01*
X115285433Y-125514804D01*
X115071450Y-125499500D01*
X115071448Y-125499500D01*
X111928552Y-125499500D01*
X111928549Y-125499500D01*
X111714566Y-125514804D01*
X111434962Y-125575628D01*
X111166833Y-125675635D01*
X110915690Y-125812770D01*
X110915682Y-125812775D01*
X110686612Y-125984254D01*
X110686594Y-125984270D01*
X110484270Y-126186594D01*
X110484254Y-126186612D01*
X110312775Y-126415682D01*
X110312770Y-126415690D01*
X110175635Y-126666833D01*
X110075628Y-126934962D01*
X110014804Y-127214566D01*
X109999500Y-127428549D01*
X71000500Y-127428549D01*
X71000500Y-120028549D01*
X80499500Y-120028549D01*
X80499500Y-123171450D01*
X80514804Y-123385433D01*
X80575628Y-123665037D01*
X80675635Y-123933166D01*
X80812770Y-124184309D01*
X80812775Y-124184317D01*
X80984254Y-124413387D01*
X80984270Y-124413405D01*
X81186594Y-124615729D01*
X81186612Y-124615745D01*
X81415682Y-124787224D01*
X81415690Y-124787229D01*
X81666833Y-124924364D01*
X81666832Y-124924364D01*
X81666836Y-124924365D01*
X81666839Y-124924367D01*
X81934954Y-125024369D01*
X81934960Y-125024370D01*
X81934962Y-125024371D01*
X82214566Y-125085195D01*
X82214568Y-125085195D01*
X82214572Y-125085196D01*
X82428552Y-125100500D01*
X85571448Y-125100500D01*
X85785428Y-125085196D01*
X86065046Y-125024369D01*
X86333161Y-124924367D01*
X86584315Y-124787226D01*
X86813395Y-124615739D01*
X87015739Y-124413395D01*
X87187226Y-124184315D01*
X87324367Y-123933161D01*
X87424369Y-123665046D01*
X87485196Y-123385428D01*
X87500500Y-123171448D01*
X87500500Y-120028552D01*
X87485196Y-119814572D01*
X87424369Y-119534954D01*
X87324367Y-119266839D01*
X87187226Y-119015685D01*
X87187224Y-119015682D01*
X87015745Y-118786612D01*
X87015729Y-118786594D01*
X86813405Y-118584270D01*
X86813387Y-118584254D01*
X86584317Y-118412775D01*
X86584309Y-118412770D01*
X86333166Y-118275635D01*
X86333167Y-118275635D01*
X86225915Y-118235632D01*
X86065046Y-118175631D01*
X86065043Y-118175630D01*
X86065037Y-118175628D01*
X85785433Y-118114804D01*
X85571450Y-118099500D01*
X85571448Y-118099500D01*
X84600758Y-118099500D01*
X84533719Y-118079815D01*
X84487964Y-118027011D01*
X84478020Y-117957853D01*
X84507045Y-117894297D01*
X84565823Y-117856523D01*
X84576567Y-117853883D01*
X84851437Y-117799208D01*
X84851443Y-117799207D01*
X85180540Y-117699376D01*
X85498241Y-117567780D01*
X85498255Y-117567773D01*
X85801518Y-117405677D01*
X85801536Y-117405666D01*
X86087453Y-117214622D01*
X86087466Y-117214612D01*
X86292659Y-117046213D01*
X86292659Y-117046212D01*
X85404669Y-116158222D01*
X85486711Y-116095269D01*
X85695269Y-115886711D01*
X85758222Y-115804669D01*
X86646212Y-116692659D01*
X86646213Y-116692659D01*
X86814612Y-116487466D01*
X86814622Y-116487453D01*
X87005666Y-116201536D01*
X87005677Y-116201518D01*
X87167773Y-115898255D01*
X87167780Y-115898241D01*
X87299376Y-115580540D01*
X87399207Y-115251443D01*
X87399208Y-115251437D01*
X87466291Y-114914182D01*
X87466294Y-114914165D01*
X87500000Y-114571940D01*
X87500000Y-114228059D01*
X87466294Y-113885834D01*
X87466291Y-113885817D01*
X87399208Y-113548562D01*
X87399207Y-113548556D01*
X87299376Y-113219459D01*
X87167780Y-112901758D01*
X87167773Y-112901744D01*
X87005677Y-112598481D01*
X87005666Y-112598463D01*
X86814622Y-112312546D01*
X86814612Y-112312533D01*
X86646213Y-112107339D01*
X86646212Y-112107338D01*
X85758221Y-112995329D01*
X85695269Y-112913289D01*
X85486711Y-112704731D01*
X85404668Y-112641777D01*
X86292660Y-111753786D01*
X86292659Y-111753785D01*
X86087467Y-111585387D01*
X86087453Y-111585377D01*
X85801536Y-111394333D01*
X85801518Y-111394322D01*
X85498255Y-111232226D01*
X85498241Y-111232219D01*
X85180540Y-111100623D01*
X84851443Y-111000792D01*
X84851437Y-111000791D01*
X84514182Y-110933708D01*
X84514165Y-110933705D01*
X84171941Y-110900000D01*
X83828059Y-110900000D01*
X83485834Y-110933705D01*
X83485817Y-110933708D01*
X83148562Y-111000791D01*
X83148556Y-111000792D01*
X82819459Y-111100623D01*
X82501758Y-111232219D01*
X82501744Y-111232226D01*
X82198481Y-111394322D01*
X82198463Y-111394333D01*
X81912546Y-111585377D01*
X81912532Y-111585387D01*
X81707338Y-111753786D01*
X82595330Y-112641778D01*
X82513289Y-112704731D01*
X82304731Y-112913289D01*
X82241778Y-112995330D01*
X81353786Y-112107338D01*
X81185387Y-112312532D01*
X81185377Y-112312546D01*
X80994333Y-112598463D01*
X80994322Y-112598481D01*
X80832226Y-112901744D01*
X80832219Y-112901758D01*
X80700623Y-113219459D01*
X80600792Y-113548556D01*
X80600791Y-113548562D01*
X80533708Y-113885817D01*
X80533705Y-113885834D01*
X80500000Y-114228059D01*
X80500000Y-114571940D01*
X80533705Y-114914165D01*
X80533708Y-114914182D01*
X80600791Y-115251437D01*
X80600792Y-115251443D01*
X80700623Y-115580540D01*
X80832219Y-115898241D01*
X80832226Y-115898255D01*
X80994322Y-116201518D01*
X80994333Y-116201536D01*
X81185377Y-116487453D01*
X81185387Y-116487467D01*
X81353785Y-116692659D01*
X81353786Y-116692660D01*
X82241777Y-115804668D01*
X82304731Y-115886711D01*
X82513289Y-116095269D01*
X82595329Y-116158221D01*
X81707338Y-117046212D01*
X81707339Y-117046213D01*
X81912533Y-117214612D01*
X81912546Y-117214622D01*
X82198463Y-117405666D01*
X82198481Y-117405677D01*
X82501744Y-117567773D01*
X82501758Y-117567780D01*
X82819459Y-117699376D01*
X83148556Y-117799207D01*
X83148562Y-117799208D01*
X83423433Y-117853883D01*
X83485344Y-117886267D01*
X83519918Y-117946983D01*
X83516179Y-118016753D01*
X83475313Y-118073425D01*
X83410295Y-118099006D01*
X83399242Y-118099500D01*
X82428549Y-118099500D01*
X82214566Y-118114804D01*
X81934962Y-118175628D01*
X81666833Y-118275635D01*
X81415690Y-118412770D01*
X81415682Y-118412775D01*
X81186612Y-118584254D01*
X81186594Y-118584270D01*
X80984270Y-118786594D01*
X80984254Y-118786612D01*
X80812775Y-119015682D01*
X80812770Y-119015690D01*
X80675635Y-119266833D01*
X80575628Y-119534962D01*
X80514804Y-119814566D01*
X80499500Y-120028549D01*
X71000500Y-120028549D01*
X71000500Y-98428549D01*
X109399500Y-98428549D01*
X109399500Y-101571450D01*
X109414804Y-101785433D01*
X109475628Y-102065037D01*
X109475630Y-102065043D01*
X109475631Y-102065046D01*
X109560527Y-102292660D01*
X109575635Y-102333166D01*
X109712770Y-102584309D01*
X109712775Y-102584317D01*
X109884254Y-102813387D01*
X109884270Y-102813405D01*
X110086594Y-103015729D01*
X110086612Y-103015745D01*
X110315682Y-103187224D01*
X110315690Y-103187229D01*
X110566833Y-103324364D01*
X110566832Y-103324364D01*
X110566836Y-103324365D01*
X110566839Y-103324367D01*
X110834954Y-103424369D01*
X110834960Y-103424370D01*
X110834962Y-103424371D01*
X111114566Y-103485195D01*
X111114568Y-103485195D01*
X111114572Y-103485196D01*
X111328552Y-103500500D01*
X114471448Y-103500500D01*
X114685428Y-103485196D01*
X114772320Y-103466294D01*
X114965037Y-103424371D01*
X114965037Y-103424370D01*
X114965046Y-103424369D01*
X115233161Y-103324367D01*
X115484315Y-103187226D01*
X115713395Y-103015739D01*
X115915739Y-102813395D01*
X116087226Y-102584315D01*
X116087230Y-102584309D01*
X116112532Y-102537971D01*
X116224364Y-102333166D01*
X116224367Y-102333161D01*
X116324369Y-102065046D01*
X116385196Y-101785428D01*
X116400500Y-101571448D01*
X116400500Y-100600758D01*
X116420185Y-100533719D01*
X116472989Y-100487964D01*
X116542147Y-100478020D01*
X116605703Y-100507045D01*
X116643477Y-100565823D01*
X116646117Y-100576567D01*
X116700791Y-100851437D01*
X116700792Y-100851443D01*
X116800623Y-101180540D01*
X116932219Y-101498241D01*
X116932226Y-101498255D01*
X117094322Y-101801518D01*
X117094333Y-101801536D01*
X117285377Y-102087453D01*
X117285387Y-102087467D01*
X117453785Y-102292659D01*
X117453786Y-102292660D01*
X118341777Y-101404668D01*
X118404731Y-101486711D01*
X118613289Y-101695269D01*
X118695329Y-101758221D01*
X117807338Y-102646212D01*
X117807339Y-102646213D01*
X118012533Y-102814612D01*
X118012546Y-102814622D01*
X118298463Y-103005666D01*
X118298481Y-103005677D01*
X118601744Y-103167773D01*
X118601758Y-103167780D01*
X118919459Y-103299376D01*
X119248556Y-103399207D01*
X119248562Y-103399208D01*
X119585817Y-103466291D01*
X119585834Y-103466294D01*
X119928059Y-103500000D01*
X120271941Y-103500000D01*
X120614165Y-103466294D01*
X120614182Y-103466291D01*
X120951437Y-103399208D01*
X120951443Y-103399207D01*
X121280540Y-103299376D01*
X121598241Y-103167780D01*
X121598255Y-103167773D01*
X121901518Y-103005677D01*
X121901536Y-103005666D01*
X122187453Y-102814622D01*
X122187466Y-102814612D01*
X122392659Y-102646213D01*
X122392659Y-102646212D01*
X121504669Y-101758222D01*
X121586711Y-101695269D01*
X121795269Y-101486711D01*
X121858222Y-101404669D01*
X122746212Y-102292659D01*
X122746213Y-102292659D01*
X122914612Y-102087466D01*
X122914622Y-102087453D01*
X123105666Y-101801536D01*
X123105677Y-101801518D01*
X123267773Y-101498255D01*
X123267780Y-101498241D01*
X123399376Y-101180540D01*
X123499207Y-100851443D01*
X123499208Y-100851437D01*
X123566291Y-100514182D01*
X123566294Y-100514165D01*
X123600000Y-100171940D01*
X123600000Y-99828059D01*
X123566294Y-99485834D01*
X123566291Y-99485817D01*
X123499208Y-99148562D01*
X123499207Y-99148556D01*
X123399376Y-98819459D01*
X123267780Y-98501758D01*
X123267773Y-98501744D01*
X123105677Y-98198481D01*
X123105666Y-98198463D01*
X122914622Y-97912546D01*
X122914612Y-97912533D01*
X122746213Y-97707339D01*
X122746212Y-97707338D01*
X121858221Y-98595329D01*
X121795269Y-98513289D01*
X121586711Y-98304731D01*
X121504668Y-98241777D01*
X122392660Y-97353786D01*
X122392659Y-97353785D01*
X122187467Y-97185387D01*
X122187453Y-97185377D01*
X121901536Y-96994333D01*
X121901518Y-96994322D01*
X121598255Y-96832226D01*
X121598241Y-96832219D01*
X121280540Y-96700623D01*
X120951443Y-96600792D01*
X120951437Y-96600791D01*
X120614182Y-96533708D01*
X120614165Y-96533705D01*
X120271941Y-96500000D01*
X119928059Y-96500000D01*
X119585834Y-96533705D01*
X119585817Y-96533708D01*
X119248562Y-96600791D01*
X119248556Y-96600792D01*
X118919459Y-96700623D01*
X118601758Y-96832219D01*
X118601744Y-96832226D01*
X118298481Y-96994322D01*
X118298463Y-96994333D01*
X118012546Y-97185377D01*
X118012532Y-97185387D01*
X117807338Y-97353786D01*
X118695330Y-98241778D01*
X118613289Y-98304731D01*
X118404731Y-98513289D01*
X118341778Y-98595330D01*
X117453786Y-97707338D01*
X117285387Y-97912532D01*
X117285377Y-97912546D01*
X117094333Y-98198463D01*
X117094322Y-98198481D01*
X116932226Y-98501744D01*
X116932219Y-98501758D01*
X116800623Y-98819459D01*
X116700792Y-99148556D01*
X116700791Y-99148562D01*
X116646117Y-99423432D01*
X116613732Y-99485343D01*
X116553017Y-99519917D01*
X116483247Y-99516178D01*
X116426575Y-99475312D01*
X116400994Y-99410294D01*
X116400500Y-99399241D01*
X116400500Y-98428552D01*
X116385196Y-98214572D01*
X116324369Y-97934954D01*
X116224367Y-97666839D01*
X116224364Y-97666833D01*
X116112532Y-97462028D01*
X116087229Y-97415690D01*
X116087224Y-97415682D01*
X115915745Y-97186612D01*
X115915729Y-97186594D01*
X115713405Y-96984270D01*
X115713387Y-96984254D01*
X115484317Y-96812775D01*
X115484309Y-96812770D01*
X115233166Y-96675635D01*
X115233167Y-96675635D01*
X115032502Y-96600791D01*
X114965046Y-96575631D01*
X114965043Y-96575630D01*
X114965037Y-96575628D01*
X114685433Y-96514804D01*
X114471450Y-96499500D01*
X114471448Y-96499500D01*
X111328552Y-96499500D01*
X111328549Y-96499500D01*
X111114566Y-96514804D01*
X110834962Y-96575628D01*
X110566833Y-96675635D01*
X110315690Y-96812770D01*
X110315682Y-96812775D01*
X110086612Y-96984254D01*
X110086594Y-96984270D01*
X109884270Y-97186594D01*
X109884254Y-97186612D01*
X109712775Y-97415682D01*
X109712770Y-97415690D01*
X109575635Y-97666833D01*
X109475628Y-97934962D01*
X109414804Y-98214566D01*
X109399500Y-98428549D01*
X71000500Y-98428549D01*
X71000500Y-78528549D01*
X80999500Y-78528549D01*
X80999500Y-81671450D01*
X81014804Y-81885433D01*
X81075628Y-82165037D01*
X81175635Y-82433166D01*
X81312770Y-82684309D01*
X81312775Y-82684317D01*
X81484254Y-82913387D01*
X81484270Y-82913405D01*
X81686594Y-83115729D01*
X81686612Y-83115745D01*
X81915682Y-83287224D01*
X81915690Y-83287229D01*
X82166833Y-83424364D01*
X82166832Y-83424364D01*
X82166836Y-83424365D01*
X82166839Y-83424367D01*
X82434954Y-83524369D01*
X82434960Y-83524370D01*
X82434962Y-83524371D01*
X82714566Y-83585195D01*
X82714568Y-83585195D01*
X82714572Y-83585196D01*
X82928552Y-83600500D01*
X86071448Y-83600500D01*
X86285428Y-83585196D01*
X86565046Y-83524369D01*
X86833161Y-83424367D01*
X87084315Y-83287226D01*
X87313395Y-83115739D01*
X87515739Y-82913395D01*
X87687226Y-82684315D01*
X87824367Y-82433161D01*
X87924369Y-82165046D01*
X87985196Y-81885428D01*
X88000500Y-81671448D01*
X88000500Y-78528552D01*
X87985196Y-78314572D01*
X87924369Y-78034954D01*
X87824367Y-77766839D01*
X87687226Y-77515685D01*
X87687224Y-77515682D01*
X87515745Y-77286612D01*
X87515729Y-77286594D01*
X87313405Y-77084270D01*
X87313387Y-77084254D01*
X87084317Y-76912775D01*
X87084309Y-76912770D01*
X86833166Y-76775635D01*
X86833167Y-76775635D01*
X86725915Y-76735632D01*
X86565046Y-76675631D01*
X86565043Y-76675630D01*
X86565037Y-76675628D01*
X86285433Y-76614804D01*
X86071450Y-76599500D01*
X86071448Y-76599500D01*
X85100758Y-76599500D01*
X85033719Y-76579815D01*
X84987964Y-76527011D01*
X84978020Y-76457853D01*
X85007045Y-76394297D01*
X85065823Y-76356523D01*
X85076567Y-76353883D01*
X85351437Y-76299208D01*
X85351443Y-76299207D01*
X85680540Y-76199376D01*
X85998241Y-76067780D01*
X85998255Y-76067773D01*
X86301518Y-75905677D01*
X86301536Y-75905666D01*
X86587453Y-75714622D01*
X86587466Y-75714612D01*
X86792659Y-75546213D01*
X86792659Y-75546212D01*
X85904669Y-74658222D01*
X85986711Y-74595269D01*
X86195269Y-74386711D01*
X86258222Y-74304669D01*
X87146212Y-75192659D01*
X87146213Y-75192659D01*
X87314612Y-74987466D01*
X87314622Y-74987453D01*
X87505666Y-74701536D01*
X87505677Y-74701518D01*
X87667773Y-74398255D01*
X87667780Y-74398241D01*
X87799376Y-74080540D01*
X87899207Y-73751443D01*
X87899208Y-73751437D01*
X87966291Y-73414182D01*
X87966294Y-73414165D01*
X88000000Y-73071940D01*
X88000000Y-72728059D01*
X87966294Y-72385834D01*
X87966291Y-72385817D01*
X87899208Y-72048562D01*
X87899207Y-72048556D01*
X87799376Y-71719459D01*
X87667780Y-71401758D01*
X87667773Y-71401744D01*
X87505677Y-71098481D01*
X87505666Y-71098463D01*
X87314622Y-70812546D01*
X87314612Y-70812533D01*
X87146213Y-70607339D01*
X87146212Y-70607338D01*
X86258221Y-71495329D01*
X86195269Y-71413289D01*
X85986711Y-71204731D01*
X85904668Y-71141777D01*
X86792660Y-70253786D01*
X86792659Y-70253785D01*
X86587467Y-70085387D01*
X86587453Y-70085377D01*
X86301536Y-69894333D01*
X86301518Y-69894322D01*
X85998255Y-69732226D01*
X85998241Y-69732219D01*
X85680540Y-69600623D01*
X85497171Y-69544999D01*
X85497170Y-69544998D01*
X85351449Y-69500794D01*
X85351437Y-69500791D01*
X85014182Y-69433708D01*
X85014165Y-69433705D01*
X84961814Y-69428549D01*
X108899500Y-69428549D01*
X108899500Y-72571450D01*
X108914804Y-72785433D01*
X108975628Y-73065037D01*
X108975630Y-73065043D01*
X108975631Y-73065046D01*
X109060527Y-73292660D01*
X109075635Y-73333166D01*
X109212770Y-73584309D01*
X109212775Y-73584317D01*
X109384254Y-73813387D01*
X109384270Y-73813405D01*
X109586594Y-74015729D01*
X109586612Y-74015745D01*
X109815682Y-74187224D01*
X109815690Y-74187229D01*
X110066833Y-74324364D01*
X110066832Y-74324364D01*
X110066836Y-74324365D01*
X110066839Y-74324367D01*
X110334954Y-74424369D01*
X110334960Y-74424370D01*
X110334962Y-74424371D01*
X110614566Y-74485195D01*
X110614568Y-74485195D01*
X110614572Y-74485196D01*
X110828552Y-74500500D01*
X113971448Y-74500500D01*
X114185428Y-74485196D01*
X114272320Y-74466294D01*
X114465037Y-74424371D01*
X114465037Y-74424370D01*
X114465046Y-74424369D01*
X114733161Y-74324367D01*
X114984315Y-74187226D01*
X115213395Y-74015739D01*
X115415739Y-73813395D01*
X115587226Y-73584315D01*
X115587230Y-73584309D01*
X115612532Y-73537971D01*
X115724364Y-73333166D01*
X115724367Y-73333161D01*
X115824369Y-73065046D01*
X115833669Y-73022294D01*
X115885195Y-72785433D01*
X115885195Y-72785432D01*
X115885196Y-72785428D01*
X115900500Y-72571448D01*
X115900500Y-71600758D01*
X115920185Y-71533719D01*
X115972989Y-71487964D01*
X116042147Y-71478020D01*
X116105703Y-71507045D01*
X116143477Y-71565823D01*
X116146117Y-71576567D01*
X116200791Y-71851437D01*
X116200792Y-71851443D01*
X116300623Y-72180540D01*
X116432219Y-72498241D01*
X116432226Y-72498255D01*
X116594322Y-72801518D01*
X116594333Y-72801536D01*
X116785377Y-73087453D01*
X116785387Y-73087467D01*
X116953785Y-73292659D01*
X116953786Y-73292660D01*
X117841777Y-72404668D01*
X117904731Y-72486711D01*
X118113289Y-72695269D01*
X118195329Y-72758221D01*
X117307338Y-73646212D01*
X117307339Y-73646213D01*
X117512533Y-73814612D01*
X117512546Y-73814622D01*
X117798463Y-74005666D01*
X117798481Y-74005677D01*
X118101744Y-74167773D01*
X118101758Y-74167780D01*
X118419459Y-74299376D01*
X118748556Y-74399207D01*
X118748562Y-74399208D01*
X119085817Y-74466291D01*
X119085834Y-74466294D01*
X119428059Y-74500000D01*
X119771941Y-74500000D01*
X120114165Y-74466294D01*
X120114182Y-74466291D01*
X120451437Y-74399208D01*
X120451443Y-74399207D01*
X120780540Y-74299376D01*
X121098241Y-74167780D01*
X121098255Y-74167773D01*
X121401518Y-74005677D01*
X121401536Y-74005666D01*
X121687453Y-73814622D01*
X121687466Y-73814612D01*
X121892659Y-73646213D01*
X121892659Y-73646212D01*
X121004669Y-72758222D01*
X121086711Y-72695269D01*
X121295269Y-72486711D01*
X121358222Y-72404669D01*
X122246212Y-73292659D01*
X122246213Y-73292659D01*
X122414612Y-73087466D01*
X122414622Y-73087453D01*
X122605666Y-72801536D01*
X122605677Y-72801518D01*
X122767773Y-72498255D01*
X122767780Y-72498241D01*
X122899376Y-72180540D01*
X122999207Y-71851443D01*
X122999208Y-71851437D01*
X123066291Y-71514182D01*
X123066294Y-71514165D01*
X123100000Y-71171940D01*
X123100000Y-70828059D01*
X123066294Y-70485834D01*
X123066291Y-70485817D01*
X122999208Y-70148562D01*
X122999207Y-70148556D01*
X122899376Y-69819459D01*
X122767780Y-69501758D01*
X122767773Y-69501744D01*
X122605677Y-69198481D01*
X122605666Y-69198463D01*
X122414622Y-68912546D01*
X122414612Y-68912533D01*
X122246213Y-68707339D01*
X122246212Y-68707338D01*
X121358221Y-69595329D01*
X121295269Y-69513289D01*
X121086711Y-69304731D01*
X121004668Y-69241777D01*
X121892660Y-68353786D01*
X121892659Y-68353785D01*
X121687467Y-68185387D01*
X121687453Y-68185377D01*
X121401536Y-67994333D01*
X121401518Y-67994322D01*
X121098255Y-67832226D01*
X121098241Y-67832219D01*
X120780540Y-67700623D01*
X120451443Y-67600792D01*
X120451437Y-67600791D01*
X120114182Y-67533708D01*
X120114165Y-67533705D01*
X119771941Y-67500000D01*
X119428059Y-67500000D01*
X119085834Y-67533705D01*
X119085817Y-67533708D01*
X118748562Y-67600791D01*
X118748556Y-67600792D01*
X118419459Y-67700623D01*
X118101758Y-67832219D01*
X118101744Y-67832226D01*
X117798481Y-67994322D01*
X117798463Y-67994333D01*
X117512546Y-68185377D01*
X117512532Y-68185387D01*
X117307338Y-68353786D01*
X118195330Y-69241778D01*
X118113289Y-69304731D01*
X117904731Y-69513289D01*
X117841778Y-69595330D01*
X116953786Y-68707338D01*
X116785387Y-68912532D01*
X116785377Y-68912546D01*
X116594333Y-69198463D01*
X116594322Y-69198481D01*
X116432226Y-69501744D01*
X116432219Y-69501758D01*
X116300623Y-69819459D01*
X116200792Y-70148556D01*
X116200791Y-70148562D01*
X116146117Y-70423432D01*
X116113732Y-70485343D01*
X116053017Y-70519917D01*
X115983247Y-70516178D01*
X115926575Y-70475312D01*
X115900994Y-70410294D01*
X115900500Y-70399241D01*
X115900500Y-69428552D01*
X115885196Y-69214572D01*
X115824369Y-68934954D01*
X115724367Y-68666839D01*
X115724364Y-68666833D01*
X115612532Y-68462028D01*
X115587229Y-68415690D01*
X115587224Y-68415682D01*
X115415745Y-68186612D01*
X115415729Y-68186594D01*
X115213405Y-67984270D01*
X115213387Y-67984254D01*
X114984317Y-67812775D01*
X114984309Y-67812770D01*
X114733166Y-67675635D01*
X114733167Y-67675635D01*
X114532502Y-67600791D01*
X114465046Y-67575631D01*
X114465043Y-67575630D01*
X114465037Y-67575628D01*
X114185433Y-67514804D01*
X113971450Y-67499500D01*
X113971448Y-67499500D01*
X110828552Y-67499500D01*
X110828549Y-67499500D01*
X110614566Y-67514804D01*
X110334962Y-67575628D01*
X110066833Y-67675635D01*
X109815690Y-67812770D01*
X109815682Y-67812775D01*
X109586612Y-67984254D01*
X109586594Y-67984270D01*
X109384270Y-68186594D01*
X109384254Y-68186612D01*
X109212775Y-68415682D01*
X109212770Y-68415690D01*
X109075635Y-68666833D01*
X108975628Y-68934962D01*
X108914804Y-69214566D01*
X108899500Y-69428549D01*
X84961814Y-69428549D01*
X84671941Y-69400000D01*
X84328059Y-69400000D01*
X83985834Y-69433705D01*
X83985817Y-69433708D01*
X83648562Y-69500791D01*
X83648556Y-69500792D01*
X83319459Y-69600623D01*
X83001758Y-69732219D01*
X83001744Y-69732226D01*
X82698481Y-69894322D01*
X82698463Y-69894333D01*
X82412546Y-70085377D01*
X82412532Y-70085387D01*
X82207338Y-70253786D01*
X83095330Y-71141778D01*
X83013289Y-71204731D01*
X82804731Y-71413289D01*
X82741778Y-71495330D01*
X81853786Y-70607338D01*
X81685387Y-70812532D01*
X81685377Y-70812546D01*
X81494333Y-71098463D01*
X81494322Y-71098481D01*
X81332226Y-71401744D01*
X81332219Y-71401758D01*
X81200623Y-71719459D01*
X81100792Y-72048556D01*
X81100791Y-72048562D01*
X81033708Y-72385817D01*
X81033705Y-72385834D01*
X81000000Y-72728059D01*
X81000000Y-73071940D01*
X81033705Y-73414165D01*
X81033708Y-73414182D01*
X81100791Y-73751437D01*
X81100792Y-73751443D01*
X81200623Y-74080540D01*
X81332219Y-74398241D01*
X81332226Y-74398255D01*
X81494322Y-74701518D01*
X81494333Y-74701536D01*
X81685377Y-74987453D01*
X81685387Y-74987467D01*
X81853785Y-75192659D01*
X81853786Y-75192660D01*
X82741777Y-74304668D01*
X82804731Y-74386711D01*
X83013289Y-74595269D01*
X83095329Y-74658221D01*
X82207338Y-75546212D01*
X82207339Y-75546213D01*
X82412533Y-75714612D01*
X82412546Y-75714622D01*
X82698463Y-75905666D01*
X82698481Y-75905677D01*
X83001744Y-76067773D01*
X83001758Y-76067780D01*
X83319459Y-76199376D01*
X83648556Y-76299207D01*
X83648562Y-76299208D01*
X83923433Y-76353883D01*
X83985344Y-76386267D01*
X84019918Y-76446983D01*
X84016179Y-76516753D01*
X83975313Y-76573425D01*
X83910295Y-76599006D01*
X83899242Y-76599500D01*
X82928549Y-76599500D01*
X82714566Y-76614804D01*
X82434962Y-76675628D01*
X82166833Y-76775635D01*
X81915690Y-76912770D01*
X81915682Y-76912775D01*
X81686612Y-77084254D01*
X81686594Y-77084270D01*
X81484270Y-77286594D01*
X81484254Y-77286612D01*
X81312775Y-77515682D01*
X81312770Y-77515690D01*
X81175635Y-77766833D01*
X81075628Y-78034962D01*
X81014804Y-78314566D01*
X80999500Y-78528549D01*
X71000500Y-78528549D01*
X71000500Y-54370097D01*
X160849500Y-54370097D01*
X160849500Y-54629902D01*
X160890140Y-54886493D01*
X160970422Y-55133576D01*
X161051534Y-55292764D01*
X161088366Y-55365051D01*
X161241069Y-55575229D01*
X161424771Y-55758931D01*
X161634949Y-55911634D01*
X161782445Y-55986787D01*
X161866423Y-56029577D01*
X161866425Y-56029577D01*
X161866428Y-56029579D01*
X162113507Y-56109860D01*
X162245706Y-56130797D01*
X162370098Y-56150500D01*
X162370103Y-56150500D01*
X171629902Y-56150500D01*
X171743298Y-56132539D01*
X171886493Y-56109860D01*
X172133572Y-56029579D01*
X172365051Y-55911634D01*
X172575229Y-55758931D01*
X172758931Y-55575229D01*
X172911634Y-55365051D01*
X173029579Y-55133572D01*
X173109860Y-54886493D01*
X173132539Y-54743298D01*
X173150500Y-54629902D01*
X173150500Y-54370097D01*
X173128947Y-54234021D01*
X173109860Y-54113507D01*
X173029579Y-53866428D01*
X173029577Y-53866425D01*
X173029577Y-53866423D01*
X172986787Y-53782445D01*
X172911634Y-53634949D01*
X172758931Y-53424771D01*
X172575229Y-53241069D01*
X172365051Y-53088366D01*
X172292764Y-53051534D01*
X172133576Y-52970422D01*
X171886493Y-52890140D01*
X171629902Y-52849500D01*
X171629897Y-52849500D01*
X162370103Y-52849500D01*
X162370098Y-52849500D01*
X162113506Y-52890140D01*
X161866423Y-52970422D01*
X161634945Y-53088368D01*
X161424774Y-53241066D01*
X161424768Y-53241071D01*
X161241071Y-53424768D01*
X161241066Y-53424774D01*
X161088368Y-53634945D01*
X160970422Y-53866423D01*
X160890140Y-54113506D01*
X160849500Y-54370097D01*
X71000500Y-54370097D01*
X71000500Y-45928549D01*
X108999500Y-45928549D01*
X108999500Y-49071450D01*
X109014804Y-49285433D01*
X109075628Y-49565037D01*
X109075630Y-49565043D01*
X109075631Y-49565046D01*
X109160527Y-49792660D01*
X109175635Y-49833166D01*
X109312770Y-50084309D01*
X109312775Y-50084317D01*
X109484254Y-50313387D01*
X109484270Y-50313405D01*
X109686594Y-50515729D01*
X109686612Y-50515745D01*
X109915682Y-50687224D01*
X109915690Y-50687229D01*
X110166833Y-50824364D01*
X110166832Y-50824364D01*
X110166836Y-50824365D01*
X110166839Y-50824367D01*
X110434954Y-50924369D01*
X110434960Y-50924370D01*
X110434962Y-50924371D01*
X110714566Y-50985195D01*
X110714568Y-50985195D01*
X110714572Y-50985196D01*
X110928552Y-51000500D01*
X114071448Y-51000500D01*
X114285428Y-50985196D01*
X114372320Y-50966294D01*
X114565037Y-50924371D01*
X114565037Y-50924370D01*
X114565046Y-50924369D01*
X114833161Y-50824367D01*
X115084315Y-50687226D01*
X115313395Y-50515739D01*
X115515739Y-50313395D01*
X115687226Y-50084315D01*
X115687230Y-50084309D01*
X115712532Y-50037971D01*
X115824364Y-49833166D01*
X115824367Y-49833161D01*
X115924369Y-49565046D01*
X115985196Y-49285428D01*
X116000500Y-49071448D01*
X116000500Y-48100758D01*
X116020185Y-48033719D01*
X116072989Y-47987964D01*
X116142147Y-47978020D01*
X116205703Y-48007045D01*
X116243477Y-48065823D01*
X116246117Y-48076567D01*
X116300791Y-48351437D01*
X116300792Y-48351443D01*
X116400623Y-48680540D01*
X116532219Y-48998241D01*
X116532226Y-48998255D01*
X116694322Y-49301518D01*
X116694333Y-49301536D01*
X116885377Y-49587453D01*
X116885387Y-49587467D01*
X117053785Y-49792659D01*
X117053786Y-49792660D01*
X117941777Y-48904668D01*
X118004731Y-48986711D01*
X118213289Y-49195269D01*
X118295329Y-49258221D01*
X117407338Y-50146212D01*
X117407339Y-50146213D01*
X117612533Y-50314612D01*
X117612546Y-50314622D01*
X117898463Y-50505666D01*
X117898481Y-50505677D01*
X118201744Y-50667773D01*
X118201758Y-50667780D01*
X118519459Y-50799376D01*
X118848556Y-50899207D01*
X118848562Y-50899208D01*
X119185817Y-50966291D01*
X119185834Y-50966294D01*
X119528059Y-51000000D01*
X119871941Y-51000000D01*
X120214165Y-50966294D01*
X120214182Y-50966291D01*
X120551437Y-50899208D01*
X120551443Y-50899207D01*
X120880540Y-50799376D01*
X121198241Y-50667780D01*
X121198255Y-50667773D01*
X121501518Y-50505677D01*
X121501536Y-50505666D01*
X121787453Y-50314622D01*
X121787466Y-50314612D01*
X121992659Y-50146213D01*
X121992659Y-50146212D01*
X121104669Y-49258222D01*
X121186711Y-49195269D01*
X121395269Y-48986711D01*
X121458222Y-48904669D01*
X122346212Y-49792659D01*
X122346213Y-49792659D01*
X122514612Y-49587466D01*
X122514622Y-49587453D01*
X122705666Y-49301536D01*
X122705677Y-49301518D01*
X122867773Y-48998255D01*
X122867780Y-48998241D01*
X122999376Y-48680540D01*
X123099207Y-48351443D01*
X123099208Y-48351437D01*
X123166291Y-48014182D01*
X123166294Y-48014165D01*
X123200000Y-47671940D01*
X123200000Y-47328059D01*
X123166294Y-46985834D01*
X123166291Y-46985817D01*
X123099208Y-46648562D01*
X123099207Y-46648556D01*
X122999376Y-46319459D01*
X122867780Y-46001758D01*
X122867773Y-46001744D01*
X122705677Y-45698481D01*
X122705666Y-45698463D01*
X122514622Y-45412546D01*
X122514612Y-45412533D01*
X122346213Y-45207339D01*
X122346212Y-45207338D01*
X121458221Y-46095329D01*
X121395269Y-46013289D01*
X121186711Y-45804731D01*
X121104668Y-45741777D01*
X121992660Y-44853786D01*
X121992659Y-44853785D01*
X121787467Y-44685387D01*
X121787453Y-44685377D01*
X121501536Y-44494333D01*
X121501518Y-44494322D01*
X121198255Y-44332226D01*
X121198241Y-44332219D01*
X120880540Y-44200623D01*
X120551443Y-44100792D01*
X120551437Y-44100791D01*
X120214182Y-44033708D01*
X120214165Y-44033705D01*
X119871941Y-44000000D01*
X119528059Y-44000000D01*
X119185834Y-44033705D01*
X119185817Y-44033708D01*
X118848562Y-44100791D01*
X118848556Y-44100792D01*
X118519459Y-44200623D01*
X118201758Y-44332219D01*
X118201744Y-44332226D01*
X117898481Y-44494322D01*
X117898463Y-44494333D01*
X117612546Y-44685377D01*
X117612532Y-44685387D01*
X117407338Y-44853786D01*
X118295330Y-45741778D01*
X118213289Y-45804731D01*
X118004731Y-46013289D01*
X117941778Y-46095330D01*
X117053786Y-45207338D01*
X116885387Y-45412532D01*
X116885377Y-45412546D01*
X116694333Y-45698463D01*
X116694322Y-45698481D01*
X116532226Y-46001744D01*
X116532219Y-46001758D01*
X116400623Y-46319459D01*
X116300792Y-46648556D01*
X116300791Y-46648562D01*
X116246117Y-46923432D01*
X116213732Y-46985343D01*
X116153017Y-47019917D01*
X116083247Y-47016178D01*
X116026575Y-46975312D01*
X116000994Y-46910294D01*
X116000500Y-46899241D01*
X116000500Y-45928552D01*
X115985196Y-45714572D01*
X115924369Y-45434954D01*
X115824367Y-45166839D01*
X115824364Y-45166833D01*
X115712532Y-44962028D01*
X115687229Y-44915690D01*
X115687224Y-44915682D01*
X115515745Y-44686612D01*
X115515729Y-44686594D01*
X115313405Y-44484270D01*
X115313387Y-44484254D01*
X115084317Y-44312775D01*
X115084309Y-44312770D01*
X114833166Y-44175635D01*
X114833167Y-44175635D01*
X114631722Y-44100500D01*
X114565046Y-44075631D01*
X114565043Y-44075630D01*
X114565037Y-44075628D01*
X114285433Y-44014804D01*
X114071450Y-43999500D01*
X114071448Y-43999500D01*
X110928552Y-43999500D01*
X110928549Y-43999500D01*
X110714566Y-44014804D01*
X110434962Y-44075628D01*
X110166833Y-44175635D01*
X109915690Y-44312770D01*
X109915682Y-44312775D01*
X109686612Y-44484254D01*
X109686594Y-44484270D01*
X109484270Y-44686594D01*
X109484254Y-44686612D01*
X109312775Y-44915682D01*
X109312770Y-44915690D01*
X109175635Y-45166833D01*
X109075628Y-45434962D01*
X109014804Y-45714566D01*
X108999500Y-45928549D01*
X71000500Y-45928549D01*
X71000500Y-39028549D01*
X80999500Y-39028549D01*
X80999500Y-42171450D01*
X81014804Y-42385433D01*
X81075628Y-42665037D01*
X81175635Y-42933166D01*
X81312770Y-43184309D01*
X81312775Y-43184317D01*
X81484254Y-43413387D01*
X81484270Y-43413405D01*
X81686594Y-43615729D01*
X81686612Y-43615745D01*
X81915682Y-43787224D01*
X81915690Y-43787229D01*
X82166833Y-43924364D01*
X82166832Y-43924364D01*
X82166836Y-43924365D01*
X82166839Y-43924367D01*
X82434954Y-44024369D01*
X82434960Y-44024370D01*
X82434962Y-44024371D01*
X82714566Y-44085195D01*
X82714568Y-44085195D01*
X82714572Y-44085196D01*
X82928552Y-44100500D01*
X86071448Y-44100500D01*
X86285428Y-44085196D01*
X86565046Y-44024369D01*
X86833161Y-43924367D01*
X87084315Y-43787226D01*
X87313395Y-43615739D01*
X87515739Y-43413395D01*
X87687226Y-43184315D01*
X87824367Y-42933161D01*
X87924369Y-42665046D01*
X87985196Y-42385428D01*
X88000500Y-42171448D01*
X88000500Y-39028552D01*
X87985196Y-38814572D01*
X87924369Y-38534954D01*
X87824367Y-38266839D01*
X87687226Y-38015685D01*
X87687224Y-38015682D01*
X87515745Y-37786612D01*
X87515729Y-37786594D01*
X87313405Y-37584270D01*
X87313387Y-37584254D01*
X87084317Y-37412775D01*
X87084309Y-37412770D01*
X86833166Y-37275635D01*
X86833167Y-37275635D01*
X86725915Y-37235632D01*
X86565046Y-37175631D01*
X86565043Y-37175630D01*
X86565037Y-37175628D01*
X86285433Y-37114804D01*
X86071450Y-37099500D01*
X86071448Y-37099500D01*
X85100758Y-37099500D01*
X85033719Y-37079815D01*
X84987964Y-37027011D01*
X84978020Y-36957853D01*
X85007045Y-36894297D01*
X85065823Y-36856523D01*
X85076567Y-36853883D01*
X85351437Y-36799208D01*
X85351443Y-36799207D01*
X85680540Y-36699376D01*
X85998241Y-36567780D01*
X85998255Y-36567773D01*
X86301518Y-36405677D01*
X86301536Y-36405666D01*
X86587453Y-36214622D01*
X86587466Y-36214612D01*
X86792659Y-36046213D01*
X86792659Y-36046212D01*
X85904669Y-35158222D01*
X85986711Y-35095269D01*
X86195269Y-34886711D01*
X86258222Y-34804669D01*
X87146212Y-35692659D01*
X87146213Y-35692659D01*
X87314612Y-35487466D01*
X87314622Y-35487453D01*
X87505666Y-35201536D01*
X87505677Y-35201518D01*
X87667773Y-34898255D01*
X87667780Y-34898241D01*
X87799376Y-34580540D01*
X87899207Y-34251443D01*
X87899208Y-34251437D01*
X87966291Y-33914182D01*
X87966294Y-33914165D01*
X88000000Y-33571940D01*
X88000000Y-33228059D01*
X87966294Y-32885834D01*
X87966291Y-32885817D01*
X87899208Y-32548562D01*
X87899207Y-32548556D01*
X87799376Y-32219459D01*
X87667780Y-31901758D01*
X87667773Y-31901744D01*
X87505677Y-31598481D01*
X87505666Y-31598463D01*
X87314622Y-31312546D01*
X87314612Y-31312533D01*
X87146213Y-31107339D01*
X87146212Y-31107338D01*
X86258221Y-31995329D01*
X86195269Y-31913289D01*
X85986711Y-31704731D01*
X85904668Y-31641777D01*
X86792660Y-30753786D01*
X86792659Y-30753785D01*
X86587467Y-30585387D01*
X86587453Y-30585377D01*
X86301536Y-30394333D01*
X86301518Y-30394322D01*
X85998255Y-30232226D01*
X85998241Y-30232219D01*
X85680540Y-30100623D01*
X85351443Y-30000792D01*
X85351437Y-30000791D01*
X85014182Y-29933708D01*
X85014165Y-29933705D01*
X84671941Y-29900000D01*
X84328059Y-29900000D01*
X83985834Y-29933705D01*
X83985817Y-29933708D01*
X83648562Y-30000791D01*
X83648556Y-30000792D01*
X83319459Y-30100623D01*
X83001758Y-30232219D01*
X83001744Y-30232226D01*
X82698481Y-30394322D01*
X82698463Y-30394333D01*
X82412546Y-30585377D01*
X82412532Y-30585387D01*
X82207338Y-30753786D01*
X83095330Y-31641778D01*
X83013289Y-31704731D01*
X82804731Y-31913289D01*
X82741778Y-31995330D01*
X81853786Y-31107338D01*
X81685387Y-31312532D01*
X81685377Y-31312546D01*
X81494333Y-31598463D01*
X81494322Y-31598481D01*
X81332226Y-31901744D01*
X81332219Y-31901758D01*
X81200623Y-32219459D01*
X81100792Y-32548556D01*
X81100791Y-32548562D01*
X81033708Y-32885817D01*
X81033705Y-32885834D01*
X81000000Y-33228059D01*
X81000000Y-33571940D01*
X81033705Y-33914165D01*
X81033708Y-33914182D01*
X81100791Y-34251437D01*
X81100792Y-34251443D01*
X81200623Y-34580540D01*
X81332219Y-34898241D01*
X81332226Y-34898255D01*
X81494322Y-35201518D01*
X81494333Y-35201536D01*
X81685377Y-35487453D01*
X81685387Y-35487467D01*
X81853785Y-35692659D01*
X81853786Y-35692660D01*
X82741777Y-34804668D01*
X82804731Y-34886711D01*
X83013289Y-35095269D01*
X83095329Y-35158221D01*
X82207338Y-36046212D01*
X82207339Y-36046213D01*
X82412533Y-36214612D01*
X82412546Y-36214622D01*
X82698463Y-36405666D01*
X82698481Y-36405677D01*
X83001744Y-36567773D01*
X83001758Y-36567780D01*
X83319459Y-36699376D01*
X83648556Y-36799207D01*
X83648562Y-36799208D01*
X83923433Y-36853883D01*
X83985344Y-36886267D01*
X84019918Y-36946983D01*
X84016179Y-37016753D01*
X83975313Y-37073425D01*
X83910295Y-37099006D01*
X83899242Y-37099500D01*
X82928549Y-37099500D01*
X82714566Y-37114804D01*
X82434962Y-37175628D01*
X82166833Y-37275635D01*
X81915690Y-37412770D01*
X81915682Y-37412775D01*
X81686612Y-37584254D01*
X81686594Y-37584270D01*
X81484270Y-37786594D01*
X81484254Y-37786612D01*
X81312775Y-38015682D01*
X81312770Y-38015690D01*
X81175635Y-38266833D01*
X81075628Y-38534962D01*
X81014804Y-38814566D01*
X80999500Y-39028549D01*
X71000500Y-39028549D01*
X71000500Y-28428549D01*
X108999500Y-28428549D01*
X108999500Y-31571450D01*
X109014804Y-31785433D01*
X109075628Y-32065037D01*
X109075630Y-32065043D01*
X109075631Y-32065046D01*
X109160527Y-32292660D01*
X109175635Y-32333166D01*
X109312770Y-32584309D01*
X109312775Y-32584317D01*
X109484254Y-32813387D01*
X109484270Y-32813405D01*
X109686594Y-33015729D01*
X109686612Y-33015745D01*
X109915682Y-33187224D01*
X109915690Y-33187229D01*
X110166833Y-33324364D01*
X110166832Y-33324364D01*
X110166836Y-33324365D01*
X110166839Y-33324367D01*
X110434954Y-33424369D01*
X110434960Y-33424370D01*
X110434962Y-33424371D01*
X110714566Y-33485195D01*
X110714568Y-33485195D01*
X110714572Y-33485196D01*
X110928552Y-33500500D01*
X114071448Y-33500500D01*
X114285428Y-33485196D01*
X114372320Y-33466294D01*
X114565037Y-33424371D01*
X114565037Y-33424370D01*
X114565046Y-33424369D01*
X114833161Y-33324367D01*
X115084315Y-33187226D01*
X115313395Y-33015739D01*
X115515739Y-32813395D01*
X115687226Y-32584315D01*
X115687230Y-32584309D01*
X115712532Y-32537971D01*
X115824364Y-32333166D01*
X115824367Y-32333161D01*
X115924369Y-32065046D01*
X115985196Y-31785428D01*
X116000500Y-31571448D01*
X116000500Y-30600758D01*
X116020185Y-30533719D01*
X116072989Y-30487964D01*
X116142147Y-30478020D01*
X116205703Y-30507045D01*
X116243477Y-30565823D01*
X116246117Y-30576567D01*
X116300791Y-30851437D01*
X116300792Y-30851443D01*
X116400623Y-31180540D01*
X116532219Y-31498241D01*
X116532226Y-31498255D01*
X116694322Y-31801518D01*
X116694333Y-31801536D01*
X116885377Y-32087453D01*
X116885387Y-32087467D01*
X117053785Y-32292659D01*
X117053786Y-32292660D01*
X117941777Y-31404668D01*
X118004731Y-31486711D01*
X118213289Y-31695269D01*
X118295329Y-31758221D01*
X117407338Y-32646212D01*
X117407339Y-32646213D01*
X117612533Y-32814612D01*
X117612546Y-32814622D01*
X117898463Y-33005666D01*
X117898481Y-33005677D01*
X118201744Y-33167773D01*
X118201758Y-33167780D01*
X118519459Y-33299376D01*
X118848556Y-33399207D01*
X118848562Y-33399208D01*
X119185817Y-33466291D01*
X119185834Y-33466294D01*
X119528059Y-33500000D01*
X119871941Y-33500000D01*
X120214165Y-33466294D01*
X120214182Y-33466291D01*
X120551437Y-33399208D01*
X120551443Y-33399207D01*
X120880540Y-33299376D01*
X121198241Y-33167780D01*
X121198255Y-33167773D01*
X121501518Y-33005677D01*
X121501536Y-33005666D01*
X121787453Y-32814622D01*
X121787466Y-32814612D01*
X121992659Y-32646213D01*
X121992659Y-32646212D01*
X121104669Y-31758222D01*
X121186711Y-31695269D01*
X121395269Y-31486711D01*
X121458222Y-31404669D01*
X122346212Y-32292659D01*
X122346213Y-32292659D01*
X122514612Y-32087466D01*
X122514622Y-32087453D01*
X122705666Y-31801536D01*
X122705677Y-31801518D01*
X122867773Y-31498255D01*
X122867780Y-31498241D01*
X122999376Y-31180540D01*
X123099207Y-30851443D01*
X123099208Y-30851437D01*
X123166291Y-30514182D01*
X123166294Y-30514165D01*
X123200000Y-30171940D01*
X123200000Y-29828059D01*
X123166294Y-29485834D01*
X123166291Y-29485817D01*
X123099208Y-29148562D01*
X123099207Y-29148556D01*
X122999376Y-28819459D01*
X122867780Y-28501758D01*
X122867773Y-28501744D01*
X122705677Y-28198481D01*
X122705666Y-28198463D01*
X122514622Y-27912546D01*
X122514612Y-27912533D01*
X122346213Y-27707339D01*
X122346212Y-27707338D01*
X121458221Y-28595329D01*
X121395269Y-28513289D01*
X121186711Y-28304731D01*
X121104668Y-28241777D01*
X121992660Y-27353786D01*
X121992659Y-27353785D01*
X121787467Y-27185387D01*
X121787453Y-27185377D01*
X121501536Y-26994333D01*
X121501518Y-26994322D01*
X121198255Y-26832226D01*
X121198241Y-26832219D01*
X120880540Y-26700623D01*
X120551443Y-26600792D01*
X120551437Y-26600791D01*
X120214182Y-26533708D01*
X120214165Y-26533705D01*
X119871941Y-26500000D01*
X119528059Y-26500000D01*
X119185834Y-26533705D01*
X119185817Y-26533708D01*
X118848562Y-26600791D01*
X118848556Y-26600792D01*
X118519459Y-26700623D01*
X118201758Y-26832219D01*
X118201744Y-26832226D01*
X117898481Y-26994322D01*
X117898463Y-26994333D01*
X117612546Y-27185377D01*
X117612532Y-27185387D01*
X117407338Y-27353786D01*
X118295330Y-28241778D01*
X118213289Y-28304731D01*
X118004731Y-28513289D01*
X117941778Y-28595330D01*
X117053786Y-27707338D01*
X116885387Y-27912532D01*
X116885377Y-27912546D01*
X116694333Y-28198463D01*
X116694322Y-28198481D01*
X116532226Y-28501744D01*
X116532219Y-28501758D01*
X116400623Y-28819459D01*
X116300792Y-29148556D01*
X116300791Y-29148562D01*
X116246117Y-29423432D01*
X116213732Y-29485343D01*
X116153017Y-29519917D01*
X116083247Y-29516178D01*
X116026575Y-29475312D01*
X116000994Y-29410294D01*
X116000500Y-29399241D01*
X116000500Y-28428552D01*
X115985196Y-28214572D01*
X115924369Y-27934954D01*
X115824367Y-27666839D01*
X115824364Y-27666833D01*
X115712532Y-27462028D01*
X115687229Y-27415690D01*
X115687224Y-27415682D01*
X115515745Y-27186612D01*
X115515729Y-27186594D01*
X115313405Y-26984270D01*
X115313387Y-26984254D01*
X115084317Y-26812775D01*
X115084309Y-26812770D01*
X114833166Y-26675635D01*
X114833167Y-26675635D01*
X114632502Y-26600791D01*
X114565046Y-26575631D01*
X114565043Y-26575630D01*
X114565037Y-26575628D01*
X114285433Y-26514804D01*
X114071450Y-26499500D01*
X114071448Y-26499500D01*
X110928552Y-26499500D01*
X110928549Y-26499500D01*
X110714566Y-26514804D01*
X110434962Y-26575628D01*
X110166833Y-26675635D01*
X109915690Y-26812770D01*
X109915682Y-26812775D01*
X109686612Y-26984254D01*
X109686594Y-26984270D01*
X109484270Y-27186594D01*
X109484254Y-27186612D01*
X109312775Y-27415682D01*
X109312770Y-27415690D01*
X109175635Y-27666833D01*
X109075628Y-27934962D01*
X109014804Y-28214566D01*
X108999500Y-28428549D01*
X71000500Y-28428549D01*
X71000500Y-18399983D01*
X89399500Y-18399983D01*
X89399500Y-20000001D01*
X89399501Y-20000018D01*
X89410000Y-20102796D01*
X89410001Y-20102799D01*
X89444031Y-20205493D01*
X89465186Y-20269334D01*
X89557288Y-20418656D01*
X89681344Y-20542712D01*
X89830666Y-20634814D01*
X89997203Y-20689999D01*
X90099991Y-20700500D01*
X91400008Y-20700499D01*
X91502797Y-20689999D01*
X91669334Y-20634814D01*
X91818656Y-20542712D01*
X91942712Y-20418656D01*
X92034814Y-20269334D01*
X92034814Y-20269331D01*
X92038448Y-20263441D01*
X92090395Y-20216716D01*
X92159358Y-20205493D01*
X92223440Y-20233336D01*
X92231668Y-20240856D01*
X92370535Y-20379723D01*
X92370540Y-20379727D01*
X92542442Y-20504620D01*
X92731782Y-20601095D01*
X92933871Y-20666757D01*
X93000000Y-20677231D01*
X93000000Y-19633012D01*
X93057007Y-19665925D01*
X93184174Y-19700000D01*
X93315826Y-19700000D01*
X93442993Y-19665925D01*
X93500000Y-19633012D01*
X93500000Y-20677230D01*
X93566126Y-20666757D01*
X93566129Y-20666757D01*
X93768217Y-20601095D01*
X93957557Y-20504620D01*
X94129459Y-20379727D01*
X94129464Y-20379723D01*
X94279723Y-20229464D01*
X94279727Y-20229459D01*
X94404620Y-20057557D01*
X94501095Y-19868217D01*
X94566757Y-19666130D01*
X94566757Y-19666127D01*
X94600000Y-19456246D01*
X94600000Y-19450000D01*
X93683012Y-19450000D01*
X93715925Y-19392993D01*
X93750000Y-19265826D01*
X93750000Y-19134174D01*
X93715925Y-19007007D01*
X93683012Y-18950000D01*
X94600000Y-18950000D01*
X94600000Y-18943753D01*
X94566757Y-18733872D01*
X94566757Y-18733869D01*
X94501095Y-18531782D01*
X94461019Y-18453129D01*
X94433939Y-18399983D01*
X98399500Y-18399983D01*
X98399500Y-20000001D01*
X98399501Y-20000018D01*
X98410000Y-20102796D01*
X98410001Y-20102799D01*
X98444031Y-20205493D01*
X98465186Y-20269334D01*
X98557288Y-20418656D01*
X98681344Y-20542712D01*
X98830666Y-20634814D01*
X98997203Y-20689999D01*
X99099991Y-20700500D01*
X100400008Y-20700499D01*
X100502797Y-20689999D01*
X100669334Y-20634814D01*
X100818656Y-20542712D01*
X100942712Y-20418656D01*
X101034814Y-20269334D01*
X101034814Y-20269331D01*
X101038448Y-20263441D01*
X101090395Y-20216716D01*
X101159358Y-20205493D01*
X101223440Y-20233336D01*
X101231668Y-20240856D01*
X101370535Y-20379723D01*
X101370540Y-20379727D01*
X101542442Y-20504620D01*
X101731782Y-20601095D01*
X101933871Y-20666757D01*
X102000000Y-20677231D01*
X102000000Y-19633012D01*
X102057007Y-19665925D01*
X102184174Y-19700000D01*
X102315826Y-19700000D01*
X102442993Y-19665925D01*
X102500000Y-19633012D01*
X102500000Y-20677230D01*
X102566126Y-20666757D01*
X102566129Y-20666757D01*
X102768217Y-20601095D01*
X102957557Y-20504620D01*
X103129459Y-20379727D01*
X103129464Y-20379723D01*
X103279723Y-20229464D01*
X103279727Y-20229459D01*
X103404620Y-20057557D01*
X103501095Y-19868217D01*
X103566757Y-19666130D01*
X103566757Y-19666127D01*
X103600000Y-19456246D01*
X103600000Y-19450000D01*
X102683012Y-19450000D01*
X102715925Y-19392993D01*
X102750000Y-19265826D01*
X102750000Y-19134174D01*
X102715925Y-19007007D01*
X102683012Y-18950000D01*
X103600000Y-18950000D01*
X103600000Y-18943753D01*
X103566757Y-18733872D01*
X103566757Y-18733869D01*
X103501095Y-18531782D01*
X103461019Y-18453129D01*
X103433939Y-18399983D01*
X107399500Y-18399983D01*
X107399500Y-20000001D01*
X107399501Y-20000018D01*
X107410000Y-20102796D01*
X107410001Y-20102799D01*
X107444031Y-20205493D01*
X107465186Y-20269334D01*
X107557288Y-20418656D01*
X107681344Y-20542712D01*
X107830666Y-20634814D01*
X107997203Y-20689999D01*
X108099991Y-20700500D01*
X109400008Y-20700499D01*
X109502797Y-20689999D01*
X109669334Y-20634814D01*
X109818656Y-20542712D01*
X109942712Y-20418656D01*
X110034814Y-20269334D01*
X110034814Y-20269331D01*
X110038448Y-20263441D01*
X110090395Y-20216716D01*
X110159358Y-20205493D01*
X110223440Y-20233336D01*
X110231668Y-20240856D01*
X110370535Y-20379723D01*
X110370540Y-20379727D01*
X110542442Y-20504620D01*
X110731782Y-20601095D01*
X110933871Y-20666757D01*
X111000000Y-20677231D01*
X111000000Y-19633012D01*
X111057007Y-19665925D01*
X111184174Y-19700000D01*
X111315826Y-19700000D01*
X111442993Y-19665925D01*
X111500000Y-19633012D01*
X111500000Y-20677230D01*
X111566126Y-20666757D01*
X111566129Y-20666757D01*
X111768217Y-20601095D01*
X111957557Y-20504620D01*
X112129459Y-20379727D01*
X112129464Y-20379723D01*
X112279723Y-20229464D01*
X112279727Y-20229459D01*
X112404620Y-20057557D01*
X112501095Y-19868217D01*
X112566757Y-19666130D01*
X112566757Y-19666127D01*
X112600000Y-19456246D01*
X112600000Y-19450000D01*
X111683012Y-19450000D01*
X111715925Y-19392993D01*
X111750000Y-19265826D01*
X111750000Y-19134174D01*
X111715925Y-19007007D01*
X111683012Y-18950000D01*
X112600000Y-18950000D01*
X112600000Y-18943753D01*
X112566757Y-18733872D01*
X112566757Y-18733869D01*
X112501095Y-18531782D01*
X112461019Y-18453129D01*
X112433939Y-18399983D01*
X116399500Y-18399983D01*
X116399500Y-20000001D01*
X116399501Y-20000018D01*
X116410000Y-20102796D01*
X116410001Y-20102799D01*
X116444031Y-20205493D01*
X116465186Y-20269334D01*
X116557288Y-20418656D01*
X116681344Y-20542712D01*
X116830666Y-20634814D01*
X116997203Y-20689999D01*
X117099991Y-20700500D01*
X118400008Y-20700499D01*
X118502797Y-20689999D01*
X118669334Y-20634814D01*
X118818656Y-20542712D01*
X118942712Y-20418656D01*
X119034814Y-20269334D01*
X119034814Y-20269331D01*
X119038448Y-20263441D01*
X119090395Y-20216716D01*
X119159358Y-20205493D01*
X119223440Y-20233336D01*
X119231668Y-20240856D01*
X119370535Y-20379723D01*
X119370540Y-20379727D01*
X119542442Y-20504620D01*
X119731782Y-20601095D01*
X119933871Y-20666757D01*
X120000000Y-20677231D01*
X120000000Y-19633012D01*
X120057007Y-19665925D01*
X120184174Y-19700000D01*
X120315826Y-19700000D01*
X120442993Y-19665925D01*
X120500000Y-19633012D01*
X120500000Y-20677231D01*
X120566126Y-20666757D01*
X120566129Y-20666757D01*
X120768217Y-20601095D01*
X120957557Y-20504620D01*
X121129459Y-20379727D01*
X121129464Y-20379723D01*
X121279723Y-20229464D01*
X121279727Y-20229459D01*
X121404620Y-20057557D01*
X121501095Y-19868217D01*
X121566757Y-19666130D01*
X121566757Y-19666127D01*
X121600000Y-19456246D01*
X121600000Y-19450000D01*
X120683012Y-19450000D01*
X120715925Y-19392993D01*
X120750000Y-19265826D01*
X120750000Y-19134174D01*
X120715925Y-19007007D01*
X120683012Y-18950000D01*
X121600000Y-18950000D01*
X121600000Y-18943753D01*
X121566757Y-18733872D01*
X121566757Y-18733869D01*
X121501095Y-18531782D01*
X121461019Y-18453129D01*
X121433939Y-18399983D01*
X126399500Y-18399983D01*
X126399500Y-20000001D01*
X126399501Y-20000018D01*
X126410000Y-20102796D01*
X126410001Y-20102799D01*
X126444031Y-20205493D01*
X126465186Y-20269334D01*
X126557288Y-20418656D01*
X126681344Y-20542712D01*
X126830666Y-20634814D01*
X126997203Y-20689999D01*
X127099991Y-20700500D01*
X128400008Y-20700499D01*
X128502797Y-20689999D01*
X128669334Y-20634814D01*
X128818656Y-20542712D01*
X128942712Y-20418656D01*
X129034814Y-20269334D01*
X129034814Y-20269331D01*
X129038448Y-20263441D01*
X129090395Y-20216716D01*
X129159358Y-20205493D01*
X129223440Y-20233336D01*
X129231668Y-20240856D01*
X129370535Y-20379723D01*
X129370540Y-20379727D01*
X129542442Y-20504620D01*
X129731782Y-20601095D01*
X129933871Y-20666757D01*
X130000000Y-20677231D01*
X130000000Y-19633012D01*
X130057007Y-19665925D01*
X130184174Y-19700000D01*
X130315826Y-19700000D01*
X130442993Y-19665925D01*
X130500000Y-19633012D01*
X130500000Y-20677231D01*
X130566126Y-20666757D01*
X130566129Y-20666757D01*
X130768217Y-20601095D01*
X130957557Y-20504620D01*
X131129459Y-20379727D01*
X131129464Y-20379723D01*
X131279723Y-20229464D01*
X131279727Y-20229459D01*
X131404620Y-20057557D01*
X131501095Y-19868217D01*
X131566757Y-19666130D01*
X131566757Y-19666127D01*
X131600000Y-19456246D01*
X131600000Y-19450000D01*
X130683012Y-19450000D01*
X130715925Y-19392993D01*
X130750000Y-19265826D01*
X130750000Y-19134174D01*
X130715925Y-19007007D01*
X130683012Y-18950000D01*
X131600000Y-18950000D01*
X131600000Y-18943753D01*
X131566757Y-18733872D01*
X131566757Y-18733869D01*
X131501095Y-18531782D01*
X131461019Y-18453129D01*
X131433939Y-18399983D01*
X135399500Y-18399983D01*
X135399500Y-20000001D01*
X135399501Y-20000018D01*
X135410000Y-20102796D01*
X135410001Y-20102799D01*
X135444031Y-20205493D01*
X135465186Y-20269334D01*
X135557288Y-20418656D01*
X135681344Y-20542712D01*
X135830666Y-20634814D01*
X135997203Y-20689999D01*
X136099991Y-20700500D01*
X137400008Y-20700499D01*
X137502797Y-20689999D01*
X137669334Y-20634814D01*
X137818656Y-20542712D01*
X137942712Y-20418656D01*
X138034814Y-20269334D01*
X138034814Y-20269331D01*
X138038448Y-20263441D01*
X138090395Y-20216716D01*
X138159358Y-20205493D01*
X138223440Y-20233336D01*
X138231668Y-20240856D01*
X138370535Y-20379723D01*
X138370540Y-20379727D01*
X138542442Y-20504620D01*
X138731782Y-20601095D01*
X138933871Y-20666757D01*
X139000000Y-20677231D01*
X139000000Y-19633012D01*
X139057007Y-19665925D01*
X139184174Y-19700000D01*
X139315826Y-19700000D01*
X139442993Y-19665925D01*
X139500000Y-19633012D01*
X139500000Y-20677230D01*
X139566126Y-20666757D01*
X139566129Y-20666757D01*
X139768217Y-20601095D01*
X139957557Y-20504620D01*
X140129459Y-20379727D01*
X140129464Y-20379723D01*
X140279723Y-20229464D01*
X140279727Y-20229459D01*
X140404620Y-20057557D01*
X140501095Y-19868217D01*
X140566757Y-19666130D01*
X140566757Y-19666127D01*
X140600000Y-19456246D01*
X140600000Y-19450000D01*
X139683012Y-19450000D01*
X139715925Y-19392993D01*
X139750000Y-19265826D01*
X139750000Y-19134174D01*
X139715925Y-19007007D01*
X139683012Y-18950000D01*
X140600000Y-18950000D01*
X140600000Y-18943753D01*
X140566757Y-18733872D01*
X140566757Y-18733869D01*
X140501095Y-18531782D01*
X140461019Y-18453129D01*
X140433939Y-18399983D01*
X144399500Y-18399983D01*
X144399500Y-20000001D01*
X144399501Y-20000018D01*
X144410000Y-20102796D01*
X144410001Y-20102799D01*
X144444031Y-20205493D01*
X144465186Y-20269334D01*
X144557288Y-20418656D01*
X144681344Y-20542712D01*
X144830666Y-20634814D01*
X144997203Y-20689999D01*
X145099991Y-20700500D01*
X146400008Y-20700499D01*
X146502797Y-20689999D01*
X146669334Y-20634814D01*
X146818656Y-20542712D01*
X146942712Y-20418656D01*
X147034814Y-20269334D01*
X147034814Y-20269331D01*
X147038448Y-20263441D01*
X147090395Y-20216716D01*
X147159358Y-20205493D01*
X147223440Y-20233336D01*
X147231668Y-20240856D01*
X147370535Y-20379723D01*
X147370540Y-20379727D01*
X147542442Y-20504620D01*
X147731782Y-20601095D01*
X147933871Y-20666757D01*
X148000000Y-20677231D01*
X148000000Y-19633012D01*
X148057007Y-19665925D01*
X148184174Y-19700000D01*
X148315826Y-19700000D01*
X148442993Y-19665925D01*
X148500000Y-19633012D01*
X148500000Y-20677230D01*
X148566126Y-20666757D01*
X148566129Y-20666757D01*
X148768217Y-20601095D01*
X148957557Y-20504620D01*
X149129459Y-20379727D01*
X149129464Y-20379723D01*
X149279723Y-20229464D01*
X149279727Y-20229459D01*
X149404620Y-20057557D01*
X149501095Y-19868217D01*
X149566757Y-19666130D01*
X149566757Y-19666127D01*
X149600000Y-19456246D01*
X149600000Y-19450000D01*
X148683012Y-19450000D01*
X148715925Y-19392993D01*
X148750000Y-19265826D01*
X148750000Y-19134174D01*
X148715925Y-19007007D01*
X148683012Y-18950000D01*
X149600000Y-18950000D01*
X149600000Y-18943753D01*
X149566757Y-18733872D01*
X149566757Y-18733869D01*
X149501095Y-18531782D01*
X149461019Y-18453129D01*
X149433939Y-18399983D01*
X153399500Y-18399983D01*
X153399500Y-20000001D01*
X153399501Y-20000018D01*
X153410000Y-20102796D01*
X153410001Y-20102799D01*
X153444031Y-20205493D01*
X153465186Y-20269334D01*
X153557288Y-20418656D01*
X153681344Y-20542712D01*
X153830666Y-20634814D01*
X153997203Y-20689999D01*
X154099991Y-20700500D01*
X155400008Y-20700499D01*
X155502797Y-20689999D01*
X155669334Y-20634814D01*
X155818656Y-20542712D01*
X155942712Y-20418656D01*
X156034814Y-20269334D01*
X156034814Y-20269331D01*
X156038448Y-20263441D01*
X156090395Y-20216716D01*
X156159358Y-20205493D01*
X156223440Y-20233336D01*
X156231668Y-20240856D01*
X156370535Y-20379723D01*
X156370540Y-20379727D01*
X156542442Y-20504620D01*
X156731782Y-20601095D01*
X156933871Y-20666757D01*
X157000000Y-20677231D01*
X157000000Y-19633012D01*
X157057007Y-19665925D01*
X157184174Y-19700000D01*
X157315826Y-19700000D01*
X157442993Y-19665925D01*
X157500000Y-19633012D01*
X157500000Y-20677231D01*
X157566126Y-20666757D01*
X157566129Y-20666757D01*
X157768217Y-20601095D01*
X157957557Y-20504620D01*
X158129459Y-20379727D01*
X158129464Y-20379723D01*
X158279723Y-20229464D01*
X158279727Y-20229459D01*
X158404620Y-20057557D01*
X158501095Y-19868217D01*
X158566757Y-19666130D01*
X158566757Y-19666127D01*
X158600000Y-19456246D01*
X158600000Y-19450000D01*
X157683012Y-19450000D01*
X157715925Y-19392993D01*
X157750000Y-19265826D01*
X157750000Y-19134174D01*
X157715925Y-19007007D01*
X157683012Y-18950000D01*
X158600000Y-18950000D01*
X158600000Y-18943753D01*
X158566757Y-18733872D01*
X158566757Y-18733869D01*
X158501095Y-18531782D01*
X158404620Y-18342442D01*
X158279727Y-18170540D01*
X158279723Y-18170535D01*
X158129464Y-18020276D01*
X158129459Y-18020272D01*
X157957557Y-17895379D01*
X157768215Y-17798903D01*
X157566124Y-17733241D01*
X157500000Y-17722768D01*
X157500000Y-18766988D01*
X157442993Y-18734075D01*
X157315826Y-18700000D01*
X157184174Y-18700000D01*
X157057007Y-18734075D01*
X157000000Y-18766988D01*
X157000000Y-17722768D01*
X156999999Y-17722768D01*
X156933875Y-17733241D01*
X156731784Y-17798903D01*
X156542442Y-17895379D01*
X156370541Y-18020271D01*
X156231668Y-18159144D01*
X156170345Y-18192628D01*
X156100653Y-18187644D01*
X156044720Y-18145772D01*
X156038448Y-18136558D01*
X155942712Y-17981344D01*
X155818657Y-17857289D01*
X155818656Y-17857288D01*
X155669334Y-17765186D01*
X155502797Y-17710001D01*
X155502795Y-17710000D01*
X155400010Y-17699500D01*
X154099998Y-17699500D01*
X154099981Y-17699501D01*
X153997203Y-17710000D01*
X153997200Y-17710001D01*
X153830668Y-17765185D01*
X153830663Y-17765187D01*
X153681342Y-17857289D01*
X153557289Y-17981342D01*
X153465187Y-18130663D01*
X153465185Y-18130668D01*
X153460180Y-18145772D01*
X153410001Y-18297203D01*
X153410001Y-18297204D01*
X153410000Y-18297204D01*
X153399500Y-18399983D01*
X149433939Y-18399983D01*
X149404620Y-18342442D01*
X149279727Y-18170540D01*
X149279723Y-18170535D01*
X149129464Y-18020276D01*
X149129459Y-18020272D01*
X148957557Y-17895379D01*
X148768215Y-17798903D01*
X148566124Y-17733241D01*
X148500000Y-17722768D01*
X148500000Y-18766988D01*
X148442993Y-18734075D01*
X148315826Y-18700000D01*
X148184174Y-18700000D01*
X148057007Y-18734075D01*
X148000000Y-18766988D01*
X148000000Y-17722768D01*
X147999999Y-17722768D01*
X147933875Y-17733241D01*
X147731784Y-17798903D01*
X147542442Y-17895379D01*
X147370541Y-18020271D01*
X147231668Y-18159144D01*
X147170345Y-18192628D01*
X147100653Y-18187644D01*
X147044720Y-18145772D01*
X147038448Y-18136558D01*
X146942712Y-17981344D01*
X146818657Y-17857289D01*
X146818656Y-17857288D01*
X146669334Y-17765186D01*
X146502797Y-17710001D01*
X146502795Y-17710000D01*
X146400010Y-17699500D01*
X145099998Y-17699500D01*
X145099981Y-17699501D01*
X144997203Y-17710000D01*
X144997200Y-17710001D01*
X144830668Y-17765185D01*
X144830663Y-17765187D01*
X144681342Y-17857289D01*
X144557289Y-17981342D01*
X144465187Y-18130663D01*
X144465185Y-18130668D01*
X144460180Y-18145772D01*
X144410001Y-18297203D01*
X144410001Y-18297204D01*
X144410000Y-18297204D01*
X144399500Y-18399983D01*
X140433939Y-18399983D01*
X140404620Y-18342442D01*
X140279727Y-18170540D01*
X140279723Y-18170535D01*
X140129464Y-18020276D01*
X140129459Y-18020272D01*
X139957557Y-17895379D01*
X139768215Y-17798903D01*
X139566124Y-17733241D01*
X139500000Y-17722768D01*
X139500000Y-18766988D01*
X139442993Y-18734075D01*
X139315826Y-18700000D01*
X139184174Y-18700000D01*
X139057007Y-18734075D01*
X139000000Y-18766988D01*
X139000000Y-17722768D01*
X138999999Y-17722768D01*
X138933875Y-17733241D01*
X138731784Y-17798903D01*
X138542442Y-17895379D01*
X138370541Y-18020271D01*
X138231668Y-18159144D01*
X138170345Y-18192628D01*
X138100653Y-18187644D01*
X138044720Y-18145772D01*
X138038448Y-18136558D01*
X137942712Y-17981344D01*
X137818657Y-17857289D01*
X137818656Y-17857288D01*
X137669334Y-17765186D01*
X137502797Y-17710001D01*
X137502795Y-17710000D01*
X137400010Y-17699500D01*
X136099998Y-17699500D01*
X136099981Y-17699501D01*
X135997203Y-17710000D01*
X135997200Y-17710001D01*
X135830668Y-17765185D01*
X135830663Y-17765187D01*
X135681342Y-17857289D01*
X135557289Y-17981342D01*
X135465187Y-18130663D01*
X135465185Y-18130668D01*
X135460180Y-18145772D01*
X135410001Y-18297203D01*
X135410001Y-18297204D01*
X135410000Y-18297204D01*
X135399500Y-18399983D01*
X131433939Y-18399983D01*
X131404620Y-18342442D01*
X131279727Y-18170540D01*
X131279723Y-18170535D01*
X131129464Y-18020276D01*
X131129459Y-18020272D01*
X130957557Y-17895379D01*
X130768215Y-17798903D01*
X130566124Y-17733241D01*
X130500000Y-17722768D01*
X130500000Y-18766988D01*
X130442993Y-18734075D01*
X130315826Y-18700000D01*
X130184174Y-18700000D01*
X130057007Y-18734075D01*
X130000000Y-18766988D01*
X130000000Y-17722768D01*
X129999999Y-17722768D01*
X129933875Y-17733241D01*
X129731784Y-17798903D01*
X129542442Y-17895379D01*
X129370541Y-18020271D01*
X129231668Y-18159144D01*
X129170345Y-18192628D01*
X129100653Y-18187644D01*
X129044720Y-18145772D01*
X129038448Y-18136558D01*
X128942712Y-17981344D01*
X128818657Y-17857289D01*
X128818656Y-17857288D01*
X128669334Y-17765186D01*
X128502797Y-17710001D01*
X128502795Y-17710000D01*
X128400010Y-17699500D01*
X127099998Y-17699500D01*
X127099981Y-17699501D01*
X126997203Y-17710000D01*
X126997200Y-17710001D01*
X126830668Y-17765185D01*
X126830663Y-17765187D01*
X126681342Y-17857289D01*
X126557289Y-17981342D01*
X126465187Y-18130663D01*
X126465185Y-18130668D01*
X126460180Y-18145772D01*
X126410001Y-18297203D01*
X126410001Y-18297204D01*
X126410000Y-18297204D01*
X126399500Y-18399983D01*
X121433939Y-18399983D01*
X121404620Y-18342442D01*
X121279727Y-18170540D01*
X121279723Y-18170535D01*
X121129464Y-18020276D01*
X121129459Y-18020272D01*
X120957557Y-17895379D01*
X120768215Y-17798903D01*
X120566124Y-17733241D01*
X120500000Y-17722768D01*
X120500000Y-18766988D01*
X120442993Y-18734075D01*
X120315826Y-18700000D01*
X120184174Y-18700000D01*
X120057007Y-18734075D01*
X120000000Y-18766988D01*
X120000000Y-17722768D01*
X119999999Y-17722768D01*
X119933875Y-17733241D01*
X119731784Y-17798903D01*
X119542442Y-17895379D01*
X119370541Y-18020271D01*
X119231668Y-18159144D01*
X119170345Y-18192628D01*
X119100653Y-18187644D01*
X119044720Y-18145772D01*
X119038448Y-18136558D01*
X118942712Y-17981344D01*
X118818657Y-17857289D01*
X118818656Y-17857288D01*
X118669334Y-17765186D01*
X118502797Y-17710001D01*
X118502795Y-17710000D01*
X118400010Y-17699500D01*
X117099998Y-17699500D01*
X117099981Y-17699501D01*
X116997203Y-17710000D01*
X116997200Y-17710001D01*
X116830668Y-17765185D01*
X116830663Y-17765187D01*
X116681342Y-17857289D01*
X116557289Y-17981342D01*
X116465187Y-18130663D01*
X116465185Y-18130668D01*
X116460180Y-18145772D01*
X116410001Y-18297203D01*
X116410001Y-18297204D01*
X116410000Y-18297204D01*
X116399500Y-18399983D01*
X112433939Y-18399983D01*
X112404620Y-18342442D01*
X112279727Y-18170540D01*
X112279723Y-18170535D01*
X112129464Y-18020276D01*
X112129459Y-18020272D01*
X111957557Y-17895379D01*
X111768215Y-17798903D01*
X111566124Y-17733241D01*
X111500000Y-17722768D01*
X111500000Y-18766988D01*
X111442993Y-18734075D01*
X111315826Y-18700000D01*
X111184174Y-18700000D01*
X111057007Y-18734075D01*
X111000000Y-18766988D01*
X111000000Y-17722768D01*
X110999999Y-17722768D01*
X110933875Y-17733241D01*
X110731784Y-17798903D01*
X110542442Y-17895379D01*
X110370541Y-18020271D01*
X110231668Y-18159144D01*
X110170345Y-18192628D01*
X110100653Y-18187644D01*
X110044720Y-18145772D01*
X110038448Y-18136558D01*
X109942712Y-17981344D01*
X109818657Y-17857289D01*
X109818656Y-17857288D01*
X109669334Y-17765186D01*
X109502797Y-17710001D01*
X109502795Y-17710000D01*
X109400010Y-17699500D01*
X108099998Y-17699500D01*
X108099981Y-17699501D01*
X107997203Y-17710000D01*
X107997200Y-17710001D01*
X107830668Y-17765185D01*
X107830663Y-17765187D01*
X107681342Y-17857289D01*
X107557289Y-17981342D01*
X107465187Y-18130663D01*
X107465185Y-18130668D01*
X107460180Y-18145772D01*
X107410001Y-18297203D01*
X107410001Y-18297204D01*
X107410000Y-18297204D01*
X107399500Y-18399983D01*
X103433939Y-18399983D01*
X103404620Y-18342442D01*
X103279727Y-18170540D01*
X103279723Y-18170535D01*
X103129464Y-18020276D01*
X103129459Y-18020272D01*
X102957557Y-17895379D01*
X102768215Y-17798903D01*
X102566124Y-17733241D01*
X102500000Y-17722768D01*
X102500000Y-18766988D01*
X102442993Y-18734075D01*
X102315826Y-18700000D01*
X102184174Y-18700000D01*
X102057007Y-18734075D01*
X102000000Y-18766988D01*
X102000000Y-17722768D01*
X101999999Y-17722768D01*
X101933875Y-17733241D01*
X101731784Y-17798903D01*
X101542442Y-17895379D01*
X101370541Y-18020271D01*
X101231668Y-18159144D01*
X101170345Y-18192628D01*
X101100653Y-18187644D01*
X101044720Y-18145772D01*
X101038448Y-18136558D01*
X100942712Y-17981344D01*
X100818657Y-17857289D01*
X100818656Y-17857288D01*
X100669334Y-17765186D01*
X100502797Y-17710001D01*
X100502795Y-17710000D01*
X100400010Y-17699500D01*
X99099998Y-17699500D01*
X99099981Y-17699501D01*
X98997203Y-17710000D01*
X98997200Y-17710001D01*
X98830668Y-17765185D01*
X98830663Y-17765187D01*
X98681342Y-17857289D01*
X98557289Y-17981342D01*
X98465187Y-18130663D01*
X98465185Y-18130668D01*
X98460180Y-18145772D01*
X98410001Y-18297203D01*
X98410001Y-18297204D01*
X98410000Y-18297204D01*
X98399500Y-18399983D01*
X94433939Y-18399983D01*
X94404620Y-18342442D01*
X94279727Y-18170540D01*
X94279723Y-18170535D01*
X94129464Y-18020276D01*
X94129459Y-18020272D01*
X93957557Y-17895379D01*
X93768215Y-17798903D01*
X93566124Y-17733241D01*
X93500000Y-17722768D01*
X93500000Y-18766988D01*
X93442993Y-18734075D01*
X93315826Y-18700000D01*
X93184174Y-18700000D01*
X93057007Y-18734075D01*
X93000000Y-18766988D01*
X93000000Y-17722768D01*
X92999999Y-17722768D01*
X92933875Y-17733241D01*
X92731784Y-17798903D01*
X92542442Y-17895379D01*
X92370541Y-18020271D01*
X92231668Y-18159144D01*
X92170345Y-18192628D01*
X92100653Y-18187644D01*
X92044720Y-18145772D01*
X92038448Y-18136558D01*
X91942712Y-17981344D01*
X91818657Y-17857289D01*
X91818656Y-17857288D01*
X91669334Y-17765186D01*
X91502797Y-17710001D01*
X91502795Y-17710000D01*
X91400010Y-17699500D01*
X90099998Y-17699500D01*
X90099981Y-17699501D01*
X89997203Y-17710000D01*
X89997200Y-17710001D01*
X89830668Y-17765185D01*
X89830663Y-17765187D01*
X89681342Y-17857289D01*
X89557289Y-17981342D01*
X89465187Y-18130663D01*
X89465185Y-18130668D01*
X89460180Y-18145772D01*
X89410001Y-18297203D01*
X89410001Y-18297204D01*
X89410000Y-18297204D01*
X89399500Y-18399983D01*
X71000500Y-18399983D01*
X71000500Y-15124500D01*
X71020185Y-15057461D01*
X71072989Y-15011706D01*
X71124500Y-15000500D01*
X219875500Y-15000500D01*
X219942539Y-15020185D01*
G37*
%TD.AperFunction*%
%TD*%
M02*
