%TF.GenerationSoftware,KiCad,Pcbnew,9.0.2*%
%TF.CreationDate,2025-12-08T19:10:43+05:30*%
%TF.ProjectId,Kratos26,4b726174-6f73-4323-962e-6b696361645f,rev?*%
%TF.SameCoordinates,Original*%
%TF.FileFunction,Soldermask,Top*%
%TF.FilePolarity,Negative*%
%FSLAX46Y46*%
G04 Gerber Fmt 4.6, Leading zero omitted, Abs format (unit mm)*
G04 Created by KiCad (PCBNEW 9.0.2) date 2025-12-08 19:10:43*
%MOMM*%
%LPD*%
G01*
G04 APERTURE LIST*
G04 Aperture macros list*
%AMRoundRect*
0 Rectangle with rounded corners*
0 $1 Rounding radius*
0 $2 $3 $4 $5 $6 $7 $8 $9 X,Y pos of 4 corners*
0 Add a 4 corners polygon primitive as box body*
4,1,4,$2,$3,$4,$5,$6,$7,$8,$9,$2,$3,0*
0 Add four circle primitives for the rounded corners*
1,1,$1+$1,$2,$3*
1,1,$1+$1,$4,$5*
1,1,$1+$1,$6,$7*
1,1,$1+$1,$8,$9*
0 Add four rect primitives between the rounded corners*
20,1,$1+$1,$2,$3,$4,$5,0*
20,1,$1+$1,$4,$5,$6,$7,0*
20,1,$1+$1,$6,$7,$8,$9,0*
20,1,$1+$1,$8,$9,$2,$3,0*%
G04 Aperture macros list end*
%ADD10RoundRect,1.500000X-1.500000X-1.500000X1.500000X-1.500000X1.500000X1.500000X-1.500000X1.500000X0*%
%ADD11C,6.000000*%
%ADD12RoundRect,0.250000X-0.600000X-0.750000X0.600000X-0.750000X0.600000X0.750000X-0.600000X0.750000X0*%
%ADD13O,1.700000X2.000000*%
%ADD14R,2.000000X2.000000*%
%ADD15RoundRect,1.500000X1.500000X-1.500000X1.500000X1.500000X-1.500000X1.500000X-1.500000X-1.500000X0*%
%ADD16RoundRect,1.500000X1.500000X1.500000X-1.500000X1.500000X-1.500000X-1.500000X1.500000X-1.500000X0*%
G04 APERTURE END LIST*
D10*
%TO.C,REF\u002A\u002A*%
X113500000Y-129000000D03*
D11*
X120700000Y-129000000D03*
%TD*%
D10*
%TO.C,REF\u002A\u002A*%
X112900000Y-100000000D03*
D11*
X120100000Y-100000000D03*
%TD*%
D12*
%TO.C,REF\u002A\u002A*%
X154750000Y-19200000D03*
D13*
X157250000Y-19200000D03*
%TD*%
D12*
%TO.C,REF\u002A\u002A*%
X90750000Y-19200000D03*
D13*
X93250000Y-19200000D03*
%TD*%
D12*
%TO.C,REF\u002A\u002A*%
X117750000Y-19200000D03*
D13*
X120250000Y-19200000D03*
%TD*%
D14*
%TO.C,U*%
X217500000Y-68500000D03*
X217500000Y-47500000D03*
X166500000Y-68500000D03*
X166500000Y-47500000D03*
%TD*%
%TO.C,U*%
X217500000Y-93500000D03*
X217500000Y-72500000D03*
X166500000Y-93500000D03*
X166500000Y-72500000D03*
%TD*%
D12*
%TO.C,REF\u002A\u002A*%
X108750000Y-19200000D03*
D13*
X111250000Y-19200000D03*
%TD*%
D10*
%TO.C,REF\u002A\u002A*%
X112400000Y-71000000D03*
D11*
X119600000Y-71000000D03*
%TD*%
D15*
%TO.C,REF\u002A\u002A*%
X84500000Y-80100000D03*
D11*
X84500000Y-72900000D03*
%TD*%
D12*
%TO.C,REF\u002A\u002A*%
X99750000Y-19200000D03*
D13*
X102250000Y-19200000D03*
%TD*%
D14*
%TO.C,U*%
X141000000Y-109500000D03*
X162000000Y-109500000D03*
X141000000Y-58500000D03*
X162000000Y-58500000D03*
%TD*%
%TO.C,U*%
X217500000Y-119000000D03*
X217500000Y-98000000D03*
X166500000Y-119000000D03*
X166500000Y-98000000D03*
%TD*%
D12*
%TO.C,REF\u002A\u002A*%
X136750000Y-19200000D03*
D13*
X139250000Y-19200000D03*
%TD*%
D10*
%TO.C,REF\u002A\u002A*%
X112500000Y-30000000D03*
D11*
X119700000Y-30000000D03*
%TD*%
D15*
%TO.C,REF\u002A\u002A*%
X84000000Y-121600000D03*
D11*
X84000000Y-114400000D03*
%TD*%
D16*
%TO.C,REF\u002A\u002A*%
X147600000Y-155500000D03*
D11*
X140400000Y-155500000D03*
%TD*%
D14*
%TO.C,U*%
X217500000Y-144000000D03*
X217500000Y-123000000D03*
X166500000Y-144000000D03*
X166500000Y-123000000D03*
%TD*%
D12*
%TO.C,REF\u002A\u002A*%
X145750000Y-19200000D03*
D13*
X148250000Y-19200000D03*
%TD*%
D12*
%TO.C,REF\u002A\u002A*%
X127750000Y-19200000D03*
D13*
X130250000Y-19200000D03*
%TD*%
D10*
%TO.C,REF\u002A\u002A*%
X112500000Y-47500000D03*
D11*
X119700000Y-47500000D03*
%TD*%
D10*
%TO.C,REF\u002A\u002A*%
X113900000Y-147500000D03*
D11*
X121100000Y-147500000D03*
%TD*%
D14*
%TO.C,U*%
X217500000Y-43500000D03*
X217500000Y-22500000D03*
X166500000Y-43500000D03*
X166500000Y-22500000D03*
%TD*%
D10*
%TO.C,REF\u002A\u002A*%
X83900000Y-147500000D03*
D11*
X91100000Y-147500000D03*
%TD*%
D15*
%TO.C,REF\u002A\u002A*%
X84500000Y-40600000D03*
D11*
X84500000Y-33400000D03*
%TD*%
M02*
