M48
; DRILL file {KiCad 9.0.2} date 2025-12-08T19:10:54+0530
; FORMAT={-:-/ absolute / metric / decimal}
; #@! TF.CreationDate,2025-12-08T19:10:54+05:30
; #@! TF.GenerationSoftware,Kicad,Pcbnew,9.0.2
; #@! TF.FileFunction,Plated,1,2,PTH
FMAT,2
METRIC
; #@! TA.AperFunction,Plated,PTH,ViaDrill
T1C0.300
; #@! TA.AperFunction,Plated,PTH,ViaDrill
T2C1.000
; #@! TA.AperFunction,Plated,PTH,ComponentDrill
T3C1.000
; #@! TA.AperFunction,Plated,PTH,ViaDrill
T4C1.500
; #@! TA.AperFunction,Plated,PTH,ComponentDrill
T5C4.500
%
G90
G05
T1
X113.5Y-129.0
T2
X84.0Y-107.0
X84.5Y-25.5
X84.5Y-64.5
X86.0Y-19.0
X98.0Y-147.5
X126.5Y-30.0
X126.5Y-47.5
X127.5Y-147.5
X128.5Y-71.0
X128.5Y-100.0
X128.5Y-129.0
X133.0Y-155.5
X143.5Y-135.0
X153.5Y-136.0
X162.0Y-61.0
X162.0Y-107.0
X169.0Y-22.5
X169.0Y-47.5
X169.0Y-72.5
X169.0Y-98.0
X169.0Y-123.0
X215.0Y-22.5
X215.0Y-47.5
X215.0Y-98.0
X215.0Y-123.0
X217.5Y-75.0
T3
X90.75Y-19.2
X93.25Y-19.2
X99.75Y-19.2
X102.25Y-19.2
X108.75Y-19.2
X111.25Y-19.2
X117.75Y-19.2
X120.25Y-19.2
X127.75Y-19.2
X130.25Y-19.2
X136.75Y-19.2
X139.25Y-19.2
X145.75Y-19.2
X148.25Y-19.2
X154.75Y-19.2
X157.25Y-19.2
T4
X162.0Y-54.5
X171.0Y-54.5
T5
X83.9Y-147.5
X84.0Y-114.4
X84.0Y-121.6
X84.5Y-33.4
X84.5Y-40.6
X84.5Y-72.9
X84.5Y-80.1
X91.1Y-147.5
X112.4Y-71.0
X112.5Y-30.0
X112.5Y-47.5
X112.9Y-100.0
X113.5Y-129.0
X113.9Y-147.5
X119.6Y-71.0
X119.7Y-30.0
X119.7Y-47.5
X120.1Y-100.0
X120.7Y-129.0
X121.1Y-147.5
X140.4Y-155.5
X147.6Y-155.5
M30
