%TF.GenerationSoftware,KiCad,Pcbnew,9.0.2*%
%TF.CreationDate,2025-11-07T01:32:50+05:30*%
%TF.ProjectId,Kratos26,4b726174-6f73-4323-962e-6b696361645f,rev?*%
%TF.SameCoordinates,Original*%
%TF.FileFunction,Copper,L1,Top*%
%TF.FilePolarity,Positive*%
%FSLAX46Y46*%
G04 Gerber Fmt 4.6, Leading zero omitted, Abs format (unit mm)*
G04 Created by KiCad (PCBNEW 9.0.2) date 2025-11-07 01:32:50*
%MOMM*%
%LPD*%
G01*
G04 APERTURE LIST*
G04 Aperture macros list*
%AMRoundRect*
0 Rectangle with rounded corners*
0 $1 Rounding radius*
0 $2 $3 $4 $5 $6 $7 $8 $9 X,Y pos of 4 corners*
0 Add a 4 corners polygon primitive as box body*
4,1,4,$2,$3,$4,$5,$6,$7,$8,$9,$2,$3,0*
0 Add four circle primitives for the rounded corners*
1,1,$1+$1,$2,$3*
1,1,$1+$1,$4,$5*
1,1,$1+$1,$6,$7*
1,1,$1+$1,$8,$9*
0 Add four rect primitives between the rounded corners*
20,1,$1+$1,$2,$3,$4,$5,0*
20,1,$1+$1,$4,$5,$6,$7,0*
20,1,$1+$1,$6,$7,$8,$9,0*
20,1,$1+$1,$8,$9,$2,$3,0*%
G04 Aperture macros list end*
%TA.AperFunction,ComponentPad*%
%ADD10RoundRect,1.500000X-1.500000X-1.500000X1.500000X-1.500000X1.500000X1.500000X-1.500000X1.500000X0*%
%TD*%
%TA.AperFunction,ComponentPad*%
%ADD11C,6.000000*%
%TD*%
%TA.AperFunction,ComponentPad*%
%ADD12O,1.700000X2.000000*%
%TD*%
%TA.AperFunction,ComponentPad*%
%ADD13RoundRect,0.250000X-0.600000X-0.750000X0.600000X-0.750000X0.600000X0.750000X-0.600000X0.750000X0*%
%TD*%
%TA.AperFunction,SMDPad,CuDef*%
%ADD14R,2.000000X2.000000*%
%TD*%
%TA.AperFunction,ComponentPad*%
%ADD15RoundRect,1.500000X1.500000X-1.500000X1.500000X1.500000X-1.500000X1.500000X-1.500000X-1.500000X0*%
%TD*%
%TA.AperFunction,ComponentPad*%
%ADD16RoundRect,1.500000X1.500000X1.500000X-1.500000X1.500000X-1.500000X-1.500000X1.500000X-1.500000X0*%
%TD*%
%TA.AperFunction,ViaPad*%
%ADD17C,0.500000*%
%TD*%
%TA.AperFunction,ViaPad*%
%ADD18C,0.600000*%
%TD*%
%TA.AperFunction,Conductor*%
%ADD19C,2.300000*%
%TD*%
%TA.AperFunction,Conductor*%
%ADD20C,1.000000*%
%TD*%
%TA.AperFunction,Conductor*%
%ADD21C,0.200000*%
%TD*%
G04 APERTURE END LIST*
D10*
%TO.P,REF\u002A\u002A,1*%
%TO.N,N/C*%
X113900000Y-147500000D03*
D11*
%TO.P,REF\u002A\u002A,2*%
%TO.N,GND*%
X121100000Y-147500000D03*
%TD*%
D10*
%TO.P,REF\u002A\u002A,1*%
%TO.N,N/C*%
X83900000Y-147500000D03*
D11*
%TO.P,REF\u002A\u002A,2*%
%TO.N,GND*%
X91100000Y-147500000D03*
%TD*%
D12*
%TO.P,REF\u002A\u002A,2*%
%TO.N,GND*%
X93250000Y-19200000D03*
D13*
%TO.P,REF\u002A\u002A,1*%
%TO.N,N/C*%
X90750000Y-19200000D03*
%TD*%
D11*
%TO.P,REF\u002A\u002A,2*%
%TO.N,GND*%
X119700000Y-47500000D03*
D10*
%TO.P,REF\u002A\u002A,1*%
%TO.N,N/C*%
X112500000Y-47500000D03*
%TD*%
%TO.P,REF\u002A\u002A,1*%
%TO.N,N/C*%
X112500000Y-30000000D03*
D11*
%TO.P,REF\u002A\u002A,2*%
%TO.N,GND*%
X119700000Y-30000000D03*
%TD*%
D13*
%TO.P,REF\u002A\u002A,1*%
%TO.N,N/C*%
X154750000Y-19200000D03*
D12*
%TO.P,REF\u002A\u002A,2*%
%TO.N,GND*%
X157250000Y-19200000D03*
%TD*%
D13*
%TO.P,REF\u002A\u002A,1*%
%TO.N,N/C*%
X136750000Y-19200000D03*
D12*
%TO.P,REF\u002A\u002A,2*%
%TO.N,GND*%
X139250000Y-19200000D03*
%TD*%
D13*
%TO.P,REF\u002A\u002A,1*%
%TO.N,N/C*%
X127750000Y-19200000D03*
D12*
%TO.P,REF\u002A\u002A,2*%
%TO.N,GND*%
X130250000Y-19200000D03*
%TD*%
D13*
%TO.P,REF\u002A\u002A,1*%
%TO.N,N/C*%
X145750000Y-19200000D03*
D12*
%TO.P,REF\u002A\u002A,2*%
%TO.N,GND*%
X148250000Y-19200000D03*
%TD*%
D13*
%TO.P,REF\u002A\u002A,1*%
%TO.N,N/C*%
X117750000Y-19200000D03*
D12*
%TO.P,REF\u002A\u002A,2*%
%TO.N,GND*%
X120250000Y-19200000D03*
%TD*%
D13*
%TO.P,REF\u002A\u002A,1*%
%TO.N,N/C*%
X108750000Y-19200000D03*
D12*
%TO.P,REF\u002A\u002A,2*%
%TO.N,GND*%
X111250000Y-19200000D03*
%TD*%
D13*
%TO.P,REF\u002A\u002A,1*%
%TO.N,N/C*%
X99750000Y-19200000D03*
D12*
%TO.P,REF\u002A\u002A,2*%
%TO.N,GND*%
X102250000Y-19200000D03*
%TD*%
D10*
%TO.P,REF\u002A\u002A,1*%
%TO.N,N/C*%
X113500000Y-129000000D03*
D11*
%TO.P,REF\u002A\u002A,2*%
%TO.N,GND*%
X120700000Y-129000000D03*
%TD*%
D10*
%TO.P,REF\u002A\u002A,1*%
%TO.N,N/C*%
X112900000Y-100000000D03*
D11*
%TO.P,REF\u002A\u002A,2*%
%TO.N,GND*%
X120100000Y-100000000D03*
%TD*%
D14*
%TO.P,U,1*%
%TO.N,N/C*%
X217500000Y-68500000D03*
%TO.P,U,2*%
%TO.N,GND*%
X217500000Y-47500000D03*
%TO.P,U,3*%
%TO.N,N/C*%
X166500000Y-68500000D03*
%TO.P,U,4*%
%TO.N,GND*%
X166500000Y-47500000D03*
%TD*%
%TO.P,U,1*%
%TO.N,N/C*%
X217500000Y-93500000D03*
%TO.P,U,2*%
%TO.N,GND*%
X217500000Y-72500000D03*
%TO.P,U,3*%
%TO.N,N/C*%
X166500000Y-93500000D03*
%TO.P,U,4*%
%TO.N,GND*%
X166500000Y-72500000D03*
%TD*%
D10*
%TO.P,REF\u002A\u002A,1*%
%TO.N,N/C*%
X112400000Y-71000000D03*
D11*
%TO.P,REF\u002A\u002A,2*%
%TO.N,GND*%
X119600000Y-71000000D03*
%TD*%
D15*
%TO.P,REF\u002A\u002A,1*%
%TO.N,N/C*%
X84500000Y-80100000D03*
D11*
%TO.P,REF\u002A\u002A,2*%
%TO.N,GND*%
X84500000Y-72900000D03*
%TD*%
D14*
%TO.P,U,4*%
%TO.N,GND*%
X162000000Y-58500000D03*
%TO.P,U,1*%
%TO.N,N/C*%
X141000000Y-109500000D03*
%TO.P,U,2*%
%TO.N,GND*%
X162000000Y-109500000D03*
%TO.P,U,3*%
%TO.N,N/C*%
X141000000Y-58500000D03*
%TD*%
%TO.P,U,1*%
%TO.N,N/C*%
X217500000Y-119000000D03*
%TO.P,U,2*%
%TO.N,GND*%
X217500000Y-98000000D03*
%TO.P,U,3*%
%TO.N,N/C*%
X166500000Y-119000000D03*
%TO.P,U,4*%
%TO.N,GND*%
X166500000Y-98000000D03*
%TD*%
D11*
%TO.P,REF\u002A\u002A,2*%
%TO.N,GND*%
X84000000Y-114400000D03*
D15*
%TO.P,REF\u002A\u002A,1*%
%TO.N,N/C*%
X84000000Y-121600000D03*
%TD*%
D16*
%TO.P,REF\u002A\u002A,1*%
%TO.N,N/C*%
X147600000Y-155500000D03*
D11*
%TO.P,REF\u002A\u002A,2*%
%TO.N,GND*%
X140400000Y-155500000D03*
%TD*%
D14*
%TO.P,U,1*%
%TO.N,N/C*%
X217500000Y-144000000D03*
%TO.P,U,2*%
%TO.N,GND*%
X217500000Y-123000000D03*
%TO.P,U,3*%
%TO.N,N/C*%
X166500000Y-144000000D03*
%TO.P,U,4*%
%TO.N,GND*%
X166500000Y-123000000D03*
%TD*%
%TO.P,U,1*%
%TO.N,N/C*%
X217500000Y-43500000D03*
%TO.P,U,2*%
%TO.N,GND*%
X217500000Y-22500000D03*
%TO.P,U,3*%
%TO.N,N/C*%
X166500000Y-43500000D03*
%TO.P,U,4*%
%TO.N,GND*%
X166500000Y-22500000D03*
%TD*%
D15*
%TO.P,REF\u002A\u002A,1*%
%TO.N,N/C*%
X84500000Y-40600000D03*
D11*
%TO.P,REF\u002A\u002A,2*%
%TO.N,GND*%
X84500000Y-33400000D03*
%TD*%
D17*
%TO.N,*%
X162500000Y-54500000D03*
X171500000Y-54500000D03*
D18*
X113500000Y-129000000D03*
X143500000Y-135000000D03*
X153500000Y-136000000D03*
%TD*%
D19*
%TO.N,*%
X120000000Y-23000000D02*
X113000000Y-23000000D01*
X166500000Y-68500000D02*
X166500000Y-53000000D01*
X166500000Y-53000000D02*
X142000000Y-28500000D01*
X142000000Y-28500000D02*
X132000000Y-28500000D01*
X132000000Y-28500000D02*
X126500000Y-23000000D01*
X126500000Y-23000000D02*
X120000000Y-23000000D01*
X113900000Y-140600000D02*
X90800000Y-140600000D01*
X90800000Y-140600000D02*
X83900000Y-147500000D01*
X119500000Y-135000000D02*
X113900000Y-140600000D01*
X113900000Y-140600000D02*
X113900000Y-147500000D01*
X119500000Y-54500000D02*
X114000000Y-54500000D01*
X114000000Y-54500000D02*
X88400000Y-80100000D01*
D20*
X88400000Y-80100000D02*
X84500000Y-80100000D01*
D19*
X114000000Y-54500000D02*
X92000000Y-54500000D01*
X92000000Y-54500000D02*
X84500000Y-47000000D01*
X84500000Y-47000000D02*
X84500000Y-40600000D01*
X141000000Y-58500000D02*
X115000000Y-58500000D01*
X100000000Y-105600000D02*
X84000000Y-121600000D01*
X115000000Y-58500000D02*
X100000000Y-73500000D01*
X100000000Y-73500000D02*
X100000000Y-105600000D01*
X112500000Y-47500000D02*
X119500000Y-54500000D01*
X112500000Y-30000000D02*
X137000000Y-54500000D01*
D20*
X120000000Y-23000000D02*
X117750000Y-20750000D01*
X117750000Y-20750000D02*
X117750000Y-19200000D01*
X113000000Y-23000000D02*
X112550000Y-23000000D01*
X112550000Y-23000000D02*
X108750000Y-19200000D01*
D19*
X113000000Y-23000000D02*
X104000000Y-23000000D01*
D20*
X104000000Y-23000000D02*
X103550000Y-23000000D01*
X103550000Y-23000000D02*
X99750000Y-19200000D01*
X94500000Y-22950000D02*
X90750000Y-19200000D01*
D19*
X104000000Y-23000000D02*
X94500000Y-23000000D01*
D20*
X94500000Y-23000000D02*
X94500000Y-22950000D01*
D19*
X159500000Y-24000000D02*
X157500000Y-24000000D01*
D20*
X157500000Y-24000000D02*
X154750000Y-21250000D01*
X154750000Y-21250000D02*
X154750000Y-19200000D01*
D19*
X157500000Y-24000000D02*
X149500000Y-24000000D01*
D20*
X149500000Y-24000000D02*
X145750000Y-20250000D01*
X145750000Y-20250000D02*
X145750000Y-19200000D01*
D19*
X149500000Y-24000000D02*
X142000000Y-24000000D01*
D20*
X142000000Y-24000000D02*
X141550000Y-24000000D01*
X141550000Y-24000000D02*
X136750000Y-19200000D01*
D19*
X166500000Y-43500000D02*
X166500000Y-31000000D01*
X166500000Y-31000000D02*
X159500000Y-24000000D01*
D20*
X132550000Y-24000000D02*
X127750000Y-19200000D01*
D19*
X142000000Y-24000000D02*
X132550000Y-24000000D01*
X166500000Y-144000000D02*
X161500000Y-144000000D01*
X134900000Y-93500000D02*
X112400000Y-71000000D01*
X200000000Y-54500000D02*
X210500000Y-65000000D01*
X157000000Y-119000000D02*
X166500000Y-119000000D01*
X112900000Y-100000000D02*
X119900000Y-107000000D01*
X210500000Y-148000000D02*
X210500000Y-122500000D01*
X147600000Y-155500000D02*
X156500000Y-155500000D01*
D20*
X84600000Y-40600000D02*
X84500000Y-40600000D01*
D19*
X141000000Y-128000000D02*
X160000000Y-147000000D01*
X119900000Y-107000000D02*
X145000000Y-107000000D01*
D21*
X216500000Y-68500000D02*
X217500000Y-68500000D01*
D19*
X217500000Y-144000000D02*
X214500000Y-144000000D01*
X161500000Y-144000000D02*
X153500000Y-136000000D01*
X210500000Y-47500000D02*
X210500000Y-65000000D01*
X171500000Y-54500000D02*
X200000000Y-54500000D01*
X119500000Y-135000000D02*
X113500000Y-129000000D01*
X203000000Y-155500000D02*
X210500000Y-148000000D01*
X217500000Y-93500000D02*
X215000000Y-93500000D01*
X215000000Y-93500000D02*
X210500000Y-98000000D01*
X143500000Y-135000000D02*
X119500000Y-135000000D01*
X210500000Y-122500000D02*
X210500000Y-98000000D01*
X166500000Y-93500000D02*
X134900000Y-93500000D01*
X210500000Y-65000000D02*
X210500000Y-74500000D01*
X214500000Y-144000000D02*
X210500000Y-148000000D01*
X157000000Y-155500000D02*
X203000000Y-155500000D01*
X141000000Y-109500000D02*
X141000000Y-128000000D01*
X210500000Y-98000000D02*
X210500000Y-74500000D01*
X145000000Y-107000000D02*
X157000000Y-119000000D01*
X217500000Y-119000000D02*
X214000000Y-119000000D01*
X160000000Y-152000000D02*
X156500000Y-155500000D01*
X210500000Y-74500000D02*
X216500000Y-68500000D01*
X137000000Y-54500000D02*
X162500000Y-54500000D01*
X160000000Y-147000000D02*
X160000000Y-152000000D01*
X217500000Y-43500000D02*
X214500000Y-43500000D01*
D21*
X156500000Y-155500000D02*
X157000000Y-155500000D01*
D19*
X119500000Y-54500000D02*
X137000000Y-54500000D01*
X214000000Y-119000000D02*
X210500000Y-122500000D01*
X214500000Y-43500000D02*
X210500000Y-47500000D01*
%TD*%
M02*
